<svg width="661" height="504" viewBox="0 0 661 504" fill="none" xmlns="http://www.w3.org/2000/svg">
<g filter="url(#filter0_d)">
<rect x="4" width="653" height="496" rx="50" fill="#0E151B" fill-opacity="0.9"/>
</g>
<g clip-path="">
<path d="M382.25 387C392.324 387 400.5 378.936 400.5 369V351H382.25C372.176 351 364 359.064 364 369C364 378.936 372.176 387 382.25 387Z" fill="#0ACF83"/>
<path d="M364 333C364 323.064 372.176 315 382.25 315H400.5V351H382.25C372.176 351 364 342.936 364 333Z" fill="#A259FF"/>
<path d="M364 297C364 287.064 372.176 279 382.25 279H400.5V315H382.25C372.176 315 364 306.936 364 297Z" fill="#F24E1E"/>
<path d="M400.5 279H418.75C428.824 279 437 287.064 437 297C437 306.936 428.824 315 418.75 315H400.5V279Z" fill="#FF7262"/>
<path d="M437 333C437 342.936 428.824 351 418.75 351C408.676 351 400.5 342.936 400.5 333C400.5 323.064 408.676 315 418.75 315C428.824 315 437 323.064 437 333Z" fill="#1ABCFE"/>
</g>
<path d="M563.398 322.493C562.344 322.133 561.282 321.798 560.211 321.491C560.391 320.758 560.557 320.033 560.703 319.322C563.116 307.634 561.539 298.219 556.152 295.118C550.988 292.147 542.541 295.245 534.011 302.655C533.17 303.386 532.348 304.139 531.546 304.912C531.008 304.398 530.462 303.894 529.906 303.4C520.965 295.478 512.004 292.139 506.624 295.248C501.464 298.229 499.936 307.08 502.107 318.157C502.324 319.254 502.567 320.345 502.839 321.43C501.571 321.789 500.347 322.172 499.175 322.58C488.694 326.227 482 331.943 482 337.872C482 343.995 489.186 350.137 500.103 353.861C500.988 354.162 501.881 354.44 502.78 354.697C502.488 355.865 502.228 357.041 502.002 358.224C499.932 369.108 501.549 377.75 506.695 380.712C512.01 383.772 520.931 380.627 529.617 373.049C530.321 372.433 531.01 371.799 531.683 371.149C532.552 371.986 533.444 372.799 534.359 373.586C542.773 380.812 551.083 383.73 556.224 380.759C561.534 377.691 563.26 368.407 561.019 357.112C560.843 356.227 560.645 355.347 560.425 354.471C561.052 354.286 561.667 354.095 562.266 353.897C573.616 350.144 581 344.077 581 337.872C581 331.921 574.09 326.167 563.398 322.493V322.493ZM560.936 349.891C560.395 350.069 559.84 350.242 559.273 350.41C558.02 346.451 556.33 342.242 554.26 337.892C556.235 333.647 557.861 329.491 559.078 325.558C560.091 325.851 561.074 326.159 562.021 326.484C571.183 329.632 576.771 334.286 576.771 337.872C576.771 341.691 570.736 346.65 560.936 349.891V349.891ZM556.87 357.932C557.861 362.926 558.002 367.442 557.346 370.973C556.757 374.145 555.571 376.259 554.104 377.107C550.985 378.909 544.313 376.566 537.117 370.386C536.266 369.654 535.436 368.899 534.628 368.121C537.418 365.076 540.205 361.536 542.926 357.605C547.712 357.181 552.234 356.488 556.334 355.542C556.536 356.355 556.716 357.152 556.87 357.932V357.932ZM515.751 376.795C512.703 377.869 510.275 377.9 508.808 377.056C505.685 375.258 504.387 368.319 506.158 359.011C506.368 357.911 506.609 356.817 506.88 355.731C510.935 356.626 515.424 357.27 520.221 357.658C522.961 361.505 525.829 365.041 528.72 368.137C528.106 368.731 527.477 369.309 526.834 369.871C522.993 373.222 519.144 375.599 515.751 376.795V376.795ZM501.471 349.867C496.644 348.22 492.657 346.08 489.925 343.745C487.469 341.646 486.23 339.562 486.23 337.872C486.23 334.274 491.604 329.685 500.568 326.566C501.655 326.187 502.794 325.83 503.975 325.495C505.214 329.517 506.839 333.722 508.8 337.974C506.814 342.29 505.166 346.562 503.915 350.631C503.094 350.396 502.279 350.142 501.471 349.867V349.867ZM506.258 317.346C504.398 307.856 505.633 300.698 508.743 298.901C512.055 296.987 519.378 299.716 527.098 306.557C527.601 307.004 528.096 307.46 528.583 307.925C525.707 311.007 522.865 314.517 520.149 318.341C515.493 318.772 511.036 319.464 506.939 320.39C506.686 319.381 506.459 318.366 506.258 317.346V317.346ZM548.962 327.87C547.994 326.202 546.991 324.554 545.952 322.929C549.11 323.327 552.137 323.857 554.979 324.504C554.126 327.233 553.062 330.086 551.81 333.012C550.895 331.279 549.946 329.565 548.962 327.87V327.87ZM531.548 310.941C533.498 313.051 535.452 315.406 537.373 317.961C533.475 317.777 529.571 317.776 525.673 317.958C527.596 315.427 529.566 313.075 531.548 310.941ZM514.021 327.899C513.05 329.58 512.118 331.284 511.226 333.009C509.995 330.093 508.941 327.227 508.081 324.459C510.905 323.828 513.917 323.312 517.056 322.921C516.006 324.556 514.994 326.216 514.021 327.899V327.899ZM517.146 353.123C513.904 352.762 510.846 352.273 508.022 351.659C508.896 348.841 509.973 345.914 511.231 342.936C512.126 344.662 513.062 346.367 514.038 348.049C515.041 349.778 516.08 351.471 517.146 353.123ZM531.664 365.099C529.66 362.941 527.66 360.553 525.708 357.985C527.603 358.059 529.536 358.097 531.5 358.097C533.518 358.097 535.513 358.052 537.476 357.964C535.548 360.579 533.602 362.97 531.664 365.099ZM551.85 342.784C553.174 345.794 554.289 348.707 555.175 351.476C552.304 352.13 549.205 352.656 545.94 353.047C546.986 351.392 547.999 349.715 548.979 348.02C549.975 346.296 550.932 344.55 551.85 342.784V342.784ZM545.316 345.911C543.816 348.511 542.232 351.061 540.566 353.559C537.549 353.772 534.525 353.878 531.5 353.876C528.419 353.876 525.422 353.78 522.537 353.594C520.827 351.102 519.213 348.547 517.698 345.934H517.698C516.189 343.334 514.78 340.679 513.474 337.973C514.777 335.266 516.182 332.609 517.685 330.007L517.685 330.008C519.188 327.406 520.789 324.861 522.485 322.381C525.429 322.158 528.448 322.043 531.5 322.043H531.5C534.565 322.043 537.588 322.16 540.531 322.383C542.211 324.86 543.802 327.396 545.302 329.985C546.81 332.581 548.233 335.225 549.569 337.913C548.247 340.628 546.828 343.296 545.316 345.911V345.911ZM554.04 298.775C557.355 300.683 558.644 308.378 556.561 318.469C556.428 319.113 556.279 319.769 556.117 320.434C552.009 319.488 547.549 318.784 542.879 318.347C540.159 314.48 537.34 310.965 534.511 307.922C535.252 307.209 536.011 306.514 536.788 305.838C544.097 299.49 550.928 296.984 554.04 298.775V298.775ZM531.5 329.049C536.382 329.049 540.34 332.999 540.34 337.872C540.34 342.745 536.382 346.695 531.5 346.695C526.618 346.695 522.66 342.745 522.66 337.872C522.66 332.999 526.618 329.049 531.5 329.049V329.049Z" fill="#00D8FF"/>
<path d="M150.981 299.921C142.59 291.589 131.435 287 119.534 287C95.0031 287.016 75.0316 306.864 75.0139 331.24L75 338.73L80.8611 334.763C84.8481 332.065 89.4656 330.639 94.217 330.639C95.6351 330.639 97.0671 330.767 98.4724 331.022C102.902 331.823 106.873 333.815 110.089 336.809C110.826 335.196 111.693 333.629 112.717 332.135C113.136 331.526 113.578 330.933 114.04 330.356C109.989 326.958 105.123 324.672 99.8119 323.711C97.9627 323.377 96.0871 323.208 94.2077 323.207C90.3667 323.203 86.559 323.914 82.9818 325.303C85.8882 307.616 101.355 294.444 119.566 294.431C129.436 294.431 138.714 298.247 145.692 305.175C151.258 310.703 154.819 317.617 156.048 325.243C152.457 323.85 148.673 323.137 144.783 323.122L144.237 323.119C143.843 323.125 143.449 323.137 143.055 323.157C142.375 323.192 141.7 323.253 141.031 323.33C140.832 323.352 140.635 323.383 140.438 323.41C139.959 323.474 139.482 323.546 139.009 323.63C138.8 323.668 138.591 323.71 138.384 323.752C137.904 323.848 137.428 323.956 136.953 324.075C136.782 324.119 136.612 324.159 136.442 324.204C135.847 324.364 135.257 324.541 134.673 324.735C134.638 324.748 134.602 324.757 134.567 324.769C133.25 325.216 131.966 325.752 130.723 326.374C130.689 326.391 130.656 326.409 130.621 326.426C130.042 326.719 129.472 327.03 128.913 327.359L128.775 327.441C125.825 329.198 123.202 331.447 121.022 334.089C120.931 334.199 120.84 334.308 120.749 334.42C120.271 335.015 119.804 335.625 119.367 336.262C118.915 336.926 118.49 337.608 118.09 338.304C117.785 338.829 117.496 339.363 117.222 339.906C117.207 339.937 117.192 339.966 117.176 339.997C116.55 341.256 116.011 342.557 115.564 343.889L115.563 343.892V343.894C114.468 347.155 113.938 350.578 113.996 354.016C113.998 354.153 113.998 354.29 114.003 354.427C114.01 354.695 114.023 354.965 114.039 355.234C114.063 355.676 114.097 356.118 114.139 356.558C114.166 356.836 114.2 357.113 114.235 357.39C114.257 357.567 114.276 357.745 114.303 357.92C114.368 358.383 114.445 358.845 114.531 359.305C116.04 367.225 120.532 374.131 127.183 378.751L128.033 379.291L128.04 379.274C131.843 381.724 136.144 383.31 140.636 383.919L141.243 384L145.754 376.81L144.132 376.766C131.652 376.426 121.5 366.061 121.5 353.66C121.5 341.454 131.103 331.318 143.359 330.584L144.134 330.554C149.103 330.429 153.998 331.887 158.153 334.697L163.987 338.641L164 331.189C164.009 319.373 159.386 308.268 150.981 299.921" fill="#E0225C"/>
<path d="M531.245 124.932L497.869 138.551C496.013 139.309 496.032 141.908 497.9 142.639L531.415 155.745C534.36 156.897 537.64 156.897 540.584 155.745L574.101 142.638C575.968 141.908 575.987 139.309 574.131 138.551L540.755 124.932C537.71 123.689 534.29 123.689 531.245 124.932" fill="#FFBF00"/>
<path d="M539.293 163.56V196.762C539.293 198.341 540.88 199.422 542.345 198.841L579.592 184.345C580.007 184.179 580.364 183.893 580.615 183.522C580.866 183.152 581 182.714 581 182.266V149.064C581 147.485 579.412 146.404 577.948 146.986L540.7 161.481C540.285 161.647 539.929 161.933 539.678 162.304C539.427 162.674 539.292 163.112 539.292 163.56" fill="#26B5F8"/>
<path d="M530.352 165.253L519.164 170.639L518.028 171.186L494.408 182.47C492.911 183.19 491 182.102 491 180.444V149.078C491 148.478 491.309 147.96 491.723 147.569C491.892 147.401 492.085 147.257 492.294 147.142C492.858 146.805 493.664 146.714 494.348 146.985L530.164 161.133C531.985 161.853 532.128 164.397 530.352 165.252" fill="#ED3049"/>
<path d="M530.365 165.33L519.281 170.739L492.098 147.573C492.266 147.404 492.456 147.259 492.664 147.144C493.223 146.805 494.02 146.714 494.699 146.985L530.178 161.194C531.981 161.917 532.123 164.471 530.364 165.33" fill="black" fill-opacity="0.25"/>
<path d="M319.429 314.668C319.378 314.276 319.318 313.884 319.237 313.501C319.164 313.098 319.071 312.699 318.958 312.306L318.658 311.831C317.423 310.862 316.09 310.13 314.736 309.483C313.619 308.956 312.484 308.497 311.336 308.074C308.136 299.206 302.635 291.343 295.403 285.864C287.927 280.201 279.134 277.203 269.977 277.203C260.819 277.203 252.026 280.201 244.551 285.864C237.318 291.343 231.816 299.206 228.617 308.076C227.471 308.498 226.334 308.958 225.219 309.483C223.863 310.13 222.531 310.862 221.295 311.831L220.994 312.306C220.887 312.701 220.794 313.099 220.716 313.501C220.638 313.885 220.58 314.276 220.524 314.667C220.414 315.443 220.339 316.224 220.299 317.006C220.219 318.573 220.266 320.143 220.438 321.702C220.605 323.266 220.896 324.813 221.308 326.33C221.525 327.094 221.777 327.847 222.066 328.586C222.211 328.959 222.369 329.33 222.545 329.7C222.632 329.884 222.727 330.064 222.824 330.252C223.038 330.628 223.078 330.701 223.168 330.835L223.574 331.208C223.838 331.344 224.057 331.447 224.296 331.56L224.995 331.873C225.125 331.926 225.246 331.979 225.379 332.032C222.204 334.962 218.756 338.77 215.771 343.475L212 349.415L217.293 344.775C217.383 344.697 221.822 340.86 229.224 336.514L229.328 337.363C228.843 337.615 226.516 338.834 225.824 339.412C224.677 340.363 224.622 341.839 224.929 344.592C225.086 346.003 225.616 348.742 226.331 351.253C227.562 355.575 228.464 356.339 229.256 356.518C229.614 356.604 230.075 356.643 230.594 356.643C232.012 356.643 233.828 356.368 235.013 356.01C236.403 360.327 238.372 364.223 240.772 367.643C240.656 367.674 240.542 367.712 240.426 367.745C238.982 367.076 233.934 364.741 232.237 363.979L228.691 362.385L230.789 365.655C230.941 365.891 234.561 371.527 237.517 375.326C240.281 378.869 244.066 382.496 251.209 382.496C252.068 382.496 252.968 382.44 253.895 382.338C256.024 382.094 257.625 381.902 258.842 381.746C266.339 384.497 274.607 384.667 282.452 381.698C284.507 380.918 286.483 379.943 288.352 378.788C291.377 378.063 294.686 377.276 296.32 376.817C296.582 376.746 296.91 376.668 297.252 376.588C299.529 376.065 303.335 375.183 305.364 371.129C307.41 367.039 310.744 360.772 310.78 360.708L312.339 357.785L309.3 359.104C309.138 359.177 305.288 360.851 303.288 361.898C304.678 358.703 305.496 356.059 305.782 355.043C306.902 355.313 308.562 355.278 309.783 355.278C310.384 355.278 311.001 355.174 311.402 355.072C312.196 354.87 312.809 354.344 313.962 349.884C314.633 347.292 315.114 344.47 315.246 343.019C315.502 340.196 315.419 338.683 314.265 337.728C313.69 337.253 312.003 336.346 311.144 335.899C311.625 335.694 311.86 335.754 311.878 335.76L312.657 332.809C312.931 332.692 313.222 332.575 313.552 332.448C314.022 332.261 314.492 332.076 314.963 331.873L315.658 331.56C315.9 331.447 316.118 331.344 316.383 331.208L316.789 330.835C316.876 330.701 316.924 330.628 316.977 330.526C317.235 330.064 317.325 329.884 317.411 329.7C317.587 329.329 317.743 328.959 317.891 328.585C318.179 327.846 318.431 327.094 318.647 326.33C319.059 324.813 319.351 323.265 319.519 321.702C319.694 320.143 319.733 318.573 319.654 317.006C319.616 316.223 319.541 315.443 319.429 314.667V314.668Z" fill="#0E0F0D"/>
<path d="M274.887 375.419C274.314 375.505 273.74 375.575 273.173 375.621C272.804 375.639 272.416 375.675 272.063 375.675L271.932 375.679C272.375 374.693 272.711 373.926 272.965 373.346C273.484 373.926 274.144 374.644 274.887 375.419Z" fill="#E1C5A2"/>
<path d="M274.191 331.344C273.294 332.071 272.349 332.748 271.365 333.342L268.082 335.32C266.023 335.571 264.236 336.079 264.134 336.11C264.074 336.122 264.018 336.151 263.965 336.183C263.802 336.279 263.681 336.431 263.625 336.612L260.282 347.611L242.412 351.579L236.782 347.642L235.146 334.398C238.343 333.811 242.617 333.135 247.751 332.559C247.192 333.227 246.661 333.918 246.161 334.631L243.104 339.012L247.555 336.049C247.623 336.003 250.455 334.141 255.092 331.875C260.142 331.497 265.206 331.308 270.27 331.307C271.604 331.307 272.909 331.323 274.191 331.345V331.344ZM246.377 346.265C247.647 345.58 249.081 345.68 251.327 345.686C251.566 345.69 251.815 345.687 252.073 345.68C252.295 345.68 252.516 345.676 252.751 345.669C255.066 345.646 256.988 345.865 256.953 342.24C256.919 338.614 255.305 335.681 252.992 335.704C250.68 335.725 248.442 338.696 248.58 342.32C248.617 343.264 248.757 343.946 248.979 344.436C246.964 344.942 246.406 346.187 246.376 346.265H246.377Z" fill="#A89983"/>
<path d="M305.163 334.355L303.554 345.616L297.878 349.585L280.032 347.56L276.702 336.611C276.666 336.492 276.6 336.383 276.511 336.296C276.422 336.208 276.313 336.144 276.193 336.11C276.083 336.076 273.874 335.446 271.531 335.243L271.96 335.215C272.329 335.187 278.483 334.435 285.835 331.906C293.972 332.529 300.62 333.526 305.163 334.355H305.163ZM293.761 344.779C293.737 344.691 293.248 343.234 291.1 343.49C291.346 342.951 291.457 342.223 291.379 341.225C291.096 337.606 288.985 334.73 286.675 334.812C284.363 334.892 282.883 337.891 283.011 341.522C283.139 345.144 285.077 345.119 287.39 345.037C290.495 344.978 292.201 344.026 293.761 344.779V344.779Z" fill="#A89983"/>
<path d="M287.655 338.264C287.661 338.577 287.542 338.879 287.324 339.104C287.107 339.329 286.809 339.459 286.496 339.465C286.341 339.468 286.187 339.44 286.042 339.383C285.898 339.326 285.766 339.242 285.655 339.134C285.543 339.027 285.454 338.898 285.392 338.756C285.33 338.614 285.297 338.461 285.295 338.306C285.292 338.152 285.319 337.998 285.376 337.854C285.432 337.709 285.517 337.578 285.624 337.466C285.732 337.355 285.86 337.266 286.002 337.204C286.144 337.142 286.297 337.109 286.452 337.106C286.608 337.102 286.762 337.13 286.907 337.186C287.051 337.243 287.183 337.327 287.295 337.435C287.407 337.543 287.496 337.671 287.558 337.814C287.62 337.956 287.653 338.109 287.655 338.264" fill="white"/>
<path d="M254.53 339.132C254.538 339.444 254.422 339.746 254.207 339.973C253.991 340.2 253.695 340.332 253.382 340.341C253.227 340.345 253.072 340.319 252.926 340.264C252.781 340.209 252.648 340.125 252.535 340.019C252.422 339.912 252.331 339.784 252.268 339.642C252.204 339.5 252.169 339.347 252.165 339.192C252.161 339.037 252.188 338.883 252.244 338.738C252.3 338.593 252.383 338.461 252.49 338.349C252.598 338.236 252.726 338.146 252.868 338.083C253.01 338.021 253.163 337.986 253.318 337.983C253.631 337.975 253.935 338.091 254.162 338.307C254.39 338.522 254.522 338.819 254.53 339.132" fill="white"/>
<path d="M312.953 339.309C312.674 339.079 311.742 338.547 310.834 338.057L309.338 348.525C309.322 348.626 309.286 348.723 309.232 348.809C309.179 348.896 309.108 348.971 309.024 349.03L306.884 350.525C306.833 350.778 306.794 350.989 306.756 351.186C308.858 351.703 310.901 350.189 312.047 349.097C312.578 347.035 313.04 344.586 313.199 342.834C313.443 340.117 313.227 339.534 312.953 339.309" fill="#E1C5A2"/>
<path d="M279.902 379.079C278.513 378.586 277.24 377.781 276.132 376.687C276.04 376.594 275.952 376.503 275.86 376.411C274.993 376.588 274.116 376.713 273.234 376.788C272.858 376.805 272.499 376.837 272.107 376.837L271.526 376.842L271.302 376.837C269.975 378.805 267.744 379.887 265.996 380.462C271.189 381.352 276.904 379.991 279.902 379.079" fill="#E1C5A2"/>
<path d="M234.184 353.441C234.138 353.283 234.089 353.127 234.044 352.969L231.264 351.026C231.178 350.965 231.106 350.887 231.052 350.798C230.998 350.708 230.963 350.608 230.95 350.504L229.595 339.511C228.592 340.046 227.432 340.706 227.124 340.964C226.855 341.185 226.651 341.749 226.94 344.368C227.161 346.337 227.853 349.362 228.561 351.629C229.969 352.704 232.042 353.837 234.184 353.441" fill="#E1C5A2"/>
<path d="M275.746 352.94C275.601 352.923 275.463 352.864 275.351 352.77C275.239 352.677 275.156 352.552 275.114 352.412L271.684 341.122C271.108 341.047 270.598 341.005 270.167 341.005C269.734 341.005 269.226 341.047 268.651 341.122L265.316 352.087C265.277 352.213 265.205 352.327 265.108 352.417C265.011 352.507 264.892 352.569 264.762 352.598L263.168 352.952C263.033 353.515 262.574 354.34 261.095 354.792C258.709 355.519 243.604 360.015 241.881 359.77C240.875 359.63 238.962 358.575 237.546 357.723C236.98 356.391 236.666 355.486 236.595 355.271V355.267L236.59 355.271C236.791 355.856 238.762 361.521 242.767 367.063C247.06 365.799 250.768 364.622 251.954 364.247C254.369 360.528 257.81 356.838 260.253 356.712C260.684 356.691 261.115 356.679 261.546 356.679C262.743 356.679 263.886 356.763 264.947 356.889C264.046 356.072 263.861 355.117 263.73 354.693C263.73 354.693 266.851 357.13 270.82 356.618C274.796 356.11 277.262 353.823 277.262 353.823L277.34 353.12L275.746 352.94" fill="#E1C5A2"/>
<path d="M278.973 354.369C278.149 354.156 277.631 353.817 277.302 353.463L277.261 353.823C277.261 353.823 277.248 355.49 275.519 356.78C278.848 355.774 280.225 355.432 281.168 355.432C282.205 355.432 282.718 355.865 283.168 356.245C283.254 356.316 283.339 356.39 283.441 356.47C285.626 358.188 287.805 359.912 289.979 361.643C291.021 361.763 294.329 362.141 296.411 362.33C297.609 362.442 298.695 362.532 299.758 362.532C300.099 362.532 300.421 362.52 300.726 362.5C301.824 360.4 302.835 358.078 303.734 355.518C302.503 356.38 299.698 358.267 298.384 358.51C296.674 358.83 281.384 354.993 278.973 354.369" fill="#E1C5A2"/>
<path d="M317.449 314.889C317.42 314.528 317.382 314.168 317.337 313.809C317.307 313.552 317.268 313.297 317.222 313.043C316.257 312.232 315.159 311.509 314.016 310.855C312.779 310.13 311.483 309.485 310.16 308.885C308.849 308.266 307.499 307.706 306.144 307.16C305.467 306.884 304.785 306.619 304.098 306.366C303.415 306.099 302.726 305.851 302.034 305.599C303.484 305.84 304.922 306.171 306.35 306.537C307.278 306.774 308.201 307.043 309.117 307.331C302.593 290.309 287.002 279.226 269.977 279.226C252.949 279.226 237.359 290.31 230.839 307.331C231.755 307.043 232.68 306.774 233.604 306.537C235.03 306.171 236.469 305.84 237.922 305.6C237.226 305.851 236.538 306.099 235.851 306.367C235.166 306.621 234.485 306.885 233.809 307.16C232.453 307.706 231.106 308.266 229.79 308.885C228.472 309.485 227.177 310.13 225.938 310.855C224.795 311.509 223.699 312.232 222.731 313.043C222.689 313.297 222.651 313.553 222.617 313.809C222.574 314.168 222.536 314.528 222.503 314.889C222.443 315.615 222.412 316.343 222.41 317.072C222.395 318.53 222.494 319.99 222.678 321.432C222.879 322.879 223.144 324.318 223.537 325.709C223.727 326.401 223.95 327.084 224.205 327.755C224.334 328.086 224.472 328.415 224.618 328.732C224.689 328.89 224.763 329.047 224.839 329.196L224.933 329.373C225.04 329.427 225.152 329.484 225.258 329.535L225.906 329.843C226.268 330.009 226.769 330.246 227.183 330.431C227.206 330.41 227.229 330.389 227.248 330.369L226.045 325.792C226.3 325.723 228.585 325.133 232.523 324.383C232.204 324.324 231.887 324.256 231.571 324.181C230.674 323.957 229.789 323.685 228.931 323.34C228.506 323.16 228.087 322.965 227.688 322.739C227.29 322.509 226.898 322.251 226.593 321.906C230.918 323.317 239.859 322.679 247.807 321.858C255.074 321.109 262.363 320.626 269.686 320.61C277.008 320.626 284.299 321.109 291.562 321.858C299.513 322.679 308.454 323.317 312.779 321.906C312.477 322.251 312.083 322.509 311.687 322.739C311.285 322.965 310.865 323.16 310.441 323.34C309.583 323.685 308.701 323.957 307.804 324.181C307.67 324.212 307.536 324.24 307.403 324.27C311.723 325.07 314.236 325.72 314.503 325.791L313.353 330.151C313.587 330.05 313.821 329.949 314.047 329.843L314.696 329.534C314.803 329.483 314.914 329.426 315.024 329.373L315.111 329.196C315.19 329.046 315.266 328.89 315.337 328.731C315.482 328.415 315.621 328.086 315.748 327.754C316.002 327.083 316.225 326.4 316.417 325.709C316.81 324.317 317.076 322.879 317.274 321.431C317.461 319.989 317.56 318.53 317.547 317.071C317.545 316.343 317.512 315.614 317.45 314.889" fill="#E0D896"/>
<path d="M287.89 306.422C287.956 308.369 287.909 311.902 287 315.209C286.963 315.335 286.968 315.467 287 315.589C285.844 315.468 284.687 315.361 283.528 315.269C284.826 312.552 285.11 309.658 285.173 308.639C286.17 307.932 287.162 307.082 287.89 306.422" fill="#D7C184"/>
<path d="M254.784 308.639C254.845 309.658 255.128 312.545 256.425 315.262C255.268 315.353 254.111 315.46 252.956 315.582C252.987 315.465 252.99 315.335 252.956 315.209C252.049 311.908 252.001 308.374 252.064 306.422C252.795 307.082 253.784 307.932 254.784 308.639Z" fill="#D7C184"/>
<path d="M302.102 318.286C302.096 318.319 302.088 318.351 302.078 318.383C302.205 318.419 302.329 318.457 302.456 318.498C303.526 318.848 304.597 319.214 305.62 319.686C303.912 318.578 302.829 315.382 302.226 312.938C302.392 316.137 302.117 318.165 302.102 318.286Z" fill="#D7C184"/>
<path d="M250.64 305.807L239.593 308.944C238.932 313.235 239.133 316.511 239.24 317.648L239.296 317.615C239.296 317.615 239.656 312.941 240.389 311.147C240.767 310.227 243.08 309.639 244.842 309.218C246.609 308.8 249.426 307.96 249.973 310.436C250.31 311.967 250.775 313.239 251.22 314.178C250.511 310.775 250.556 307.448 250.64 305.807" fill="#D7C184"/>
<path d="M289.313 305.807C289.403 307.512 289.445 311.037 288.644 314.576C289.146 313.614 289.703 312.196 290.092 310.436C290.638 307.96 293.455 308.8 295.221 309.219C296.987 309.64 299.297 310.227 299.675 311.147C300.298 312.666 300.649 316.245 300.742 317.31C300.847 315.941 300.964 312.865 300.362 308.944L289.313 305.807" fill="#D7C184"/>
<path d="M254.696 306.762C255.085 307.074 255.486 307.371 255.898 307.651C256.091 307.785 256.209 308.003 256.214 308.238C256.216 308.275 256.299 311.909 257.908 315.004C257.931 315.05 257.947 315.101 257.963 315.149C261.963 314.877 265.975 314.767 269.977 314.765C273.982 314.767 277.991 314.885 281.989 315.158C282.005 315.105 282.02 315.054 282.048 315.004C283.655 311.909 283.741 308.275 283.741 308.238C283.744 308.122 283.774 308.009 283.829 307.907C283.885 307.805 283.963 307.717 284.059 307.651C284.455 307.38 284.841 307.094 285.216 306.793L285.266 306.652C286.103 298.523 284.569 291.031 283.594 287.33C283.542 289.861 282.941 311.547 277.552 311.547H262.678C256.955 311.547 256.495 287.097 256.495 287.097L256.2 287.965C255.224 291.864 253.884 299.03 254.696 306.762" fill="#D7C184"/>
<path d="M237.876 318.381C237.871 318.349 237.863 318.318 237.855 318.286C237.838 318.165 237.562 316.134 237.728 312.933C237.124 315.378 236.038 318.58 234.328 319.687C235.351 319.213 236.426 318.846 237.498 318.496C237.623 318.457 237.751 318.42 237.876 318.381" fill="#D7C184"/>
<path d="M306.756 351.187C306.666 351.668 306.56 352.146 306.44 352.621C307.667 352.907 309.672 353.129 310.631 352.942C311.042 352.496 311.572 350.952 312.048 349.097C310.901 350.189 308.859 351.703 306.756 351.186" fill="#9F8F78"/>
<path d="M262.795 381.169C265.725 381.971 268.718 382.318 271.667 382.123C274.625 381.922 278.465 381.285 282.542 379.632C281.641 379.567 280.753 379.381 279.902 379.079C276.904 379.992 271.19 381.353 265.997 380.463C264.621 380.915 263.544 381.056 263.439 381.069C263.222 381.094 263.042 381.123 262.795 381.17" fill="#9F8F78"/>
<path d="M234.378 354.097C234.31 353.879 234.248 353.66 234.184 353.441C232.042 353.837 229.968 352.704 228.562 351.629C229.017 353.084 229.477 354.228 229.82 354.576C230.881 354.761 233.228 354.436 234.378 354.097" fill="#9F8F78"/>
<path d="M237.546 357.723C238.961 358.575 240.874 359.63 241.88 359.77C243.603 360.015 258.708 355.519 261.094 354.792C262.572 354.34 263.032 353.515 263.167 352.952L241.375 357.797C241.321 357.807 241.266 357.813 241.212 357.814H241.209C241.059 357.814 240.908 357.768 240.78 357.679L239.931 357.087L237.386 355.307V355.303L236.358 354.587C236.376 354.645 236.397 354.703 236.416 354.76C236.474 354.929 236.532 355.1 236.593 355.266V355.27C236.665 355.485 236.979 356.391 237.545 357.722" fill="#9F8F78"/>
<path d="M304.394 353.543C304.533 353.029 304.669 352.509 304.794 351.983L304.037 352.514L302.001 353.938L299.798 355.48C299.685 355.558 299.554 355.605 299.419 355.615C299.374 355.618 299.329 355.617 299.285 355.612L277.34 353.12L277.303 353.462C277.631 353.816 278.15 354.155 278.973 354.368C281.384 354.992 296.674 358.829 298.384 358.509C299.698 358.267 302.504 356.379 303.734 355.517C303.745 355.487 303.755 355.458 303.765 355.428C303.983 354.803 304.192 354.174 304.394 353.542" fill="#9F8F78"/>
<path d="M281.175 324.021C281.002 324.244 280.813 324.489 280.61 324.743C279.568 326.059 278.124 327.736 276.414 329.382C274.367 329.318 272.32 329.286 270.272 329.285C266.793 329.285 263.457 329.377 260.29 329.529C264.767 327.676 270.143 325.865 275.966 324.778C277.691 324.45 279.429 324.197 281.175 324.021" fill="#6E6A67"/>
<path d="M254.982 326.021C253.382 327.143 251.579 328.572 249.83 330.307C245.945 330.695 242.072 331.198 238.218 331.817C243.174 329.544 248.831 327.449 254.982 326.021" fill="#6E6A67"/>
<path d="M309.723 335.258L307.899 347.987L299.169 354.095L276.4 351.51L272.975 340.239C272.934 340.105 272.856 339.985 272.751 339.892C272.645 339.8 272.516 339.739 272.378 339.716C271.535 339.58 270.789 339.514 270.167 339.514C269.542 339.514 268.797 339.58 267.949 339.716C267.811 339.74 267.683 339.802 267.577 339.894C267.472 339.986 267.395 340.105 267.353 340.239L264.011 351.236L241.371 356.266L232.399 349.99L230.628 335.704C231.019 335.487 231.41 335.27 231.801 335.055C232.358 334.935 232.982 334.809 233.674 334.678L235.34 348.159C235.363 348.368 235.481 348.554 235.655 348.675L241.829 352.994C241.953 353.08 242.105 353.128 242.254 353.128C242.309 353.128 242.362 353.121 242.421 353.11L261.035 348.974C261.099 348.959 261.161 348.936 261.22 348.907C261.392 348.814 261.529 348.657 261.585 348.462L264.94 337.442C265.839 337.212 268.142 336.673 270.166 336.673C272.186 336.673 274.489 337.212 275.391 337.442L278.743 348.462C278.828 348.747 279.079 348.955 279.374 348.988L297.991 351.101C298.17 351.122 298.354 351.072 298.502 350.968L304.678 346.657C304.844 346.537 304.959 346.351 304.987 346.148L306.636 334.629C307.874 334.866 308.909 335.083 309.723 335.258" fill="#6E6A67"/>
<path d="M312.021 327.274L310.418 333.344C307.141 332.622 299.943 331.206 290.145 330.252C293.345 328.889 296.605 327.182 299.584 325.043C305.414 325.865 309.695 326.748 312.021 327.274" fill="#6E6A67"/>
<path d="M228.527 327.273L228.973 328.954C230.059 328.09 231.177 327.266 232.325 326.485C230.755 326.786 229.474 327.059 228.527 327.273Z" fill="#6E6A67"/>
<path d="M291.39 323.888C288.936 323.749 286.484 323.632 284.029 323.53C283.754 323.935 283.472 324.334 283.183 324.728C281.867 326.505 279.275 329.744 275.951 332.524C278.452 331.733 288.372 328.409 293.397 324.011C292.728 323.968 292.059 323.927 291.39 323.888" fill="#93232C"/>
<path d="M273.41 323.241L273.421 323.238C272.176 323.222 270.931 323.209 269.688 323.204H269.686C267.855 323.209 266.029 323.232 264.199 323.264L260.824 324.861C260.806 324.868 260.789 324.878 260.774 324.89C260.266 325.136 255.836 327.368 251.664 331.351C252.029 331.159 252.416 330.96 252.815 330.759C255.096 329.228 261.181 325.603 270.643 323.214C271.565 323.219 272.488 323.225 273.41 323.241" fill="#93232C"/>
<path d="M252.671 323.648C251.108 323.72 249.545 323.8 247.984 323.888C246.173 323.989 244.368 324.111 242.565 324.247C241.665 324.316 240.765 324.393 239.873 324.486C239.614 324.512 239.361 324.539 239.107 324.572C236.751 325.978 227.732 331.632 221.535 339.031C221.642 338.903 221.752 338.776 221.861 338.649C233.333 328.876 245.911 325.072 252.671 323.648" fill="#93232C"/>
<path d="M304.571 363.839L304.365 363.945C303.214 364.549 301.707 364.844 299.759 364.844C298.599 364.844 297.461 364.747 296.201 364.634C293.684 364.404 289.423 363.903 289.38 363.895L289.054 363.861L288.796 363.653C288.757 363.628 285.026 360.656 282.01 358.288C281.887 358.189 281.776 358.094 281.675 358.014C281.357 357.743 281.357 357.743 281.167 357.743C280.199 357.743 277.386 358.615 271.226 360.52L270.848 360.641L270.474 360.499C270.432 360.488 266.391 358.992 261.547 358.992C261.151 358.992 260.755 359.002 260.37 359.021C259.885 359.046 257.163 360.337 253.679 365.837L253.456 366.191L253.055 366.32C252.997 366.338 247.004 368.27 240.647 370.085L240.237 370.201L239.845 370.02C239.804 370.006 237.321 368.853 234.956 367.77C235.13 367.851 235.305 367.93 235.48 368.011C237.815 370.024 242.288 373.895 242.784 374.432C242.853 374.509 242.949 374.603 243.063 374.71C242.948 374.579 242.835 374.446 242.726 374.31L242.722 374.306L242.722 374.307C243.753 375.282 244.903 376.125 246.159 376.718C246.786 377.012 247.443 377.24 248.111 377.351C248.448 377.405 248.775 377.433 249.117 377.433C249.462 377.433 249.815 377.423 250.168 377.406C251.565 377.334 252.976 377.227 254.382 377.091C255.787 376.965 257.193 376.824 258.597 376.654C259.999 376.503 261.401 376.327 262.79 376.112C263.487 376.011 264.178 375.896 264.854 375.746C265.186 375.668 265.532 375.582 265.795 375.464C266.035 375.349 266.326 375.119 266.581 374.899C267.105 374.45 267.61 373.951 268.109 373.454C268.611 372.954 269.103 372.445 269.588 371.928C270.411 371.067 271.116 370.153 271.913 369.267C272.015 369.157 272.119 369.04 272.225 368.926C272.225 368.928 272.225 368.928 272.227 368.928L272.236 368.939C272.402 369.058 272.568 369.179 272.731 369.306C273.69 370.02 274.68 370.793 275.635 371.46C276.866 372.324 278.113 373.19 279.403 373.91C279.725 374.089 280.057 374.256 280.375 374.361C280.416 374.377 280.451 374.384 280.483 374.388C280.506 374.403 280.591 374.416 280.601 374.416C280.664 374.425 280.748 374.43 280.829 374.435C281.002 374.437 281.182 374.43 281.362 374.421C282.09 374.371 282.827 374.265 283.566 374.149C285.041 373.92 286.519 373.655 287.989 373.361C289.462 373.079 290.934 372.778 292.396 372.453C293.864 372.141 295.325 371.802 296.78 371.434C297.502 371.24 298.225 371.061 298.869 370.752C299.527 370.447 300.137 370.027 300.7 369.546C301.835 368.581 302.788 367.384 303.581 366.082L303.579 366.086C303.968 365.364 304.3 364.613 304.571 363.839" fill="#93232C"/>
<path d="M277.071 294.616H279.665V289.354H260.697V294.616H263.292V291.943H268.655V308.194H266.447V311.21H273.914V308.194H271.706V291.943H277.071V294.616" fill="#93232C"/>
<path d="M296.696 324.244C296.692 324.241 296.687 324.24 296.681 324.24C295.607 324.159 294.533 324.084 293.458 324.015L293.397 324.011C288.371 328.409 278.451 331.733 275.95 332.524C275.901 332.565 275.854 332.606 275.805 332.647C279.025 332.068 283.834 330.92 288.826 328.713C291.281 327.628 293.78 326.288 296.156 324.631C296.34 324.504 296.518 324.371 296.696 324.244" fill="#731B2A"/>
<path d="M270.643 323.213C261.181 325.602 255.096 329.227 252.814 330.758C254.921 329.687 257.067 328.695 259.247 327.784C259.51 327.674 259.774 327.566 260.037 327.458C260.12 327.425 260.202 327.391 260.285 327.358C260.504 327.269 260.725 327.182 260.948 327.093C261.072 327.045 261.194 326.996 261.319 326.948C261.519 326.87 261.721 326.792 261.924 326.714C262.077 326.657 262.229 326.599 262.383 326.542C262.569 326.47 262.757 326.4 262.947 326.331C263.123 326.266 263.303 326.201 263.48 326.137C263.656 326.073 263.83 326.011 264.007 325.948C264.208 325.877 264.411 325.807 264.615 325.736C264.776 325.681 264.937 325.625 265.099 325.569C265.337 325.489 265.578 325.409 265.82 325.33C265.952 325.286 266.084 325.243 266.217 325.199C266.595 325.077 266.978 324.956 267.362 324.838C268.202 324.581 269.06 324.335 269.932 324.099C271.084 323.785 272.244 323.499 273.411 323.24C272.489 323.225 271.566 323.219 270.643 323.213" fill="#731B2A"/>
<path d="M252.671 323.648C245.911 325.072 233.333 328.876 221.861 338.649C221.752 338.776 221.642 338.902 221.535 339.031C227.367 334.983 237.39 328.965 249.783 325.305C250.182 325.187 250.585 325.072 250.99 324.958C253.084 324.372 255.202 323.871 257.338 323.458C255.783 323.513 254.227 323.577 252.671 323.648" fill="#731B2A"/>
<path d="M306.805 362.759C306.686 362.813 306.568 362.869 306.45 362.925C306.385 362.954 306.323 362.984 306.258 363.013L306.104 363.086L305.87 363.198C305.838 363.214 305.804 363.229 305.77 363.246C305.681 363.288 305.593 363.329 305.507 363.372L305.45 363.401C305.356 363.447 305.262 363.492 305.171 363.537L305.142 363.551C304.94 363.65 304.75 363.746 304.571 363.837C304.299 364.612 303.967 365.364 303.576 366.087L303.58 366.081C303.578 366.084 303.576 366.086 303.575 366.089C302.783 367.387 301.83 368.58 300.699 369.544C300.136 370.025 299.525 370.444 298.868 370.75C298.223 371.059 297.5 371.238 296.779 371.432C295.328 371.797 293.865 372.14 292.394 372.45C290.93 372.775 289.461 373.078 287.988 373.358C286.518 373.654 285.04 373.918 283.564 374.147C282.826 374.263 282.089 374.368 281.361 374.419C281.183 374.429 281.005 374.433 280.828 374.433C280.751 374.429 280.675 374.423 280.599 374.414C280.559 374.41 280.519 374.401 280.482 374.386C280.445 374.382 280.409 374.372 280.374 374.359C280.055 374.255 279.724 374.086 279.401 373.908C278.112 373.187 276.865 372.322 275.633 371.458C274.68 370.79 273.688 370.017 272.729 369.303L272.646 369.422L272.651 369.428C272.711 369.482 272.771 369.532 272.831 369.584L272.826 369.581C272.783 369.548 272.741 369.516 272.7 369.487L273.504 370.444C273.506 370.447 273.537 370.484 273.596 370.553C274.006 371.034 275.722 373.022 277.759 375.04C279.311 376.576 281.182 377.351 283.329 377.351C284.062 377.351 284.832 377.255 285.611 377.07C286.33 376.894 287.114 376.708 287.916 376.514C290.296 375.949 292.932 375.318 294.682 374.864C294.799 374.834 294.912 374.804 295.021 374.775C295.269 374.71 295.493 374.65 295.694 374.595C296.036 374.5 296.381 374.415 296.727 374.34C298.849 373.848 301.752 373.176 303.289 370.099C303.75 369.182 304.215 368.267 304.685 367.354C305.455 365.861 306.231 364.371 307.013 362.884C307.013 362.883 307.014 362.883 307.014 362.883L307.167 362.591L306.805 362.759" fill="#731B2A"/>
<path d="M272.051 369.396L271.913 369.265C271.116 370.152 270.41 371.066 269.588 371.927C269.103 372.444 268.611 372.953 268.109 373.453C267.609 373.95 267.104 374.45 266.581 374.898C266.325 375.118 266.035 375.349 265.795 375.462C265.533 375.58 265.186 375.667 264.854 375.745C264.179 375.895 263.486 376.01 262.79 376.111C261.401 376.326 259.999 376.503 258.597 376.653C257.193 376.823 255.787 376.964 254.382 377.09C252.976 377.226 251.565 377.333 250.168 377.405C249.815 377.421 249.462 377.432 249.117 377.432C248.775 377.432 248.447 377.405 248.111 377.349C247.443 377.239 246.785 377.011 246.159 376.717C244.903 376.124 243.753 375.28 242.722 374.306L242.726 374.309C242.865 374.48 243.018 374.641 243.165 374.804C243.129 374.771 243.096 374.739 243.063 374.708C242.949 374.602 242.853 374.507 242.784 374.43C242.287 373.893 237.814 370.023 235.479 368.01C235.305 367.929 235.129 367.85 234.955 367.769C235.397 368.422 235.842 369.072 236.292 369.719C236.981 370.712 237.684 371.694 238.401 372.665C238.71 373.082 239.024 373.496 239.343 373.906C241.881 377.168 245.077 380.182 251.209 380.182C251.976 380.182 252.794 380.135 253.632 380.04C253.828 380.019 254.018 379.997 254.204 379.975C254.384 379.954 254.561 379.935 254.732 379.914C260.064 379.302 261.527 379.041 262.339 378.901C262.549 378.865 262.728 378.833 262.922 378.805C262.998 378.794 263.075 378.782 263.157 378.771C263.186 378.768 264.989 378.537 266.752 377.681C267.967 377.092 269.162 376.206 269.746 374.898C271.222 371.601 271.522 370.813 271.533 370.784L272.051 369.396" fill="#731B2A"/>
<path d="M286.496 339.465C286.809 339.459 287.107 339.329 287.324 339.104C287.541 338.879 287.66 338.577 287.655 338.265C287.653 338.11 287.62 337.956 287.558 337.814C287.496 337.672 287.407 337.543 287.295 337.435C287.183 337.327 287.051 337.243 286.906 337.187C286.761 337.13 286.607 337.103 286.452 337.106C286.296 337.109 286.143 337.142 286.001 337.204C285.859 337.266 285.73 337.355 285.623 337.467C285.515 337.579 285.431 337.71 285.374 337.855C285.318 337.999 285.29 338.153 285.294 338.308C285.299 338.62 285.429 338.918 285.655 339.135C285.88 339.352 286.183 339.471 286.496 339.465V339.465ZM293.761 344.779C292.201 344.026 290.496 344.979 287.39 345.037C285.077 345.119 283.139 345.144 283.012 341.522C282.884 337.891 284.363 334.891 286.675 334.811C288.986 334.73 291.096 337.606 291.379 341.225C291.458 342.223 291.347 342.951 291.1 343.49C293.248 343.234 293.738 344.691 293.761 344.779V344.779Z" fill="#0E0F0D"/>
<path d="M253.382 340.34C253.695 340.332 253.992 340.2 254.207 339.973C254.422 339.746 254.539 339.444 254.531 339.131C254.523 338.819 254.39 338.522 254.163 338.306C253.935 338.091 253.632 337.974 253.318 337.982C253.163 337.986 253.011 338.021 252.869 338.084C252.727 338.147 252.6 338.238 252.493 338.35C252.386 338.463 252.303 338.595 252.247 338.74C252.192 338.884 252.166 339.038 252.17 339.193C252.174 339.348 252.209 339.5 252.272 339.642C252.335 339.783 252.426 339.911 252.538 340.017C252.651 340.124 252.783 340.207 252.928 340.263C253.073 340.318 253.227 340.344 253.382 340.34V340.34ZM256.953 342.239C256.987 345.864 255.065 345.646 252.751 345.669C252.516 345.677 252.294 345.68 252.073 345.68C251.815 345.687 251.565 345.69 251.326 345.685C249.08 345.68 247.646 345.58 246.376 346.265C246.406 346.186 246.964 344.942 248.979 344.434C248.757 343.944 248.617 343.263 248.58 342.32C248.441 338.696 250.68 335.724 252.992 335.703C255.305 335.681 256.919 338.613 256.953 342.239Z" fill="#0E0F0D"/>
<path d="M300.743 317.309C300.726 317.532 300.705 317.755 300.68 317.978C299.764 317.731 298.843 317.5 297.919 317.287C294.864 316.617 291.772 316.12 288.665 315.766C288.558 315.752 288.449 315.745 288.339 315.731C288.36 315.685 288.379 315.639 288.393 315.593C288.486 315.254 288.567 314.915 288.644 314.576C289.445 311.037 289.403 307.513 289.313 305.807L300.362 308.944C300.964 312.865 300.847 315.941 300.743 317.309ZM287 315.208C286.963 315.335 286.968 315.466 287 315.589C285.844 315.468 284.687 315.361 283.529 315.268C284.826 312.551 285.11 309.658 285.173 308.638C286.17 307.932 287.162 307.082 287.89 306.422C287.957 308.369 287.909 311.902 287 315.208H287ZM252.956 315.581C252.987 315.464 252.99 315.335 252.956 315.208C252.049 311.907 252.001 308.374 252.063 306.422C252.794 307.082 253.783 307.932 254.784 308.638C254.844 309.658 255.128 312.544 256.425 315.262C255.268 315.353 254.111 315.459 252.956 315.582V315.581ZM251.288 315.763C249.738 315.952 248.186 316.147 246.642 316.403C245.102 316.666 243.562 316.946 242.035 317.285C241.109 317.499 240.191 317.727 239.273 317.975C239.265 317.903 239.253 317.791 239.24 317.647C239.134 316.51 238.932 313.234 239.594 308.943L250.64 305.806C250.556 307.447 250.511 310.774 251.221 314.176C251.32 314.649 251.432 315.121 251.561 315.592C251.575 315.638 251.594 315.684 251.614 315.725C251.503 315.739 251.397 315.749 251.287 315.763L251.288 315.763ZM306.665 320.218C306.571 320.173 306.478 320.127 306.389 320.083C306.252 320.017 306.101 319.942 305.928 319.858C305.821 319.807 305.719 319.749 305.62 319.685C304.597 319.214 303.526 318.848 302.456 318.497C302.329 318.456 302.205 318.419 302.078 318.382C302.088 318.35 302.096 318.318 302.102 318.285C302.118 318.165 302.392 316.136 302.226 312.938C302.156 311.572 302.005 309.993 301.718 308.258C301.696 308.123 301.635 307.997 301.544 307.895C301.453 307.793 301.335 307.718 301.203 307.68L299.628 307.235C299.289 295.067 294.272 289.349 294.115 289.171C298.597 296.375 298.558 304.918 298.48 306.908L288.716 304.137C288.709 304.137 288.702 304.137 288.693 304.133C288.652 304.124 288.61 304.118 288.568 304.114C288.559 304.114 288.548 304.113 288.532 304.113C288.478 304.11 288.425 304.115 288.372 304.126C288.365 304.126 288.356 304.133 288.346 304.133C288.303 304.142 288.26 304.157 288.22 304.177C288.205 304.184 288.191 304.193 288.177 304.198C288.144 304.22 288.112 304.239 288.08 304.262C288.073 304.267 288.063 304.271 288.056 304.278C288.046 304.284 288.043 304.292 288.038 304.296C288.028 304.306 288.017 304.312 288.01 304.319C288 304.329 287.738 304.586 287.329 304.971C287.358 304.059 287.365 302.663 287.261 300.959L287.23 300.468C286.923 296.187 285.909 290.173 282.881 284.909C282.907 284.984 283.206 285.858 283.593 287.329C284.568 291.03 286.103 298.522 285.266 306.651C285.262 306.688 285.259 306.724 285.256 306.762C285.243 306.772 285.229 306.782 285.216 306.792C284.841 307.093 284.455 307.379 284.059 307.65C283.963 307.716 283.884 307.804 283.829 307.906C283.774 308.008 283.743 308.122 283.74 308.238C283.74 308.274 283.655 311.908 282.049 315.003C282.02 315.054 282.005 315.105 281.989 315.157C277.991 314.883 273.981 314.767 269.977 314.764C265.975 314.766 261.963 314.876 257.963 315.148C257.947 315.099 257.931 315.049 257.908 315.003C256.299 311.908 256.216 308.274 256.213 308.237C256.211 308.121 256.181 308.008 256.126 307.906C256.072 307.804 255.993 307.716 255.898 307.65C255.486 307.37 255.085 307.073 254.696 306.761C253.883 299.028 255.224 291.863 256.2 287.964C256.663 286.113 257.045 284.994 257.076 284.908C252.681 292.544 252.529 301.757 252.626 304.971C252.211 304.586 251.953 304.329 251.946 304.319C251.939 304.312 251.925 304.306 251.916 304.296L251.9 304.277C251.893 304.271 251.884 304.266 251.874 304.261C251.843 304.24 251.811 304.22 251.777 304.202C251.761 304.193 251.75 304.183 251.731 304.176C251.694 304.156 251.653 304.143 251.612 304.137C251.6 304.133 251.591 304.126 251.583 304.126C251.53 304.114 251.476 304.11 251.421 304.112C251.408 304.112 251.393 304.114 251.38 304.114C251.34 304.118 251.302 304.123 251.261 304.132C251.251 304.137 251.246 304.137 251.237 304.137L241.476 306.908C241.398 304.917 241.356 296.374 245.838 289.171C245.683 289.349 240.666 295.068 240.325 307.236L238.757 307.681C238.624 307.717 238.504 307.791 238.412 307.894C238.32 307.996 238.259 308.123 238.237 308.259C237.981 309.807 237.811 311.367 237.728 312.933C237.563 316.135 237.838 318.165 237.855 318.286C237.863 318.318 237.872 318.349 237.877 318.381C237.752 318.42 237.623 318.457 237.498 318.496C236.427 318.847 235.351 319.214 234.328 319.687C234.235 319.747 234.139 319.802 234.04 319.85L234.024 319.859C233.849 319.943 233.698 320.018 233.561 320.084L233.321 320.201C233.271 320.23 233.218 320.256 233.168 320.286C233.893 320.002 234.642 319.794 235.39 319.611C236.14 319.424 236.895 319.259 237.654 319.115C239.174 318.833 240.698 318.588 242.231 318.402C243.76 318.201 245.295 318.036 246.833 317.907C248.371 317.776 249.906 317.647 251.448 317.558C257.613 317.194 263.794 317.079 269.977 317.076C276.162 317.081 282.342 317.178 288.506 317.556C290.048 317.645 291.583 317.773 293.124 317.903C294.664 318.034 296.194 318.202 297.722 318.402C299.256 318.586 300.782 318.83 302.3 319.114C303.058 319.257 303.812 319.422 304.561 319.611C305.315 319.795 306.06 320.002 306.786 320.286C306.746 320.262 306.704 320.241 306.665 320.218V320.218Z" fill="#0E0F0D"/>
<path d="M271.706 291.944V308.194H273.914V311.21H266.447V308.194H268.655V291.944H263.291V294.616H260.698V289.355H279.665V294.616H277.071V291.943H271.706V291.944ZM281.618 296.561V287.406H258.75V296.561H265.244V293.889H266.703V306.245H264.5V313.152H275.865V306.244H273.654V293.888H275.119V296.561H281.618V296.561Z" fill="#0E0F0D"/>
<g clip-path="">
<path d="M424.097 145.438L424.059 145.421C424.035 145.414 424.013 145.402 423.995 145.385C423.964 145.352 423.941 145.311 423.927 145.267C423.914 145.223 423.911 145.176 423.919 145.131L426.038 132.189L435.976 142.119L425.641 146.511C425.612 146.522 425.581 146.528 425.55 146.527H425.509C425.489 146.514 425.47 146.498 425.454 146.481C425.069 146.053 424.609 145.699 424.097 145.438V145.438ZM438.512 144.649L449.137 155.263C451.344 157.47 452.449 158.571 452.852 159.847C452.912 160.036 452.961 160.225 453 160.419L427.606 149.677C427.592 149.671 427.579 149.665 427.565 149.66C427.463 149.619 427.346 149.572 427.346 149.469C427.346 149.364 427.466 149.315 427.567 149.274L427.6 149.26L438.512 144.649ZM452.567 163.826C452.018 164.856 450.949 165.924 449.14 167.734L437.16 179.698L421.665 176.475L421.583 176.458C421.446 176.436 421.301 176.412 421.301 176.289C421.242 175.65 421.052 175.03 420.743 174.468C420.434 173.906 420.013 173.414 419.505 173.022C419.442 172.959 419.459 172.86 419.478 172.77C419.478 172.756 419.478 172.742 419.483 172.731L422.397 154.86L422.408 154.8C422.424 154.663 422.449 154.504 422.573 154.504C423.197 154.427 423.8 154.226 424.346 153.913C424.892 153.601 425.37 153.183 425.753 152.683C425.778 152.656 425.794 152.626 425.827 152.61C425.915 152.569 426.019 152.61 426.109 152.648L452.564 163.826H452.567V163.826ZM434.405 182.45L414.705 202.129L418.076 181.426L418.082 181.398C418.085 181.371 418.09 181.345 418.099 181.319C418.126 181.254 418.197 181.226 418.266 181.199L418.299 181.185C419.037 180.87 419.69 180.385 420.204 179.769C420.27 179.693 420.35 179.618 420.451 179.605C420.477 179.601 420.504 179.601 420.53 179.605L434.402 182.453L434.405 182.45H434.405ZM410.535 206.294L408.314 208.512L383.765 173.071C383.756 173.058 383.747 173.045 383.737 173.032C383.699 172.98 383.658 172.929 383.666 172.868C383.669 172.824 383.696 172.786 383.727 172.754L383.754 172.718C383.828 172.608 383.891 172.498 383.96 172.381L384.014 172.285L384.022 172.277C384.061 172.211 384.096 172.148 384.162 172.112C384.22 172.085 384.3 172.096 384.362 172.11L411.56 177.712C411.637 177.725 411.708 177.755 411.769 177.803C411.804 177.839 411.813 177.877 411.821 177.921C412.011 178.638 412.364 179.302 412.853 179.86C413.342 180.418 413.953 180.856 414.639 181.138C414.716 181.177 414.683 181.261 414.647 181.352C414.629 181.391 414.616 181.433 414.606 181.475C414.264 183.556 411.325 201.46 410.535 206.294V206.294ZM405.896 210.924C404.26 212.543 403.295 213.4 402.204 213.745C401.128 214.085 399.974 214.085 398.898 213.745C397.62 213.339 396.515 212.239 394.308 210.031L369.655 185.405L376.094 175.429C376.121 175.378 376.159 175.335 376.204 175.3C376.272 175.251 376.371 175.273 376.453 175.3C377.931 175.745 379.518 175.665 380.944 175.073C381.018 175.045 381.092 175.026 381.15 175.078C381.178 175.105 381.204 175.134 381.226 175.166L405.896 210.927V210.924V210.924ZM367.278 183.03L361.622 177.381L372.791 172.622C372.819 172.609 372.85 172.603 372.881 172.603C372.974 172.603 373.029 172.696 373.079 172.781C373.191 172.953 373.31 173.121 373.435 173.285L373.471 173.328C373.504 173.375 373.482 173.421 373.449 173.465L367.28 183.03H367.278ZM359.119 174.881L351.964 167.734C350.747 166.518 349.864 165.636 349.25 164.878L371.006 169.385L371.088 169.399C371.223 169.421 371.371 169.445 371.371 169.571C371.371 169.708 371.209 169.771 371.072 169.823L371.009 169.85L359.119 174.881V174.881ZM348 161.202C348.025 160.742 348.108 160.287 348.247 159.847C348.653 158.571 349.755 157.47 351.964 155.263L361.12 146.116C365.336 152.228 369.564 158.332 373.803 164.429C373.876 164.527 373.958 164.637 373.874 164.719C373.474 165.16 373.073 165.641 372.791 166.165C372.76 166.232 372.713 166.29 372.654 166.334C372.618 166.356 372.58 166.348 372.539 166.34H372.533L348 161.2V161.203V161.202ZM363.572 143.668L375.883 131.37C377.04 131.877 381.251 133.654 385.017 135.242C387.869 136.447 390.468 137.543 391.285 137.898C391.367 137.931 391.441 137.964 391.477 138.046C391.498 138.095 391.488 138.159 391.477 138.211C391.282 139.098 391.311 140.021 391.561 140.895C391.811 141.769 392.275 142.566 392.91 143.217C392.993 143.299 392.91 143.416 392.839 143.518L392.801 143.575L380.3 162.917C380.267 162.972 380.237 163.018 380.182 163.054C380.116 163.095 380.023 163.075 379.946 163.057C379.46 162.929 378.96 162.861 378.457 162.854C378.008 162.854 377.52 162.936 377.026 163.026H377.023C376.969 163.034 376.919 163.046 376.876 163.013C376.827 162.973 376.786 162.926 376.752 162.873L363.572 143.668ZM378.37 128.886L394.309 112.965C396.515 110.76 397.62 109.657 398.898 109.254C399.973 108.915 401.128 108.915 402.204 109.254C403.481 109.657 404.586 110.76 406.793 112.965L410.247 116.416L398.911 133.952C398.883 134.003 398.845 134.048 398.799 134.084C398.731 134.13 398.635 134.111 398.552 134.084C397.658 133.813 396.712 133.763 395.795 133.94C394.878 134.117 394.018 134.514 393.289 135.097C393.215 135.174 393.105 135.13 393.012 135.089C391.531 134.445 380.017 129.585 378.37 128.887L378.37 128.886ZM412.654 118.82L423.121 129.275L420.599 144.879V144.92C420.597 144.956 420.589 144.991 420.577 145.024C420.55 145.079 420.495 145.09 420.44 145.106C419.901 145.269 419.393 145.522 418.938 145.854C418.918 145.868 418.9 145.883 418.883 145.9C418.852 145.933 418.823 145.963 418.773 145.969C418.733 145.97 418.693 145.963 418.655 145.949L402.705 139.18L402.675 139.166C402.574 139.125 402.453 139.076 402.453 138.972C402.359 138.084 402.069 137.228 401.603 136.466C401.527 136.34 401.442 136.209 401.507 136.08L412.654 118.82V118.82ZM401.875 142.386L416.827 148.712C416.909 148.75 416.999 148.786 417.035 148.871C417.049 148.922 417.049 148.976 417.035 149.027C416.991 149.246 416.953 149.495 416.953 149.747V150.166C416.953 150.27 416.846 150.314 416.747 150.355L416.717 150.366C414.349 151.377 383.463 164.532 383.417 164.532C383.37 164.532 383.321 164.532 383.274 164.486C383.192 164.404 383.274 164.289 383.348 164.184L383.387 164.13L395.674 145.125L395.695 145.092C395.767 144.977 395.849 144.848 395.981 144.848L396.104 144.867C396.384 144.906 396.631 144.941 396.88 144.941C398.744 144.941 400.471 144.035 401.513 142.485C401.538 142.444 401.569 142.407 401.606 142.375C401.68 142.321 401.79 142.348 401.875 142.386V142.386ZM384.752 167.539L418.417 153.198C418.417 153.198 418.466 153.198 418.513 153.244C418.696 153.428 418.852 153.551 419.003 153.666L419.077 153.712C419.146 153.751 419.215 153.794 419.22 153.866C419.22 153.893 419.22 153.91 419.215 153.934L416.33 171.63L416.319 171.701C416.3 171.838 416.281 171.994 416.152 171.994C415.384 172.046 414.639 172.284 413.983 172.688C413.328 173.093 412.78 173.65 412.388 174.314L412.374 174.336C412.336 174.399 412.301 174.459 412.237 174.491C412.18 174.519 412.106 174.508 412.045 174.495L385.199 168.963C385.171 168.958 384.782 167.542 384.752 167.539V167.539Z" fill="url(#paint0_radial)"/>
</g>
<path d="M240.25 199.167L259.837 142.243L255.976 133.25H249.667V123.833H259.083C261.061 123.833 262.756 125.058 263.462 126.8L290.441 189.75H296.75V199.167H287.333C285.309 199.167 283.614 197.896 282.955 196.153L265.345 155.144L250.232 199.167H240.25Z" fill="#D7884F"/>
<g filter="url(#filter1_d)">
<path d="M125.5 110.301C155.457 110.301 179.699 134.543 179.699 164.5C179.699 194.457 155.457 218.699 125.5 218.699C95.543 218.699 71.3008 194.457 71.3008 164.5C71.3008 134.543 95.543 110.301 125.5 110.301Z" fill="black"/>
</g>
<path d="M125.5 110.301C155.457 110.301 179.699 134.543 179.699 164.5C179.699 194.457 155.457 218.699 125.5 218.699C95.543 218.699 71.3008 194.457 71.3008 164.5C71.3008 134.543 95.543 110.301 125.5 110.301Z" fill="white"/>
<path d="M125.499 112.202C154.406 112.202 177.797 135.593 177.797 164.499C177.797 193.406 154.406 216.797 125.499 216.797C96.5927 216.797 73.2017 193.406 73.2017 164.499C73.2017 135.593 96.5927 112.202 125.499 112.202Z" fill="#343D24" fill-opacity="0.57"/>
<path d="M153.266 187.511C151.364 193.406 148.512 197.78 144.518 201.013C140.525 204.246 135.2 205.958 128.544 206.528L127.213 197.78C131.586 197.21 134.819 196.259 136.911 194.738C137.672 194.167 139.193 192.456 139.193 192.456L123.409 141.87H136.531L145.659 179.714L155.358 141.87H168.1L153.267 187.511H153.266ZM107.434 140.158C110.477 140.158 113.33 140.538 115.612 141.489C118.084 142.44 120.366 143.771 122.648 145.673L117.324 152.9C115.802 151.759 114.281 150.998 112.95 150.427C111.619 149.857 109.907 149.666 108.385 149.666C101.92 149.666 98.6866 154.611 98.6866 164.69C98.6866 169.825 99.4472 173.438 101.159 175.53C102.87 177.812 105.152 178.763 108.385 178.763C109.907 178.763 111.428 178.573 112.759 178.002C114.09 177.432 115.612 176.671 117.514 175.53L122.838 183.137C118.465 186.75 113.52 188.462 107.815 188.462C103.251 188.462 99.4472 187.511 96.0244 185.609C92.7911 183.707 90.1288 180.855 88.4174 177.242C86.7056 173.629 85.7551 169.445 85.7551 164.5C85.7551 159.746 86.7056 155.372 88.4174 151.759C90.1288 147.955 92.7911 145.103 96.0244 143.011C99.2572 141.299 103.061 140.158 107.434 140.158V140.158Z" fill="white"/>
<defs>
<filter id="filter0_d" x="0" y="0" width="661" height="504" filterUnits="userSpaceOnUse" color-interpolation-filters="sRGB">
<feFlood flood-opacity="0" result="BackgroundImageFix"/>
<feColorMatrix in="SourceAlpha" type="matrix" values="0 0 0 0 0 0 0 0 0 0 0 0 0 0 0 0 0 0 127 0"/>
<feOffset dy="4"/>
<feGaussianBlur stdDeviation="2"/>
<feColorMatrix type="matrix" values="0 0 0 0 0 0 0 0 0 0 0 0 0 0 0 0 0 0 0.25 0"/>
<feBlend mode="normal" in2="BackgroundImageFix" result="effect1_dropShadow"/>
<feBlend mode="normal" in="SourceGraphic" in2="effect1_dropShadow" result="shape"/>
</filter>
<filter id="filter1_d" x="71.0508" y="110.051" width="108.898" height="108.898" filterUnits="userSpaceOnUse" color-interpolation-filters="sRGB">
<feFlood flood-opacity="0" result="BackgroundImageFix"/>
<feColorMatrix in="SourceAlpha" type="matrix" values="0 0 0 0 0 0 0 0 0 0 0 0 0 0 0 0 0 0 127 0"/>
<feOffset/>
<feGaussianBlur stdDeviation="0.125"/>
<feColorMatrix type="matrix" values="0 0 0 0 0 0 0 0 0 0 0 0 0 0 0 0 0 0 0.3 0"/>
<feBlend mode="normal" in2="BackgroundImageFix" result="effect1_dropShadow"/>
<feBlend mode="normal" in="SourceGraphic" in2="effect1_dropShadow" result="shape"/>
</filter>
<radialGradient id="paint0_radial" cx="0" cy="0" r="1" gradientUnits="userSpaceOnUse" gradientTransform="translate(400.5 56.4994) scale(105 105)">
<stop stop-color="#20C6B7"/>
<stop offset="1" stop-color="#4D9ABF"/>
</radialGradient>
<clipPath id="clip0">
<rect x="364" y="279" width="73" height="108" fill="white"/>
</clipPath>
<clipPath id="clip1">
<rect x="348" y="109" width="105" height="105" fill="white"/>
</clipPath>
</defs>
</svg>
