<svg width="258" height="198" viewBox="0 0 258 198" fill="none" xmlns="http://www.w3.org/2000/svg">
<g filter="url(#filter0_d)">
<rect x="4" width="250" height="190" rx="10" fill="#FFEAEA" fill-opacity="0.9"/>
</g>
<path d="M49.3666 109V102.1H48.0166V107.8H39.3766V97.3H47.1166V96.1H39.3766V86.2H48.0166V91.9H49.3666V85H30.0766V86.2H32.4766V107.8H30.0766V109H49.3666ZM51.4563 91H62.3463V92.2H60.5463L63.8463 97.36L67.4463 92.2H65.8863V91H71.2263V92.2H69.0663L64.5963 98.56L70.4763 107.8H72.4263V109H61.1463V107.8H63.3363L59.5563 101.89L55.4163 107.8H57.5763V109H51.7563V107.8H53.7963L58.8063 100.66L53.4063 92.2H51.4563V91ZM76.0117 92.2V116.11L78.8017 118.9H85.0117V117.7H82.9117V107.56L84.3517 109H91.3717L94.1617 106.21V93.79L91.3717 91H84.3517L82.2517 93.1L80.1217 91H73.6117V92.2H76.0117ZM82.9117 94.3L85.0117 92.2H87.1117V107.8H85.0117L82.9117 105.7V94.3ZM99.9482 109H111.618L114.408 106.21L113.478 105.28L110.958 107.8H104.058V101.5H111.468L114.258 98.71V93.79L111.468 91H99.9482L97.1582 93.79V106.21L99.9482 109ZM104.058 92.2H107.358V100.3H104.058V92.2ZM132.863 93.19L131.933 94.12L130.013 92.2H127.463L125.363 94.3V107.8H127.763V109H121.253L118.463 106.21V92.2H116.063V91H122.573L124.703 93.1L126.803 91H130.673L132.863 93.19ZM138.925 88.6L134.365 84.01L138.955 79.45L143.515 84.04L138.925 88.6ZM145.165 107.8V109H138.655L135.865 106.21V92.2H133.465V91H139.975L142.765 93.79V107.8H145.165ZM150.046 109H161.716L164.506 106.21L163.576 105.28L161.056 107.8H154.156V101.5H161.566L164.356 98.71V93.79L161.566 91H150.046L147.256 93.79V106.21L150.046 109ZM154.156 92.2H157.456V100.3H154.156V92.2ZM188.961 107.8V109H182.151L179.661 106.51V92.2H177.561L175.461 94.3V107.8H176.961V109H166.161V107.8H168.561V92.2H166.161V91H172.671L174.801 93.1L176.901 91H183.771L186.561 93.79V107.8H188.961ZM200.805 97V92.2H197.655V107.8H203.355L205.725 105.43L206.655 106.36L204.015 109H193.545L190.755 106.21V93.79L193.545 91H204.615L206.805 93.19V97H200.805ZM212.009 109H223.679L226.469 106.21L225.539 105.28L223.019 107.8H216.119V101.5H223.529L226.319 98.71V93.79L223.529 91H212.009L209.219 93.79V106.21L212.009 109ZM216.119 92.2H219.419V100.3H216.119V92.2Z" fill="#343D24"/>
<defs>
<filter id="filter0_d" x="0" y="0" width="258" height="198" filterUnits="userSpaceOnUse" color-interpolation-filters="sRGB">
<feFlood flood-opacity="0" result="BackgroundImageFix"/>
<feColorMatrix in="SourceAlpha" type="matrix" values="0 0 0 0 0 0 0 0 0 0 0 0 0 0 0 0 0 0 127 0"/>
<feOffset dy="4"/>
<feGaussianBlur stdDeviation="2"/>
<feColorMatrix type="matrix" values="0 0 0 0 0 0 0 0 0 0 0 0 0 0 0 0 0 0 0.25 0"/>
<feBlend mode="normal" in2="BackgroundImageFix" result="effect1_dropShadow"/>
<feBlend mode="normal" in="SourceGraphic" in2="effect1_dropShadow" result="shape"/>
</filter>
</defs>
</svg>
