<svg width="258" height="198" viewBox="0 0 258 198" fill="none" xmlns="http://www.w3.org/2000/svg">
<g filter="url(#filter0_d)">
<rect x="4" width="250" height="190" rx="50" fill="#FFEAEA" fill-opacity="0.9"/>
</g>
<path d="M43.591 111V103.64H42.151V109.72H32.935V98.52H41.191V97.24H32.935V86.68H42.151V92.76H43.591V85.4H23.015V86.68H25.575V109.72H23.015V111H43.591ZM45.82 91.8H57.436V93.08H55.516L59.036 98.584L62.876 93.08H61.212V91.8H66.908V93.08H64.604L59.836 99.864L66.108 109.72H68.188V111H56.156V109.72H58.492L54.46 103.416L50.044 109.72H52.348V111H46.14V109.72H48.316L53.66 102.104L47.9 93.08H45.82V91.8ZM72.0125 93.08V118.584L74.9885 121.56H81.6125V120.28H79.3725V109.464L80.9085 111H88.3965L91.3725 108.024V94.776L88.3965 91.8H80.9085L78.6685 94.04L76.3965 91.8H69.4525V93.08H72.0125ZM79.3725 95.32L81.6125 93.08H83.8525V109.72H81.6125L79.3725 107.48V95.32ZM97.5448 111H109.993L112.969 108.024L111.977 107.032L109.289 109.72H101.929V103H109.833L112.809 100.024V94.776L109.833 91.8H97.5448L94.5688 94.776V108.024L97.5448 111ZM101.929 93.08H105.449V101.72H101.929V93.08ZM132.654 94.136L131.662 95.128L129.614 93.08H126.894L124.654 95.32V109.72H127.214V111H120.27L117.294 108.024V93.08H114.734V91.8H121.678L123.95 94.04L126.19 91.8H130.318L132.654 94.136ZM139.12 89.24L134.256 84.344L139.152 79.48L144.016 84.376L139.12 89.24ZM145.776 109.72V111H138.832L135.856 108.024V93.08H133.296V91.8H140.24L143.216 94.776V109.72H145.776ZM150.982 111H163.43L166.406 108.024L165.414 107.032L162.726 109.72H155.366V103H163.27L166.246 100.024V94.776L163.27 91.8H150.982L148.006 94.776V108.024L150.982 111ZM155.366 93.08H158.886V101.72H155.366V93.08ZM192.491 109.72V111H185.227L182.571 108.344V93.08H180.331L178.091 95.32V109.72H179.691V111H168.171V109.72H170.731V93.08H168.171V91.8H175.115L177.387 94.04L179.627 91.8H186.955L189.931 94.776V109.72H192.491ZM205.125 98.2V93.08H201.765V109.72H207.845L210.373 107.192L211.365 108.184L208.549 111H197.381L194.405 108.024V94.776L197.381 91.8H209.189L211.525 94.136V98.2H205.125ZM217.076 111H229.524L232.5 108.024L231.508 107.032L228.82 109.72H221.46V103H229.364L232.34 100.024V94.776L229.364 91.8H217.076L214.1 94.776V108.024L217.076 111ZM221.46 93.08H224.98V101.72H221.46V93.08Z" fill="#343D24"/>
<defs>
<filter id="filter0_d" x="0" y="0" width="258" height="198" filterUnits="userSpaceOnUse" color-interpolation-filters="sRGB">
<feFlood flood-opacity="0" result="BackgroundImageFix"/>
<feColorMatrix in="SourceAlpha" type="matrix" values="0 0 0 0 0 0 0 0 0 0 0 0 0 0 0 0 0 0 127 0"/>
<feOffset dy="4"/>
<feGaussianBlur stdDeviation="2"/>
<feColorMatrix type="matrix" values="0 0 0 0 0 0 0 0 0 0 0 0 0 0 0 0 0 0 0.25 0"/>
<feBlend mode="normal" in2="BackgroundImageFix" result="effect1_dropShadow"/>
<feBlend mode="normal" in="SourceGraphic" in2="effect1_dropShadow" result="shape"/>
</filter>
</defs>
</svg>
