<svg width="258" height="198" viewBox="0 0 258 198" fill="none" xmlns="http://www.w3.org/2000/svg">
<g filter="url(#filter0_d)">
<path d="M4 25C4 11.1929 15.1929 0 29 0H229C242.807 0 254 11.1929 254 25V165C254 178.807 242.807 190 229 190H29C15.1929 190 4 178.807 4 165V25Z" fill="#FFEAEA" fill-opacity="0.9"/>
</g>
<path d="M26.59 45.17C25.3717 45.17 24.4367 44.7946 23.785 44.0438C23.1333 43.2788 22.8075 42.2658 22.8075 41.005C22.8075 39.6167 23.1971 38.5329 23.9763 37.7538C24.7271 37.0313 25.6621 36.67 26.7812 36.67C27.5321 36.67 28.1696 36.7975 28.6937 37.0525V33.695H30.1387V45H29.1187L28.885 44.4263C28.12 44.9221 27.355 45.17 26.59 45.17ZM26.8662 44.0013C27.2487 44.0013 27.5675 43.9658 27.8225 43.895C28.0917 43.81 28.3821 43.6825 28.6937 43.5125V38.115C28.1696 37.9025 27.5675 37.7963 26.8875 37.7963C26.0092 37.7963 25.3433 38.0796 24.89 38.6462C24.4508 39.2129 24.2312 39.9708 24.2312 40.92C24.2312 41.855 24.4508 42.6058 24.89 43.1725C25.3433 43.725 26.0021 44.0013 26.8662 44.0013ZM35.7926 36.7338C36.8692 36.7338 37.698 37.0596 38.2788 37.7113C38.8597 38.3488 39.1501 39.2554 39.1501 40.4313V41.175L39.0651 41.345H33.4763C33.4763 42.0392 33.7384 42.6837 34.2626 43.2787C34.7584 43.7746 35.5305 44.0225 36.5788 44.0225C37.273 44.0225 37.9317 43.9163 38.5551 43.7037L38.8101 44.7238C37.9459 45.0213 37.0747 45.17 36.1963 45.17C34.8788 45.17 33.873 44.8158 33.1788 44.1075C32.4847 43.3992 32.1376 42.3863 32.1376 41.0688C32.1376 39.8221 32.4422 38.795 33.0513 37.9875C33.703 37.1517 34.6167 36.7338 35.7926 36.7338ZM37.7476 40.24C37.7476 39.5317 37.5917 38.9508 37.2801 38.4975C36.9826 38.0442 36.5363 37.8175 35.9413 37.8175C35.1905 37.8175 34.6167 38.0442 34.2201 38.4975C33.8234 38.9508 33.5826 39.5317 33.4976 40.24H37.7476ZM43.6743 44.0225C44.1702 44.0225 44.5881 43.9304 44.9281 43.7463C45.2823 43.5479 45.4593 43.2646 45.4593 42.8963C45.4593 42.5988 45.3318 42.365 45.0768 42.195C44.8218 42.025 44.2835 41.77 43.4618 41.43L42.6543 41.1113C42.3002 40.9413 42.0098 40.7925 41.7831 40.665C41.5564 40.5233 41.351 40.3179 41.1668 40.0488C40.9827 39.7654 40.8906 39.4113 40.8906 38.9863C40.8906 38.2213 41.2023 37.6546 41.8256 37.2863C42.4631 36.9179 43.2423 36.7338 44.1631 36.7338C44.9423 36.7338 45.7214 36.9108 46.5006 37.265L46.1606 38.285C45.5231 38.0158 44.9068 37.8813 44.3118 37.8813C43.7027 37.8813 43.2068 37.9733 42.8243 38.1575C42.456 38.3275 42.2718 38.5754 42.2718 38.9013C42.2718 39.2271 42.3993 39.4821 42.6543 39.6663C42.9235 39.8504 43.3768 40.0629 44.0143 40.3037L44.7156 40.58C45.4948 40.9058 46.0402 41.2458 46.3518 41.6C46.6635 41.9542 46.8193 42.4217 46.8193 43.0025C46.8193 43.5975 46.5431 44.1146 45.9906 44.5538C45.4381 44.9787 44.7014 45.1912 43.7806 45.1912C42.7323 45.1912 41.6981 44.9858 40.6781 44.575L41.0606 43.5338C41.9814 43.8596 42.8527 44.0225 43.6743 44.0225ZM49.716 35.2675C49.461 35.2675 49.2485 35.1825 49.0785 35.0125C48.9085 34.8283 48.8235 34.6158 48.8235 34.375C48.8235 34.1483 48.9085 33.95 49.0785 33.78C49.2485 33.5958 49.461 33.5038 49.716 33.5038C49.9568 33.5038 50.1622 33.5958 50.3322 33.78C50.5022 33.95 50.5872 34.1483 50.5872 34.375C50.5872 34.6158 50.5022 34.8283 50.3322 35.0125C50.1764 35.1825 49.971 35.2675 49.716 35.2675ZM50.396 45H49.0147V36.84H50.396V45ZM58.3275 44.6175C57.6192 44.9858 56.9038 45.17 56.1813 45.17C54.878 45.17 53.8792 44.6671 53.185 43.6613C52.6892 42.9246 52.4413 42.0604 52.4413 41.0688C52.4413 40.0629 52.6538 39.2129 53.0788 38.5188C53.518 37.8104 54.12 37.3004 54.885 36.9888C55.2392 36.8188 55.6996 36.7338 56.2663 36.7338C56.9321 36.7338 57.5696 36.8754 58.1788 37.1588L58.5825 37.35L58.7313 36.84H59.73V45.3825C59.73 46.1333 59.645 46.7354 59.475 47.1887C59.305 47.6421 59.0146 48.06 58.6038 48.4425C58.2638 48.7683 57.8388 49.0162 57.3288 49.1862C56.833 49.3704 56.2734 49.4625 55.65 49.4625C55.2534 49.4625 54.8213 49.4129 54.3538 49.3137C53.9005 49.2146 53.5038 49.0871 53.1638 48.9312L53.525 47.9537C54.3325 48.2371 54.9771 48.3787 55.4588 48.3787C56.3088 48.3787 56.9746 48.1733 57.4563 47.7625C57.938 47.3517 58.2213 46.7708 58.3063 46.02C58.3205 45.8642 58.3275 45.4675 58.3275 44.83V44.6175ZM56.5 44.0438C57.2084 44.0438 57.8175 43.895 58.3275 43.5975V38.2638C57.69 37.9804 57.0596 37.8388 56.4363 37.8388C55.5863 37.8388 54.9417 38.115 54.5025 38.6675C54.0634 39.22 53.8438 39.9567 53.8438 40.8775C53.8438 41.5433 53.9713 42.1313 54.2263 42.6412C54.4813 43.1512 54.8284 43.5196 55.2675 43.7463C55.6217 43.9446 56.0325 44.0438 56.5 44.0438ZM67.5514 39.815C67.5514 39.1208 67.4168 38.625 67.1476 38.3275C66.8926 38.03 66.4393 37.8813 65.7876 37.8813C65.0935 37.8813 64.3426 38.0725 63.5351 38.455V45H62.1539V36.84H63.1101L63.4076 37.52C64.3851 36.9817 65.3414 36.7125 66.2764 36.7125C67.1405 36.7125 67.7993 36.9604 68.2526 37.4563C68.706 37.9379 68.9326 38.6108 68.9326 39.475V45H67.5514V39.815ZM27.7588 73.1912C26.2004 73.1912 25.0671 72.8088 24.3588 72.0438C23.6646 71.2788 23.3175 70.11 23.3175 68.5375V61.3125H24.6987V68.8775C24.6987 69.5717 24.8262 70.1667 25.0812 70.6625C25.3221 71.1017 25.655 71.4275 26.08 71.64C26.5192 71.8525 27.0788 71.9588 27.7588 71.9588C29.0904 71.9588 29.9758 71.5267 30.415 70.6625C30.6842 70.1525 30.8188 69.5575 30.8188 68.8775V61.3125H32.2V68.5375C32.2 70.11 31.8458 71.2788 31.1375 72.0438C30.4433 72.8088 29.3171 73.1912 27.7588 73.1912ZM35.8802 61.3125H34.159L37.9202 66.88L33.7127 73H35.4127L38.7065 68.07L42.0002 73H43.8065L39.6415 66.8588L43.3602 61.3125H41.7665L38.8552 65.69L35.8802 61.3125ZM25.825 93.9238C25.5275 93.9238 25.1662 93.9592 24.7412 94.03C24.3304 94.0867 23.9621 94.1646 23.6362 94.2638L23.36 93.2438C24.3092 92.9179 25.1946 92.755 26.0162 92.755C26.9371 92.755 27.6383 92.8967 28.12 93.18C28.545 93.4917 28.8354 93.8246 28.9912 94.1787C29.1612 94.5329 29.2462 95.05 29.2462 95.73V101H28.205L27.9075 100.235C27.1 100.887 26.2713 101.212 25.4213 101.212C24.6846 101.212 24.0613 101 23.5512 100.575C23.0554 100.15 22.8075 99.6117 22.8075 98.96C22.8075 98.3225 22.9987 97.7983 23.3812 97.3875C23.7779 96.9625 24.2596 96.6792 24.8262 96.5375C25.5487 96.3533 26.5617 96.2471 27.865 96.2188V96.155C27.865 95.5742 27.8083 95.1492 27.695 94.88C27.4683 94.2425 26.845 93.9238 25.825 93.9238ZM25.6125 100.108C26.08 100.108 26.4908 100.03 26.845 99.8738C27.1992 99.7038 27.5392 99.47 27.865 99.1725V97.2175C26.8875 97.2317 26.165 97.2883 25.6975 97.3875C25.1733 97.5008 24.7837 97.6708 24.5287 97.8975C24.2737 98.11 24.1462 98.4146 24.1462 98.8113C24.1462 99.2221 24.2879 99.5408 24.5712 99.7675C24.8687 99.9942 25.2158 100.108 25.6125 100.108ZM35.1106 101.191C33.8498 101.191 32.8723 100.83 32.1781 100.108C31.4981 99.385 31.1581 98.3721 31.1581 97.0688C31.1581 95.8504 31.5123 94.8021 32.2206 93.9238C32.9289 93.1304 33.9843 92.7338 35.3868 92.7338C36.081 92.7338 36.7752 92.8825 37.4693 93.18L37.1293 94.2C36.6335 93.9875 36.0739 93.8813 35.4506 93.8813C34.4873 93.8813 33.7648 94.1363 33.2831 94.6462C32.8014 95.1421 32.5606 95.8646 32.5606 96.8138C32.5606 98.0321 32.851 98.875 33.4318 99.3425C34.0127 99.81 34.7281 100.044 35.5781 100.044C36.1164 100.044 36.6335 99.9517 37.1293 99.7675L37.4481 100.724C36.6264 101.035 35.8473 101.191 35.1106 101.191ZM42.8303 101.191C41.5695 101.191 40.592 100.83 39.8978 100.108C39.2178 99.385 38.8778 98.3721 38.8778 97.0688C38.8778 95.8504 39.232 94.8021 39.9403 93.9238C40.6486 93.1304 41.7041 92.7338 43.1066 92.7338C43.8007 92.7338 44.4949 92.8825 45.1891 93.18L44.8491 94.2C44.3532 93.9875 43.7936 93.8813 43.1703 93.8813C42.207 93.8813 41.4845 94.1363 41.0028 94.6462C40.5211 95.1421 40.2803 95.8646 40.2803 96.8138C40.2803 98.0321 40.5707 98.875 41.1516 99.3425C41.7324 99.81 42.4478 100.044 43.2978 100.044C43.8361 100.044 44.3532 99.9517 44.8491 99.7675L45.1678 100.724C44.3461 101.035 43.567 101.191 42.8303 101.191ZM50.2525 92.7338C51.3292 92.7338 52.158 93.0596 52.7388 93.7113C53.3196 94.3488 53.61 95.2554 53.61 96.4313V97.175L53.525 97.345H47.9363C47.9363 98.0392 48.1984 98.6837 48.7225 99.2787C49.2184 99.7746 49.9905 100.023 51.0388 100.023C51.733 100.023 52.3917 99.9163 53.015 99.7037L53.27 100.724C52.4059 101.021 51.5346 101.17 50.6563 101.17C49.3388 101.17 48.333 100.816 47.6388 100.108C46.9446 99.3992 46.5975 98.3863 46.5975 97.0688C46.5975 95.8221 46.9021 94.795 47.5113 93.9875C48.163 93.1517 49.0767 92.7338 50.2525 92.7338ZM52.2075 96.24C52.2075 95.5317 52.0517 94.9508 51.74 94.4975C51.4425 94.0442 50.9963 93.8175 50.4013 93.8175C49.6505 93.8175 49.0767 94.0442 48.68 94.4975C48.2834 94.9508 48.0425 95.5317 47.9575 96.24H52.2075ZM58.1343 100.023C58.6301 100.023 59.048 99.9304 59.388 99.7463C59.7422 99.5479 59.9193 99.2646 59.9193 98.8963C59.9193 98.5988 59.7918 98.365 59.5368 98.195C59.2818 98.025 58.7435 97.77 57.9218 97.43L57.1143 97.1113C56.7601 96.9413 56.4697 96.7925 56.243 96.665C56.0164 96.5233 55.811 96.3179 55.6268 96.0488C55.4426 95.7654 55.3505 95.4113 55.3505 94.9863C55.3505 94.2213 55.6622 93.6546 56.2855 93.2863C56.923 92.9179 57.7022 92.7338 58.623 92.7338C59.4022 92.7338 60.1814 92.9108 60.9605 93.265L60.6205 94.285C59.983 94.0158 59.3668 93.8813 58.7718 93.8813C58.1626 93.8813 57.6668 93.9733 57.2843 94.1575C56.916 94.3275 56.7318 94.5754 56.7318 94.9013C56.7318 95.2271 56.8593 95.4821 57.1143 95.6663C57.3835 95.8504 57.8368 96.0629 58.4743 96.3037L59.1755 96.58C59.9547 96.9058 60.5001 97.2458 60.8118 97.6C61.1235 97.9542 61.2793 98.4217 61.2793 99.0025C61.2793 99.5975 61.003 100.115 60.4505 100.554C59.898 100.979 59.1614 101.191 58.2405 101.191C57.1922 101.191 56.158 100.986 55.138 100.575L55.5205 99.5338C56.4414 99.8596 57.3126 100.023 58.1343 100.023ZM66.0034 100.023C66.4993 100.023 66.9172 99.9304 67.2572 99.7463C67.6114 99.5479 67.7884 99.2646 67.7884 98.8963C67.7884 98.5988 67.6609 98.365 67.4059 98.195C67.1509 98.025 66.6126 97.77 65.7909 97.43L64.9834 97.1113C64.6293 96.9413 64.3389 96.7925 64.1122 96.665C63.8855 96.5233 63.6801 96.3179 63.4959 96.0488C63.3118 95.7654 63.2197 95.4113 63.2197 94.9863C63.2197 94.2213 63.5314 93.6546 64.1547 93.2863C64.7922 92.9179 65.5714 92.7338 66.4922 92.7338C67.2714 92.7338 68.0505 92.9108 68.8297 93.265L68.4897 94.285C67.8522 94.0158 67.2359 93.8813 66.6409 93.8813C66.0318 93.8813 65.5359 93.9733 65.1534 94.1575C64.7851 94.3275 64.6009 94.5754 64.6009 94.9013C64.6009 95.2271 64.7284 95.4821 64.9834 95.6663C65.2526 95.8504 65.7059 96.0629 66.3434 96.3037L67.0447 96.58C67.8239 96.9058 68.3693 97.2458 68.6809 97.6C68.9926 97.9542 69.1484 98.4217 69.1484 99.0025C69.1484 99.5975 68.8722 100.115 68.3197 100.554C67.7672 100.979 67.0305 101.191 66.1097 101.191C65.0614 101.191 64.0272 100.986 63.0072 100.575L63.3897 99.5338C64.3105 99.8596 65.1818 100.023 66.0034 100.023ZM72.0451 91.2675C71.7901 91.2675 71.5776 91.1825 71.4076 91.0125C71.2376 90.8283 71.1526 90.6158 71.1526 90.375C71.1526 90.1483 71.2376 89.95 71.4076 89.78C71.5776 89.5958 71.7901 89.5038 72.0451 89.5038C72.2859 89.5038 72.4913 89.5958 72.6613 89.78C72.8313 89.95 72.9163 90.1483 72.9163 90.375C72.9163 90.6158 72.8313 90.8283 72.6613 91.0125C72.5055 91.1825 72.3001 91.2675 72.0451 91.2675ZM72.7251 101H71.3438V92.84H72.7251V101ZM75.1954 101V89.695H76.5766V93.0525C77.1291 92.7975 77.7879 92.67 78.5529 92.67C79.7004 92.67 80.6354 93.01 81.3579 93.69C82.1087 94.4408 82.4841 95.5458 82.4841 97.005C82.4841 98.2658 82.1583 99.2788 81.5066 100.044C80.8691 100.795 79.9483 101.17 78.7441 101.17C77.9508 101.17 77.1787 100.922 76.4279 100.426L76.1729 101H75.1954ZM78.4041 100.001C79.3108 100.001 79.9766 99.7533 80.4016 99.2575C80.8266 98.7617 81.0391 97.9825 81.0391 96.92C81.0391 95.9708 80.8125 95.2129 80.3591 94.6462C79.92 94.0796 79.2612 93.7963 78.3829 93.7963C77.7171 93.7963 77.115 93.9025 76.5766 94.115V99.5125C76.9025 99.6825 77.1929 99.81 77.4479 99.895C77.7171 99.9658 78.0358 100.001 78.4041 100.001ZM85.2267 91.2675C84.9717 91.2675 84.7592 91.1825 84.5892 91.0125C84.4192 90.8283 84.3342 90.6158 84.3342 90.375C84.3342 90.1483 84.4192 89.95 84.5892 89.78C84.7592 89.5958 84.9717 89.5038 85.2267 89.5038C85.4676 89.5038 85.673 89.5958 85.843 89.78C86.013 89.95 86.098 90.1483 86.098 90.375C86.098 90.6158 86.013 90.8283 85.843 91.0125C85.6871 91.1825 85.4817 91.2675 85.2267 91.2675ZM85.9067 101H84.5255V92.84H85.9067V101ZM90.757 99.9163C90.9695 99.9163 91.2104 99.8738 91.4795 99.7888L91.7345 100.788C91.692 100.802 91.522 100.873 91.2245 101C90.927 101.127 90.5445 101.191 90.077 101.191C89.5529 101.191 89.1349 101.014 88.8233 100.66C88.5116 100.292 88.3487 99.8171 88.3345 99.2363V89.6738H89.6733V98.7475C89.6733 99.13 89.737 99.4204 89.8645 99.6188C89.992 99.8171 90.2895 99.9163 90.757 99.9163ZM93.7599 91.2675C93.5049 91.2675 93.2924 91.1825 93.1224 91.0125C92.9524 90.8283 92.8674 90.6158 92.8674 90.375C92.8674 90.1483 92.9524 89.95 93.1224 89.78C93.2924 89.5958 93.5049 89.5038 93.7599 89.5038C94.0008 89.5038 94.2062 89.5958 94.3762 89.78C94.5462 89.95 94.6312 90.1483 94.6312 90.375C94.6312 90.6158 94.5462 90.8283 94.3762 91.0125C94.2203 91.1825 94.0149 91.2675 93.7599 91.2675ZM94.4399 101H93.0587V92.84H94.4399V101ZM99.6727 101.17C98.8511 101.17 98.2632 100.95 97.909 100.511C97.569 100.058 97.399 99.3779 97.399 98.4713V93.9875H96.0177V92.84H97.399V90.8425L98.7802 90.7363V92.84H101.458V93.9875H98.7802V98.3862C98.7802 98.9529 98.8652 99.3638 99.0352 99.6188C99.2194 99.8738 99.5665 100.001 100.076 100.001C100.558 100.001 100.99 99.9588 101.373 99.8738L101.606 100.809C100.969 101.05 100.324 101.17 99.6727 101.17ZM105.578 105.377H104.154L105.726 101.425L102.454 92.84H103.899L106.406 99.5975L108.914 92.84H110.231L105.578 105.377ZM26.0587 118.502V129H27.4612V118.502H31.3925V117.312H22.1912V118.502H26.0587ZM37.1254 129C38.3012 129 39.2858 128.766 40.0791 128.299C40.8866 127.831 41.5099 127.165 41.9491 126.301C42.4024 125.451 42.6291 124.403 42.6291 123.156C42.6291 121.98 42.4024 120.925 41.9491 119.99C41.5099 119.154 40.8866 118.503 40.0791 118.035C39.2716 117.553 38.287 117.312 37.1254 117.312H33.0029V129H37.1254ZM37.0191 118.524C37.9541 118.524 38.7262 118.736 39.3354 119.161C39.8029 119.487 40.2208 120.011 40.5891 120.734C40.9149 121.456 41.0779 122.264 41.0779 123.156C41.0779 124.219 40.9362 125.04 40.6529 125.621C40.327 126.301 39.8737 126.832 39.2929 127.215C38.7262 127.583 37.9683 127.768 37.0191 127.768H34.4054V118.524H37.0191ZM48.9789 129C50.1547 129 51.1393 128.766 51.9326 128.299C52.7401 127.831 53.3635 127.165 53.8026 126.301C54.256 125.451 54.4826 124.403 54.4826 123.156C54.4826 121.98 54.256 120.925 53.8026 119.99C53.3635 119.154 52.7401 118.503 51.9326 118.035C51.1251 117.553 50.1405 117.312 48.9789 117.312H44.8564V129H48.9789ZM48.8726 118.524C49.8076 118.524 50.5797 118.736 51.1889 119.161C51.6564 119.487 52.0743 120.011 52.4426 120.734C52.7685 121.456 52.9314 122.264 52.9314 123.156C52.9314 124.219 52.7897 125.04 52.5064 125.621C52.1805 126.301 51.7272 126.832 51.1464 127.215C50.5797 127.583 49.8218 127.768 48.8726 127.768H46.2589V118.524H48.8726ZM26.76 157.191C25.4992 157.191 24.5217 156.83 23.8275 156.108C23.1475 155.385 22.8075 154.372 22.8075 153.069C22.8075 151.85 23.1617 150.802 23.87 149.924C24.5783 149.13 25.6337 148.734 27.0362 148.734C27.7304 148.734 28.4246 148.883 29.1187 149.18L28.7787 150.2C28.2829 149.988 27.7233 149.881 27.1 149.881C26.1367 149.881 25.4142 150.136 24.9325 150.646C24.4508 151.142 24.21 151.865 24.21 152.814C24.21 154.032 24.5004 154.875 25.0812 155.343C25.6621 155.81 26.3775 156.044 27.2275 156.044C27.7658 156.044 28.2829 155.952 28.7787 155.768L29.0975 156.724C28.2758 157.035 27.4967 157.191 26.76 157.191ZM34.4372 157.191C33.2047 157.191 32.2414 156.809 31.5472 156.044C30.8672 155.279 30.5272 154.252 30.5272 152.963C30.5272 151.659 30.8743 150.632 31.5685 149.881C32.2768 149.116 33.2543 148.734 34.501 148.734C35.7476 148.734 36.711 149.109 37.391 149.86C38.071 150.611 38.411 151.638 38.411 152.941C38.411 154.216 38.0568 155.243 37.3485 156.023C36.6401 156.802 35.6697 157.191 34.4372 157.191ZM34.501 149.818C33.6935 149.818 33.0631 150.115 32.6097 150.71C32.1706 151.305 31.951 152.056 31.951 152.963C31.951 153.869 32.1706 154.613 32.6097 155.194C33.0631 155.775 33.6935 156.065 34.501 156.065C35.2943 156.065 35.9106 155.775 36.3497 155.194C36.7889 154.599 37.0085 153.855 37.0085 152.963C37.0085 152.056 36.7818 151.305 36.3285 150.71C35.8893 150.115 35.2801 149.818 34.501 149.818ZM50.1596 151.815C50.1596 150.483 49.6283 149.818 48.5658 149.818C48.0417 149.818 47.39 150.058 46.6108 150.54C46.6533 150.696 46.6746 151.008 46.6746 151.475V157H45.2933V151.815C45.2933 150.483 44.755 149.818 43.6783 149.818C43.1683 149.818 42.5379 150.023 41.7871 150.434V157H40.4058V148.84H41.3621L41.6596 149.52C42.1412 149.194 42.5875 148.968 42.9983 148.84C43.3242 148.755 43.6996 148.713 44.1246 148.713C44.5921 148.713 45.0029 148.805 45.3571 148.989C45.7254 149.173 46.0229 149.428 46.2496 149.754C46.7171 149.414 47.1633 149.159 47.5883 148.989C48.0133 148.805 48.4808 148.713 48.9908 148.713C49.8267 148.713 50.4642 148.968 50.9033 149.478C51.3567 149.973 51.5833 150.639 51.5833 151.475V157H50.1596V151.815ZM63.64 151.815C63.64 150.483 63.1088 149.818 62.0463 149.818C61.5221 149.818 60.8705 150.058 60.0913 150.54C60.1338 150.696 60.155 151.008 60.155 151.475V157H58.7738V151.815C58.7738 150.483 58.2355 149.818 57.1588 149.818C56.6488 149.818 56.0184 150.023 55.2675 150.434V157H53.8863V148.84H54.8425L55.14 149.52C55.6217 149.194 56.068 148.968 56.4788 148.84C56.8046 148.755 57.18 148.713 57.605 148.713C58.0725 148.713 58.4834 148.805 58.8375 148.989C59.2059 149.173 59.5034 149.428 59.73 149.754C60.1975 149.414 60.6438 149.159 61.0688 148.989C61.4938 148.805 61.9613 148.713 62.4713 148.713C63.3071 148.713 63.9446 148.968 64.3838 149.478C64.8371 149.973 65.0638 150.639 65.0638 151.475V157H63.64V151.815ZM68.748 154.089C68.748 154.783 68.8826 155.279 69.1518 155.576C69.4209 155.874 69.8813 156.023 70.533 156.023C71.1988 156.023 71.9426 155.831 72.7643 155.449V148.84H74.1455V157H73.1893L72.8918 156.405C71.8576 156.943 70.9013 157.212 70.023 157.212C69.173 157.212 68.5143 156.965 68.0468 156.469C67.5934 155.973 67.3668 155.293 67.3668 154.429V148.84H68.748V154.089ZM81.8951 151.815C81.8951 151.121 81.7605 150.625 81.4914 150.328C81.2364 150.03 80.783 149.881 80.1314 149.881C79.4372 149.881 78.6864 150.073 77.8789 150.455V157H76.4976V148.84H77.4539L77.7514 149.52C78.7289 148.982 79.6851 148.713 80.6201 148.713C81.4843 148.713 82.143 148.96 82.5964 149.456C83.0497 149.938 83.2764 150.611 83.2764 151.475V157H81.8951V151.815ZM86.3224 147.268C86.0674 147.268 85.8549 147.183 85.6849 147.013C85.5149 146.828 85.4299 146.616 85.4299 146.375C85.4299 146.148 85.5149 145.95 85.6849 145.78C85.8549 145.596 86.0674 145.504 86.3224 145.504C86.5633 145.504 86.7687 145.596 86.9387 145.78C87.1087 145.95 87.1937 146.148 87.1937 146.375C87.1937 146.616 87.1087 146.828 86.9387 147.013C86.7828 147.183 86.5774 147.268 86.3224 147.268ZM87.0024 157H85.6212V148.84H87.0024V157ZM93.0002 157.191C91.7394 157.191 90.7619 156.83 90.0677 156.108C89.3877 155.385 89.0477 154.372 89.0477 153.069C89.0477 151.85 89.4019 150.802 90.1102 149.924C90.8186 149.13 91.874 148.734 93.2765 148.734C93.9707 148.734 94.6648 148.883 95.359 149.18L95.019 150.2C94.5232 149.988 93.9636 149.881 93.3402 149.881C92.3769 149.881 91.6544 150.136 91.1727 150.646C90.6911 151.142 90.4502 151.865 90.4502 152.814C90.4502 154.032 90.7407 154.875 91.3215 155.343C91.9023 155.81 92.6177 156.044 93.4677 156.044C94.0061 156.044 94.5232 155.952 95.019 155.768L95.3377 156.724C94.5161 157.035 93.7369 157.191 93.0002 157.191ZM99.785 149.924C99.4875 149.924 99.1262 149.959 98.7012 150.03C98.2904 150.087 97.922 150.165 97.5962 150.264L97.32 149.244C98.2691 148.918 99.1545 148.755 99.9762 148.755C100.897 148.755 101.598 148.897 102.08 149.18C102.505 149.492 102.795 149.825 102.951 150.179C103.121 150.533 103.206 151.05 103.206 151.73V157H102.165L101.867 156.235C101.06 156.887 100.231 157.212 99.3812 157.212C98.6445 157.212 98.0212 157 97.5112 156.575C97.0154 156.15 96.7675 155.612 96.7675 154.96C96.7675 154.323 96.9587 153.798 97.3412 153.388C97.7379 152.963 98.2195 152.679 98.7862 152.538C99.5087 152.353 100.522 152.247 101.825 152.219V152.155C101.825 151.574 101.768 151.149 101.655 150.88C101.428 150.243 100.805 149.924 99.785 149.924ZM99.5725 156.108C100.04 156.108 100.451 156.03 100.805 155.874C101.159 155.704 101.499 155.47 101.825 155.173V153.218C100.847 153.232 100.125 153.288 99.6575 153.388C99.1333 153.501 98.7437 153.671 98.4887 153.898C98.2337 154.11 98.1062 154.415 98.1062 154.811C98.1062 155.222 98.2479 155.541 98.5312 155.768C98.8287 155.994 99.1758 156.108 99.5725 156.108ZM108.306 157.17C107.484 157.17 106.896 156.95 106.542 156.511C106.202 156.058 106.032 155.378 106.032 154.471V149.988H104.651V148.84H106.032V146.843L107.413 146.736V148.84H110.091V149.988H107.413V154.386C107.413 154.953 107.498 155.364 107.668 155.619C107.852 155.874 108.199 156.001 108.709 156.001C109.191 156.001 109.623 155.959 110.006 155.874L110.239 156.809C109.602 157.05 108.957 157.17 108.306 157.17ZM112.553 147.268C112.298 147.268 112.085 147.183 111.915 147.013C111.745 146.828 111.66 146.616 111.66 146.375C111.66 146.148 111.745 145.95 111.915 145.78C112.085 145.596 112.298 145.504 112.553 145.504C112.794 145.504 112.999 145.596 113.169 145.78C113.339 145.95 113.424 146.148 113.424 146.375C113.424 146.616 113.339 146.828 113.169 147.013C113.013 147.183 112.808 147.268 112.553 147.268ZM113.233 157H111.852V148.84H113.233V157ZM119.188 157.191C117.956 157.191 116.992 156.809 116.298 156.044C115.618 155.279 115.278 154.252 115.278 152.963C115.278 151.659 115.625 150.632 116.319 149.881C117.028 149.116 118.005 148.734 119.252 148.734C120.499 148.734 121.462 149.109 122.142 149.86C122.822 150.611 123.162 151.638 123.162 152.941C123.162 154.216 122.808 155.243 122.099 156.023C121.391 156.802 120.421 157.191 119.188 157.191ZM119.252 149.818C118.444 149.818 117.814 150.115 117.361 150.71C116.922 151.305 116.702 152.056 116.702 152.963C116.702 153.869 116.922 154.613 117.361 155.194C117.814 155.775 118.444 156.065 119.252 156.065C120.045 156.065 120.662 155.775 121.101 155.194C121.54 154.599 121.759 153.855 121.759 152.963C121.759 152.056 121.533 151.305 121.079 150.71C120.64 150.115 120.031 149.818 119.252 149.818ZM130.554 151.815C130.554 151.121 130.42 150.625 130.151 150.328C129.896 150.03 129.442 149.881 128.791 149.881C128.096 149.881 127.346 150.073 126.538 150.455V157H125.157V148.84H126.113L126.411 149.52C127.388 148.982 128.344 148.713 129.279 148.713C130.143 148.713 130.802 148.96 131.256 149.456C131.709 149.938 131.936 150.611 131.936 151.475V157H130.554V151.815Z" fill="#343D24"/>
<path d="M174.506 39.815C174.506 38.4833 173.975 37.8175 172.913 37.8175C172.388 37.8175 171.737 38.0583 170.958 38.54C171 38.6958 171.021 39.0075 171.021 39.475V45H169.64V39.815C169.64 38.4833 169.102 37.8175 168.025 37.8175C167.515 37.8175 166.885 38.0229 166.134 38.4338V45H164.753V36.84H165.709L166.006 37.52C166.488 37.1942 166.934 36.9675 167.345 36.84C167.671 36.755 168.046 36.7125 168.471 36.7125C168.939 36.7125 169.35 36.8046 169.704 36.9888C170.072 37.1729 170.37 37.4279 170.596 37.7538C171.064 37.4138 171.51 37.1588 171.935 36.9888C172.36 36.8046 172.827 36.7125 173.337 36.7125C174.173 36.7125 174.811 36.9675 175.25 37.4775C175.703 37.9733 175.93 38.6392 175.93 39.475V45H174.506V39.815ZM181.505 36.7338C182.582 36.7338 183.411 37.0596 183.992 37.7113C184.573 38.3488 184.863 39.2554 184.863 40.4313V41.175L184.778 41.345H179.189C179.189 42.0392 179.451 42.6837 179.975 43.2787C180.471 43.7746 181.243 44.0225 182.292 44.0225C182.986 44.0225 183.645 43.9163 184.268 43.7037L184.523 44.7238C183.659 45.0213 182.788 45.17 181.909 45.17C180.592 45.17 179.586 44.8158 178.892 44.1075C178.198 43.3992 177.85 42.3863 177.85 41.0688C177.85 39.8221 178.155 38.795 178.764 37.9875C179.416 37.1517 180.33 36.7338 181.505 36.7338ZM183.46 40.24C183.46 39.5317 183.305 38.9508 182.993 38.4975C182.695 38.0442 182.249 37.8175 181.654 37.8175C180.903 37.8175 180.33 38.0442 179.933 38.4975C179.536 38.9508 179.295 39.5317 179.21 40.24H183.46ZM192.213 39.815C192.213 39.1208 192.079 38.625 191.81 38.3275C191.555 38.03 191.101 37.8813 190.45 37.8813C189.756 37.8813 189.005 38.0725 188.197 38.455V45H186.816V36.84H187.772L188.07 37.52C189.047 36.9817 190.003 36.7125 190.938 36.7125C191.803 36.7125 192.461 36.9604 192.915 37.4563C193.368 37.9379 193.595 38.6108 193.595 39.475V45H192.213V39.815ZM198.702 45.17C197.88 45.17 197.292 44.9504 196.938 44.5113C196.598 44.0579 196.428 43.3779 196.428 42.4713V37.9875H195.047V36.84H196.428V34.8425L197.81 34.7363V36.84H200.487V37.9875H197.81V42.3862C197.81 42.9529 197.895 43.3638 198.065 43.6188C198.249 43.8738 198.596 44.0013 199.106 44.0013C199.587 44.0013 200.02 43.9588 200.402 43.8738L200.636 44.8088C199.998 45.0496 199.354 45.17 198.702 45.17ZM205.733 45.1912C204.501 45.1912 203.537 44.8088 202.843 44.0438C202.163 43.2788 201.823 42.2517 201.823 40.9625C201.823 39.6592 202.17 38.6321 202.864 37.8813C203.573 37.1163 204.55 36.7338 205.797 36.7338C207.044 36.7338 208.007 37.1092 208.687 37.86C209.367 38.6108 209.707 39.6379 209.707 40.9413C209.707 42.2163 209.353 43.2433 208.644 44.0225C207.936 44.8017 206.966 45.1912 205.733 45.1912ZM205.797 37.8175C204.989 37.8175 204.359 38.115 203.906 38.71C203.466 39.305 203.247 40.0558 203.247 40.9625C203.247 41.8692 203.466 42.6129 203.906 43.1938C204.359 43.7746 204.989 44.065 205.797 44.065C206.59 44.065 207.206 43.7746 207.646 43.1938C208.085 42.5988 208.304 41.855 208.304 40.9625C208.304 40.0558 208.078 39.305 207.624 38.71C207.185 38.115 206.576 37.8175 205.797 37.8175ZM215.229 36.7338C215.541 36.7338 215.789 36.755 215.973 36.7975C216.171 36.8258 216.363 36.8825 216.547 36.9675L216.058 38.2C215.69 38.03 215.286 37.945 214.847 37.945C214.252 37.945 213.664 38.1433 213.083 38.54V45H211.702V36.84H212.7L212.998 37.5413C213.706 37.0029 214.45 36.7338 215.229 36.7338ZM218.671 35.2675C218.416 35.2675 218.204 35.1825 218.034 35.0125C217.864 34.8283 217.779 34.6158 217.779 34.375C217.779 34.1483 217.864 33.95 218.034 33.78C218.204 33.5958 218.416 33.5038 218.671 33.5038C218.912 33.5038 219.117 33.5958 219.287 33.78C219.457 33.95 219.542 34.1483 219.542 34.375C219.542 34.6158 219.457 34.8283 219.287 35.0125C219.131 35.1825 218.926 35.2675 218.671 35.2675ZM219.351 45H217.97V36.84H219.351V45ZM227.176 39.815C227.176 39.1208 227.042 38.625 226.773 38.3275C226.518 38.03 226.064 37.8813 225.413 37.8813C224.718 37.8813 223.968 38.0725 223.16 38.455V45H221.779V36.84H222.735L223.033 37.52C224.01 36.9817 224.966 36.7125 225.901 36.7125C226.766 36.7125 227.424 36.9604 227.878 37.4563C228.331 37.9379 228.558 38.6108 228.558 39.475V45H227.176V39.815ZM236.364 44.6175C235.655 44.9858 234.94 45.17 234.217 45.17C232.914 45.17 231.915 44.6671 231.221 43.6613C230.725 42.9246 230.477 42.0604 230.477 41.0688C230.477 40.0629 230.69 39.2129 231.115 38.5188C231.554 37.8104 232.156 37.3004 232.921 36.9888C233.275 36.8188 233.736 36.7338 234.302 36.7338C234.968 36.7338 235.606 36.8754 236.215 37.1588L236.619 37.35L236.767 36.84H237.766V45.3825C237.766 46.1333 237.681 46.7354 237.511 47.1887C237.341 47.6421 237.051 48.06 236.64 48.4425C236.3 48.7683 235.875 49.0162 235.365 49.1862C234.869 49.3704 234.31 49.4625 233.686 49.4625C233.29 49.4625 232.857 49.4129 232.39 49.3137C231.937 49.2146 231.54 49.0871 231.2 48.9312L231.561 47.9537C232.369 48.2371 233.013 48.3787 233.495 48.3787C234.345 48.3787 235.011 48.1733 235.492 47.7625C235.974 47.3517 236.257 46.7708 236.342 46.02C236.357 45.8642 236.364 45.4675 236.364 44.83V44.6175ZM234.536 44.0438C235.245 44.0438 235.854 43.895 236.364 43.5975V38.2638C235.726 37.9804 235.096 37.8388 234.472 37.8388C233.622 37.8388 232.978 38.115 232.539 38.6675C232.1 39.22 231.88 39.9567 231.88 40.8775C231.88 41.5433 232.007 42.1313 232.262 42.6412C232.517 43.1512 232.865 43.5196 233.304 43.7463C233.658 43.9446 234.069 44.0438 234.536 44.0438ZM111.827 62.3113C111.359 62.3113 110.97 62.4246 110.658 62.6513C110.36 62.8779 110.183 63.1683 110.127 63.5225C110.098 63.6925 110.084 63.8838 110.084 64.0962V64.84H112.783V65.9238H110.105V73H108.724V65.9238H107.513V64.84H108.682V64.0112C108.682 63.3171 108.774 62.8071 108.958 62.4813C109.425 61.6454 110.24 61.2275 111.402 61.2275C111.983 61.2275 112.641 61.3338 113.378 61.5463L113.144 62.5663C112.535 62.3963 112.096 62.3113 111.827 62.3113ZM117.761 73.1912C116.529 73.1912 115.566 72.8088 114.871 72.0438C114.191 71.2788 113.851 70.2517 113.851 68.9625C113.851 67.6592 114.199 66.6321 114.893 65.8813C115.601 65.1163 116.579 64.7338 117.825 64.7338C119.072 64.7338 120.035 65.1092 120.715 65.86C121.395 66.6108 121.735 67.6379 121.735 68.9413C121.735 70.2163 121.381 71.2433 120.673 72.0225C119.964 72.8017 118.994 73.1912 117.761 73.1912ZM117.825 65.8175C117.018 65.8175 116.387 66.115 115.934 66.71C115.495 67.305 115.275 68.0558 115.275 68.9625C115.275 69.8692 115.495 70.6129 115.934 71.1938C116.387 71.7746 117.018 72.065 117.825 72.065C118.619 72.065 119.235 71.7746 119.674 71.1938C120.113 70.5988 120.333 69.855 120.333 68.9625C120.333 68.0558 120.106 67.305 119.653 66.71C119.214 66.115 118.604 65.8175 117.825 65.8175ZM127.258 64.7338C127.569 64.7338 127.817 64.755 128.001 64.7975C128.2 64.8258 128.391 64.8825 128.575 64.9675L128.086 66.2C127.718 66.03 127.314 65.945 126.875 65.945C126.28 65.945 125.692 66.1433 125.111 66.54V73H123.73V64.84H124.729L125.026 65.5413C125.735 65.0029 126.478 64.7338 127.258 64.7338ZM133.228 64.7338C134.305 64.7338 135.134 65.0596 135.714 65.7113C136.295 66.3488 136.586 67.2554 136.586 68.4313V69.175L136.501 69.345H130.912C130.912 70.0392 131.174 70.6837 131.698 71.2787C132.194 71.7746 132.966 72.0225 134.014 72.0225C134.709 72.0225 135.367 71.9163 135.991 71.7037L136.246 72.7238C135.381 73.0213 134.51 73.17 133.632 73.17C132.314 73.17 131.309 72.8158 130.614 72.1075C129.92 71.3992 129.573 70.3863 129.573 69.0688C129.573 67.8221 129.878 66.795 130.487 65.9875C131.139 65.1517 132.052 64.7338 133.228 64.7338ZM135.183 68.24C135.183 67.5317 135.027 66.9508 134.716 66.4975C134.418 66.0442 133.972 65.8175 133.377 65.8175C132.626 65.8175 132.052 66.0442 131.656 66.4975C131.259 66.9508 131.018 67.5317 130.933 68.24H135.183ZM139.282 63.2675C139.027 63.2675 138.815 63.1825 138.645 63.0125C138.475 62.8283 138.39 62.6158 138.39 62.375C138.39 62.1483 138.475 61.95 138.645 61.78C138.815 61.5958 139.027 61.5038 139.282 61.5038C139.523 61.5038 139.729 61.5958 139.899 61.78C140.069 61.95 140.154 62.1483 140.154 62.375C140.154 62.6158 140.069 62.8283 139.899 63.0125C139.743 63.1825 139.537 63.2675 139.282 63.2675ZM139.962 73H138.581V64.84H139.962V73ZM147.894 72.6175C147.186 72.9858 146.47 73.17 145.748 73.17C144.444 73.17 143.446 72.6671 142.751 71.6613C142.256 70.9246 142.008 70.0604 142.008 69.0688C142.008 68.0629 142.22 67.2129 142.645 66.5188C143.084 65.8104 143.686 65.3004 144.451 64.9888C144.806 64.8188 145.266 64.7338 145.833 64.7338C146.499 64.7338 147.136 64.8754 147.745 65.1588L148.149 65.35L148.298 64.84H149.296V73.3825C149.296 74.1333 149.211 74.7354 149.041 75.1887C148.871 75.6421 148.581 76.06 148.17 76.4425C147.83 76.7683 147.405 77.0162 146.895 77.1862C146.399 77.3704 145.84 77.4625 145.216 77.4625C144.82 77.4625 144.388 77.4129 143.92 77.3137C143.467 77.2146 143.07 77.0871 142.73 76.9312L143.091 75.9537C143.899 76.2371 144.544 76.3787 145.025 76.3787C145.875 76.3787 146.541 76.1733 147.023 75.7625C147.504 75.3517 147.788 74.7708 147.873 74.02C147.887 73.8642 147.894 73.4675 147.894 72.83V72.6175ZM146.066 72.0438C146.775 72.0438 147.384 71.895 147.894 71.5975V66.2638C147.256 65.9804 146.626 65.8388 146.003 65.8388C145.153 65.8388 144.508 66.115 144.069 66.6675C143.63 67.22 143.41 67.9567 143.41 68.8775C143.41 69.5433 143.538 70.1313 143.793 70.6412C144.048 71.1512 144.395 71.5196 144.834 71.7463C145.188 71.9446 145.599 72.0438 146.066 72.0438ZM157.118 67.815C157.118 67.1208 156.983 66.625 156.714 66.3275C156.459 66.03 156.006 65.8813 155.354 65.8813C154.66 65.8813 153.909 66.0725 153.102 66.455V73H151.72V64.84H152.677L152.974 65.52C153.952 64.9817 154.908 64.7125 155.843 64.7125C156.707 64.7125 157.366 64.9604 157.819 65.4563C158.272 65.9379 158.499 66.6108 158.499 67.475V73H157.118V67.815ZM167.905 71.9163C168.118 71.9163 168.359 71.8738 168.628 71.7888L168.883 72.7875C168.84 72.8017 168.67 72.8725 168.373 73C168.075 73.1275 167.693 73.1912 167.225 73.1912C166.701 73.1912 166.283 73.0142 165.972 72.66C165.66 72.2917 165.497 71.8171 165.483 71.2363V61.6738H166.822V70.7475C166.822 71.13 166.885 71.4204 167.013 71.6188C167.14 71.8171 167.438 71.9163 167.905 71.9163ZM172.8 65.9238C172.502 65.9238 172.141 65.9592 171.716 66.03C171.305 66.0867 170.937 66.1646 170.611 66.2638L170.335 65.2438C171.284 64.9179 172.169 64.755 172.991 64.755C173.912 64.755 174.613 64.8967 175.095 65.18C175.52 65.4917 175.81 65.8246 175.966 66.1787C176.136 66.5329 176.221 67.05 176.221 67.73V73H175.18L174.882 72.235C174.075 72.8867 173.246 73.2125 172.396 73.2125C171.659 73.2125 171.036 73 170.526 72.575C170.03 72.15 169.782 71.6117 169.782 70.96C169.782 70.3225 169.973 69.7983 170.356 69.3875C170.753 68.9625 171.234 68.6792 171.801 68.5375C172.523 68.3533 173.536 68.2471 174.84 68.2188V68.155C174.84 67.5742 174.783 67.1492 174.67 66.88C174.443 66.2425 173.82 65.9238 172.8 65.9238ZM172.587 72.1075C173.055 72.1075 173.465 72.0296 173.82 71.8738C174.174 71.7038 174.514 71.47 174.84 71.1725V69.2175C173.862 69.2317 173.14 69.2883 172.672 69.3875C172.148 69.5008 171.758 69.6708 171.503 69.8975C171.248 70.11 171.121 70.4146 171.121 70.8113C171.121 71.2221 171.263 71.5408 171.546 71.7675C171.843 71.9942 172.19 72.1075 172.587 72.1075ZM183.913 67.815C183.913 67.1208 183.778 66.625 183.509 66.3275C183.254 66.03 182.801 65.8813 182.149 65.8813C181.455 65.8813 180.704 66.0725 179.896 66.455V73H178.515V64.84H179.471L179.769 65.52C180.746 64.9817 181.703 64.7125 182.638 64.7125C183.502 64.7125 184.161 64.9604 184.614 65.4563C185.067 65.9379 185.294 66.6108 185.294 67.475V73H183.913V67.815ZM193.1 72.6175C192.392 72.9858 191.676 73.17 190.954 73.17C189.65 73.17 188.652 72.6671 187.957 71.6613C187.462 70.9246 187.214 70.0604 187.214 69.0688C187.214 68.0629 187.426 67.2129 187.851 66.5188C188.29 65.8104 188.892 65.3004 189.657 64.9888C190.012 64.8188 190.472 64.7338 191.039 64.7338C191.705 64.7338 192.342 64.8754 192.951 65.1588L193.355 65.35L193.504 64.84H194.502V73.3825C194.502 74.1333 194.417 74.7354 194.247 75.1887C194.077 75.6421 193.787 76.06 193.376 76.4425C193.036 76.7683 192.611 77.0162 192.101 77.1862C191.605 77.3704 191.046 77.4625 190.422 77.4625C190.026 77.4625 189.594 77.4129 189.126 77.3137C188.673 77.2146 188.276 77.0871 187.936 76.9312L188.297 75.9537C189.105 76.2371 189.75 76.3787 190.231 76.3787C191.081 76.3787 191.747 76.1733 192.229 75.7625C192.71 75.3517 192.994 74.7708 193.079 74.02C193.093 73.8642 193.1 73.4675 193.1 72.83V72.6175ZM191.272 72.0438C191.981 72.0438 192.59 71.895 193.1 71.5975V66.2638C192.462 65.9804 191.832 65.8388 191.209 65.8388C190.359 65.8388 189.714 66.115 189.275 66.6675C188.836 67.22 188.616 67.9567 188.616 68.8775C188.616 69.5433 188.744 70.1313 188.999 70.6412C189.254 71.1512 189.601 71.5196 190.04 71.7463C190.394 71.9446 190.805 72.0438 191.272 72.0438ZM198.308 70.0887C198.308 70.7829 198.442 71.2788 198.711 71.5763C198.98 71.8738 199.441 72.0225 200.093 72.0225C200.758 72.0225 201.502 71.8313 202.324 71.4488V64.84H203.705V73H202.749L202.451 72.405C201.417 72.9433 200.461 73.2125 199.583 73.2125C198.733 73.2125 198.074 72.9646 197.606 72.4688C197.153 71.9729 196.926 71.2929 196.926 70.4288V64.84H198.308V70.0887ZM208.692 65.9238C208.395 65.9238 208.033 65.9592 207.608 66.03C207.198 66.0867 206.829 66.1646 206.503 66.2638L206.227 65.2438C207.176 64.9179 208.062 64.755 208.883 64.755C209.804 64.755 210.506 64.8967 210.987 65.18C211.412 65.4917 211.703 65.8246 211.858 66.1787C212.028 66.5329 212.113 67.05 212.113 67.73V73H211.072L210.775 72.235C209.967 72.8867 209.138 73.2125 208.288 73.2125C207.552 73.2125 206.928 73 206.418 72.575C205.923 72.15 205.675 71.6117 205.675 70.96C205.675 70.3225 205.866 69.7983 206.248 69.3875C206.645 68.9625 207.127 68.6792 207.693 68.5375C208.416 68.3533 209.429 68.2471 210.732 68.2188V68.155C210.732 67.5742 210.676 67.1492 210.562 66.88C210.336 66.2425 209.712 65.9238 208.692 65.9238ZM208.48 72.1075C208.947 72.1075 209.358 72.0296 209.712 71.8738C210.066 71.7038 210.406 71.47 210.732 71.1725V69.2175C209.755 69.2317 209.032 69.2883 208.565 69.3875C208.041 69.5008 207.651 69.6708 207.396 69.8975C207.141 70.11 207.013 70.4146 207.013 70.8113C207.013 71.2221 207.155 71.5408 207.438 71.7675C207.736 71.9942 208.083 72.1075 208.48 72.1075ZM219.912 72.6175C219.203 72.9858 218.488 73.17 217.765 73.17C216.462 73.17 215.463 72.6671 214.769 71.6613C214.273 70.9246 214.025 70.0604 214.025 69.0688C214.025 68.0629 214.238 67.2129 214.663 66.5188C215.102 65.8104 215.704 65.3004 216.469 64.9888C216.823 64.8188 217.284 64.7338 217.85 64.7338C218.516 64.7338 219.154 64.8754 219.763 65.1588L220.167 65.35L220.315 64.84H221.314V73.3825C221.314 74.1333 221.229 74.7354 221.059 75.1887C220.889 75.6421 220.599 76.06 220.188 76.4425C219.848 76.7683 219.423 77.0162 218.913 77.1862C218.417 77.3704 217.857 77.4625 217.234 77.4625C216.837 77.4625 216.405 77.4129 215.938 77.3137C215.484 77.2146 215.088 77.0871 214.748 76.9312L215.109 75.9537C215.917 76.2371 216.561 76.3787 217.043 76.3787C217.893 76.3787 218.559 76.1733 219.04 75.7625C219.522 75.3517 219.805 74.7708 219.89 74.02C219.904 73.8642 219.912 73.4675 219.912 72.83V72.6175ZM218.084 72.0438C218.792 72.0438 219.402 71.895 219.912 71.5975V66.2638C219.274 65.9804 218.644 65.8388 218.02 65.8388C217.17 65.8388 216.526 66.115 216.087 66.6675C215.647 67.22 215.428 67.9567 215.428 68.8775C215.428 69.5433 215.555 70.1313 215.81 70.6412C216.065 71.1512 216.412 71.5196 216.852 71.7463C217.206 71.9446 217.617 72.0438 218.084 72.0438ZM227.01 64.7338C228.087 64.7338 228.916 65.0596 229.497 65.7113C230.077 66.3488 230.368 67.2554 230.368 68.4313V69.175L230.283 69.345H224.694C224.694 70.0392 224.956 70.6837 225.48 71.2787C225.976 71.7746 226.748 72.0225 227.797 72.0225C228.491 72.0225 229.15 71.9163 229.773 71.7037L230.028 72.7238C229.164 73.0213 228.292 73.17 227.414 73.17C226.097 73.17 225.091 72.8158 224.397 72.1075C223.702 71.3992 223.355 70.3863 223.355 69.0688C223.355 67.8221 223.66 66.795 224.269 65.9875C224.921 65.1517 225.835 64.7338 227.01 64.7338ZM228.965 68.24C228.965 67.5317 228.81 66.9508 228.498 66.4975C228.2 66.0442 227.754 65.8175 227.159 65.8175C226.408 65.8175 225.835 66.0442 225.438 66.4975C225.041 66.9508 224.8 67.5317 224.715 68.24H228.965ZM234.892 72.0225C235.388 72.0225 235.806 71.9304 236.146 71.7463C236.5 71.5479 236.677 71.2646 236.677 70.8963C236.677 70.5988 236.55 70.365 236.295 70.195C236.04 70.025 235.501 69.77 234.68 69.43L233.872 69.1113C233.518 68.9413 233.228 68.7925 233.001 68.665C232.774 68.5233 232.569 68.3179 232.385 68.0488C232.2 67.7654 232.108 67.4113 232.108 66.9863C232.108 66.2213 232.42 65.6546 233.043 65.2863C233.681 64.9179 234.46 64.7338 235.381 64.7338C236.16 64.7338 236.939 64.9108 237.718 65.265L237.378 66.285C236.741 66.0158 236.125 65.8813 235.53 65.8813C234.92 65.8813 234.425 65.9733 234.042 66.1575C233.674 66.3275 233.49 66.5754 233.49 66.9013C233.49 67.2271 233.617 67.4821 233.872 67.6663C234.141 67.8504 234.595 68.0629 235.232 68.3037L235.933 68.58C236.713 68.9058 237.258 69.2458 237.57 69.6C237.881 69.9542 238.037 70.4217 238.037 71.0025C238.037 71.5975 237.761 72.1146 237.208 72.5538C236.656 72.9787 235.919 73.1912 234.998 73.1912C233.95 73.1912 232.916 72.9858 231.896 72.575L232.278 71.5338C233.199 71.8596 234.07 72.0225 234.892 72.0225ZM147.053 100.023C147.549 100.023 147.967 99.9304 148.307 99.7463C148.661 99.5479 148.838 99.2646 148.838 98.8963C148.838 98.5988 148.711 98.365 148.456 98.195C148.201 98.025 147.662 97.77 146.841 97.43L146.033 97.1113C145.679 96.9413 145.389 96.7925 145.162 96.665C144.935 96.5233 144.73 96.3179 144.546 96.0488C144.362 95.7654 144.269 95.4113 144.269 94.9863C144.269 94.2213 144.581 93.6546 145.204 93.2863C145.842 92.9179 146.621 92.7338 147.542 92.7338C148.321 92.7338 149.1 92.9108 149.879 93.265L149.539 94.285C148.902 94.0158 148.286 93.8813 147.691 93.8813C147.082 93.8813 146.586 93.9733 146.203 94.1575C145.835 94.3275 145.651 94.5754 145.651 94.9013C145.651 95.2271 145.778 95.4821 146.033 95.6663C146.302 95.8504 146.756 96.0629 147.393 96.3037L148.094 96.58C148.874 96.9058 149.419 97.2458 149.731 97.6C150.042 97.9542 150.198 98.4217 150.198 99.0025C150.198 99.5975 149.922 100.115 149.369 100.554C148.817 100.979 148.08 101.191 147.159 101.191C146.111 101.191 145.077 100.986 144.057 100.575L144.439 99.5338C145.36 99.8596 146.232 100.023 147.053 100.023ZM155.879 101.191C154.646 101.191 153.683 100.809 152.989 100.044C152.309 99.2788 151.969 98.2517 151.969 96.9625C151.969 95.6592 152.316 94.6321 153.01 93.8813C153.718 93.1163 154.696 92.7338 155.942 92.7338C157.189 92.7338 158.152 93.1092 158.832 93.86C159.512 94.6108 159.852 95.6379 159.852 96.9413C159.852 98.2163 159.498 99.2433 158.79 100.023C158.082 100.802 157.111 101.191 155.879 101.191ZM155.942 93.8175C155.135 93.8175 154.504 94.115 154.051 94.71C153.612 95.305 153.392 96.0558 153.392 96.9625C153.392 97.8692 153.612 98.6129 154.051 99.1938C154.504 99.7746 155.135 100.065 155.942 100.065C156.736 100.065 157.352 99.7746 157.791 99.1938C158.23 98.5988 158.45 97.855 158.45 96.9625C158.45 96.0558 158.223 95.305 157.77 94.71C157.331 94.115 156.722 93.8175 155.942 93.8175ZM165.417 101.191C164.156 101.191 163.179 100.83 162.485 100.108C161.805 99.385 161.465 98.3721 161.465 97.0688C161.465 95.8504 161.819 94.8021 162.527 93.9238C163.236 93.1304 164.291 92.7338 165.693 92.7338C166.388 92.7338 167.082 92.8825 167.776 93.18L167.436 94.2C166.94 93.9875 166.381 93.8813 165.757 93.8813C164.794 93.8813 164.071 94.1363 163.59 94.6462C163.108 95.1421 162.867 95.8646 162.867 96.8138C162.867 98.0321 163.158 98.875 163.738 99.3425C164.319 99.81 165.035 100.044 165.885 100.044C166.423 100.044 166.94 99.9517 167.436 99.7675L167.755 100.724C166.933 101.035 166.154 101.191 165.417 101.191ZM170.311 91.2675C170.056 91.2675 169.843 91.1825 169.673 91.0125C169.503 90.8283 169.418 90.6158 169.418 90.375C169.418 90.1483 169.503 89.95 169.673 89.78C169.843 89.5958 170.056 89.5038 170.311 89.5038C170.552 89.5038 170.757 89.5958 170.927 89.78C171.097 89.95 171.182 90.1483 171.182 90.375C171.182 90.6158 171.097 90.8283 170.927 91.0125C170.771 91.1825 170.566 91.2675 170.311 91.2675ZM170.991 101H169.609V92.84H170.991V101ZM176.054 93.9238C175.756 93.9238 175.395 93.9592 174.97 94.03C174.559 94.0867 174.191 94.1646 173.865 94.2638L173.589 93.2438C174.538 92.9179 175.423 92.755 176.245 92.755C177.166 92.755 177.867 92.8967 178.349 93.18C178.774 93.4917 179.064 93.8246 179.22 94.1787C179.39 94.5329 179.475 95.05 179.475 95.73V101H178.434L178.136 100.235C177.329 100.887 176.5 101.212 175.65 101.212C174.913 101.212 174.29 101 173.78 100.575C173.284 100.15 173.036 99.6117 173.036 98.96C173.036 98.3225 173.227 97.7983 173.61 97.3875C174.006 96.9625 174.488 96.6792 175.055 96.5375C175.777 96.3533 176.79 96.2471 178.094 96.2188V96.155C178.094 95.5742 178.037 95.1492 177.924 94.88C177.697 94.2425 177.074 93.9238 176.054 93.9238ZM175.841 100.108C176.309 100.108 176.719 100.03 177.074 99.8738C177.428 99.7038 177.768 99.47 178.094 99.1725V97.2175C177.116 97.2317 176.394 97.2883 175.926 97.3875C175.402 97.5008 175.012 97.6708 174.757 97.8975C174.502 98.11 174.375 98.4146 174.375 98.8113C174.375 99.2221 174.516 99.5408 174.8 99.7675C175.097 99.9942 175.444 100.108 175.841 100.108ZM184.192 99.9163C184.404 99.9163 184.645 99.8738 184.914 99.7888L185.169 100.788C185.127 100.802 184.957 100.873 184.659 101C184.362 101.127 183.979 101.191 183.512 101.191C182.987 101.191 182.57 101.014 182.258 100.66C181.946 100.292 181.783 99.8171 181.769 99.2363V89.6738H183.108V98.7475C183.108 99.13 183.172 99.4204 183.299 99.6188C183.427 99.8171 183.724 99.9163 184.192 99.9163ZM191.876 91.2675C191.621 91.2675 191.409 91.1825 191.239 91.0125C191.069 90.8283 190.984 90.6158 190.984 90.375C190.984 90.1483 191.069 89.95 191.239 89.78C191.409 89.5958 191.621 89.5038 191.876 89.5038C192.117 89.5038 192.322 89.5958 192.492 89.78C192.662 89.95 192.747 90.1483 192.747 90.375C192.747 90.6158 192.662 90.8283 192.492 91.0125C192.337 91.1825 192.131 91.2675 191.876 91.2675ZM192.556 101H191.175V92.84H192.556V101ZM204.738 95.815C204.738 94.4833 204.206 93.8175 203.144 93.8175C202.62 93.8175 201.968 94.0583 201.189 94.54C201.231 94.6958 201.253 95.0075 201.253 95.475V101H199.871V95.815C199.871 94.4833 199.333 93.8175 198.256 93.8175C197.746 93.8175 197.116 94.0229 196.365 94.4338V101H194.984V92.84H195.94L196.238 93.52C196.719 93.1942 197.166 92.9675 197.576 92.84C197.902 92.755 198.278 92.7125 198.703 92.7125C199.17 92.7125 199.581 92.8046 199.935 92.9888C200.304 93.1729 200.601 93.4279 200.828 93.7538C201.295 93.4138 201.741 93.1588 202.166 92.9888C202.591 92.8046 203.059 92.7125 203.569 92.7125C204.405 92.7125 205.042 92.9675 205.481 93.4775C205.935 93.9733 206.161 94.6392 206.161 95.475V101H204.738V95.815ZM208.507 92.84H209.484L209.761 93.4563C210.455 92.9746 211.22 92.7338 212.056 92.7338C212.849 92.7338 213.522 92.9038 214.074 93.2438C215.25 93.9804 215.838 95.1775 215.838 96.835C215.838 98.2517 215.441 99.3425 214.648 100.108C213.869 100.844 212.941 101.212 211.864 101.212C211.17 101.212 210.511 101.078 209.888 100.809V105.42H208.507V92.84ZM211.716 93.8813C211.319 93.8813 210.986 93.9167 210.717 93.9875C210.462 94.0583 210.186 94.1858 209.888 94.37V99.725C210.441 99.98 211.043 100.108 211.694 100.108C212.544 100.108 213.203 99.8171 213.671 99.2363C214.138 98.6554 214.372 97.9046 214.372 96.9838C214.372 96.0346 214.145 95.2838 213.692 94.7312C213.239 94.1646 212.58 93.8813 211.716 93.8813ZM220.446 93.9238C220.149 93.9238 219.787 93.9592 219.362 94.03C218.952 94.0867 218.583 94.1646 218.257 94.2638L217.981 93.2438C218.93 92.9179 219.816 92.755 220.637 92.755C221.558 92.755 222.259 92.8967 222.741 93.18C223.166 93.4917 223.457 93.8246 223.612 94.1787C223.782 94.5329 223.867 95.05 223.867 95.73V101H222.826L222.529 100.235C221.721 100.887 220.892 101.212 220.042 101.212C219.306 101.212 218.682 101 218.172 100.575C217.677 100.15 217.429 99.6117 217.429 98.96C217.429 98.3225 217.62 97.7983 218.002 97.3875C218.399 96.9625 218.881 96.6792 219.447 96.5375C220.17 96.3533 221.183 96.2471 222.486 96.2188V96.155C222.486 95.5742 222.429 95.1492 222.316 94.88C222.089 94.2425 221.466 93.9238 220.446 93.9238ZM220.234 100.108C220.701 100.108 221.112 100.03 221.466 99.8738C221.82 99.7038 222.16 99.47 222.486 99.1725V97.2175C221.509 97.2317 220.786 97.2883 220.319 97.3875C219.794 97.5008 219.405 97.6708 219.15 97.8975C218.895 98.11 218.767 98.4146 218.767 98.8113C218.767 99.2221 218.909 99.5408 219.192 99.7675C219.49 99.9942 219.837 100.108 220.234 100.108ZM229.732 101.191C228.471 101.191 227.493 100.83 226.799 100.108C226.119 99.385 225.779 98.3721 225.779 97.0688C225.779 95.8504 226.133 94.8021 226.842 93.9238C227.55 93.1304 228.605 92.7338 230.008 92.7338C230.702 92.7338 231.396 92.8825 232.09 93.18L231.75 94.2C231.255 93.9875 230.695 93.8813 230.072 93.8813C229.108 93.8813 228.386 94.1363 227.904 94.6462C227.423 95.1421 227.182 95.8646 227.182 96.8138C227.182 98.0321 227.472 98.875 228.053 99.3425C228.634 99.81 229.349 100.044 230.199 100.044C230.738 100.044 231.255 99.9517 231.75 99.7675L232.069 100.724C231.248 101.035 230.468 101.191 229.732 101.191ZM236.686 101.17C235.865 101.17 235.277 100.95 234.923 100.511C234.583 100.058 234.413 99.3779 234.413 98.4713V93.9875H233.031V92.84H234.413V90.8425L235.794 90.7363V92.84H238.471V93.9875H235.794V98.3862C235.794 98.9529 235.879 99.3638 236.049 99.6188C236.233 99.8738 236.58 100.001 237.09 100.001C237.572 100.001 238.004 99.9588 238.386 99.8738L238.62 100.809C237.983 101.05 237.338 101.17 236.686 101.17ZM200.329 129.17C199.507 129.17 198.919 128.95 198.565 128.511C198.225 128.058 198.055 127.378 198.055 126.471V121.988H196.674V120.84H198.055V118.843L199.436 118.736V120.84H202.114V121.988H199.436V126.386C199.436 126.953 199.521 127.364 199.691 127.619C199.876 127.874 200.223 128.001 200.733 128.001C201.214 128.001 201.646 127.959 202.029 127.874L202.263 128.809C201.625 129.05 200.981 129.17 200.329 129.17ZM207.36 120.734C207.672 120.734 207.92 120.755 208.104 120.798C208.302 120.826 208.493 120.883 208.678 120.968L208.189 122.2C207.82 122.03 207.417 121.945 206.978 121.945C206.383 121.945 205.795 122.143 205.214 122.54V129H203.833V120.84H204.831L205.129 121.541C205.837 121.003 206.581 120.734 207.36 120.734ZM212.693 121.924C212.396 121.924 212.034 121.959 211.609 122.03C211.199 122.087 210.83 122.165 210.504 122.264L210.228 121.244C211.177 120.918 212.063 120.755 212.884 120.755C213.805 120.755 214.506 120.897 214.988 121.18C215.413 121.492 215.704 121.825 215.859 122.179C216.029 122.533 216.114 123.05 216.114 123.73V129H215.073L214.776 128.235C213.968 128.887 213.139 129.212 212.289 129.212C211.553 129.212 210.929 129 210.419 128.575C209.924 128.15 209.676 127.612 209.676 126.96C209.676 126.323 209.867 125.798 210.249 125.388C210.646 124.963 211.128 124.679 211.694 124.538C212.417 124.353 213.43 124.247 214.733 124.219V124.155C214.733 123.574 214.676 123.149 214.563 122.88C214.336 122.243 213.713 121.924 212.693 121.924ZM212.481 128.108C212.948 128.108 213.359 128.03 213.713 127.874C214.067 127.704 214.407 127.47 214.733 127.173V125.218C213.756 125.232 213.033 125.288 212.566 125.388C212.041 125.501 211.652 125.671 211.397 125.898C211.142 126.11 211.014 126.415 211.014 126.811C211.014 127.222 211.156 127.541 211.439 127.768C211.737 127.994 212.084 128.108 212.481 128.108ZM220.725 129L217.686 120.84H219.174L221.426 127.236L221.511 127.661L221.575 127.236L223.849 120.84H225.272L222.255 129H220.725ZM230.198 120.734C231.275 120.734 232.103 121.06 232.684 121.711C233.265 122.349 233.555 123.255 233.555 124.431V125.175L233.47 125.345H227.882C227.882 126.039 228.144 126.684 228.668 127.279C229.164 127.775 229.936 128.023 230.984 128.023C231.678 128.023 232.337 127.916 232.96 127.704L233.215 128.724C232.351 129.021 231.48 129.17 230.602 129.17C229.284 129.17 228.278 128.816 227.584 128.108C226.89 127.399 226.543 126.386 226.543 125.069C226.543 123.822 226.847 122.795 227.457 121.988C228.108 121.152 229.022 120.734 230.198 120.734ZM232.153 124.24C232.153 123.532 231.997 122.951 231.685 122.498C231.388 122.044 230.942 121.818 230.347 121.818C229.596 121.818 229.022 122.044 228.625 122.498C228.229 122.951 227.988 123.532 227.903 124.24H232.153ZM237.931 127.916C238.143 127.916 238.384 127.874 238.653 127.789L238.908 128.788C238.866 128.802 238.696 128.873 238.398 129C238.101 129.127 237.718 129.191 237.251 129.191C236.727 129.191 236.309 129.014 235.997 128.66C235.685 128.292 235.523 127.817 235.508 127.236V117.674H236.847V126.748C236.847 127.13 236.911 127.42 237.038 127.619C237.166 127.817 237.463 127.916 237.931 127.916Z" fill="#343D24"/>
<defs>
<filter id="filter0_d" x="0" y="0" width="258" height="198" filterUnits="userSpaceOnUse" color-interpolation-filters="sRGB">
<feFlood flood-opacity="0" result="BackgroundImageFix"/>
<feColorMatrix in="SourceAlpha" type="matrix" values="0 0 0 0 0 0 0 0 0 0 0 0 0 0 0 0 0 0 127 0"/>
<feOffset dy="4"/>
<feGaussianBlur stdDeviation="2"/>
<feColorMatrix type="matrix" values="0 0 0 0 0 0 0 0 0 0 0 0 0 0 0 0 0 0 0.5 0"/>
<feBlend mode="normal" in2="BackgroundImageFix" result="effect1_dropShadow"/>
<feBlend mode="normal" in="SourceGraphic" in2="effect1_dropShadow" result="shape"/>
</filter>
</defs>
</svg>
