<svg width="258" height="198" viewBox="0 0 258 198" fill="none" xmlns="http://www.w3.org/2000/svg">
<g filter="url(#filter0_d)">
<rect x="4" width="250" height="190" rx="10" fill="#FFEAEA" fill-opacity="0.9"/>
</g>
<path d="M60.5725 78H48.8725V79.2H51.2725V100.8H48.8725V102H60.5725V100.8H58.1725V79.2H60.5725V78ZM84.5631 100.8V102H77.7531L75.2631 99.51V85.2H73.1631L71.0631 87.3V100.8H72.5631V102H61.7631V100.8H64.1631V85.2H61.7631V84H68.2731L70.4031 86.1L72.5031 84H79.3731L82.1631 86.79V100.8H84.5631ZM99.1072 99.21L96.3172 102H90.3472L87.5572 99.21V80.1H85.4572V78.9H91.5172L94.0072 81.39V85.8H98.2072V87H94.0072V100.8H95.6572L98.1772 98.28L99.1072 99.21ZM104.008 102H115.678L118.468 99.21L117.538 98.28L115.018 100.8H108.118V94.5H115.528L118.318 91.71V86.79L115.528 84H104.008L101.218 86.79V99.21L104.008 102ZM108.118 85.2H111.418V93.3H108.118V85.2ZM136.922 86.19L135.992 87.12L134.072 85.2H131.522L129.422 87.3V100.8H131.822V102H125.312L122.522 99.21V85.2H120.122V84H126.632L128.762 86.1L130.862 84H134.732L136.922 86.19ZM141.215 102H152.885L155.675 99.21L154.745 98.28L152.225 100.8H145.325V94.5H152.735L155.525 91.71V86.79L152.735 84H141.215L138.425 86.79V99.21L141.215 102ZM145.325 85.2H148.625V93.3H145.325V85.2ZM159.879 102.3V99.96L161.919 102H171.369L173.859 99.51V95.88L163.779 85.2H169.509L172.209 87.9V90.15H173.559V83.7H172.209V86.04L170.169 84H161.319L158.829 86.49V90.12L168.909 100.8H162.579L159.879 98.1V95.85H158.529V102.3H159.879ZM189.898 99.21L187.108 102H181.138L178.348 99.21V80.1H176.248V78.9H182.308L184.798 81.39V85.8H188.998V87H184.798V100.8H186.448L188.968 98.28L189.898 99.21ZM193.659 102.3V99.96L195.699 102H205.149L207.639 99.51V95.88L197.559 85.2H203.289L205.989 87.9V90.15H207.339V83.7H205.989V86.04L203.949 84H195.099L192.609 86.49V90.12L202.689 100.8H196.359L193.659 98.1V95.85H192.309V102.3H193.659Z" fill="#343D24"/>
<defs>
<filter id="filter0_d" x="0" y="0" width="258" height="198" filterUnits="userSpaceOnUse" color-interpolation-filters="sRGB">
<feFlood flood-opacity="0" result="BackgroundImageFix"/>
<feColorMatrix in="SourceAlpha" type="matrix" values="0 0 0 0 0 0 0 0 0 0 0 0 0 0 0 0 0 0 127 0"/>
<feOffset dy="4"/>
<feGaussianBlur stdDeviation="2"/>
<feColorMatrix type="matrix" values="0 0 0 0 0 0 0 0 0 0 0 0 0 0 0 0 0 0 0.25 0"/>
<feBlend mode="normal" in2="BackgroundImageFix" result="effect1_dropShadow"/>
<feBlend mode="normal" in="SourceGraphic" in2="effect1_dropShadow" result="shape"/>
</filter>
</defs>
</svg>
