<svg width="258" height="198" viewBox="0 0 258 198" fill="none" xmlns="http://www.w3.org/2000/svg">
<g filter="url(#filter0_d)">
<path d="M4 50C4 22.3858 26.3858 0 54 0H204C231.614 0 254 22.3858 254 50V140C254 167.614 231.614 190 204 190H54C26.3858 190 4 167.614 4 140V50Z" fill="#0E151B" fill-opacity="0.9"/>
</g>
<path d="M165.592 46V36.2888L169.183 42.6425H170.607L174.198 36.2888V46H175.601V34.3125H173.752L169.906 41.3888L166.187 34.3125H164.189V46H165.592ZM181.505 37.7338C182.582 37.7338 183.411 38.0596 183.992 38.7113C184.573 39.3488 184.863 40.2554 184.863 41.4313V42.175L184.778 42.345H179.189C179.189 43.0392 179.451 43.6837 179.975 44.2787C180.471 44.7746 181.243 45.0225 182.292 45.0225C182.986 45.0225 183.645 44.9163 184.268 44.7037L184.523 45.7238C183.659 46.0213 182.788 46.17 181.909 46.17C180.592 46.17 179.586 45.8158 178.892 45.1075C178.198 44.3992 177.85 43.3863 177.85 42.0688C177.85 40.8221 178.155 39.795 178.764 38.9875C179.416 38.1517 180.33 37.7338 181.505 37.7338ZM183.46 41.24C183.46 40.5317 183.305 39.9508 182.993 39.4975C182.695 39.0442 182.249 38.8175 181.654 38.8175C180.903 38.8175 180.33 39.0442 179.933 39.4975C179.536 39.9508 179.295 40.5317 179.21 41.24H183.46ZM192.213 40.815C192.213 40.1208 192.079 39.625 191.81 39.3275C191.555 39.03 191.101 38.8813 190.45 38.8813C189.756 38.8813 189.005 39.0725 188.197 39.455V46H186.816V37.84H187.772L188.07 38.52C189.047 37.9817 190.003 37.7125 190.938 37.7125C191.803 37.7125 192.461 37.9604 192.915 38.4563C193.368 38.9379 193.595 39.6108 193.595 40.475V46H192.213V40.815ZM198.702 46.17C197.88 46.17 197.292 45.9504 196.938 45.5113C196.598 45.0579 196.428 44.3779 196.428 43.4713V38.9875H195.047V37.84H196.428V35.8425L197.81 35.7363V37.84H200.487V38.9875H197.81V43.3862C197.81 43.9529 197.895 44.3638 198.065 44.6188C198.249 44.8738 198.596 45.0013 199.106 45.0013C199.587 45.0013 200.02 44.9588 200.402 44.8738L200.636 45.8088C199.998 46.0496 199.354 46.17 198.702 46.17ZM205.733 46.1912C204.501 46.1912 203.537 45.8088 202.843 45.0438C202.163 44.2788 201.823 43.2517 201.823 41.9625C201.823 40.6592 202.17 39.6321 202.864 38.8813C203.573 38.1163 204.55 37.7338 205.797 37.7338C207.044 37.7338 208.007 38.1092 208.687 38.86C209.367 39.6108 209.707 40.6379 209.707 41.9413C209.707 43.2163 209.353 44.2433 208.644 45.0225C207.936 45.8017 206.966 46.1912 205.733 46.1912ZM205.797 38.8175C204.989 38.8175 204.359 39.115 203.906 39.71C203.466 40.305 203.247 41.0558 203.247 41.9625C203.247 42.8692 203.466 43.6129 203.906 44.1938C204.359 44.7746 204.989 45.065 205.797 45.065C206.59 45.065 207.206 44.7746 207.646 44.1938C208.085 43.5988 208.304 42.855 208.304 41.9625C208.304 41.0558 208.078 40.305 207.624 39.71C207.185 39.115 206.576 38.8175 205.797 38.8175ZM215.229 37.7338C215.541 37.7338 215.789 37.755 215.973 37.7975C216.171 37.8258 216.363 37.8825 216.547 37.9675L216.058 39.2C215.69 39.03 215.286 38.945 214.847 38.945C214.252 38.945 213.664 39.1433 213.083 39.54V46H211.702V37.84H212.7L212.998 38.5413C213.706 38.0029 214.45 37.7338 215.229 37.7338ZM218.671 36.2675C218.416 36.2675 218.204 36.1825 218.034 36.0125C217.864 35.8283 217.779 35.6158 217.779 35.375C217.779 35.1483 217.864 34.95 218.034 34.78C218.204 34.5958 218.416 34.5038 218.671 34.5038C218.912 34.5038 219.117 34.5958 219.287 34.78C219.457 34.95 219.542 35.1483 219.542 35.375C219.542 35.6158 219.457 35.8283 219.287 36.0125C219.131 36.1825 218.926 36.2675 218.671 36.2675ZM219.351 46H217.97V37.84H219.351V46ZM227.176 40.815C227.176 40.1208 227.042 39.625 226.773 39.3275C226.518 39.03 226.064 38.8813 225.413 38.8813C224.718 38.8813 223.968 39.0725 223.16 39.455V46H221.779V37.84H222.735L223.033 38.52C224.01 37.9817 224.966 37.7125 225.901 37.7125C226.766 37.7125 227.424 37.9604 227.878 38.4563C228.331 38.9379 228.558 39.6108 228.558 40.475V46H227.176V40.815ZM236.364 45.6175C235.655 45.9858 234.94 46.17 234.217 46.17C232.914 46.17 231.915 45.6671 231.221 44.6613C230.725 43.9246 230.477 43.0604 230.477 42.0688C230.477 41.0629 230.69 40.2129 231.115 39.5188C231.554 38.8104 232.156 38.3004 232.921 37.9888C233.275 37.8188 233.736 37.7338 234.302 37.7338C234.968 37.7338 235.606 37.8754 236.215 38.1588L236.619 38.35L236.767 37.84H237.766V46.3825C237.766 47.1333 237.681 47.7354 237.511 48.1887C237.341 48.6421 237.051 49.06 236.64 49.4425C236.3 49.7683 235.875 50.0162 235.365 50.1862C234.869 50.3704 234.31 50.4625 233.686 50.4625C233.29 50.4625 232.857 50.4129 232.39 50.3137C231.937 50.2146 231.54 50.0871 231.2 49.9312L231.561 48.9537C232.369 49.2371 233.013 49.3787 233.495 49.3787C234.345 49.3787 235.011 49.1733 235.492 48.7625C235.974 48.3517 236.257 47.7708 236.342 47.02C236.357 46.8642 236.364 46.4675 236.364 45.83V45.6175ZM234.536 45.0438C235.245 45.0438 235.854 44.895 236.364 44.5975V39.2638C235.726 38.9804 235.096 38.8388 234.472 38.8388C233.622 38.8388 232.978 39.115 232.539 39.6675C232.1 40.22 231.88 40.9567 231.88 41.8775C231.88 42.5433 232.007 43.1313 232.262 43.6412C232.517 44.1512 232.865 44.5196 233.304 44.7463C233.658 44.9446 234.069 45.0438 234.536 45.0438ZM112.253 62.3125H105.453V74H106.856V68.56H111.764V67.3488H106.856V63.5025H112.253V62.3125ZM117.761 74.1912C116.529 74.1912 115.566 73.8088 114.871 73.0438C114.191 72.2788 113.851 71.2517 113.851 69.9625C113.851 68.6592 114.199 67.6321 114.893 66.8813C115.601 66.1163 116.579 65.7338 117.825 65.7338C119.072 65.7338 120.035 66.1092 120.715 66.86C121.395 67.6108 121.735 68.6379 121.735 69.9413C121.735 71.2163 121.381 72.2433 120.673 73.0225C119.964 73.8017 118.994 74.1912 117.761 74.1912ZM117.825 66.8175C117.018 66.8175 116.387 67.115 115.934 67.71C115.495 68.305 115.275 69.0558 115.275 69.9625C115.275 70.8692 115.495 71.6129 115.934 72.1938C116.387 72.7746 117.018 73.065 117.825 73.065C118.619 73.065 119.235 72.7746 119.674 72.1938C120.113 71.5988 120.333 70.855 120.333 69.9625C120.333 69.0558 120.106 68.305 119.653 67.71C119.214 67.115 118.604 66.8175 117.825 66.8175ZM127.258 65.7338C127.569 65.7338 127.817 65.755 128.001 65.7975C128.2 65.8258 128.391 65.8825 128.575 65.9675L128.086 67.2C127.718 67.03 127.314 66.945 126.875 66.945C126.28 66.945 125.692 67.1433 125.111 67.54V74H123.73V65.84H124.729L125.026 66.5413C125.735 66.0029 126.478 65.7338 127.258 65.7338ZM133.228 65.7338C134.305 65.7338 135.134 66.0596 135.714 66.7113C136.295 67.3488 136.586 68.2554 136.586 69.4313V70.175L136.501 70.345H130.912C130.912 71.0392 131.174 71.6837 131.698 72.2787C132.194 72.7746 132.966 73.0225 134.014 73.0225C134.709 73.0225 135.367 72.9163 135.991 72.7037L136.246 73.7238C135.381 74.0213 134.51 74.17 133.632 74.17C132.314 74.17 131.309 73.8158 130.614 73.1075C129.92 72.3992 129.573 71.3863 129.573 70.0688C129.573 68.8221 129.878 67.795 130.487 66.9875C131.139 66.1517 132.052 65.7338 133.228 65.7338ZM135.183 69.24C135.183 68.5317 135.027 67.9508 134.716 67.4975C134.418 67.0442 133.972 66.8175 133.377 66.8175C132.626 66.8175 132.052 67.0442 131.656 67.4975C131.259 67.9508 131.018 68.5317 130.933 69.24H135.183ZM139.282 64.2675C139.027 64.2675 138.815 64.1825 138.645 64.0125C138.475 63.8283 138.39 63.6158 138.39 63.375C138.39 63.1483 138.475 62.95 138.645 62.78C138.815 62.5958 139.027 62.5038 139.282 62.5038C139.523 62.5038 139.729 62.5958 139.899 62.78C140.069 62.95 140.154 63.1483 140.154 63.375C140.154 63.6158 140.069 63.8283 139.899 64.0125C139.743 64.1825 139.537 64.2675 139.282 64.2675ZM139.962 74H138.581V65.84H139.962V74ZM147.894 73.6175C147.186 73.9858 146.47 74.17 145.748 74.17C144.444 74.17 143.446 73.6671 142.751 72.6613C142.256 71.9246 142.008 71.0604 142.008 70.0688C142.008 69.0629 142.22 68.2129 142.645 67.5188C143.084 66.8104 143.686 66.3004 144.451 65.9888C144.806 65.8188 145.266 65.7338 145.833 65.7338C146.499 65.7338 147.136 65.8754 147.745 66.1588L148.149 66.35L148.298 65.84H149.296V74.3825C149.296 75.1333 149.211 75.7354 149.041 76.1887C148.871 76.6421 148.581 77.06 148.17 77.4425C147.83 77.7683 147.405 78.0162 146.895 78.1862C146.399 78.3704 145.84 78.4625 145.216 78.4625C144.82 78.4625 144.388 78.4129 143.92 78.3137C143.467 78.2146 143.07 78.0871 142.73 77.9312L143.091 76.9537C143.899 77.2371 144.544 77.3787 145.025 77.3787C145.875 77.3787 146.541 77.1733 147.023 76.7625C147.504 76.3517 147.788 75.7708 147.873 75.02C147.887 74.8642 147.894 74.4675 147.894 73.83V73.6175ZM146.066 73.0438C146.775 73.0438 147.384 72.895 147.894 72.5975V67.2638C147.256 66.9804 146.626 66.8388 146.003 66.8388C145.153 66.8388 144.508 67.115 144.069 67.6675C143.63 68.22 143.41 68.9567 143.41 69.8775C143.41 70.5433 143.538 71.1313 143.793 71.6412C144.048 72.1512 144.395 72.5196 144.834 72.7463C145.188 72.9446 145.599 73.0438 146.066 73.0438ZM157.118 68.815C157.118 68.1208 156.983 67.625 156.714 67.3275C156.459 67.03 156.006 66.8813 155.354 66.8813C154.66 66.8813 153.909 67.0725 153.102 67.455V74H151.72V65.84H152.677L152.974 66.52C153.952 65.9817 154.908 65.7125 155.843 65.7125C156.707 65.7125 157.366 65.9604 157.819 66.4563C158.272 66.9379 158.499 67.6108 158.499 68.475V74H157.118V68.815ZM167.905 72.9163C168.118 72.9163 168.359 72.8738 168.628 72.7888L168.883 73.7875C168.84 73.8017 168.67 73.8725 168.373 74C168.075 74.1275 167.693 74.1912 167.225 74.1912C166.701 74.1912 166.283 74.0142 165.972 73.66C165.66 73.2917 165.497 72.8171 165.483 72.2363V62.6738H166.822V71.7475C166.822 72.13 166.885 72.4204 167.013 72.6188C167.14 72.8171 167.438 72.9163 167.905 72.9163ZM172.8 66.9238C172.502 66.9238 172.141 66.9592 171.716 67.03C171.305 67.0867 170.937 67.1646 170.611 67.2638L170.335 66.2438C171.284 65.9179 172.169 65.755 172.991 65.755C173.912 65.755 174.613 65.8967 175.095 66.18C175.52 66.4917 175.81 66.8246 175.966 67.1787C176.136 67.5329 176.221 68.05 176.221 68.73V74H175.18L174.882 73.235C174.075 73.8867 173.246 74.2125 172.396 74.2125C171.659 74.2125 171.036 74 170.526 73.575C170.03 73.15 169.782 72.6117 169.782 71.96C169.782 71.3225 169.973 70.7983 170.356 70.3875C170.753 69.9625 171.234 69.6792 171.801 69.5375C172.523 69.3533 173.536 69.2471 174.84 69.2188V69.155C174.84 68.5742 174.783 68.1492 174.67 67.88C174.443 67.2425 173.82 66.9238 172.8 66.9238ZM172.587 73.1075C173.055 73.1075 173.465 73.0296 173.82 72.8738C174.174 72.7038 174.514 72.47 174.84 72.1725V70.2175C173.862 70.2317 173.14 70.2883 172.672 70.3875C172.148 70.5008 171.758 70.6708 171.503 70.8975C171.248 71.11 171.121 71.4146 171.121 71.8113C171.121 72.2221 171.263 72.5408 171.546 72.7675C171.843 72.9942 172.19 73.1075 172.587 73.1075ZM183.913 68.815C183.913 68.1208 183.778 67.625 183.509 67.3275C183.254 67.03 182.801 66.8813 182.149 66.8813C181.455 66.8813 180.704 67.0725 179.896 67.455V74H178.515V65.84H179.471L179.769 66.52C180.746 65.9817 181.703 65.7125 182.638 65.7125C183.502 65.7125 184.161 65.9604 184.614 66.4563C185.067 66.9379 185.294 67.6108 185.294 68.475V74H183.913V68.815ZM193.1 73.6175C192.392 73.9858 191.676 74.17 190.954 74.17C189.65 74.17 188.652 73.6671 187.957 72.6613C187.462 71.9246 187.214 71.0604 187.214 70.0688C187.214 69.0629 187.426 68.2129 187.851 67.5188C188.29 66.8104 188.892 66.3004 189.657 65.9888C190.012 65.8188 190.472 65.7338 191.039 65.7338C191.705 65.7338 192.342 65.8754 192.951 66.1588L193.355 66.35L193.504 65.84H194.502V74.3825C194.502 75.1333 194.417 75.7354 194.247 76.1887C194.077 76.6421 193.787 77.06 193.376 77.4425C193.036 77.7683 192.611 78.0162 192.101 78.1862C191.605 78.3704 191.046 78.4625 190.422 78.4625C190.026 78.4625 189.594 78.4129 189.126 78.3137C188.673 78.2146 188.276 78.0871 187.936 77.9312L188.297 76.9537C189.105 77.2371 189.75 77.3787 190.231 77.3787C191.081 77.3787 191.747 77.1733 192.229 76.7625C192.71 76.3517 192.994 75.7708 193.079 75.02C193.093 74.8642 193.1 74.4675 193.1 73.83V73.6175ZM191.272 73.0438C191.981 73.0438 192.59 72.895 193.1 72.5975V67.2638C192.462 66.9804 191.832 66.8388 191.209 66.8388C190.359 66.8388 189.714 67.115 189.275 67.6675C188.836 68.22 188.616 68.9567 188.616 69.8775C188.616 70.5433 188.744 71.1313 188.999 71.6412C189.254 72.1512 189.601 72.5196 190.04 72.7463C190.394 72.9446 190.805 73.0438 191.272 73.0438ZM198.308 71.0887C198.308 71.7829 198.442 72.2788 198.711 72.5763C198.98 72.8738 199.441 73.0225 200.093 73.0225C200.758 73.0225 201.502 72.8313 202.324 72.4488V65.84H203.705V74H202.749L202.451 73.405C201.417 73.9433 200.461 74.2125 199.583 74.2125C198.733 74.2125 198.074 73.9646 197.606 73.4688C197.153 72.9729 196.926 72.2929 196.926 71.4288V65.84H198.308V71.0887ZM208.692 66.9238C208.395 66.9238 208.033 66.9592 207.608 67.03C207.198 67.0867 206.829 67.1646 206.503 67.2638L206.227 66.2438C207.176 65.9179 208.062 65.755 208.883 65.755C209.804 65.755 210.506 65.8967 210.987 66.18C211.412 66.4917 211.703 66.8246 211.858 67.1787C212.028 67.5329 212.113 68.05 212.113 68.73V74H211.072L210.775 73.235C209.967 73.8867 209.138 74.2125 208.288 74.2125C207.552 74.2125 206.928 74 206.418 73.575C205.923 73.15 205.675 72.6117 205.675 71.96C205.675 71.3225 205.866 70.7983 206.248 70.3875C206.645 69.9625 207.127 69.6792 207.693 69.5375C208.416 69.3533 209.429 69.2471 210.732 69.2188V69.155C210.732 68.5742 210.676 68.1492 210.562 67.88C210.336 67.2425 209.712 66.9238 208.692 66.9238ZM208.48 73.1075C208.947 73.1075 209.358 73.0296 209.712 72.8738C210.066 72.7038 210.406 72.47 210.732 72.1725V70.2175C209.755 70.2317 209.032 70.2883 208.565 70.3875C208.041 70.5008 207.651 70.6708 207.396 70.8975C207.141 71.11 207.013 71.4146 207.013 71.8113C207.013 72.2221 207.155 72.5408 207.438 72.7675C207.736 72.9942 208.083 73.1075 208.48 73.1075ZM219.912 73.6175C219.203 73.9858 218.488 74.17 217.765 74.17C216.462 74.17 215.463 73.6671 214.769 72.6613C214.273 71.9246 214.025 71.0604 214.025 70.0688C214.025 69.0629 214.238 68.2129 214.663 67.5188C215.102 66.8104 215.704 66.3004 216.469 65.9888C216.823 65.8188 217.284 65.7338 217.85 65.7338C218.516 65.7338 219.154 65.8754 219.763 66.1588L220.167 66.35L220.315 65.84H221.314V74.3825C221.314 75.1333 221.229 75.7354 221.059 76.1887C220.889 76.6421 220.599 77.06 220.188 77.4425C219.848 77.7683 219.423 78.0162 218.913 78.1862C218.417 78.3704 217.857 78.4625 217.234 78.4625C216.837 78.4625 216.405 78.4129 215.938 78.3137C215.484 78.2146 215.088 78.0871 214.748 77.9312L215.109 76.9537C215.917 77.2371 216.561 77.3787 217.043 77.3787C217.893 77.3787 218.559 77.1733 219.04 76.7625C219.522 76.3517 219.805 75.7708 219.89 75.02C219.904 74.8642 219.912 74.4675 219.912 73.83V73.6175ZM218.084 73.0438C218.792 73.0438 219.402 72.895 219.912 72.5975V67.2638C219.274 66.9804 218.644 66.8388 218.02 66.8388C217.17 66.8388 216.526 67.115 216.087 67.6675C215.647 68.22 215.428 68.9567 215.428 69.8775C215.428 70.5433 215.555 71.1313 215.81 71.6412C216.065 72.1512 216.412 72.5196 216.852 72.7463C217.206 72.9446 217.617 73.0438 218.084 73.0438ZM227.01 65.7338C228.087 65.7338 228.916 66.0596 229.497 66.7113C230.077 67.3488 230.368 68.2554 230.368 69.4313V70.175L230.283 70.345H224.694C224.694 71.0392 224.956 71.6837 225.48 72.2787C225.976 72.7746 226.748 73.0225 227.797 73.0225C228.491 73.0225 229.15 72.9163 229.773 72.7037L230.028 73.7238C229.164 74.0213 228.292 74.17 227.414 74.17C226.097 74.17 225.091 73.8158 224.397 73.1075C223.702 72.3992 223.355 71.3863 223.355 70.0688C223.355 68.8221 223.66 67.795 224.269 66.9875C224.921 66.1517 225.835 65.7338 227.01 65.7338ZM228.965 69.24C228.965 68.5317 228.81 67.9508 228.498 67.4975C228.2 67.0442 227.754 66.8175 227.159 66.8175C226.408 66.8175 225.835 67.0442 225.438 67.4975C225.041 67.9508 224.8 68.5317 224.715 69.24H228.965ZM234.892 73.0225C235.388 73.0225 235.806 72.9304 236.146 72.7463C236.5 72.5479 236.677 72.2646 236.677 71.8963C236.677 71.5988 236.55 71.365 236.295 71.195C236.04 71.025 235.501 70.77 234.68 70.43L233.872 70.1113C233.518 69.9413 233.228 69.7925 233.001 69.665C232.774 69.5233 232.569 69.3179 232.385 69.0488C232.2 68.7654 232.108 68.4113 232.108 67.9863C232.108 67.2213 232.42 66.6546 233.043 66.2863C233.681 65.9179 234.46 65.7338 235.381 65.7338C236.16 65.7338 236.939 65.9108 237.718 66.265L237.378 67.285C236.741 67.0158 236.125 66.8813 235.53 66.8813C234.92 66.8813 234.425 66.9733 234.042 67.1575C233.674 67.3275 233.49 67.5754 233.49 67.9013C233.49 68.2271 233.617 68.4821 233.872 68.6663C234.141 68.8504 234.595 69.0629 235.232 69.3037L235.933 69.58C236.713 69.9058 237.258 70.2458 237.57 70.6C237.881 70.9542 238.037 71.4217 238.037 72.0025C238.037 72.5975 237.761 73.1146 237.208 73.5538C236.656 73.9787 235.919 74.1912 234.998 74.1912C233.95 74.1912 232.916 73.9858 231.896 73.575L232.278 72.5338C233.199 72.8596 234.07 73.0225 234.892 73.0225ZM145.791 100.725C146.641 100.725 147.349 100.576 147.916 100.279C148.483 99.9671 148.766 99.5138 148.766 98.9188C148.766 98.3946 148.539 97.9767 148.086 97.665C147.633 97.3533 146.981 97.0417 146.131 96.73L145.642 96.5388C144.58 96.1138 143.786 95.6746 143.262 95.2213C142.738 94.7679 142.476 94.1375 142.476 93.33C142.476 92.2675 142.823 91.4671 143.517 90.9287C143.928 90.6171 144.36 90.3975 144.813 90.27C145.267 90.1283 145.798 90.0575 146.407 90.0575C147.271 90.0575 148.341 90.3267 149.616 90.865L149.212 92.1187C148.079 91.6654 147.2 91.4388 146.577 91.4388C145.755 91.4388 145.104 91.5946 144.622 91.9062C144.155 92.2038 143.921 92.6287 143.921 93.1812C143.921 93.5638 144.041 93.8896 144.282 94.1588C144.537 94.4279 144.813 94.6404 145.111 94.7963C145.423 94.9379 145.855 95.1221 146.407 95.3488C146.634 95.4479 146.839 95.5258 147.023 95.5825C147.76 95.88 148.334 96.1492 148.745 96.39C149.17 96.6167 149.531 96.9283 149.828 97.325C150.126 97.7217 150.275 98.2246 150.275 98.8337C150.275 99.9246 149.835 100.753 148.957 101.32C148.079 101.887 147.009 102.17 145.748 102.17C145.097 102.17 144.558 102.113 144.133 102C143.708 101.887 143.064 101.681 142.2 101.384L142.688 100.024C143.935 100.491 144.969 100.725 145.791 100.725ZM155.879 102.191C154.646 102.191 153.683 101.809 152.989 101.044C152.309 100.279 151.969 99.2517 151.969 97.9625C151.969 96.6592 152.316 95.6321 153.01 94.8813C153.718 94.1163 154.696 93.7338 155.942 93.7338C157.189 93.7338 158.152 94.1092 158.832 94.86C159.512 95.6108 159.852 96.6379 159.852 97.9413C159.852 99.2163 159.498 100.243 158.79 101.023C158.082 101.802 157.111 102.191 155.879 102.191ZM155.942 94.8175C155.135 94.8175 154.504 95.115 154.051 95.71C153.612 96.305 153.392 97.0558 153.392 97.9625C153.392 98.8692 153.612 99.6129 154.051 100.194C154.504 100.775 155.135 101.065 155.942 101.065C156.736 101.065 157.352 100.775 157.791 100.194C158.23 99.5988 158.45 98.855 158.45 97.9625C158.45 97.0558 158.223 96.305 157.77 95.71C157.331 95.115 156.722 94.8175 155.942 94.8175ZM165.417 102.191C164.156 102.191 163.179 101.83 162.485 101.108C161.805 100.385 161.465 99.3721 161.465 98.0688C161.465 96.8504 161.819 95.8021 162.527 94.9238C163.236 94.1304 164.291 93.7338 165.693 93.7338C166.388 93.7338 167.082 93.8825 167.776 94.18L167.436 95.2C166.94 94.9875 166.381 94.8813 165.757 94.8813C164.794 94.8813 164.071 95.1363 163.59 95.6462C163.108 96.1421 162.867 96.8646 162.867 97.8138C162.867 99.0321 163.158 99.875 163.738 100.343C164.319 100.81 165.035 101.044 165.885 101.044C166.423 101.044 166.94 100.952 167.436 100.768L167.755 101.724C166.933 102.035 166.154 102.191 165.417 102.191ZM170.311 92.2675C170.056 92.2675 169.843 92.1825 169.673 92.0125C169.503 91.8283 169.418 91.6158 169.418 91.375C169.418 91.1483 169.503 90.95 169.673 90.78C169.843 90.5958 170.056 90.5038 170.311 90.5038C170.552 90.5038 170.757 90.5958 170.927 90.78C171.097 90.95 171.182 91.1483 171.182 91.375C171.182 91.6158 171.097 91.8283 170.927 92.0125C170.771 92.1825 170.566 92.2675 170.311 92.2675ZM170.991 102H169.609V93.84H170.991V102ZM176.054 94.9238C175.756 94.9238 175.395 94.9592 174.97 95.03C174.559 95.0867 174.191 95.1646 173.865 95.2638L173.589 94.2438C174.538 93.9179 175.423 93.755 176.245 93.755C177.166 93.755 177.867 93.8967 178.349 94.18C178.774 94.4917 179.064 94.8246 179.22 95.1787C179.39 95.5329 179.475 96.05 179.475 96.73V102H178.434L178.136 101.235C177.329 101.887 176.5 102.212 175.65 102.212C174.913 102.212 174.29 102 173.78 101.575C173.284 101.15 173.036 100.612 173.036 99.96C173.036 99.3225 173.227 98.7983 173.61 98.3875C174.006 97.9625 174.488 97.6792 175.055 97.5375C175.777 97.3533 176.79 97.2471 178.094 97.2188V97.155C178.094 96.5742 178.037 96.1492 177.924 95.88C177.697 95.2425 177.074 94.9238 176.054 94.9238ZM175.841 101.108C176.309 101.108 176.719 101.03 177.074 100.874C177.428 100.704 177.768 100.47 178.094 100.173V98.2175C177.116 98.2317 176.394 98.2883 175.926 98.3875C175.402 98.5008 175.012 98.6708 174.757 98.8975C174.502 99.11 174.375 99.4146 174.375 99.8113C174.375 100.222 174.516 100.541 174.8 100.768C175.097 100.994 175.444 101.108 175.841 101.108ZM184.192 100.916C184.404 100.916 184.645 100.874 184.914 100.789L185.169 101.788C185.127 101.802 184.957 101.873 184.659 102C184.362 102.127 183.979 102.191 183.512 102.191C182.987 102.191 182.57 102.014 182.258 101.66C181.946 101.292 181.783 100.817 181.769 100.236V90.6738H183.108V99.7475C183.108 100.13 183.172 100.42 183.299 100.619C183.427 100.817 183.724 100.916 184.192 100.916ZM191.876 92.2675C191.621 92.2675 191.409 92.1825 191.239 92.0125C191.069 91.8283 190.984 91.6158 190.984 91.375C190.984 91.1483 191.069 90.95 191.239 90.78C191.409 90.5958 191.621 90.5038 191.876 90.5038C192.117 90.5038 192.322 90.5958 192.492 90.78C192.662 90.95 192.747 91.1483 192.747 91.375C192.747 91.6158 192.662 91.8283 192.492 92.0125C192.337 92.1825 192.131 92.2675 191.876 92.2675ZM192.556 102H191.175V93.84H192.556V102ZM204.738 96.815C204.738 95.4833 204.206 94.8175 203.144 94.8175C202.62 94.8175 201.968 95.0583 201.189 95.54C201.231 95.6958 201.253 96.0075 201.253 96.475V102H199.871V96.815C199.871 95.4833 199.333 94.8175 198.256 94.8175C197.746 94.8175 197.116 95.0229 196.365 95.4338V102H194.984V93.84H195.94L196.238 94.52C196.719 94.1942 197.166 93.9675 197.576 93.84C197.902 93.755 198.278 93.7125 198.703 93.7125C199.17 93.7125 199.581 93.8046 199.935 93.9888C200.304 94.1729 200.601 94.4279 200.828 94.7538C201.295 94.4138 201.741 94.1588 202.166 93.9888C202.591 93.8046 203.059 93.7125 203.569 93.7125C204.405 93.7125 205.042 93.9675 205.481 94.4775C205.935 94.9733 206.161 95.6392 206.161 96.475V102H204.738V96.815ZM208.507 93.84H209.484L209.761 94.4563C210.455 93.9746 211.22 93.7338 212.056 93.7338C212.849 93.7338 213.522 93.9038 214.074 94.2438C215.25 94.9804 215.838 96.1775 215.838 97.835C215.838 99.2517 215.441 100.343 214.648 101.108C213.869 101.844 212.941 102.212 211.864 102.212C211.17 102.212 210.511 102.078 209.888 101.809V106.42H208.507V93.84ZM211.716 94.8813C211.319 94.8813 210.986 94.9167 210.717 94.9875C210.462 95.0583 210.186 95.1858 209.888 95.37V100.725C210.441 100.98 211.043 101.108 211.694 101.108C212.544 101.108 213.203 100.817 213.671 100.236C214.138 99.6554 214.372 98.9046 214.372 97.9838C214.372 97.0346 214.145 96.2838 213.692 95.7312C213.239 95.1646 212.58 94.8813 211.716 94.8813ZM220.446 94.9238C220.149 94.9238 219.787 94.9592 219.362 95.03C218.952 95.0867 218.583 95.1646 218.257 95.2638L217.981 94.2438C218.93 93.9179 219.816 93.755 220.637 93.755C221.558 93.755 222.259 93.8967 222.741 94.18C223.166 94.4917 223.457 94.8246 223.612 95.1787C223.782 95.5329 223.867 96.05 223.867 96.73V102H222.826L222.529 101.235C221.721 101.887 220.892 102.212 220.042 102.212C219.306 102.212 218.682 102 218.172 101.575C217.677 101.15 217.429 100.612 217.429 99.96C217.429 99.3225 217.62 98.7983 218.002 98.3875C218.399 97.9625 218.881 97.6792 219.447 97.5375C220.17 97.3533 221.183 97.2471 222.486 97.2188V97.155C222.486 96.5742 222.429 96.1492 222.316 95.88C222.089 95.2425 221.466 94.9238 220.446 94.9238ZM220.234 101.108C220.701 101.108 221.112 101.03 221.466 100.874C221.82 100.704 222.16 100.47 222.486 100.173V98.2175C221.509 98.2317 220.786 98.2883 220.319 98.3875C219.794 98.5008 219.405 98.6708 219.15 98.8975C218.895 99.11 218.767 99.4146 218.767 99.8113C218.767 100.222 218.909 100.541 219.192 100.768C219.49 100.994 219.837 101.108 220.234 101.108ZM229.732 102.191C228.471 102.191 227.493 101.83 226.799 101.108C226.119 100.385 225.779 99.3721 225.779 98.0688C225.779 96.8504 226.133 95.8021 226.842 94.9238C227.55 94.1304 228.605 93.7338 230.008 93.7338C230.702 93.7338 231.396 93.8825 232.09 94.18L231.75 95.2C231.255 94.9875 230.695 94.8813 230.072 94.8813C229.108 94.8813 228.386 95.1363 227.904 95.6462C227.423 96.1421 227.182 96.8646 227.182 97.8138C227.182 99.0321 227.472 99.875 228.053 100.343C228.634 100.81 229.349 101.044 230.199 101.044C230.738 101.044 231.255 100.952 231.75 100.768L232.069 101.724C231.248 102.035 230.468 102.191 229.732 102.191ZM236.686 102.17C235.865 102.17 235.277 101.95 234.923 101.511C234.583 101.058 234.413 100.378 234.413 99.4713V94.9875H233.031V93.84H234.413V91.8425L235.794 91.7363V93.84H238.471V94.9875H235.794V99.3862C235.794 99.9529 235.879 100.364 236.049 100.619C236.233 100.874 236.58 101.001 237.09 101.001C237.572 101.001 238.004 100.959 238.386 100.874L238.62 101.809C237.983 102.05 237.338 102.17 236.686 102.17ZM197.122 119.502V130H198.525V119.502H202.456V118.312H193.255V119.502H197.122ZM207.36 121.734C207.672 121.734 207.92 121.755 208.104 121.798C208.302 121.826 208.493 121.883 208.678 121.968L208.189 123.2C207.82 123.03 207.417 122.945 206.978 122.945C206.383 122.945 205.795 123.143 205.214 123.54V130H203.833V121.84H204.831L205.129 122.541C205.837 122.003 206.581 121.734 207.36 121.734ZM212.693 122.924C212.396 122.924 212.034 122.959 211.609 123.03C211.199 123.087 210.83 123.165 210.504 123.264L210.228 122.244C211.177 121.918 212.063 121.755 212.884 121.755C213.805 121.755 214.506 121.897 214.988 122.18C215.413 122.492 215.704 122.825 215.859 123.179C216.029 123.533 216.114 124.05 216.114 124.73V130H215.073L214.776 129.235C213.968 129.887 213.139 130.212 212.289 130.212C211.553 130.212 210.929 130 210.419 129.575C209.924 129.15 209.676 128.612 209.676 127.96C209.676 127.323 209.867 126.798 210.249 126.388C210.646 125.963 211.128 125.679 211.694 125.538C212.417 125.353 213.43 125.247 214.733 125.219V125.155C214.733 124.574 214.676 124.149 214.563 123.88C214.336 123.243 213.713 122.924 212.693 122.924ZM212.481 129.108C212.948 129.108 213.359 129.03 213.713 128.874C214.067 128.704 214.407 128.47 214.733 128.173V126.218C213.756 126.232 213.033 126.288 212.566 126.388C212.041 126.501 211.652 126.671 211.397 126.898C211.142 127.11 211.014 127.415 211.014 127.811C211.014 128.222 211.156 128.541 211.439 128.768C211.737 128.994 212.084 129.108 212.481 129.108ZM220.725 130L217.686 121.84H219.174L221.426 128.236L221.511 128.661L221.575 128.236L223.849 121.84H225.272L222.255 130H220.725ZM230.198 121.734C231.275 121.734 232.103 122.06 232.684 122.711C233.265 123.349 233.555 124.255 233.555 125.431V126.175L233.47 126.345H227.882C227.882 127.039 228.144 127.684 228.668 128.279C229.164 128.775 229.936 129.023 230.984 129.023C231.678 129.023 232.337 128.916 232.96 128.704L233.215 129.724C232.351 130.021 231.48 130.17 230.602 130.17C229.284 130.17 228.278 129.816 227.584 129.108C226.89 128.399 226.543 127.386 226.543 126.069C226.543 124.822 226.847 123.795 227.457 122.988C228.108 122.152 229.022 121.734 230.198 121.734ZM232.153 125.24C232.153 124.532 231.997 123.951 231.685 123.498C231.388 123.044 230.942 122.818 230.347 122.818C229.596 122.818 229.022 123.044 228.625 123.498C228.229 123.951 227.988 124.532 227.903 125.24H232.153ZM237.931 128.916C238.143 128.916 238.384 128.874 238.653 128.789L238.908 129.788C238.866 129.802 238.696 129.873 238.398 130C238.101 130.127 237.718 130.191 237.251 130.191C236.727 130.191 236.309 130.014 235.997 129.66C235.685 129.292 235.523 128.817 235.508 128.236V118.674H236.847V127.748C236.847 128.13 236.911 128.42 237.038 128.619C237.166 128.817 237.463 128.916 237.931 128.916ZM211.634 146.312H210.04L207.023 151.115L204.026 146.312H202.369L206.236 152.454V158H207.639V152.454L211.634 146.312ZM216.541 158.191C215.308 158.191 214.345 157.809 213.651 157.044C212.971 156.279 212.631 155.252 212.631 153.963C212.631 152.659 212.978 151.632 213.672 150.881C214.38 150.116 215.358 149.734 216.604 149.734C217.851 149.734 218.814 150.109 219.494 150.86C220.174 151.611 220.514 152.638 220.514 153.941C220.514 155.216 220.16 156.243 219.452 157.023C218.744 157.802 217.773 158.191 216.541 158.191ZM216.604 150.818C215.797 150.818 215.167 151.115 214.713 151.71C214.274 152.305 214.054 153.056 214.054 153.963C214.054 154.869 214.274 155.613 214.713 156.194C215.167 156.775 215.797 157.065 216.604 157.065C217.398 157.065 218.014 156.775 218.453 156.194C218.892 155.599 219.112 154.855 219.112 153.963C219.112 153.056 218.885 152.305 218.432 151.71C217.993 151.115 217.384 150.818 216.604 150.818ZM228.013 157.618C227.305 157.986 226.589 158.17 225.867 158.17C224.564 158.17 223.565 157.667 222.871 156.661C222.375 155.925 222.127 155.06 222.127 154.069C222.127 153.063 222.339 152.213 222.764 151.519C223.204 150.81 223.806 150.3 224.571 149.989C224.925 149.819 225.385 149.734 225.952 149.734C226.618 149.734 227.255 149.875 227.864 150.159L228.268 150.35L228.417 149.84H229.416V158.382C229.416 159.133 229.331 159.735 229.161 160.189C228.991 160.642 228.7 161.06 228.289 161.443C227.949 161.768 227.524 162.016 227.014 162.186C226.519 162.37 225.959 162.462 225.336 162.462C224.939 162.462 224.507 162.413 224.039 162.314C223.586 162.215 223.189 162.087 222.849 161.931L223.211 160.954C224.018 161.237 224.663 161.379 225.144 161.379C225.994 161.379 226.66 161.173 227.142 160.762C227.624 160.352 227.907 159.771 227.992 159.02C228.006 158.864 228.013 158.468 228.013 157.83V157.618ZM226.186 157.044C226.894 157.044 227.503 156.895 228.013 156.598V151.264C227.376 150.98 226.745 150.839 226.122 150.839C225.272 150.839 224.627 151.115 224.188 151.667C223.749 152.22 223.529 152.957 223.529 153.878C223.529 154.543 223.657 155.131 223.912 155.641C224.167 156.151 224.514 156.52 224.953 156.746C225.307 156.945 225.718 157.044 226.186 157.044ZM234.474 150.924C234.177 150.924 233.816 150.959 233.391 151.03C232.98 151.087 232.611 151.165 232.286 151.264L232.009 150.244C232.959 149.918 233.844 149.755 234.666 149.755C235.586 149.755 236.288 149.897 236.769 150.18C237.194 150.492 237.485 150.825 237.641 151.179C237.811 151.533 237.896 152.05 237.896 152.73V158H236.854L236.557 157.235C235.749 157.887 234.921 158.212 234.071 158.212C233.334 158.212 232.711 158 232.201 157.575C231.705 157.15 231.457 156.612 231.457 155.96C231.457 155.323 231.648 154.798 232.031 154.388C232.427 153.963 232.909 153.679 233.476 153.538C234.198 153.353 235.211 153.247 236.514 153.219V153.155C236.514 152.574 236.458 152.149 236.344 151.88C236.118 151.243 235.494 150.924 234.474 150.924ZM234.262 157.108C234.729 157.108 235.14 157.03 235.494 156.874C235.849 156.704 236.189 156.47 236.514 156.173V154.218C235.537 154.232 234.814 154.288 234.347 154.388C233.823 154.501 233.433 154.671 233.178 154.898C232.923 155.11 232.796 155.415 232.796 155.811C232.796 156.222 232.937 156.541 233.221 156.768C233.518 156.994 233.865 157.108 234.262 157.108Z" fill="#7EBBFF"/>
<path d="M27.5462 46C28.7221 46 29.7067 45.7663 30.5 45.2988C31.3075 44.8313 31.9308 44.1654 32.37 43.3013C32.8233 42.4513 33.05 41.4029 33.05 40.1562C33.05 38.9804 32.8233 37.925 32.37 36.99C31.9308 36.1542 31.3075 35.5025 30.5 35.035C29.6925 34.5533 28.7079 34.3125 27.5462 34.3125H23.4237V46H27.5462ZM27.44 35.5238C28.375 35.5238 29.1471 35.7363 29.7562 36.1612C30.2237 36.4871 30.6417 37.0112 31.01 37.7338C31.3358 38.4563 31.4987 39.2638 31.4987 40.1562C31.4987 41.2188 31.3571 42.0404 31.0737 42.6213C30.7479 43.3013 30.2946 43.8325 29.7137 44.215C29.1471 44.5833 28.3892 44.7675 27.44 44.7675H24.8262V35.5238H27.44ZM38.316 37.7338C39.3927 37.7338 40.2214 38.0596 40.8023 38.7113C41.3831 39.3488 41.6735 40.2554 41.6735 41.4313V42.175L41.5885 42.345H35.9998C35.9998 43.0392 36.2618 43.6837 36.786 44.2787C37.2818 44.7746 38.0539 45.0225 39.1023 45.0225C39.7964 45.0225 40.4552 44.9163 41.0785 44.7037L41.3335 45.7238C40.4693 46.0213 39.5981 46.17 38.7198 46.17C37.4023 46.17 36.3964 45.8158 35.7023 45.1075C35.0081 44.3992 34.661 43.3863 34.661 42.0688C34.661 40.8221 34.9656 39.795 35.5748 38.9875C36.2264 38.1517 37.1402 37.7338 38.316 37.7338ZM40.271 41.24C40.271 40.5317 40.1152 39.9508 39.8035 39.4975C39.506 39.0442 39.0598 38.8175 38.4648 38.8175C37.7139 38.8175 37.1402 39.0442 36.7435 39.4975C36.3468 39.9508 36.106 40.5317 36.021 41.24H40.271ZM46.1978 45.0225C46.6936 45.0225 47.1115 44.9304 47.4515 44.7463C47.8057 44.5479 47.9828 44.2646 47.9828 43.8963C47.9828 43.5988 47.8553 43.365 47.6003 43.195C47.3453 43.025 46.8069 42.77 45.9853 42.43L45.1778 42.1113C44.8236 41.9413 44.5332 41.7925 44.3065 41.665C44.0799 41.5233 43.8744 41.3179 43.6903 41.0488C43.5061 40.7654 43.414 40.4113 43.414 39.9863C43.414 39.2213 43.7257 38.6546 44.349 38.2863C44.9865 37.9179 45.7657 37.7338 46.6865 37.7338C47.4657 37.7338 48.2449 37.9108 49.024 38.265L48.684 39.285C48.0465 39.0158 47.4303 38.8813 46.8353 38.8813C46.2261 38.8813 45.7303 38.9733 45.3478 39.1575C44.9794 39.3275 44.7953 39.5754 44.7953 39.9013C44.7953 40.2271 44.9228 40.4821 45.1778 40.6663C45.4469 40.8504 45.9003 41.0629 46.5378 41.3037L47.239 41.58C48.0182 41.9058 48.5636 42.2458 48.8753 42.6C49.1869 42.9542 49.3428 43.4217 49.3428 44.0025C49.3428 44.5975 49.0665 45.1146 48.514 45.5538C47.9615 45.9787 47.2249 46.1912 46.304 46.1912C45.2557 46.1912 44.2215 45.9858 43.2015 45.575L43.584 44.5338C44.5049 44.8596 45.3761 45.0225 46.1978 45.0225ZM52.2394 36.2675C51.9844 36.2675 51.7719 36.1825 51.6019 36.0125C51.4319 35.8283 51.3469 35.6158 51.3469 35.375C51.3469 35.1483 51.4319 34.95 51.6019 34.78C51.7719 34.5958 51.9844 34.5038 52.2394 34.5038C52.4802 34.5038 52.6857 34.5958 52.8557 34.78C53.0257 34.95 53.1107 35.1483 53.1107 35.375C53.1107 35.6158 53.0257 35.8283 52.8557 36.0125C52.6998 36.1825 52.4944 36.2675 52.2394 36.2675ZM52.9194 46H51.5382V37.84H52.9194V46ZM60.851 45.6175C60.1426 45.9858 59.4272 46.17 58.7047 46.17C57.4014 46.17 56.4026 45.6671 55.7085 44.6613C55.2126 43.9246 54.9647 43.0604 54.9647 42.0688C54.9647 41.0629 55.1772 40.2129 55.6022 39.5188C56.0414 38.8104 56.6435 38.3004 57.4085 37.9888C57.7626 37.8188 58.2231 37.7338 58.7897 37.7338C59.4556 37.7338 60.0931 37.8754 60.7022 38.1588L61.106 38.35L61.2547 37.84H62.2535V46.3825C62.2535 47.1333 62.1685 47.7354 61.9985 48.1887C61.8285 48.6421 61.5381 49.06 61.1272 49.4425C60.7872 49.7683 60.3622 50.0162 59.8522 50.1862C59.3564 50.3704 58.7968 50.4625 58.1735 50.4625C57.7768 50.4625 57.3447 50.4129 56.8772 50.3137C56.4239 50.2146 56.0272 50.0871 55.6872 49.9312L56.0485 48.9537C56.856 49.2371 57.5006 49.3787 57.9822 49.3787C58.8322 49.3787 59.4981 49.1733 59.9797 48.7625C60.4614 48.3517 60.7447 47.7708 60.8297 47.02C60.8439 46.8642 60.851 46.4675 60.851 45.83V45.6175ZM59.0235 45.0438C59.7318 45.0438 60.341 44.895 60.851 44.5975V39.2638C60.2135 38.9804 59.5831 38.8388 58.9597 38.8388C58.1097 38.8388 57.4651 39.115 57.026 39.6675C56.5868 40.22 56.3672 40.9567 56.3672 41.8775C56.3672 42.5433 56.4947 43.1313 56.7497 43.6412C57.0047 44.1512 57.3518 44.5196 57.791 44.7463C58.1451 44.9446 58.556 45.0438 59.0235 45.0438ZM70.0748 40.815C70.0748 40.1208 69.9402 39.625 69.6711 39.3275C69.4161 39.03 68.9627 38.8813 68.3111 38.8813C67.6169 38.8813 66.8661 39.0725 66.0586 39.455V46H64.6773V37.84H65.6336L65.9311 38.52C66.9086 37.9817 67.8648 37.7125 68.7998 37.7125C69.664 37.7125 70.3227 37.9604 70.7761 38.4563C71.2294 38.9379 71.4561 39.6108 71.4561 40.475V46H70.0748V40.815ZM27.7588 74.1912C26.2004 74.1912 25.0671 73.8088 24.3588 73.0438C23.6646 72.2788 23.3175 71.11 23.3175 69.5375V62.3125H24.6987V69.8775C24.6987 70.5717 24.8262 71.1667 25.0812 71.6625C25.3221 72.1017 25.655 72.4275 26.08 72.64C26.5192 72.8525 27.0788 72.9588 27.7588 72.9588C29.0904 72.9588 29.9758 72.5267 30.415 71.6625C30.6842 71.1525 30.8188 70.5575 30.8188 69.8775V62.3125H32.2V69.5375C32.2 71.11 31.8458 72.2788 31.1375 73.0438C30.4433 73.8088 29.3171 74.1912 27.7588 74.1912ZM35.8802 62.3125H34.159L37.9202 67.88L33.7127 74H35.4127L38.7065 69.07L42.0002 74H43.8065L39.6415 67.8588L43.3602 62.3125H41.7665L38.8552 66.69L35.8802 62.3125ZM26.335 90.3125L22.34 102H23.8062L24.9113 98.5787H29.3738L30.4788 102H32.0513L28.035 90.3125H26.335ZM25.315 97.3675L27.1212 91.7788L28.97 97.3675H25.315ZM37.136 102.191C35.8751 102.191 34.8976 101.83 34.2035 101.108C33.5235 100.385 33.1835 99.3721 33.1835 98.0688C33.1835 96.8504 33.5376 95.8021 34.246 94.9238C34.9543 94.1304 36.0097 93.7338 37.4122 93.7338C38.1064 93.7338 38.8006 93.8825 39.4947 94.18L39.1547 95.2C38.6589 94.9875 38.0993 94.8813 37.476 94.8813C36.5126 94.8813 35.7901 95.1363 35.3085 95.6462C34.8268 96.1421 34.586 96.8646 34.586 97.8138C34.586 99.0321 34.8764 99.875 35.4572 100.343C36.0381 100.81 36.7535 101.044 37.6035 101.044C38.1418 101.044 38.6589 100.952 39.1547 100.768L39.4735 101.724C38.6518 102.035 37.8726 102.191 37.136 102.191ZM44.8557 102.191C43.5949 102.191 42.6174 101.83 41.9232 101.108C41.2432 100.385 40.9032 99.3721 40.9032 98.0688C40.9032 96.8504 41.2574 95.8021 41.9657 94.9238C42.674 94.1304 43.7295 93.7338 45.132 93.7338C45.8261 93.7338 46.5203 93.8825 47.2145 94.18L46.8745 95.2C46.3786 94.9875 45.819 94.8813 45.1957 94.8813C44.2324 94.8813 43.5099 95.1363 43.0282 95.6462C42.5465 96.1421 42.3057 96.8646 42.3057 97.8138C42.3057 99.0321 42.5961 99.875 43.177 100.343C43.7578 100.81 44.4732 101.044 45.3232 101.044C45.8615 101.044 46.3786 100.952 46.8745 100.768L47.1932 101.724C46.3715 102.035 45.5924 102.191 44.8557 102.191ZM52.2779 93.7338C53.3546 93.7338 54.1833 94.0596 54.7642 94.7113C55.345 95.3488 55.6354 96.2554 55.6354 97.4313V98.175L55.5504 98.345H49.9617C49.9617 99.0392 50.2238 99.6837 50.7479 100.279C51.2438 100.775 52.0158 101.023 53.0642 101.023C53.7583 101.023 54.4171 100.916 55.0404 100.704L55.2954 101.724C54.4313 102.021 53.56 102.17 52.6817 102.17C51.3642 102.17 50.3583 101.816 49.6642 101.108C48.97 100.399 48.6229 99.3863 48.6229 98.0688C48.6229 96.8221 48.9275 95.795 49.5367 94.9875C50.1883 94.1517 51.1021 93.7338 52.2779 93.7338ZM54.2329 97.24C54.2329 96.5317 54.0771 95.9508 53.7654 95.4975C53.4679 95.0442 53.0217 94.8175 52.4267 94.8175C51.6758 94.8175 51.1021 95.0442 50.7054 95.4975C50.3088 95.9508 50.0679 96.5317 49.9829 97.24H54.2329ZM60.1597 101.023C60.6555 101.023 61.0734 100.93 61.4134 100.746C61.7676 100.548 61.9447 100.265 61.9447 99.8963C61.9447 99.5988 61.8172 99.365 61.5622 99.195C61.3072 99.025 60.7689 98.77 59.9472 98.43L59.1397 98.1113C58.7855 97.9413 58.4951 97.7925 58.2684 97.665C58.0418 97.5233 57.8364 97.3179 57.6522 97.0488C57.468 96.7654 57.3759 96.4113 57.3759 95.9863C57.3759 95.2213 57.6876 94.6546 58.3109 94.2863C58.9484 93.9179 59.7276 93.7338 60.6484 93.7338C61.4276 93.7338 62.2068 93.9108 62.9859 94.265L62.6459 95.285C62.0084 95.0158 61.3922 94.8813 60.7972 94.8813C60.188 94.8813 59.6922 94.9733 59.3097 95.1575C58.9414 95.3275 58.7572 95.5754 58.7572 95.9013C58.7572 96.2271 58.8847 96.4821 59.1397 96.6663C59.4089 96.8504 59.8622 97.0629 60.4997 97.3037L61.2009 97.58C61.9801 97.9058 62.5255 98.2458 62.8372 98.6C63.1489 98.9542 63.3047 99.4217 63.3047 100.003C63.3047 100.598 63.0284 101.115 62.4759 101.554C61.9234 101.979 61.1868 102.191 60.2659 102.191C59.2176 102.191 58.1834 101.986 57.1634 101.575L57.5459 100.534C58.4668 100.86 59.338 101.023 60.1597 101.023ZM68.0288 101.023C68.5247 101.023 68.9426 100.93 69.2826 100.746C69.6367 100.548 69.8138 100.265 69.8138 99.8963C69.8138 99.5988 69.6863 99.365 69.4313 99.195C69.1763 99.025 68.638 98.77 67.8163 98.43L67.0088 98.1113C66.6547 97.9413 66.3642 97.7925 66.1376 97.665C65.9109 97.5233 65.7055 97.3179 65.5213 97.0488C65.3372 96.7654 65.2451 96.4113 65.2451 95.9863C65.2451 95.2213 65.5567 94.6546 66.1801 94.2863C66.8176 93.9179 67.5967 93.7338 68.5176 93.7338C69.2967 93.7338 70.0759 93.9108 70.8551 94.265L70.5151 95.285C69.8776 95.0158 69.2613 94.8813 68.6663 94.8813C68.0572 94.8813 67.5613 94.9733 67.1788 95.1575C66.8105 95.3275 66.6263 95.5754 66.6263 95.9013C66.6263 96.2271 66.7538 96.4821 67.0088 96.6663C67.278 96.8504 67.7313 97.0629 68.3688 97.3037L69.0701 97.58C69.8492 97.9058 70.3947 98.2458 70.7063 98.6C71.018 98.9542 71.1738 99.4217 71.1738 100.003C71.1738 100.598 70.8976 101.115 70.3451 101.554C69.7926 101.979 69.0559 102.191 68.1351 102.191C67.0867 102.191 66.0526 101.986 65.0326 101.575L65.4151 100.534C66.3359 100.86 67.2072 101.023 68.0288 101.023ZM74.0705 92.2675C73.8155 92.2675 73.603 92.1825 73.433 92.0125C73.263 91.8283 73.178 91.6158 73.178 91.375C73.178 91.1483 73.263 90.95 73.433 90.78C73.603 90.5958 73.8155 90.5038 74.0705 90.5038C74.3113 90.5038 74.5167 90.5958 74.6867 90.78C74.8567 90.95 74.9417 91.1483 74.9417 91.375C74.9417 91.6158 74.8567 91.8283 74.6867 92.0125C74.5309 92.1825 74.3255 92.2675 74.0705 92.2675ZM74.7505 102H73.3692V93.84H74.7505V102ZM77.2208 102V90.695H78.602V94.0525C79.1545 93.7975 79.8133 93.67 80.5783 93.67C81.7258 93.67 82.6608 94.01 83.3833 94.69C84.1341 95.4408 84.5095 96.5458 84.5095 98.005C84.5095 99.2658 84.1837 100.279 83.532 101.044C82.8945 101.795 81.9737 102.17 80.7695 102.17C79.9762 102.17 79.2041 101.922 78.4533 101.426L78.1983 102H77.2208ZM80.4295 101.001C81.3362 101.001 82.002 100.753 82.427 100.258C82.852 99.7617 83.0645 98.9825 83.0645 97.92C83.0645 96.9708 82.8379 96.2129 82.3845 95.6462C81.9454 95.0796 81.2866 94.7963 80.4083 94.7963C79.7424 94.7963 79.1404 94.9025 78.602 95.115V100.513C78.9279 100.683 79.2183 100.81 79.4733 100.895C79.7424 100.966 80.0612 101.001 80.4295 101.001ZM87.2521 92.2675C86.9971 92.2675 86.7846 92.1825 86.6146 92.0125C86.4446 91.8283 86.3596 91.6158 86.3596 91.375C86.3596 91.1483 86.4446 90.95 86.6146 90.78C86.7846 90.5958 86.9971 90.5038 87.2521 90.5038C87.4929 90.5038 87.6984 90.5958 87.8684 90.78C88.0384 90.95 88.1234 91.1483 88.1234 91.375C88.1234 91.6158 88.0384 91.8283 87.8684 92.0125C87.7125 92.1825 87.5071 92.2675 87.2521 92.2675ZM87.9321 102H86.5509V93.84H87.9321V102ZM92.7824 100.916C92.9949 100.916 93.2358 100.874 93.5049 100.789L93.7599 101.788C93.7174 101.802 93.5474 101.873 93.2499 102C92.9524 102.127 92.5699 102.191 92.1024 102.191C91.5783 102.191 91.1603 102.014 90.8487 101.66C90.537 101.292 90.3741 100.817 90.3599 100.236V90.6738H91.6987V99.7475C91.6987 100.13 91.7624 100.42 91.8899 100.619C92.0174 100.817 92.3149 100.916 92.7824 100.916ZM95.7853 92.2675C95.5303 92.2675 95.3178 92.1825 95.1478 92.0125C94.9778 91.8283 94.8928 91.6158 94.8928 91.375C94.8928 91.1483 94.9778 90.95 95.1478 90.78C95.3178 90.5958 95.5303 90.5038 95.7853 90.5038C96.0261 90.5038 96.2316 90.5958 96.4016 90.78C96.5716 90.95 96.6566 91.1483 96.6566 91.375C96.6566 91.6158 96.5716 91.8283 96.4016 92.0125C96.2457 92.1825 96.0403 92.2675 95.7853 92.2675ZM96.4653 102H95.0841V93.84H96.4653V102ZM101.698 102.17C100.876 102.17 100.289 101.95 99.9344 101.511C99.5944 101.058 99.4244 100.378 99.4244 99.4713V94.9875H98.0431V93.84H99.4244V91.8425L100.806 91.7363V93.84H103.483V94.9875H100.806V99.3862C100.806 99.9529 100.891 100.364 101.061 100.619C101.245 100.874 101.592 101.001 102.102 101.001C102.584 101.001 103.016 100.959 103.398 100.874L103.632 101.809C102.994 102.05 102.35 102.17 101.698 102.17ZM107.603 106.377H106.179L107.752 102.425L104.479 93.84H105.924L108.432 100.598L110.939 93.84H112.257L107.603 106.377ZM26.0587 119.502V130H27.4612V119.502H31.3925V118.312H22.1912V119.502H26.0587ZM37.1254 130C38.3012 130 39.2858 129.766 40.0791 129.299C40.8866 128.831 41.5099 128.165 41.9491 127.301C42.4024 126.451 42.6291 125.403 42.6291 124.156C42.6291 122.98 42.4024 121.925 41.9491 120.99C41.5099 120.154 40.8866 119.503 40.0791 119.035C39.2716 118.553 38.287 118.312 37.1254 118.312H33.0029V130H37.1254ZM37.0191 119.524C37.9541 119.524 38.7262 119.736 39.3354 120.161C39.8029 120.487 40.2208 121.011 40.5891 121.734C40.9149 122.456 41.0779 123.264 41.0779 124.156C41.0779 125.219 40.9362 126.04 40.6529 126.621C40.327 127.301 39.8737 127.832 39.2929 128.215C38.7262 128.583 37.9683 128.768 37.0191 128.768H34.4054V119.524H37.0191ZM48.9789 130C50.1547 130 51.1393 129.766 51.9326 129.299C52.7401 128.831 53.3635 128.165 53.8026 127.301C54.256 126.451 54.4826 125.403 54.4826 124.156C54.4826 122.98 54.256 121.925 53.8026 120.99C53.3635 120.154 52.7401 119.503 51.9326 119.035C51.1251 118.553 50.1405 118.312 48.9789 118.312H44.8564V130H48.9789ZM48.8726 119.524C49.8076 119.524 50.5797 119.736 51.1889 120.161C51.6564 120.487 52.0743 121.011 52.4426 121.734C52.7685 122.456 52.9314 123.264 52.9314 124.156C52.9314 125.219 52.7897 126.04 52.5064 126.621C52.1805 127.301 51.7272 127.832 51.1464 128.215C50.5797 128.583 49.8218 128.768 48.8726 128.768H46.2589V119.524H48.8726ZM32.2637 146.759C31.5271 146.518 30.9887 146.362 30.6487 146.291C30.1387 146.192 29.4871 146.143 28.6937 146.143C27.9146 146.143 27.1142 146.305 26.2925 146.631C25.5842 146.915 24.975 147.318 24.465 147.843C23.9833 148.324 23.6079 148.933 23.3387 149.67C23.0696 150.393 22.935 151.214 22.935 152.135C22.935 153.934 23.4662 155.386 24.5287 156.491C25.0387 157.001 25.6692 157.412 26.42 157.724C27.1708 158.035 27.9925 158.191 28.885 158.191C30.1883 158.191 31.3571 157.936 32.3912 157.426L32.0513 156.321C31.0454 156.704 30.1317 156.895 29.31 156.895C28.3183 156.895 27.4471 156.69 26.6963 156.279C26.0163 155.882 25.4779 155.33 25.0812 154.621C24.6846 153.899 24.4862 153.063 24.4862 152.114C24.4862 151.136 24.6562 150.293 24.9962 149.585C25.3504 148.863 25.8533 148.31 26.505 147.928C27.1283 147.588 27.9925 147.417 29.0975 147.417C29.65 147.417 30.1175 147.46 30.5 147.545C30.8967 147.616 31.35 147.736 31.86 147.906L32.2637 146.759ZM37.7243 158.191C36.4918 158.191 35.5285 157.809 34.8343 157.044C34.1543 156.279 33.8143 155.252 33.8143 153.963C33.8143 152.659 34.1614 151.632 34.8556 150.881C35.5639 150.116 36.5414 149.734 37.7881 149.734C39.0348 149.734 39.9981 150.109 40.6781 150.86C41.3581 151.611 41.6981 152.638 41.6981 153.941C41.6981 155.216 41.3439 156.243 40.6356 157.023C39.9273 157.802 38.9568 158.191 37.7243 158.191ZM37.7881 150.818C36.9806 150.818 36.3502 151.115 35.8968 151.71C35.4577 152.305 35.2381 153.056 35.2381 153.963C35.2381 154.869 35.4577 155.613 35.8968 156.194C36.3502 156.775 36.9806 157.065 37.7881 157.065C38.5814 157.065 39.1977 156.775 39.6368 156.194C40.076 155.599 40.2956 154.855 40.2956 153.963C40.2956 153.056 40.0689 152.305 39.6156 151.71C39.1764 151.115 38.5673 150.818 37.7881 150.818ZM53.4467 152.815C53.4467 151.483 52.9154 150.818 51.8529 150.818C51.3288 150.818 50.6771 151.058 49.8979 151.54C49.9404 151.696 49.9617 152.008 49.9617 152.475V158H48.5804V152.815C48.5804 151.483 48.0421 150.818 46.9654 150.818C46.4554 150.818 45.825 151.023 45.0742 151.434V158H43.6929V149.84H44.6492L44.9467 150.52C45.4283 150.194 45.8746 149.968 46.2854 149.84C46.6113 149.755 46.9867 149.713 47.4117 149.713C47.8792 149.713 48.29 149.805 48.6442 149.989C49.0125 150.173 49.31 150.428 49.5367 150.754C50.0042 150.414 50.4504 150.159 50.8754 149.989C51.3004 149.805 51.7679 149.713 52.2779 149.713C53.1138 149.713 53.7513 149.968 54.1904 150.478C54.6438 150.973 54.8704 151.639 54.8704 152.475V158H53.4467V152.815ZM66.9271 152.815C66.9271 151.483 66.3959 150.818 65.3334 150.818C64.8092 150.818 64.1576 151.058 63.3784 151.54C63.4209 151.696 63.4421 152.008 63.4421 152.475V158H62.0609V152.815C62.0609 151.483 61.5226 150.818 60.4459 150.818C59.9359 150.818 59.3055 151.023 58.5546 151.434V158H57.1734V149.84H58.1296L58.4271 150.52C58.9088 150.194 59.3551 149.968 59.7659 149.84C60.0917 149.755 60.4671 149.713 60.8921 149.713C61.3596 149.713 61.7705 149.805 62.1246 149.989C62.493 150.173 62.7905 150.428 63.0171 150.754C63.4846 150.414 63.9309 150.159 64.3559 149.989C64.7809 149.805 65.2484 149.713 65.7584 149.713C66.5942 149.713 67.2317 149.968 67.6709 150.478C68.1242 150.973 68.3509 151.639 68.3509 152.475V158H66.9271V152.815ZM72.0351 155.089C72.0351 155.783 72.1697 156.279 72.4389 156.576C72.708 156.874 73.1685 157.023 73.8201 157.023C74.486 157.023 75.2297 156.831 76.0514 156.449V149.84H77.4326V158H76.4764L76.1789 157.405C75.1447 157.943 74.1885 158.212 73.3101 158.212C72.4601 158.212 71.8014 157.965 71.3339 157.469C70.8805 156.973 70.6539 156.293 70.6539 155.429V149.84H72.0351V155.089ZM85.1822 152.815C85.1822 152.121 85.0476 151.625 84.7785 151.328C84.5235 151.03 84.0701 150.881 83.4185 150.881C82.7243 150.881 81.9735 151.073 81.166 151.455V158H79.7847V149.84H80.741L81.0385 150.52C82.016 149.982 82.9722 149.713 83.9072 149.713C84.7714 149.713 85.4301 149.96 85.8835 150.456C86.3368 150.938 86.5635 151.611 86.5635 152.475V158H85.1822V152.815ZM89.6095 148.268C89.3545 148.268 89.142 148.183 88.972 148.013C88.802 147.828 88.717 147.616 88.717 147.375C88.717 147.148 88.802 146.95 88.972 146.78C89.142 146.596 89.3545 146.504 89.6095 146.504C89.8504 146.504 90.0558 146.596 90.2258 146.78C90.3958 146.95 90.4808 147.148 90.4808 147.375C90.4808 147.616 90.3958 147.828 90.2258 148.013C90.0699 148.183 89.8645 148.268 89.6095 148.268ZM90.2895 158H88.9083V149.84H90.2895V158ZM96.2873 158.191C95.0265 158.191 94.049 157.83 93.3548 157.108C92.6748 156.385 92.3348 155.372 92.3348 154.069C92.3348 152.85 92.689 151.802 93.3973 150.924C94.1057 150.13 95.1611 149.734 96.5636 149.734C97.2578 149.734 97.9519 149.883 98.6461 150.18L98.3061 151.2C97.8103 150.988 97.2507 150.881 96.6273 150.881C95.664 150.881 94.9415 151.136 94.4598 151.646C93.9782 152.142 93.7373 152.865 93.7373 153.814C93.7373 155.032 94.0278 155.875 94.6086 156.343C95.1894 156.81 95.9048 157.044 96.7548 157.044C97.2932 157.044 97.8103 156.952 98.3061 156.768L98.6248 157.724C97.8032 158.035 97.024 158.191 96.2873 158.191ZM103.072 150.924C102.775 150.924 102.413 150.959 101.988 151.03C101.577 151.087 101.209 151.165 100.883 151.264L100.607 150.244C101.556 149.918 102.442 149.755 103.263 149.755C104.184 149.755 104.885 149.897 105.367 150.18C105.792 150.492 106.082 150.825 106.238 151.179C106.408 151.533 106.493 152.05 106.493 152.73V158H105.452L105.155 157.235C104.347 157.887 103.518 158.212 102.668 158.212C101.932 158.212 101.308 158 100.798 157.575C100.302 157.15 100.055 156.612 100.055 155.96C100.055 155.323 100.246 154.798 100.628 154.388C101.025 153.963 101.507 153.679 102.073 153.538C102.796 153.353 103.809 153.247 105.112 153.219V153.155C105.112 152.574 105.055 152.149 104.942 151.88C104.715 151.243 104.092 150.924 103.072 150.924ZM102.86 157.108C103.327 157.108 103.738 157.03 104.092 156.874C104.446 156.704 104.786 156.47 105.112 156.173V154.218C104.135 154.232 103.412 154.288 102.945 154.388C102.42 154.501 102.031 154.671 101.776 154.898C101.521 155.11 101.393 155.415 101.393 155.811C101.393 156.222 101.535 156.541 101.818 156.768C102.116 156.994 102.463 157.108 102.86 157.108ZM111.593 158.17C110.771 158.17 110.183 157.95 109.829 157.511C109.489 157.058 109.319 156.378 109.319 155.471V150.988H107.938V149.84H109.319V147.843L110.7 147.736V149.84H113.378V150.988H110.7V155.386C110.7 155.953 110.785 156.364 110.955 156.619C111.139 156.874 111.486 157.001 111.996 157.001C112.478 157.001 112.91 156.959 113.293 156.874L113.526 157.809C112.889 158.05 112.244 158.17 111.593 158.17ZM115.84 148.268C115.585 148.268 115.372 148.183 115.203 148.013C115.032 147.828 114.947 147.616 114.947 147.375C114.947 147.148 115.032 146.95 115.203 146.78C115.372 146.596 115.585 146.504 115.84 146.504C116.081 146.504 116.286 146.596 116.456 146.78C116.626 146.95 116.711 147.148 116.711 147.375C116.711 147.616 116.626 147.828 116.456 148.013C116.3 148.183 116.095 148.268 115.84 148.268ZM116.52 158H115.139V149.84H116.52V158ZM122.475 158.191C121.243 158.191 120.279 157.809 119.585 157.044C118.905 156.279 118.565 155.252 118.565 153.963C118.565 152.659 118.912 151.632 119.607 150.881C120.315 150.116 121.292 149.734 122.539 149.734C123.786 149.734 124.749 150.109 125.429 150.86C126.109 151.611 126.449 152.638 126.449 153.941C126.449 155.216 126.095 156.243 125.387 157.023C124.678 157.802 123.708 158.191 122.475 158.191ZM122.539 150.818C121.732 150.818 121.101 151.115 120.648 151.71C120.209 152.305 119.989 153.056 119.989 153.963C119.989 154.869 120.209 155.613 120.648 156.194C121.101 156.775 121.732 157.065 122.539 157.065C123.332 157.065 123.949 156.775 124.388 156.194C124.827 155.599 125.047 154.855 125.047 153.963C125.047 153.056 124.82 152.305 124.367 151.71C123.927 151.115 123.318 150.818 122.539 150.818ZM133.841 152.815C133.841 152.121 133.707 151.625 133.438 151.328C133.183 151.03 132.729 150.881 132.078 150.881C131.383 150.881 130.633 151.073 129.825 151.455V158H128.444V149.84H129.4L129.698 150.52C130.675 149.982 131.631 149.713 132.566 149.713C133.431 149.713 134.089 149.96 134.543 150.456C134.996 150.938 135.223 151.611 135.223 152.475V158H133.841V152.815Z" fill="#7EBBFF"/>
<defs>
<filter id="filter0_d" x="0" y="0" width="258" height="198" filterUnits="userSpaceOnUse" color-interpolation-filters="sRGB">
<feFlood flood-opacity="0" result="BackgroundImageFix"/>
<feColorMatrix in="SourceAlpha" type="matrix" values="0 0 0 0 0 0 0 0 0 0 0 0 0 0 0 0 0 0 127 0"/>
<feOffset dy="4"/>
<feGaussianBlur stdDeviation="2"/>
<feColorMatrix type="matrix" values="0 0 0 0 0 0 0 0 0 0 0 0 0 0 0 0 0 0 0.5 0"/>
<feBlend mode="normal" in2="BackgroundImageFix" result="effect1_dropShadow"/>
<feBlend mode="normal" in="SourceGraphic" in2="effect1_dropShadow" result="shape"/>
</filter>
</defs>
</svg>
