<svg width="258" height="198" viewBox="0 0 258 198" fill="none" xmlns="http://www.w3.org/2000/svg">
<g filter="url(#filter0_d)">
<rect x="4" width="250" height="190" rx="50" fill="#F0F0F0" fill-opacity="0.85"/>
<rect x="4.5" y="0.5" width="249" height="189" rx="49.5" stroke="#343D24"/>
</g>
<path d="M56.5106 78.4H44.0306V79.68H46.5906V102.72H44.0306V104H56.5106V102.72H53.9506V79.68H56.5106V78.4ZM82.1006 102.72V104H74.8366L72.1806 101.344V86.08H69.9406L67.7006 88.32V102.72H69.3006V104H57.7806V102.72H60.3406V86.08H57.7806V84.8H64.7246L66.9966 87.04L69.2366 84.8H76.5646L79.5406 87.776V102.72H82.1006ZM97.6144 101.024L94.6384 104H88.2704L85.2944 101.024V80.64H83.0544V79.36H89.5184L92.1744 82.016V86.72H96.6544V88H92.1744V102.72H93.9344L96.6224 100.032L97.6144 101.024ZM102.842 104H115.29L118.266 101.024L117.274 100.032L114.586 102.72H107.226V96H115.13L118.106 93.024V87.776L115.13 84.8H102.842L99.8656 87.776V101.024L102.842 104ZM107.226 86.08H110.746V94.72H107.226V86.08ZM137.951 87.136L136.959 88.128L134.911 86.08H132.191L129.951 88.32V102.72H132.511V104H125.567L122.591 101.024V86.08H120.031V84.8H126.975L129.247 87.04L131.487 84.8H135.615L137.951 87.136ZM142.529 104H154.977L157.953 101.024L156.961 100.032L154.273 102.72H146.913V96H154.817L157.793 93.024V87.776L154.817 84.8H142.529L139.553 87.776V101.024L142.529 104ZM146.913 86.08H150.433V94.72H146.913V86.08ZM162.438 104.32V101.824L164.614 104H174.694L177.35 101.344V97.472L166.598 86.08H172.71L175.59 88.96V91.36H177.03V84.48H175.59V86.976L173.414 84.8H163.974L161.318 87.456V91.328L172.07 102.72H165.318L162.438 99.84V97.44H160.998V104.32H162.438ZM194.458 101.024L191.482 104H185.114L182.138 101.024V80.64H179.898V79.36H186.362L189.018 82.016V86.72H193.498V88H189.018V102.72H190.778L193.466 100.032L194.458 101.024ZM198.469 104.32V101.824L200.645 104H210.725L213.381 101.344V97.472L202.629 86.08H208.741L211.621 88.96V91.36H213.061V84.48H211.621V86.976L209.445 84.8H200.005L197.349 87.456V91.328L208.101 102.72H201.349L198.469 99.84V97.44H197.029V104.32H198.469Z" fill="#356FB1"/>
<defs>
<filter id="filter0_d" x="0" y="0" width="258" height="198" filterUnits="userSpaceOnUse" color-interpolation-filters="sRGB">
<feFlood flood-opacity="0" result="BackgroundImageFix"/>
<feColorMatrix in="SourceAlpha" type="matrix" values="0 0 0 0 0 0 0 0 0 0 0 0 0 0 0 0 0 0 127 0"/>
<feOffset dy="4"/>
<feGaussianBlur stdDeviation="2"/>
<feColorMatrix type="matrix" values="0 0 0 0 0 0 0 0 0 0 0 0 0 0 0 0 0 0 0.25 0"/>
<feBlend mode="normal" in2="BackgroundImageFix" result="effect1_dropShadow"/>
<feBlend mode="normal" in="SourceGraphic" in2="effect1_dropShadow" result="shape"/>
</filter>
</defs>
</svg>
