<svg width="258" height="198" viewBox="0 0 258 198" fill="none" xmlns="http://www.w3.org/2000/svg">
<g filter="url(#filter0_d)">
<rect x="4" width="250" height="190" rx="10" fill="#FFEAEA" fill-opacity="0.9"/>
</g>
<path d="M38.3158 98.3652L38.1654 98.2878C37.8271 98.0943 37.5639 97.8041 37.3759 97.4364C37.1128 96.9333 37 96.4689 37 95.9852L37.0376 95.7336C37.0376 95.3466 37.1316 94.9983 37.3007 94.6694L37.4511 94.3791C37.5263 94.2243 37.6391 94.0889 37.7331 93.9534C37.8459 93.818 37.8646 93.6438 37.8271 93.489L37.7331 93.1794C37.6203 92.7924 37.5451 92.4054 37.5451 92.0184L37.4887 91.7862C37.4887 91.3605 37.6015 90.9348 37.8646 90.6252L38.0526 90.3736C38.1842 90.1801 38.391 90.064 38.6165 89.9866C38.8045 89.9286 38.9361 89.7351 38.9549 89.5029L38.9924 88.845C38.9924 88.3225 39.2368 87.8388 39.6127 87.4905L40.0639 87.1422C40.1578 87.0454 40.2518 86.9487 40.327 86.7939C40.421 86.6778 40.4398 86.523 40.421 86.4069C40.3834 86.2134 40.421 86.1553 40.515 86.136C40.8157 86.2521 41.0037 86.2134 41.1353 86.0586L41.3796 85.7296L42.0563 84.9556C42.1535 84.8487 42.2192 84.7155 42.2458 84.5717C42.2724 84.4278 42.2589 84.2792 42.2067 84.1429L41.9811 83.6398C41.9435 83.5237 41.9811 83.3883 42.0751 83.3496C42.3195 83.3496 42.4886 83.4463 42.5638 83.6011L42.639 83.7366C42.7518 83.9688 43.0149 84.0849 43.2029 83.9881C43.6164 83.8333 43.9548 83.7946 44.2743 83.7946H44.8758C45.2893 83.7946 45.6277 83.5044 45.7029 83.0593C45.7781 82.5175 45.966 82.0918 46.2292 81.8016C46.5111 81.4726 46.8307 81.2211 47.2066 81.0276C47.6953 80.7567 47.9961 80.3696 48.09 79.8665C48.2216 79.2473 48.5412 78.8023 48.9735 78.512L50.402 77.68L50.8156 77.4284C51.0599 77.2736 51.2855 77.0801 51.4735 76.8479L51.8494 76.3835C52.0374 76.19 52.2253 76.0546 52.4509 75.9965C52.6388 75.9385 52.902 75.8998 53.1276 75.9191L53.8794 75.9772C54.2554 75.9772 54.5561 76.0739 54.8569 76.2094L55.0448 76.3061C55.2328 76.3835 55.4208 76.3448 55.5147 76.2094L55.6839 76.1126L56.4922 75.2419C56.6801 75.0484 56.9057 74.971 57.15 75.0097C57.3944 75.0484 57.6388 75.1451 57.8643 75.2612C58.2027 75.4547 58.4846 75.5321 58.8042 75.5321H58.9921C59.4057 75.5321 59.8192 75.5902 60.2327 75.6869L60.5147 75.7643C60.7966 75.8417 61.0786 75.7256 61.2665 75.4934C61.3229 75.3967 61.4545 75.3773 61.5297 75.4547C61.5861 75.4934 61.6049 75.5321 61.6237 75.5902C61.6613 75.9772 61.8868 76.2674 62.1876 76.3642L62.4883 76.4609C62.8065 76.5593 63.0841 76.7635 63.2778 77.0414C63.4657 77.3317 63.6913 77.6219 63.9544 77.8154L64.1424 78.0089C64.3304 78.2024 64.5935 78.2798 64.8567 78.2605H65.9657C66.4168 78.2605 66.8491 78.3379 67.2815 78.5314C67.695 78.7249 68.1273 78.7636 68.522 78.6088C68.9356 78.4733 69.3679 78.4153 69.8002 78.4733L70.6085 78.6088C70.9844 78.6475 71.3603 78.841 71.5859 79.1312L71.6799 79.228C71.8679 79.4215 72.0558 79.673 72.2438 79.9439C72.3566 80.1955 72.6197 80.3309 72.8829 80.3309H74.0483C74.3302 80.3309 74.6122 80.389 74.8377 80.5245C75.0821 80.718 75.2889 80.9115 75.4768 81.105L75.6648 81.3565C75.8903 81.6274 76.0031 81.9951 75.9843 82.3821C75.9843 82.6917 76.2099 82.9626 76.5106 82.9626L76.8866 83.0013C77.1497 83.0013 77.3753 83.1948 77.5069 83.4463L77.6948 83.8333L78.1835 84.9556C78.2587 85.1491 78.2775 85.3426 78.2587 85.4974C78.2587 85.6909 78.3151 85.8457 78.4467 85.9231L78.6347 86.0586C78.879 86.2521 79.0106 86.5423 78.973 86.8713L78.8414 87.7807L78.8038 88.1677C78.7662 88.3612 78.8602 88.6128 79.0294 88.7482C79.3114 88.9417 79.4429 89.1933 79.4617 89.4835V89.8705C79.4617 90.064 79.4241 90.2962 79.2738 90.451C79.161 90.6058 79.0858 90.7993 79.0858 91.0315L79.1422 91.4766C79.1422 91.7862 79.3301 92.0571 79.5181 92.2506C79.7813 92.4441 79.9316 92.7537 79.9692 93.0633C80.0444 93.5471 80.0632 93.9341 80.0632 94.3211V94.7661C80.0632 94.9209 80.0632 95.0757 80.1196 95.2305C80.1572 95.366 80.2512 95.5014 80.364 95.5788L80.7399 95.8691C81.1158 96.1206 81.379 96.4496 81.5294 96.8946C81.7173 97.3203 81.7737 97.7654 81.7737 98.2104V98.3652C81.7737 98.7135 81.7361 99.0812 81.6233 99.4101C81.5273 99.729 81.5474 100.073 81.6797 100.378C81.8301 100.649 81.9241 100.958 81.9617 101.287C82.0369 101.674 81.9993 102.061 81.8677 102.371L81.8301 102.506C81.7361 102.738 81.5857 102.951 81.3978 103.125C81.2098 103.319 81.0218 103.435 80.9091 103.57C80.7963 103.687 80.7211 103.88 80.7775 104.054L80.8339 104.325C80.9279 104.712 80.9279 105.099 80.8339 105.447V105.602C80.7587 105.892 80.6459 106.144 80.5331 106.376C80.4016 106.628 80.2136 106.821 79.9692 106.957L79.6873 107.15C79.6179 107.196 79.5608 107.259 79.5214 107.333C79.482 107.408 79.4614 107.491 79.4617 107.576C79.4617 107.769 79.3865 107.963 79.2738 108.079L78.9918 108.466C78.8038 108.718 78.5595 108.93 78.2963 109.046C78.0332 109.24 77.8076 109.433 77.6384 109.627C77.4505 109.859 77.3001 110.13 77.2249 110.401C77.1497 110.749 76.8866 110.943 76.6046 110.943H75.5896C75.3265 110.943 75.0821 111.136 74.9693 111.368C74.8377 111.678 74.7062 111.891 74.537 112.084C74.3548 112.279 74.2252 112.519 74.1611 112.781C74.1235 113.013 73.9355 113.168 73.7475 113.091C73.5032 112.975 73.2588 113.091 73.146 113.284C72.9205 113.671 72.6949 113.961 72.4506 114.213L72.319 114.329C72.0746 114.523 71.7551 114.677 71.4731 114.677C71.1348 114.677 70.9656 114.832 70.9092 115.064C70.8528 115.258 70.8152 115.509 70.7964 115.722C70.7589 115.954 70.6837 116.167 70.6085 116.361L70.5145 116.477C70.3265 116.767 70.1762 117.057 69.9882 117.309L69.913 117.425C69.6686 117.754 69.3491 118.006 68.9732 118.102C68.5731 118.238 68.1537 118.303 67.7326 118.296H67.4694C67.2815 118.296 67.0935 118.412 66.9619 118.605L66.8491 118.799L66.7364 119.031L66.492 119.457C66.304 119.805 66.0221 120.037 65.6462 120.153C65.2702 120.25 64.8379 120.289 64.4432 120.27L64.1424 120.231C63.8793 120.231 63.6349 120.153 63.3906 120.037C63.2026 119.96 62.9394 120.037 62.8267 120.231C62.6387 120.502 62.4131 120.657 62.1688 120.734L61.6049 120.927C61.2289 121.024 60.8154 121.024 60.4207 120.927L60.1199 120.831C59.932 120.831 59.744 120.734 59.5936 120.637C59.4205 120.543 59.2246 120.503 59.0297 120.521L58.7854 120.56C58.4094 120.598 58.0711 120.56 57.7327 120.463L57.2252 120.347C56.9936 120.269 56.7947 120.112 56.6613 119.902C56.6042 119.796 56.5231 119.705 56.425 119.638C56.3269 119.571 56.2146 119.528 56.0974 119.515H55.4959C55.12 119.457 54.7817 119.321 54.5561 119.031L53.8042 118.296L53.5411 118.064L53.1276 117.754L52.8832 117.561C52.6013 117.367 52.2629 117.212 51.9058 117.174L50.778 116.98C50.6652 116.98 50.59 116.941 50.4772 116.922L50.0449 116.825C49.8569 116.787 49.669 116.632 49.5374 116.438C49.4246 116.245 49.2178 116.167 49.0299 116.245C48.6539 116.4 48.3532 116.438 48.0525 116.496H47.7893C47.3006 116.535 46.8495 116.458 46.3983 116.245C45.9472 116.051 45.6465 115.761 45.3645 115.393C45.139 115.064 44.8006 114.813 44.3871 114.735L43.8608 114.619C43.4849 114.542 43.1089 114.387 42.7706 114.155C42.3946 113.884 42.2067 113.632 42.0563 113.323C41.9059 113.033 41.812 112.704 41.7932 112.355V112.201C41.7767 112.01 41.7052 111.829 41.588 111.681C41.4707 111.533 41.3131 111.424 41.1353 111.368C40.7029 111.233 40.3834 111.04 40.1015 110.788C39.9693 110.658 39.8645 110.502 39.7934 110.329C39.7222 110.156 39.6863 109.97 39.6879 109.782L39.7255 108.93C39.7255 108.601 39.6315 108.311 39.406 108.098C39.1785 107.883 39.0433 107.584 39.03 107.266L38.9737 106.57C38.9289 106.061 38.8472 105.556 38.7293 105.06C38.6165 104.615 38.7857 104.17 39.1428 103.957L39.2744 103.861C39.4624 103.725 39.5376 103.474 39.4248 103.241L39.2744 103.048C39.1198 102.874 38.9262 102.741 38.7105 102.661C38.5601 102.622 38.5225 102.467 38.5225 102.371L38.7105 102.139C38.8233 102.003 38.8045 101.79 38.7105 101.674C38.5702 101.528 38.4838 101.337 38.4661 101.132L38.4285 99.7778C38.4285 99.5069 38.4661 99.236 38.5413 98.9651C38.6165 98.7329 38.5413 98.462 38.3158 98.3459V98.3652ZM56.9245 95.811C57.0561 95.6756 57.0373 95.424 56.9245 95.3273C56.7505 95.1819 56.604 95.0048 56.4922 94.8048L56.3042 94.4952C56.1736 94.2524 56.0089 94.0307 55.8155 93.8373L55.7779 93.7986C55.5937 93.6405 55.4461 93.4422 55.3456 93.2181C55.2516 93.0246 55.2516 92.8311 55.3456 92.6376L55.4583 92.4441C55.5711 92.2506 55.6463 91.9797 55.6463 91.7475V91.6701C55.6463 91.4766 55.5711 91.2831 55.4583 91.0896C55.3832 90.9348 55.308 90.7413 55.2704 90.5478V90.4317C55.214 90.1995 55.2704 89.9479 55.4208 89.7544C55.5711 89.5029 55.6839 89.2707 55.7403 88.9804V88.9417C55.8155 88.7482 55.7779 88.4967 55.6651 88.3032C55.5523 88.1097 55.5147 87.9162 55.5899 87.684L55.7215 87.297C55.8343 86.9487 56.0035 86.6391 56.229 86.3682L56.4922 86.0779L56.6801 85.8457L56.7929 85.7296C56.9057 85.6135 56.9245 85.42 56.8305 85.2652C56.7365 85.0717 56.6801 84.8782 56.7177 84.6847L56.7553 84.4138C56.8117 84.0268 56.9433 83.6398 57.1876 83.3302L57.2628 83.2528C57.5448 82.8658 57.9019 82.6143 58.3154 82.4788L58.823 82.2853C59.0485 82.2079 59.1989 81.9564 59.1989 81.7048C59.1989 81.3952 59.2929 81.1243 59.462 80.8728L59.556 80.776C59.744 80.4471 59.9696 80.1181 60.1199 79.7698L60.2515 79.5182C60.2891 79.4602 60.3079 79.3828 60.3079 79.3247C60.3079 78.9958 60.1199 78.7055 59.8192 78.6862L58.9921 78.6281C58.5222 78.5894 58.0523 78.6281 57.6012 78.6281L56.0035 78.8216C55.7591 78.8216 55.5711 79.0151 55.5523 79.286C55.5523 79.5569 55.3644 79.7891 55.1388 79.8665L54.4621 80.06L54.2742 80.1181L53.7103 80.3116C53.2967 80.4471 52.9584 80.7567 52.7704 81.1824L52.62 81.4339C52.4321 81.8596 52.1125 82.2079 51.7178 82.4595C51.3419 82.711 51.1539 83.1174 51.1163 83.5818V83.7753C51.0787 84.1623 50.9659 84.5493 50.7404 84.8202L50.6464 84.975C50.496 85.1685 50.4584 85.42 50.5524 85.6329C50.6464 85.8651 50.7028 86.1166 50.684 86.3682V87.3937C50.684 87.6646 50.496 87.8968 50.3081 87.9742C50.0449 88.071 49.8757 88.2838 49.8005 88.5547L49.7066 88.9417C49.6314 89.3287 49.763 89.7157 50.0825 89.9479C50.3832 90.1801 50.5712 90.5284 50.6464 90.9541V91.3025C50.7028 91.6895 50.9095 92.0765 51.2479 92.27C51.5862 92.5022 51.8494 92.8505 51.9998 93.2375L52.0937 93.5471C52.2441 93.9728 52.5825 94.2243 52.9584 94.263H53.0712C53.4095 94.263 53.7103 94.4565 53.8982 94.7661C54.0862 95.0757 54.3869 95.2886 54.7253 95.3466L55.2516 95.5014C55.5711 95.5982 55.8719 95.7723 56.1162 96.0239L56.1538 96.0626C56.3418 96.2174 56.6425 96.198 56.8117 95.9852L56.9433 95.8304L56.9245 95.811ZM59.0673 94.0308C59.2553 94.1469 59.4432 94.0889 59.5184 93.9147L59.5748 93.818C59.7064 93.5471 59.8756 93.2762 60.0635 93.044L60.4395 92.4635C60.4959 92.4635 60.5147 92.4248 60.5335 92.3861L60.9846 91.7669C61.1725 91.5734 61.3981 91.4379 61.6613 91.4379C61.9056 91.4379 62.1124 91.3025 62.2252 91.0509C62.3003 90.78 62.4131 90.5284 62.6387 90.3156L62.7327 90.1995C62.9206 90.006 63.1086 89.9092 63.2966 89.8125C63.5409 89.7738 63.7665 89.7351 63.992 89.7351H64.5559C64.7815 89.7351 64.9695 89.6383 65.0823 89.4448C65.195 89.2513 65.3642 89.1159 65.5522 89.0191L65.7401 88.9417C66.0409 88.8063 66.3792 88.7095 66.7176 88.6708L67.0935 88.6321C67.3191 88.6321 67.5634 88.6321 67.789 88.7676C67.9769 88.903 68.2213 88.8837 68.4093 88.7289L68.5408 88.6515C68.8228 88.458 69.1423 88.3032 69.4807 88.2645H69.5183C69.8942 88.1871 70.2325 88.1871 70.6085 88.2064H70.7964C71.1724 88.2645 71.4919 88.3999 71.7363 88.6902L71.7927 88.7676C71.9806 88.9611 72.2814 89.1159 72.5445 89.1159H72.8641C72.9581 89.1159 73.0521 89.0772 73.1084 88.9804C73.1648 88.9224 73.2588 88.8643 73.3528 88.8643H73.5408C73.8039 88.8643 74.0483 88.9417 74.2926 89.0191L74.6122 89.1546C74.9129 89.2513 75.2325 89.3481 75.552 89.3868H75.7776C75.9279 89.3868 76.0219 89.29 76.0219 89.1546C76.0219 88.9611 75.9843 88.7676 75.8904 88.6128L75.7588 88.3032C75.6084 88.0516 75.4956 87.7807 75.3828 87.5292L75.3452 87.4324C75.2513 87.2389 75.2513 87.0454 75.3452 86.8519V86.7552C75.3647 86.6782 75.3563 86.5965 75.3218 86.5254C75.2872 86.4542 75.2288 86.3984 75.1573 86.3682H75.0069C74.7098 86.2783 74.4471 86.0958 74.255 85.8457L74.0671 85.6522C73.8791 85.4587 73.7663 85.1685 73.6911 84.8782C73.5972 84.6267 73.3904 84.4332 73.1272 84.4332H72.3378C72.2001 84.4138 72.0675 84.3661 71.9481 84.293C71.8286 84.2199 71.7246 84.1228 71.6423 84.0075L71.5671 83.9107C71.4355 83.7172 71.3228 83.485 71.2476 83.2528C71.1536 83.0593 70.9468 82.9432 70.7589 83.0013L70.5333 83.0787C70.1574 83.2141 69.7814 83.2722 69.4055 83.2335L69.1047 83.1948C68.7852 83.1948 68.4845 83.0593 68.2401 82.8658L68.0521 82.7304C67.9018 82.6143 67.7514 82.5369 67.5822 82.4595C67.3942 82.3821 67.2439 82.4208 67.1311 82.5562L67.0371 82.6723C66.8491 82.8658 66.586 83.0206 66.3228 83.0593L65.3078 83.1174C65.1198 83.1174 64.9319 83.2141 64.8003 83.3496C64.6499 83.485 64.4808 83.5818 64.2928 83.6205H64.2552C64.0672 83.6205 63.8793 83.7559 63.6913 83.8914V83.9301C63.5033 84.1236 63.259 84.2203 63.0146 84.2203L62.9394 84.259C62.7139 84.259 62.4883 84.259 62.2627 84.3171H62.0372C61.7176 84.3751 61.4733 84.646 61.3981 84.9943L61.3229 85.4394C61.2642 85.7437 61.1353 86.0291 60.947 86.2714C60.759 86.5036 60.5335 86.6584 60.2515 86.6584H59.932C59.744 86.6971 59.556 86.91 59.5936 87.1422C59.6312 87.4711 59.5936 87.7614 59.5372 88.0516L59.462 88.3806C59.3869 88.6708 59.1989 88.903 58.9545 88.9998L58.8418 89.0578H58.8042C58.6914 89.1352 58.6162 89.3094 58.7102 89.4448C58.823 89.6383 58.8605 89.8318 58.8418 90.0253L58.7854 90.6445C58.7854 90.8767 58.6914 91.0896 58.5974 91.2831C58.4846 91.4766 58.4846 91.6701 58.5598 91.8636L58.7478 92.2893C58.8418 92.4828 58.8605 92.6763 58.8042 92.9085C58.7478 93.102 58.7102 93.2955 58.729 93.489C58.729 93.6825 58.8418 93.876 58.9921 93.9534L59.0297 93.9921L59.0673 94.0308ZM73.9167 108.021C74.1047 108.214 74.3866 108.292 74.6122 108.137L74.9881 107.885C75.1761 107.75 75.3264 107.557 75.4016 107.305V107.266L75.5896 106.686L75.7024 106.492L75.7776 106.299L75.8528 106.163C75.9279 106.009 76.0407 105.892 76.2287 105.834L76.3039 105.796C76.4543 105.757 76.5482 105.602 76.5482 105.447C76.5482 105.254 76.6422 105.099 76.7362 104.964L76.8866 104.828L77.2625 104.325V104.286C77.3753 104.132 77.4505 103.957 77.4881 103.764C77.5257 103.57 77.4881 103.377 77.4129 103.183L77.3753 103.106C77.3077 102.946 77.2634 102.776 77.2437 102.603L77.1873 102.061L77.1309 101.481C77.1309 101.287 77.2061 101.094 77.3189 100.9C77.4478 100.738 77.5495 100.555 77.6196 100.358V100.281L77.6572 100.242C77.6948 100.049 77.6008 99.8552 77.4317 99.8552C77.2437 99.7584 77.0557 99.6036 76.9994 99.3714L76.943 99.2553C76.849 98.907 76.7926 98.5587 76.7926 98.2104L76.8302 97.2429V97.1849C76.8302 97.1086 76.8156 97.0332 76.7873 96.9627C76.7589 96.8923 76.7174 96.8283 76.665 96.7744C76.6127 96.7205 76.5505 96.6777 76.4821 96.6486C76.4137 96.6194 76.3403 96.6044 76.2663 96.6044H76.2287C75.8528 96.6044 75.552 96.4883 75.2889 96.2174L75.1385 96.0239L74.7626 95.5788L74.2738 94.9983C74.0859 94.7274 73.8979 94.4952 73.6535 94.263C73.4656 94.0695 73.1836 93.876 72.9017 93.8373L72.5257 93.7793C72.3378 93.7406 72.0934 93.6438 71.8867 93.5084C71.7363 93.3923 71.5107 93.431 71.3603 93.5858L71.116 93.8567L71.0032 93.9341C70.8716 93.9728 70.7401 93.8954 70.6837 93.7406C70.602 93.4999 70.6155 93.2358 70.7213 93.0053V92.8892C70.7213 92.7537 70.6085 92.657 70.4957 92.6957H70.195C69.8566 92.6957 69.5183 92.657 69.1987 92.5022L69.0108 92.4248C68.8179 92.3259 68.6059 92.273 68.3905 92.27C68.2025 92.27 68.0145 92.3087 67.8266 92.4248L67.7514 92.4828C67.5258 92.6376 67.2627 92.715 66.9995 92.7344H66.3792C66.0973 92.7344 65.8153 92.8311 65.6274 92.9859C65.383 93.1407 65.1198 93.2375 64.8379 93.2955L64.3304 93.3729C64.1048 93.431 63.8605 93.5277 63.6537 93.7019C63.4657 93.8954 63.2026 94.0115 62.9582 94.0889L62.8642 94.1276C62.5558 94.2254 62.29 94.4306 62.1124 94.7081L61.8868 94.9403C61.8227 95.03 61.7881 95.1385 61.7881 95.2499C61.7881 95.3613 61.8227 95.4697 61.8868 95.5595C61.9996 95.753 62.2252 95.811 62.4507 95.753L62.7327 95.6369C62.883 95.5788 63.0522 95.6369 63.1838 95.7143C63.2966 95.811 63.4657 95.8691 63.6349 95.8497L64.1048 95.7917C64.368 95.7917 64.6311 95.7917 64.8943 95.8691C65.1762 95.9658 65.4206 96.0626 65.6462 96.2561C65.8717 96.4496 66.1161 96.527 66.398 96.5657C66.68 96.6044 66.9619 96.6624 67.2251 96.7592L67.413 96.7979C67.601 96.8559 67.7514 96.9914 67.8642 97.1849C67.9581 97.3397 68.0521 97.5719 68.0521 97.7654V97.8234C68.0521 98.0556 68.2401 98.2104 68.4281 98.2104H68.5408C68.8416 98.2104 69.1611 98.2491 69.4807 98.3459L69.6123 98.4039C69.8002 98.4813 69.9882 98.5974 70.1198 98.7909C70.2701 98.9844 70.3641 99.1779 70.4205 99.3714L70.4769 99.6423C70.5333 99.9326 70.5521 100.223 70.5521 100.532V100.629C70.5521 100.823 70.6837 101.016 70.8904 101.094C71.0784 101.132 71.304 101.21 71.5107 101.326L71.6047 101.364C71.8491 101.519 72.0934 101.713 72.2814 101.945L72.3754 102.08C72.6197 102.371 72.7513 102.738 72.7513 103.106V103.241C72.7513 103.532 72.6949 103.822 72.6009 104.093C72.5257 104.325 72.6009 104.596 72.8453 104.673L72.9769 104.77C73.2588 104.886 73.5032 105.099 73.6911 105.351C73.8791 105.641 73.9543 105.97 73.9543 106.318V106.899C73.9167 107.092 73.8603 107.247 73.7663 107.382C73.6723 107.518 73.6723 107.711 73.7663 107.847L73.8791 108.04L73.9167 108.021ZM61.8868 98.1137H61.8492C61.774 98.1137 61.7364 98.2104 61.7552 98.3072L61.8304 98.6942C61.9056 99.0038 61.9432 99.3134 61.9808 99.623C62.0184 99.9326 62.1688 100.203 62.3943 100.397H62.4695C62.7515 100.629 62.9206 100.977 62.9394 101.326V102.293C62.9018 102.487 62.9394 102.68 63.0522 102.835L63.1462 102.932C63.3342 103.164 63.4093 103.435 63.4281 103.706L63.4845 104.77C63.4845 105.022 63.3342 105.235 63.1086 105.273L62.9206 105.312C62.7891 105.312 62.7327 105.467 62.7327 105.602C62.7327 105.757 62.7891 105.931 62.8454 106.086V106.125C62.9018 106.318 62.9206 106.512 62.9018 106.705L62.8267 107.228C62.7515 107.615 62.6387 107.963 62.4507 108.311L62.3191 108.543C62.2398 108.712 62.1073 108.849 61.9432 108.93C61.7552 109.008 61.6237 109.163 61.5673 109.356L61.4169 110.053C61.3229 110.44 61.1537 110.827 60.9282 111.214H60.8906C60.665 111.523 60.3831 111.794 60.0447 111.988L59.8192 112.142L59.2553 112.433C59.0673 112.51 58.9545 112.684 58.9169 112.897L58.823 113.536C58.7666 113.923 58.635 114.252 58.3718 114.503L58.1275 114.793L57.8455 115.084L57.5636 115.393C57.338 115.664 56.9997 115.78 56.6237 115.722L55.9471 115.587L55.3268 115.509H55.1576C55.0824 115.587 55.0636 115.703 55.12 115.819C55.2516 116.051 55.4583 116.206 55.6839 116.206L56.0974 116.283C56.2854 116.283 56.511 116.38 56.6989 116.477C56.8869 116.612 57.0749 116.709 57.3004 116.767H57.338C57.5824 116.864 57.8455 116.883 58.0899 116.864L58.3718 116.825C58.6914 116.787 58.9921 116.825 59.2553 116.941L59.4808 117.019C59.5748 117.057 59.7252 117.019 59.8192 116.922C59.932 116.806 60.0447 116.728 60.1951 116.67L60.3455 116.632C60.5898 116.554 60.8342 116.516 61.0974 116.516H61.2477C61.4733 116.516 61.6801 116.554 61.868 116.67L61.9432 116.709C62.0748 116.767 62.2252 116.709 62.3191 116.593C62.3755 116.458 62.5071 116.322 62.6387 116.206L63.1086 115.877L63.4093 115.684L63.5597 115.587C63.7477 115.451 64.0108 115.393 64.2364 115.393L64.9131 115.335C65.1762 115.297 65.4018 115.103 65.477 114.832C65.5522 114.542 65.6649 114.252 65.8529 114C66.0409 113.749 66.2288 113.536 66.4168 113.342C66.6612 113.149 66.9055 113.052 67.1687 113.033H67.3191C67.6198 112.975 67.8454 112.684 67.8266 112.375V111.078C67.8642 110.885 67.9394 110.633 68.0521 110.44L68.4281 109.859L68.5784 109.666C68.6912 109.569 68.7664 109.433 68.898 109.279L69.0859 109.027C69.1448 108.933 69.1729 108.823 69.1661 108.711C69.1593 108.6 69.1181 108.493 69.0484 108.408C68.8604 108.214 68.7664 107.944 68.7288 107.673V107.595C68.6912 107.286 68.6912 106.957 68.7852 106.628V106.531C68.8792 106.279 69.0108 106.028 69.1611 105.796C69.3115 105.602 69.2927 105.331 69.1047 105.176L68.7852 104.886C68.5272 104.646 68.3663 104.314 68.3341 103.957L68.2965 103.57C68.2965 103.454 68.2965 103.319 68.2589 103.183L68.2213 102.893C68.1986 102.736 68.1432 102.585 68.0589 102.451C67.9746 102.318 67.8633 102.204 67.7326 102.119L67.601 102.08C67.413 101.964 67.2251 101.79 67.0747 101.558C66.9243 101.364 66.8491 101.094 66.7928 100.823L66.7364 100.494C66.7364 100.378 66.6612 100.3 66.5484 100.242L66.2476 100.145L65.6462 99.9519C65.4582 99.9132 65.2702 99.7584 65.1386 99.623H65.101C65.0787 99.5892 65.0494 99.5609 65.0152 99.5402C64.981 99.5195 64.9427 99.5068 64.9032 99.5031C64.8636 99.4994 64.8238 99.5048 64.7865 99.5188C64.7492 99.5328 64.7154 99.5552 64.6875 99.5843L64.4996 99.7778C64.462 99.8358 64.4244 99.8552 64.368 99.8358C64.2552 99.8358 64.18 99.7391 64.2176 99.6423C64.2381 99.4899 64.2194 99.3346 64.1634 99.192C64.1073 99.0494 64.0158 98.9244 63.8981 98.8296L63.6537 98.6361L63.0898 98.2491C62.9394 98.1911 62.7139 98.2491 62.6387 98.4426L62.5635 98.5587C62.5635 98.5974 62.5071 98.6168 62.4883 98.6361C62.4131 98.6361 62.3003 98.6361 62.3003 98.5394L62.244 98.4426C62.1876 98.3265 62.056 98.2491 61.9432 98.2104L61.8868 98.1137ZM59.6312 100.049L59.5372 99.9519C59.4432 99.8745 59.3493 99.8939 59.2553 99.9906C59.1237 100.223 59.0109 100.474 58.9545 100.726V100.765C58.8981 101.016 58.6726 101.19 58.447 101.152H58.2215C57.9583 101.152 57.7515 101.384 57.7515 101.655C57.7515 102.003 57.6388 102.351 57.432 102.622L57.3192 102.738C57.1313 102.99 56.8493 103.164 56.5674 103.261L56.417 103.3C56.229 103.358 56.0786 103.493 56.041 103.725C56.041 103.919 55.9283 104.112 55.7779 104.267L55.5899 104.422C55.3644 104.673 55.026 104.809 54.6877 104.848L53.7479 104.944C53.4471 104.944 53.1839 105.138 52.996 105.428C52.808 105.718 52.5261 105.912 52.2441 105.95L51.8306 105.989C51.5298 106.028 51.2103 106.028 50.8908 105.95L50.7028 105.912L50.1953 105.776C50.0073 105.718 49.8569 105.776 49.7442 105.912L49.5562 106.163C49.4416 106.301 49.2962 106.409 49.1325 106.476C48.9689 106.543 48.7917 106.569 48.6164 106.55L47.3946 106.396C47.2066 106.396 47.0562 106.299 46.8871 106.202C46.6991 106.086 46.5675 105.95 46.4359 105.815L45.966 105.235C45.9096 105.196 45.8156 105.176 45.7217 105.196L45.4585 105.312L44.4059 105.583C44.2179 105.641 43.9736 105.583 43.7856 105.467C43.5976 105.312 43.3721 105.273 43.1465 105.273H42.9022C42.6766 105.331 42.5262 105.583 42.6014 105.815L42.6766 106.202C42.733 106.396 42.7142 106.628 42.6202 106.821C42.5262 107.015 42.545 107.208 42.6766 107.402L42.7894 107.557C42.9398 107.789 43.1653 107.982 43.3533 108.176C43.5412 108.369 43.7292 108.563 43.8796 108.814L44.1615 109.337C44.3119 109.608 44.5375 109.762 44.8382 109.762C45.1202 109.762 45.4021 109.859 45.6277 110.053L46.1916 110.594C46.342 110.73 46.5675 110.749 46.7179 110.633L46.8119 110.594C46.9247 110.594 46.9998 110.672 46.9998 110.788V110.885C46.9998 111.136 47.1878 111.368 47.4322 111.465L48.278 111.659C48.5788 111.755 48.8795 111.852 49.1615 112.046H49.3118C49.4622 112.046 49.5938 111.91 49.575 111.736V111.059C49.575 110.865 49.6502 110.672 49.8005 110.594L49.8945 110.556C49.9885 110.594 50.0825 110.672 50.0449 110.749V111.078C50.0449 111.33 50.1201 111.562 50.2893 111.736C50.4772 111.93 50.7216 111.968 50.9283 111.891C51.1539 111.794 51.3795 111.775 51.6238 111.794L52.3193 111.833C52.6576 111.872 52.9772 111.833 53.2591 111.697C53.5975 111.581 53.8794 111.427 54.1426 111.214L54.2554 111.136L54.8193 110.614C55.0072 110.42 55.2516 110.324 55.4771 110.324H56.229C56.6049 110.285 56.9433 109.937 56.9809 109.55L57.0561 109.163C57.0561 108.911 57.1688 108.679 57.338 108.485C57.526 108.292 57.7139 108.176 57.9019 108.098L58.1275 108.002C58.447 107.866 58.6914 107.576 58.8042 107.228L58.9169 106.763C59.0109 106.376 59.1989 105.989 59.4808 105.738L59.5184 105.699C59.744 105.505 59.7816 105.118 59.6312 104.848L59.5748 104.712C59.5098 104.603 59.4707 104.479 59.4609 104.351C59.4511 104.224 59.4708 104.095 59.5184 103.977C59.6124 103.706 59.7064 103.474 59.8568 103.241L60.0447 102.971C60.1199 102.816 60.1199 102.584 60.0071 102.448C59.8901 102.293 59.8243 102.103 59.8192 101.906L59.7816 101.635V100.977C59.8192 100.784 59.7816 100.532 59.7252 100.339L59.65 100.107L59.6312 100.049ZM56.9433 98.5781V98.52C56.9433 98.3265 56.8305 98.2104 56.6801 98.2104H56.1914C56.0035 98.2491 55.8155 98.2491 55.6651 98.2104H54.8193C54.3869 98.2104 53.9734 98.133 53.5599 98.0169L53.1088 97.9008L52.7328 97.7847L51.887 97.4945C51.6706 97.4299 51.47 97.319 51.2983 97.1689C51.1266 97.0188 50.9877 96.833 50.8908 96.6237L50.7968 96.4302C50.7406 96.2941 50.6412 96.1816 50.5149 96.1113C50.3885 96.041 50.2427 96.017 50.1013 96.0432C49.7817 96.0432 49.4622 96.0432 49.1615 95.8884L48.9359 95.7917C48.5036 95.5982 48.184 95.2112 48.184 94.6887L48.1088 94.1663C48.0525 93.8954 47.8833 93.6438 47.6577 93.5471C47.3946 93.431 47.1502 93.2762 46.9059 93.102L46.8119 93.044C46.5167 92.8076 46.2894 92.4933 46.154 92.1345L46.1164 92.0184C46.0192 91.7053 46.0062 91.371 46.0788 91.0509L46.1164 90.9348C46.1916 90.6832 46.2104 90.4317 46.2104 90.1608C46.208 89.9205 46.1134 89.6909 45.9472 89.5222L45.6841 89.2707C45.5339 89.1463 45.4111 88.9906 45.3236 88.8139C45.2361 88.6371 45.186 88.4433 45.1766 88.2451C45.139 87.8194 45.139 87.4131 45.2142 87.0067V86.8906C45.2142 86.8398 45.2044 86.7895 45.1855 86.7425C45.1666 86.6956 45.139 86.6529 45.104 86.617C45.0691 86.581 45.0277 86.5525 44.9821 86.5331C44.9365 86.5136 44.8876 86.5036 44.8382 86.5036H44.7818C44.5375 86.5036 44.3307 86.6584 44.2179 86.8906C44.1239 87.1615 43.9736 87.3744 43.8044 87.5872L43.7292 87.684L43.3533 88.071L43.1653 88.2645C42.9773 88.458 42.8646 88.7482 42.827 89.0385C42.7894 89.3287 42.7142 89.619 42.6014 89.8899L42.5638 89.9866C42.4698 90.2188 42.3195 90.4317 42.1315 90.5671C41.9435 90.7219 41.812 90.9541 41.812 91.1863L41.7744 92.0765C41.7744 92.4635 41.718 92.8505 41.5864 93.2375L41.5488 93.3923C41.4548 93.6438 41.5488 93.9147 41.7744 94.0308L42.5638 94.3791L42.639 94.4178C42.6954 94.4178 42.7142 94.4565 42.733 94.5146C42.7894 94.592 42.733 94.7081 42.6766 94.7081L42.4886 94.8048C42.3759 94.8435 42.3007 94.9596 42.2631 95.0951L42.2255 95.2886V95.3273L42.0375 96.4109C41.9999 96.5657 41.9999 96.7398 41.9999 96.914C41.9999 97.0688 42.0939 97.2042 42.2255 97.2623L42.639 97.4558C42.827 97.5719 43.0525 97.7073 43.2029 97.8428L43.3909 97.9976C43.4473 98.075 43.5412 98.1524 43.6164 98.1911L43.6916 98.2685C43.8232 98.3846 43.9172 98.5394 43.9548 98.7135L44.1427 99.5843C44.1427 99.8165 44.3307 100.01 44.5187 100.068L44.8194 100.165C44.8194 100.165 44.8758 100.165 44.9134 100.203L45.2893 100.32C45.5901 100.416 45.8532 100.59 46.0788 100.823C46.3044 101.016 46.5299 101.268 46.7179 101.539L46.7931 101.616C46.9434 101.81 47.169 101.906 47.3946 101.848C47.6201 101.79 47.8645 101.771 48.1088 101.771H48.3908C48.5788 101.771 48.8231 101.829 49.0299 101.964C49.2178 102.08 49.4622 102.158 49.6878 102.255H49.7442C49.9697 102.351 50.2141 102.313 50.402 102.177C50.59 102.022 50.8344 101.945 51.0787 101.945L51.9622 102.003C52.1501 102.003 52.3381 101.964 52.4321 101.81H52.4697L52.7892 101.5L52.8832 101.403C53.0336 101.21 53.2591 101.132 53.4847 101.113H54.3305C54.5561 101.113 54.7629 100.919 54.8569 100.726C54.9508 100.532 55.1388 100.378 55.3644 100.339L55.7403 100.262C55.8907 100.262 56.0222 100.126 56.0786 99.9519C56.135 99.7584 56.229 99.6036 56.3606 99.4875L56.6613 99.1779C56.8493 98.9844 56.9433 98.7909 56.9809 98.5587L56.9433 98.5781Z" fill="#343D24"/>
<path d="M144.334 115.201H137.679V104.525C137.679 101.979 137.627 98.7075 134.198 98.7075C130.727 98.7075 130.199 101.469 130.199 104.337V115.199H123.535V93.248H129.936V96.2422H130.022C130.916 94.513 133.091 92.6946 136.337 92.6946C143.088 92.6946 144.341 97.2384 144.341 103.146V115.199L144.334 115.201ZM116.005 90.2481C115.497 90.2482 114.993 90.1459 114.523 89.9467C114.053 89.7476 113.626 89.4557 113.267 89.0877C112.908 88.7197 112.623 88.2828 112.429 87.8022C112.235 87.3215 112.136 86.8064 112.137 86.2864C112.138 85.5038 112.366 84.739 112.792 84.0887C113.218 83.4385 113.823 82.9319 114.53 82.6331C115.238 82.3344 116.016 82.2568 116.767 82.4102C117.518 82.5636 118.207 82.9411 118.748 83.495C119.289 84.0489 119.657 84.7543 119.806 85.5221C119.955 86.2898 119.877 87.0853 119.584 87.8081C119.29 88.5309 118.794 89.1485 118.157 89.5828C117.52 90.0171 116.771 90.2486 116.005 90.2481ZM119.344 115.201H112.666V93.2495H119.344V115.201ZM147.676 76H109.319C107.486 76 106 77.482 106 79.3162V118.684C106 120.518 107.486 122 109.319 122H147.669C149.498 122 151 120.518 151 118.684V79.3162C151 77.482 149.498 76 147.669 76H147.676Z" fill="#343D24"/>
<path d="M198 76C185.062 76 175 86.1613 175 99.2258C175 114.468 188.656 121 190.812 121C192.25 121 192.25 120.274 192.25 119.548V115.919C187.219 117.371 185.062 114.468 184.344 112.29C184.344 112.29 184.344 111.565 182.906 110.113C182.188 109.387 179.312 107.935 182.188 107.935C184.344 107.935 185.781 110.839 185.781 110.839C187.938 113.742 190.812 113.016 192.25 112.29C192.25 110.839 193.688 109.387 193.688 109.387C187.938 108.661 183.625 106.484 183.625 98.5C183.625 95.5968 184.344 93.4194 185.781 91.9677C185.781 91.9677 184.344 89.0645 185.781 85.4355C185.781 85.4355 189.375 85.4355 192.25 88.3387C194.406 86.8871 201.594 86.8871 203.75 88.3387C206.625 85.4355 210.219 85.4355 210.219 85.4355C211.656 90.5161 210.219 91.9677 210.219 91.9677C211.656 93.4194 212.375 95.5968 212.375 98.5C212.375 106.484 207.344 108.661 202.312 109.387C203.031 110.113 203.75 111.565 203.75 113.742V119.548C203.75 120.274 203.75 121 205.188 121C207.344 121 221 114.468 221 99.2258C221 86.1613 210.938 76 198 76Z" fill="#343D24"/>
<defs>
<filter id="filter0_d" x="0" y="0" width="258" height="198" filterUnits="userSpaceOnUse" color-interpolation-filters="sRGB">
<feFlood flood-opacity="0" result="BackgroundImageFix"/>
<feColorMatrix in="SourceAlpha" type="matrix" values="0 0 0 0 0 0 0 0 0 0 0 0 0 0 0 0 0 0 127 0"/>
<feOffset dy="4"/>
<feGaussianBlur stdDeviation="2"/>
<feColorMatrix type="matrix" values="0 0 0 0 0 0 0 0 0 0 0 0 0 0 0 0 0 0 0.25 0"/>
<feBlend mode="normal" in2="BackgroundImageFix" result="effect1_dropShadow"/>
<feBlend mode="normal" in="SourceGraphic" in2="effect1_dropShadow" result="shape"/>
</filter>
</defs>
</svg>
