<svg width="258" height="198" viewBox="0 0 258 198" fill="none" xmlns="http://www.w3.org/2000/svg">
<g filter="url(#filter0_d)">
<rect x="4" width="250" height="190" rx="50" fill="#343D24" fill-opacity="0.9"/>
<rect x="4.5" y="0.5" width="249" height="189" rx="49.5" stroke="#343D24"/>
</g>
<path d="M19.9006 93.0161L19.6833 92.9067C19.1946 92.6333 18.8145 92.2232 18.543 91.7036C18.1629 90.9927 18 90.3365 18 89.653L18.0543 89.2975C18.0543 88.7507 18.1901 88.2585 18.4344 87.7937L18.6516 87.3835C18.7602 87.1648 18.9231 86.9734 19.0589 86.782C19.2218 86.5906 19.2489 86.3445 19.1946 86.1258L19.0589 85.6883C18.896 85.1414 18.7874 84.5946 18.7874 84.0477L18.7059 83.7196C18.7059 83.1181 18.8688 82.5166 19.2489 82.0791L19.5204 81.7236C19.7105 81.4502 20.0092 81.2861 20.335 81.1768C20.6065 81.0948 20.7965 80.8213 20.8237 80.4932L20.878 79.5636C20.878 78.8253 21.2309 78.1418 21.774 77.6496L22.4256 77.1574C22.5613 77.0207 22.6971 76.884 22.8057 76.6653C22.9414 76.5012 22.9686 76.2825 22.9414 76.1184C22.8871 75.845 22.9414 75.763 23.0772 75.7356C23.5116 75.8997 23.7831 75.845 23.9732 75.6262L24.3261 75.1614L25.3036 74.0677C25.4439 73.9166 25.5389 73.7285 25.5773 73.5252C25.6157 73.3219 25.5961 73.1118 25.5208 72.9193L25.195 72.2084C25.1407 72.0444 25.195 71.853 25.3307 71.7983C25.6837 71.7983 25.928 71.935 26.0366 72.1537L26.1452 72.3451C26.3081 72.6733 26.6882 72.8373 26.9598 72.7006C27.5571 72.4819 28.0458 72.4272 28.5073 72.4272H29.3762C29.9735 72.4272 30.4622 72.017 30.5708 71.3882C30.6794 70.6226 30.9509 70.021 31.331 69.6109C31.7383 69.1461 32.1999 68.7906 32.7429 68.5172C33.4488 68.1344 33.8832 67.5875 34.019 66.8766C34.209 66.0017 34.6706 65.3728 35.295 64.9627L37.3585 63.7869L37.9558 63.4315C38.3088 63.2127 38.6346 62.9393 38.9061 62.6112L39.4491 61.955C39.7206 61.6816 39.9921 61.4902 40.3179 61.4081C40.5894 61.3261 40.9696 61.2714 41.2954 61.2988L42.3814 61.3808C42.9244 61.3808 43.3588 61.5175 43.7932 61.7089L44.0647 61.8456C44.3362 61.955 44.6078 61.9003 44.7435 61.7089L44.9879 61.5722L46.1554 60.3418C46.4269 60.0684 46.7527 59.959 47.1056 60.0137C47.4586 60.0684 47.8115 60.2051 48.1374 60.3691C48.6261 60.6425 49.0333 60.7519 49.4949 60.7519H49.7664C50.3637 60.7519 50.961 60.8339 51.5584 60.9707L51.9656 61.08C52.3729 61.1894 52.7801 61.0253 53.0516 60.6972C53.1331 60.5605 53.3232 60.5332 53.4318 60.6425C53.5132 60.6972 53.5404 60.7519 53.5675 60.8339C53.6218 61.3808 53.9476 61.7909 54.382 61.9276L54.8164 62.0644C55.2761 62.2034 55.6771 62.4918 55.9568 62.8846C56.2283 63.2948 56.5541 63.7049 56.9342 63.9783L57.2057 64.2518C57.4772 64.5252 57.8573 64.6346 58.2374 64.6072H59.8393C60.491 64.6072 61.1154 64.7166 61.7399 64.99C62.3372 65.2634 62.9617 65.3181 63.5318 65.0994C64.1292 64.908 64.7536 64.826 65.3781 64.908L66.5456 65.0994C67.0886 65.1541 67.6316 65.4275 67.9574 65.8376L68.0932 65.9743C68.3647 66.2478 68.6362 66.6032 68.9077 66.986C69.0706 67.3415 69.4507 67.5329 69.8308 67.5329H71.5142C71.9214 67.5329 72.3287 67.6149 72.6545 67.8063C73.0075 68.0797 73.3061 68.3531 73.5776 68.6266L73.8491 68.982C74.1749 69.3648 74.3379 69.8843 74.3107 70.4312C74.3107 70.8687 74.6365 71.2514 75.0709 71.2514L75.6139 71.3061C75.9941 71.3061 76.3199 71.5796 76.5099 71.935L76.7814 72.4819L77.4873 74.0677C77.5959 74.3411 77.6231 74.6146 77.5959 74.8333C77.5959 75.1067 77.6774 75.3255 77.8675 75.4349L78.139 75.6262C78.4919 75.8997 78.682 76.3098 78.6277 76.7746L78.4376 78.0597L78.3833 78.6066C78.329 78.88 78.4648 79.2355 78.7091 79.4269C79.1164 79.7003 79.3064 80.0557 79.3336 80.4659V81.0127C79.3336 81.2861 79.2793 81.6143 79.0621 81.833C78.8992 82.0517 78.7906 82.3252 78.7906 82.6533L78.872 83.2822C78.872 83.7196 79.1435 84.1024 79.415 84.3759C79.7952 84.6493 80.0124 85.0868 80.0667 85.5242C80.1753 86.2078 80.2024 86.7547 80.2024 87.3015V87.9304C80.2024 88.1491 80.2024 88.3679 80.2839 88.5866C80.3382 88.778 80.4739 88.9694 80.6368 89.0788L81.1799 89.4889C81.7229 89.8444 82.103 90.3092 82.3202 90.9381C82.5917 91.5396 82.6731 92.1685 82.6731 92.7973V93.0161C82.6731 93.5083 82.6188 94.0278 82.4559 94.4926C82.3173 94.9431 82.3462 95.4291 82.5374 95.8597C82.7546 96.2425 82.8903 96.68 82.9446 97.1448C83.0533 97.6917 82.999 98.2385 82.8089 98.676L82.7546 98.8674C82.6188 99.1955 82.4016 99.4963 82.1301 99.7423C81.8586 100.016 81.5871 100.18 81.4242 100.371C81.2613 100.535 81.1527 100.809 81.2342 101.055L81.3156 101.438C81.4514 101.984 81.4514 102.531 81.3156 103.023V103.242C81.207 103.652 81.0441 104.008 80.8812 104.336C80.6911 104.691 80.4196 104.965 80.0667 105.156L79.6594 105.43C79.5592 105.494 79.4767 105.583 79.4198 105.688C79.3628 105.793 79.3332 105.911 79.3336 106.031C79.3336 106.305 79.225 106.578 79.0621 106.742L78.6548 107.289C78.3833 107.644 78.0304 107.945 77.6503 108.109C77.2701 108.383 76.9443 108.656 76.7 108.929C76.4285 109.258 76.2113 109.64 76.1027 110.023C75.9941 110.515 75.6139 110.789 75.2067 110.789H73.7405C73.3604 110.789 73.0075 111.062 72.8446 111.39C72.6545 111.828 72.4644 112.129 72.2201 112.402C71.9569 112.677 71.7697 113.016 71.6771 113.386C71.6228 113.714 71.3513 113.933 71.0798 113.824C70.7268 113.66 70.3738 113.824 70.2109 114.097C69.8851 114.644 69.5593 115.054 69.2064 115.41L69.0163 115.574C68.6633 115.847 68.2018 116.066 67.7945 116.066C67.3058 116.066 67.0615 116.285 66.98 116.613C66.8985 116.886 66.8442 117.242 66.8171 117.542C66.7628 117.87 66.6542 118.171 66.5456 118.445L66.4098 118.609C66.1383 119.019 65.9211 119.429 65.6496 119.784L65.541 119.948C65.188 120.413 64.7265 120.769 64.1835 120.905C63.6056 121.097 62.9998 121.189 62.3915 121.179H62.0114C61.7399 121.179 61.4684 121.343 61.2783 121.616L61.1154 121.89L60.9525 122.218L60.5996 122.819C60.3281 123.312 59.9208 123.64 59.3778 123.804C58.8348 123.94 58.2103 123.995 57.6401 123.968L57.2057 123.913C56.8256 123.913 56.4726 123.804 56.1197 123.64C55.8482 123.53 55.4681 123.64 55.3052 123.913C55.0337 124.296 54.7078 124.515 54.3549 124.624L53.5404 124.897C52.9973 125.034 52.4 125.034 51.8299 124.897L51.3954 124.761C51.1239 124.761 50.8524 124.624 50.6352 124.487C50.3851 124.355 50.1022 124.298 49.8207 124.323L49.4677 124.378C48.9247 124.433 48.436 124.378 47.9473 124.241L47.2142 124.077C46.8796 123.967 46.5923 123.745 46.3997 123.448C46.3171 123.298 46.2001 123.17 46.0584 123.075C45.9167 122.98 45.7544 122.921 45.5852 122.901H44.7164C44.1733 122.819 43.6846 122.628 43.3588 122.218L42.2728 121.179L41.8927 120.851L41.2954 120.413L40.9424 120.14C40.5351 119.866 40.0464 119.648 39.5306 119.593L37.9015 119.32C37.7386 119.32 37.63 119.265 37.4671 119.238L36.8426 119.101C36.5711 119.046 36.2996 118.827 36.1096 118.554C35.9467 118.281 35.648 118.171 35.3765 118.281C34.8335 118.499 34.3991 118.554 33.9647 118.636H33.5845C32.8786 118.691 32.227 118.581 31.5754 118.281C30.9238 118.007 30.4894 117.597 30.0821 117.078C29.7563 116.613 29.2676 116.257 28.6703 116.148L27.91 115.984C27.367 115.874 26.824 115.656 26.3353 115.328C25.7923 114.945 25.5208 114.589 25.3036 114.152C25.0864 113.742 24.9506 113.277 24.9234 112.785V112.566C24.8997 112.297 24.7965 112.041 24.6271 111.832C24.4577 111.622 24.23 111.468 23.9732 111.39C23.3487 111.199 22.8871 110.925 22.4799 110.57C22.289 110.387 22.1376 110.166 22.0348 109.921C21.9321 109.677 21.8803 109.414 21.8826 109.148L21.9369 107.945C21.9369 107.48 21.8011 107.07 21.4753 106.769C21.1467 106.465 20.9514 106.043 20.9323 105.594L20.8508 104.609C20.7862 103.891 20.6682 103.178 20.4979 102.477C20.335 101.848 20.5793 101.219 21.0952 100.918L21.2852 100.781C21.5568 100.59 21.6654 100.235 21.5024 99.9064L21.2852 99.633C21.0619 99.3867 20.7823 99.199 20.4707 99.0861C20.2535 99.0314 20.1992 98.8127 20.1992 98.676L20.4707 98.3479C20.6336 98.1565 20.6065 97.8557 20.4707 97.6917C20.2681 97.4857 20.1432 97.2149 20.1178 96.9261L20.0635 95.0121C20.0635 94.6293 20.1178 94.2465 20.2264 93.8637C20.335 93.5356 20.2264 93.1528 19.9006 92.9887V93.0161ZM46.7798 89.4069C46.9699 89.2155 46.9427 88.86 46.7798 88.7233C46.5285 88.5178 46.3168 88.2676 46.1554 87.9851L45.8838 87.5476C45.6952 87.2045 45.4573 86.8912 45.1779 86.6179L45.1236 86.5633C44.8576 86.3399 44.6443 86.0597 44.4992 85.743C44.3634 85.4696 44.3634 85.1961 44.4992 84.9227L44.6621 84.6493C44.825 84.3759 44.9336 83.9931 44.9336 83.6649V83.5556C44.9336 83.2822 44.825 83.0087 44.6621 82.7353C44.5535 82.5166 44.4448 82.2431 44.3905 81.9697V81.8057C44.3091 81.4775 44.3905 81.1221 44.6078 80.8487C44.825 80.4932 44.9879 80.1651 45.0693 79.755V79.7003C45.1779 79.4269 45.1236 79.0714 44.9607 78.798C44.7978 78.5246 44.7435 78.2511 44.8521 77.923L45.0422 77.3762C45.2051 76.884 45.4494 76.4465 45.7752 76.0637L46.1554 75.6536L46.4269 75.3255L46.5898 75.1614C46.7527 74.9974 46.7798 74.7239 46.6441 74.5052C46.5083 74.2318 46.4269 73.9584 46.4812 73.6849L46.5355 73.3021C46.6169 72.7553 46.807 72.2084 47.1599 71.771L47.2685 71.6616C47.6758 71.1147 48.1917 70.7593 48.789 70.5679L49.522 70.2945C49.8479 70.1851 50.0651 69.8296 50.0651 69.4742C50.0651 69.0367 50.2008 68.6539 50.4452 68.2985L50.5809 68.1617C50.8524 67.6969 51.1782 67.2321 51.3954 66.7399L51.5855 66.3845C51.6398 66.3025 51.667 66.1931 51.667 66.1111C51.667 65.6462 51.3954 65.2361 50.961 65.2087L49.7664 65.1267C49.0876 65.072 48.4089 65.1267 47.7572 65.1267L45.4494 65.4001C45.0965 65.4001 44.825 65.6736 44.7978 66.0564C44.7978 66.4392 44.5263 66.7673 44.2005 66.8766L43.2231 67.1501L42.9516 67.2321L42.137 67.5055C41.5397 67.6969 41.051 68.1344 40.7795 68.7359L40.5623 69.0914C40.2908 69.6929 39.8292 70.1851 39.2591 70.5405C38.716 70.896 38.4445 71.4702 38.3902 72.1264V72.3998C38.3359 72.9467 38.173 73.4935 37.8472 73.8763L37.7115 74.0951C37.4943 74.3685 37.44 74.7239 37.5757 75.0247C37.7115 75.3528 37.7929 75.7083 37.7658 76.0637V77.5129C37.7658 77.8957 37.4943 78.2238 37.2227 78.3332C36.8426 78.4699 36.5983 78.7706 36.4897 79.1534L36.3539 79.7003C36.2453 80.2471 36.4354 80.794 36.8969 81.1221C37.3314 81.4502 37.6029 81.9424 37.7115 82.5439V83.0361C37.7929 83.5829 38.0916 84.1298 38.5803 84.4032C39.069 84.7313 39.4491 85.2235 39.6663 85.7703L39.8021 86.2078C40.0193 86.8093 40.508 87.1648 41.051 87.2195H41.2139C41.7026 87.2195 42.137 87.4929 42.4085 87.9304C42.6801 88.3679 43.1145 88.6686 43.6032 88.7507L44.3634 88.9694C44.825 89.1061 45.2594 89.3522 45.6123 89.7076L45.6666 89.7623C45.9381 89.9811 46.3726 89.9537 46.6169 89.653L46.807 89.4342L46.7798 89.4069ZM49.875 86.8914C50.1465 87.0554 50.418 86.9734 50.5266 86.7273L50.6081 86.5906C50.7981 86.2078 51.0425 85.825 51.314 85.4969L51.857 84.6766C51.9385 84.6766 51.9656 84.6219 51.9928 84.5672L52.6444 83.6923C52.9159 83.4189 53.2417 83.2275 53.6218 83.2275C53.9748 83.2275 54.2734 83.0361 54.4363 82.6806C54.5449 82.2978 54.7078 81.9424 55.0337 81.6416L55.1694 81.4775C55.4409 81.2041 55.7124 81.0674 55.9839 80.9307C56.3369 80.876 56.6627 80.8213 56.9885 80.8213H57.803C58.1288 80.8213 58.4003 80.6846 58.5633 80.4112C58.7262 80.1378 58.9705 79.9464 59.242 79.8097L59.5135 79.7003C59.9479 79.5089 60.4367 79.3722 60.9254 79.3175L61.4684 79.2628C61.7942 79.2628 62.1472 79.2628 62.473 79.4542C62.7445 79.6456 63.0974 79.6183 63.3689 79.3995L63.559 79.2901C63.9663 79.0167 64.4278 78.798 64.9165 78.7433H64.9708C65.5139 78.6339 66.0026 78.6339 66.5456 78.6613H66.8171C67.3601 78.7433 67.8217 78.9347 68.1746 79.3448L68.2561 79.4542C68.5276 79.7276 68.962 79.9464 69.3421 79.9464H69.8037C69.9394 79.9464 70.0752 79.8917 70.1566 79.755C70.2381 79.6729 70.3738 79.5909 70.5096 79.5909H70.7811C71.1612 79.5909 71.5142 79.7003 71.8671 79.8097L72.3287 80.0011C72.7631 80.1378 73.2247 80.2745 73.6862 80.3292H74.012C74.2292 80.3292 74.365 80.1924 74.365 80.0011C74.365 79.7276 74.3107 79.4542 74.1749 79.2355L73.9849 78.798C73.7677 78.4425 73.6048 78.0597 73.4419 77.7043L73.3876 77.5676C73.2518 77.2941 73.2518 77.0207 73.3876 76.7473V76.6106C73.4156 76.5018 73.4036 76.3864 73.3537 76.2859C73.3037 76.1853 73.2193 76.1064 73.1161 76.0637H72.8989C72.4697 75.9368 72.0903 75.6788 71.8128 75.3255L71.5413 75.0521C71.2698 74.7786 71.1069 74.3685 70.9983 73.9584C70.8626 73.6029 70.5639 73.3295 70.1838 73.3295H69.0435C68.8445 73.3021 68.6531 73.2347 68.4805 73.1314C68.308 73.0281 68.1578 72.8909 68.0389 72.7279L67.9303 72.5912C67.7402 72.3178 67.5773 71.9897 67.4687 71.6616C67.333 71.3882 67.0343 71.2241 66.7628 71.3061L66.437 71.4155C65.894 71.6069 65.3509 71.6889 64.8079 71.6342L64.3735 71.5796C63.912 71.5796 63.4775 71.3882 63.1246 71.1147L62.8531 70.9233C62.6359 70.7593 62.4187 70.6499 62.1743 70.5405C61.9028 70.4312 61.6856 70.4859 61.5227 70.6773L61.3869 70.8413C61.1154 71.1147 60.7353 71.3335 60.3552 71.3882L58.8891 71.4702C58.6176 71.4702 58.346 71.6069 58.156 71.7983C57.9388 71.9897 57.6944 72.1264 57.4229 72.1811H57.3686C57.0971 72.1811 56.8256 72.3725 56.5541 72.5639V72.6186C56.2826 72.892 55.9296 73.0287 55.5767 73.0287L55.4681 73.0834C55.1423 73.0834 54.8164 73.0834 54.4906 73.1654H54.1648C53.7033 73.2474 53.3503 73.6302 53.2417 74.1224L53.1331 74.7513C53.0483 75.1814 52.8621 75.5846 52.5901 75.927C52.3186 76.2551 51.9928 76.4739 51.5855 76.4739H51.1239C50.8524 76.5286 50.5809 76.8293 50.6352 77.1574C50.6895 77.6223 50.6352 78.0324 50.5538 78.4425L50.4452 78.9074C50.3366 79.3175 50.0651 79.6456 49.7121 79.7823L49.5492 79.8643H49.4949C49.332 79.9737 49.2234 80.2198 49.3591 80.4112C49.522 80.6846 49.5763 80.958 49.5492 81.2315L49.4677 82.1064C49.4677 82.4345 49.332 82.7353 49.1962 83.0087C49.0333 83.2822 49.0333 83.5556 49.1419 83.829L49.4134 84.4305C49.5492 84.704 49.5763 84.9774 49.4949 85.3055C49.4134 85.5789 49.3591 85.8523 49.3863 86.1258C49.3863 86.3992 49.5492 86.6726 49.7664 86.782L49.8207 86.8367L49.875 86.8914ZM71.3241 106.66C71.5956 106.933 72.0029 107.043 72.3287 106.824L72.8717 106.469C73.1432 106.277 73.3604 106.004 73.469 105.648V105.594L73.7405 104.773L73.9034 104.5L74.012 104.227L74.1206 104.035C74.2293 103.816 74.3922 103.652 74.6637 103.57L74.7723 103.516C74.9895 103.461 75.1252 103.242 75.1252 103.023C75.1252 102.75 75.261 102.531 75.3967 102.34L75.6139 102.148L76.157 101.438V101.383C76.3199 101.164 76.4285 100.918 76.4828 100.645C76.5371 100.371 76.4828 100.098 76.3742 99.8244L76.3199 99.715C76.2222 99.4887 76.1582 99.2492 76.1298 99.0041L76.0484 98.2385L75.9669 97.4182C75.9669 97.1448 76.0755 96.8714 76.2384 96.598C76.4246 96.369 76.5715 96.1102 76.6728 95.8324V95.723L76.7271 95.6683C76.7814 95.3949 76.6457 95.1215 76.4013 95.1215C76.1298 94.9848 75.8583 94.766 75.7768 94.4379L75.6954 94.2738C75.5596 93.7817 75.4782 93.2895 75.4782 92.7973L75.5325 91.4302V91.3482C75.5325 91.2405 75.5114 91.1338 75.4705 91.0343C75.4296 90.9348 75.3696 90.8443 75.2939 90.7682C75.2183 90.692 75.1285 90.6316 75.0297 90.5904C74.9308 90.5491 74.8249 90.5279 74.718 90.5279H74.6637C74.1206 90.5279 73.6862 90.3639 73.3061 89.9811L73.0889 89.7076L72.5459 89.0788L71.84 88.2585C71.5685 87.8757 71.297 87.5476 70.944 87.2195C70.6725 86.9461 70.2652 86.6726 69.858 86.6179L69.315 86.5359C69.0435 86.4812 68.6905 86.3445 68.3918 86.1531C68.1746 85.9891 67.8488 86.0437 67.6316 86.2625L67.2787 86.6453L67.1158 86.7547C66.9257 86.8093 66.7356 86.7 66.6542 86.4812C66.5362 86.1411 66.5557 85.768 66.7085 85.4422V85.2782C66.7085 85.0868 66.5456 84.95 66.3827 85.0047H65.9483C65.4595 85.0047 64.9708 84.95 64.5093 84.7313L64.2378 84.6219C63.9592 84.4823 63.653 84.4075 63.3418 84.4032C63.0703 84.4032 62.7988 84.4579 62.5273 84.6219L62.4187 84.704C62.0929 84.9227 61.7127 85.0321 61.3326 85.0594H60.4367C60.0294 85.0594 59.6221 85.1961 59.3506 85.4149C58.9977 85.6336 58.6176 85.7703 58.2103 85.8523L57.4772 85.9617C57.1514 86.0437 56.7985 86.1805 56.4998 86.4265C56.2283 86.7 55.8482 86.864 55.4952 86.9734L55.3595 87.0281C54.9139 87.1663 54.53 87.4563 54.2734 87.8484L53.9476 88.1765C53.855 88.3033 53.805 88.4565 53.805 88.6139C53.805 88.7713 53.855 88.9246 53.9476 89.0514C54.1105 89.3248 54.4363 89.4069 54.7621 89.3248L55.1694 89.1608C55.3866 89.0788 55.631 89.1608 55.821 89.2702C55.9839 89.4069 56.2283 89.4889 56.4726 89.4616L57.1514 89.3795C57.5315 89.3795 57.9116 89.3795 58.2917 89.4889C58.699 89.6256 59.052 89.7623 59.3778 90.0358C59.7036 90.3092 60.0565 90.4185 60.4638 90.4732C60.8711 90.5279 61.2783 90.6099 61.6584 90.7467L61.9299 90.8013C62.2015 90.8834 62.4187 91.0748 62.5816 91.3482C62.7173 91.5669 62.8531 91.895 62.8531 92.1685V92.2505C62.8531 92.5786 63.1246 92.7973 63.3961 92.7973H63.559C63.9934 92.7973 64.455 92.852 64.9165 92.9887L65.1066 93.0708C65.3781 93.1801 65.6496 93.3442 65.8397 93.6176C66.0569 93.8911 66.1926 94.1645 66.2741 94.4379L66.3555 94.8207C66.437 95.2308 66.4641 95.641 66.4641 96.0785V96.2152C66.4641 96.4886 66.6542 96.762 66.9528 96.8714C67.2244 96.9261 67.5502 97.0354 67.8488 97.1995L67.9846 97.2542C68.3375 97.4729 68.6905 97.7463 68.962 98.0745L69.0977 98.2659C69.4507 98.676 69.6408 99.1955 69.6408 99.715V99.9064C69.6408 100.317 69.5593 100.727 69.4236 101.109C69.315 101.438 69.4236 101.82 69.7765 101.93L69.9666 102.066C70.3738 102.231 70.7268 102.531 70.9983 102.887C71.2698 103.297 71.3784 103.762 71.3784 104.254V105.074C71.3241 105.348 71.2427 105.566 71.1069 105.758C70.9712 105.949 70.9712 106.223 71.1069 106.414L71.2698 106.687L71.3241 106.66ZM53.9476 92.6606H53.8933C53.7847 92.6606 53.7304 92.7973 53.7576 92.9341L53.8662 93.4809C53.9748 93.9184 54.0291 94.3559 54.0834 94.7934C54.1377 95.2308 54.3549 95.6136 54.6807 95.8871H54.7893C55.1966 96.2152 55.4409 96.7073 55.4681 97.1995V98.5666C55.4138 98.84 55.4681 99.1135 55.631 99.3322L55.7667 99.4689C56.0382 99.797 56.1468 100.18 56.174 100.563L56.2554 102.066C56.2554 102.422 56.0382 102.723 55.7124 102.777L55.4409 102.832C55.2509 102.832 55.1694 103.051 55.1694 103.242C55.1694 103.461 55.2509 103.707 55.3323 103.926V103.98C55.4138 104.254 55.4409 104.527 55.4138 104.801L55.3052 105.539C55.1966 106.086 55.0337 106.578 54.7621 107.07L54.5721 107.398C54.4575 107.637 54.2661 107.83 54.0291 107.945C53.7576 108.054 53.5675 108.273 53.4861 108.547L53.2689 109.531C53.1331 110.078 52.8887 110.625 52.5629 111.172H52.5086C52.1828 111.609 51.7756 111.992 51.2868 112.265L50.961 112.484L50.1465 112.894C49.875 113.003 49.7121 113.25 49.6578 113.55L49.522 114.453C49.4406 114.999 49.2505 115.464 48.8704 115.82L48.5175 116.23L48.1102 116.64L47.7029 117.078C47.3771 117.46 46.8884 117.624 46.3454 117.542L45.368 117.351L44.472 117.242H44.2276C44.119 117.351 44.0919 117.515 44.1733 117.679C44.3634 118.007 44.6621 118.226 44.9879 118.226L45.5852 118.335C45.8567 118.335 46.1825 118.472 46.454 118.609C46.7255 118.8 46.997 118.937 47.3228 119.019H47.3771C47.7301 119.156 48.1102 119.183 48.4632 119.156L48.8704 119.101C49.332 119.046 49.7664 119.101 50.1465 119.265L50.4723 119.374C50.6081 119.429 50.8253 119.374 50.961 119.238C51.1239 119.074 51.2868 118.964 51.5041 118.882L51.7213 118.827C52.0742 118.718 52.4272 118.663 52.8073 118.663H53.0245C53.3503 118.663 53.649 118.718 53.9205 118.882L54.0291 118.937C54.2191 119.019 54.4363 118.937 54.5721 118.773C54.6535 118.581 54.8436 118.39 55.0337 118.226L55.7124 117.761L56.1468 117.488L56.364 117.351C56.6355 117.16 57.0157 117.078 57.3415 117.078L58.3189 116.995C58.699 116.941 59.0248 116.667 59.1334 116.285C59.242 115.874 59.4049 115.464 59.6764 115.109C59.9479 114.753 60.2195 114.453 60.491 114.179C60.8439 113.906 61.1969 113.769 61.577 113.742H61.7942C62.2286 113.66 62.5544 113.25 62.5273 112.812V110.98C62.5816 110.707 62.6902 110.351 62.8531 110.078L63.3961 109.258L63.6133 108.984C63.7762 108.847 63.8848 108.656 64.0749 108.437L64.3464 108.082C64.4313 107.949 64.4719 107.793 64.4621 107.635C64.4524 107.478 64.3928 107.328 64.2921 107.207C64.0206 106.933 63.8848 106.551 63.8305 106.168V106.058C63.7762 105.621 63.7762 105.156 63.912 104.691V104.555C64.0477 104.199 64.2378 103.844 64.455 103.516C64.6722 103.242 64.645 102.859 64.3735 102.641L63.912 102.231C63.5393 101.891 63.3068 101.422 63.2603 100.918L63.206 100.371C63.206 100.207 63.206 100.016 63.1517 99.8244L63.0974 99.4142C63.0647 99.1916 62.9847 98.9786 62.8629 98.7899C62.7411 98.6012 62.5803 98.4411 62.3915 98.3205L62.2015 98.2659C61.93 98.1018 61.6584 97.8557 61.4412 97.5276C61.224 97.2542 61.1154 96.8714 61.034 96.4886L60.9525 96.0238C60.9525 95.8597 60.8439 95.7503 60.681 95.6683L60.2466 95.5316L59.3778 95.2582C59.1063 95.2035 58.8348 94.9848 58.6447 94.7934H58.5904C58.5581 94.7456 58.5158 94.7057 58.4664 94.6764C58.4169 94.6471 58.3617 94.6292 58.3046 94.6239C58.2475 94.6187 58.1899 94.6263 58.1361 94.6461C58.0822 94.666 58.0334 94.6976 57.9931 94.7387L57.7216 95.0121C57.6673 95.0941 57.613 95.1215 57.5315 95.0941C57.3686 95.0941 57.26 94.9574 57.3143 94.8207C57.344 94.6053 57.317 94.3859 57.236 94.1844C57.155 93.9828 57.0228 93.8063 56.8528 93.6723L56.4998 93.3989L55.6853 92.852C55.4681 92.77 55.1423 92.852 55.0337 93.1255L54.925 93.2895C54.925 93.3442 54.8436 93.3715 54.8164 93.3989C54.7078 93.3989 54.5449 93.3989 54.5449 93.2622L54.4635 93.1255C54.382 92.9614 54.192 92.852 54.0291 92.7973L53.9476 92.6606ZM50.6895 95.3949L50.5538 95.2582C50.418 95.1488 50.2823 95.1761 50.1465 95.3129C49.9565 95.641 49.7936 95.9964 49.7121 96.3519V96.4066C49.6306 96.762 49.3048 97.0081 48.979 96.9534H48.6532C48.2731 96.9534 47.9745 97.2815 47.9745 97.6643C47.9745 98.1565 47.8115 98.6486 47.5129 99.0314L47.35 99.1955C47.0785 99.551 46.6712 99.797 46.264 99.9337L46.0467 99.9884C45.7752 100.07 45.558 100.262 45.5037 100.59C45.5037 100.863 45.3408 101.137 45.1236 101.356L44.8521 101.574C44.5263 101.93 44.0376 102.121 43.5489 102.176L42.1913 102.313C41.7569 102.313 41.3768 102.586 41.1053 102.996C40.8338 103.406 40.4265 103.68 40.0193 103.734L39.422 103.789C38.9875 103.844 38.526 103.844 38.0644 103.734L37.7929 103.68L37.0598 103.488C36.7883 103.406 36.5711 103.488 36.4082 103.68L36.1367 104.035C35.9712 104.23 35.7612 104.382 35.5248 104.477C35.2883 104.572 35.0325 104.608 34.7792 104.582L33.0144 104.363C32.7429 104.363 32.5257 104.227 32.2813 104.09C32.0098 103.926 31.8197 103.734 31.6297 103.543L30.9509 102.723C30.8695 102.668 30.7337 102.641 30.598 102.668L30.2178 102.832L28.6974 103.215C28.4259 103.297 28.0729 103.215 27.8014 103.051C27.5299 102.832 27.2041 102.777 26.8783 102.777H26.5253C26.1995 102.859 25.9823 103.215 26.0909 103.543L26.1995 104.09C26.281 104.363 26.2538 104.691 26.1181 104.965C25.9823 105.238 26.0095 105.512 26.1995 105.785L26.3624 106.004C26.5796 106.332 26.9055 106.605 27.177 106.879C27.4485 107.152 27.72 107.426 27.9372 107.781L28.3444 108.519C28.5617 108.902 28.8875 109.121 29.3219 109.121C29.7291 109.121 30.1364 109.258 30.4622 109.531L31.2767 110.297C31.4939 110.488 31.8197 110.515 32.0369 110.351L32.1727 110.297C32.3356 110.297 32.4442 110.406 32.4442 110.57V110.707C32.4442 111.062 32.7157 111.39 33.0687 111.527L34.2905 111.8C34.7249 111.937 35.1593 112.074 35.5666 112.347H35.7838C36.001 112.347 36.191 112.156 36.1639 111.91V110.953C36.1639 110.679 36.2725 110.406 36.4897 110.297L36.6254 110.242C36.7612 110.297 36.8969 110.406 36.8426 110.515V110.98C36.8426 111.336 36.9512 111.664 37.1956 111.91C37.4671 112.183 37.8201 112.238 38.1187 112.129C38.4445 111.992 38.7703 111.964 39.1233 111.992L40.1279 112.046C40.6166 112.101 41.0782 112.046 41.4854 111.855C41.9741 111.691 42.3814 111.472 42.7615 111.172L42.9244 111.062L43.7389 110.324C44.0104 110.05 44.3634 109.914 44.6892 109.914H45.7752C46.3183 109.859 46.807 109.367 46.8613 108.82L46.9699 108.273C46.9699 107.918 47.1328 107.59 47.3771 107.316C47.6486 107.043 47.9201 106.879 48.1917 106.769L48.5175 106.633C48.979 106.441 49.332 106.031 49.4949 105.539L49.6578 104.883C49.7936 104.336 50.0651 103.789 50.4723 103.434L50.5266 103.379C50.8524 103.105 50.9067 102.559 50.6895 102.176L50.6081 101.984C50.5141 101.83 50.4577 101.655 50.4436 101.475C50.4294 101.294 50.4579 101.113 50.5266 100.945C50.6624 100.563 50.7981 100.235 51.0153 99.9064L51.2868 99.5236C51.3954 99.3049 51.3954 98.9768 51.2325 98.7854C51.0635 98.5657 50.9684 98.2975 50.961 98.0198L50.9067 97.637V96.7073C50.961 96.4339 50.9067 96.0784 50.8253 95.805L50.7167 95.4769L50.6895 95.3949ZM46.807 93.3169V93.2348C46.807 92.9614 46.6441 92.7973 46.4269 92.7973H45.7209C45.4494 92.852 45.1779 92.852 44.9607 92.7973H43.7389C43.1145 92.7973 42.5171 92.688 41.9198 92.5239L41.2682 92.3599L40.7252 92.1958L39.5034 91.7857C39.1909 91.6945 38.9011 91.5377 38.6531 91.3256C38.4051 91.1135 38.2045 90.851 38.0644 90.5553L37.9287 90.2818C37.8476 90.0895 37.704 89.9306 37.5215 89.8312C37.339 89.7319 37.1283 89.6979 36.9241 89.735C36.4625 89.735 36.001 89.735 35.5666 89.5162L35.2407 89.3795C34.6163 89.1061 34.1547 88.5593 34.1547 87.821L34.0461 87.0828C33.9647 86.7 33.7203 86.3445 33.3945 86.2078C33.0144 86.0437 32.6614 85.825 32.3085 85.5789L32.1727 85.4969C31.7464 85.1629 31.418 84.7188 31.2224 84.2118L31.1681 84.0477C31.0277 83.6053 31.0089 83.1329 31.1138 82.6806L31.1681 82.5166C31.2767 82.1611 31.3039 81.8057 31.3039 81.4229C31.3005 81.0833 31.1639 80.7589 30.9238 80.5206L30.5437 80.1651C30.3268 79.9894 30.1493 79.7694 30.023 79.5196C29.8966 79.2698 29.8242 78.9959 29.8106 78.716C29.7563 78.1144 29.7563 77.5402 29.8649 76.966V76.802C29.8649 76.7302 29.8508 76.6591 29.8236 76.5927C29.7963 76.5264 29.7563 76.4661 29.7058 76.4153C29.6554 76.3645 29.5956 76.3242 29.5297 76.2968C29.4638 76.2693 29.3932 76.2551 29.3219 76.2551H29.2404C28.8875 76.2551 28.5888 76.4739 28.4259 76.802C28.2901 77.1848 28.0729 77.4855 27.8286 77.7863L27.72 77.923L27.177 78.4699L26.9055 78.7433C26.6339 79.0167 26.471 79.4269 26.4167 79.837C26.3624 80.2471 26.2538 80.6573 26.0909 81.0401L26.0366 81.1768C25.9009 81.5049 25.6837 81.8057 25.4122 81.9971C25.1407 82.2158 24.9506 82.5439 24.9506 82.872L24.8963 84.1298C24.8963 84.6766 24.8148 85.2235 24.6248 85.7703L24.5705 85.9891C24.4347 86.3445 24.5705 86.7273 24.8963 86.8914L26.0366 87.3835L26.1452 87.4382C26.2267 87.4382 26.2538 87.4929 26.281 87.5749C26.3624 87.6843 26.281 87.8484 26.1995 87.8484L25.928 87.9851C25.7651 88.0397 25.6565 88.2038 25.6022 88.3952L25.5479 88.6686V88.7233L25.2764 90.2545C25.2221 90.4732 25.2221 90.7193 25.2221 90.9654C25.2221 91.1841 25.3579 91.3755 25.5479 91.4576L26.1452 91.731C26.4167 91.895 26.7425 92.0864 26.9598 92.2778L27.2313 92.4966C27.3127 92.606 27.4485 92.7153 27.5571 92.77L27.6657 92.8794C27.8557 93.0434 27.9915 93.2622 28.0458 93.5083L28.3173 94.7387C28.3173 95.0668 28.5888 95.3402 28.8603 95.4222L29.2947 95.5589C29.2947 95.5589 29.3762 95.5589 29.4305 95.6136L29.9735 95.7777C30.4079 95.9144 30.788 96.1605 31.1138 96.4886C31.4396 96.762 31.7654 97.1175 32.0369 97.5003L32.1456 97.6096C32.3628 97.8831 32.6886 98.0198 33.0144 97.9377C33.3402 97.8557 33.6931 97.8284 34.0461 97.8284H34.4534C34.7249 97.8284 35.0778 97.9104 35.3765 98.1018C35.648 98.2659 36.001 98.3752 36.3268 98.5119H36.4082C36.734 98.6486 37.087 98.594 37.3585 98.4026C37.63 98.1838 37.983 98.0745 38.3359 98.0745L39.612 98.1565C39.8835 98.1565 40.155 98.1018 40.2908 97.8831H40.3451L40.8066 97.4456L40.9424 97.3089C41.1596 97.0354 41.4854 96.9261 41.8112 96.8987H43.033C43.3588 96.8987 43.6575 96.6253 43.7932 96.3519C43.929 96.0785 44.2005 95.8597 44.5263 95.805L45.0693 95.6957C45.2865 95.6957 45.4766 95.5043 45.558 95.2582C45.6395 94.9848 45.7752 94.766 45.9653 94.602L46.3997 94.1645C46.6712 93.891 46.807 93.6176 46.8613 93.2895L46.807 93.3169Z" fill="#ED8798"/>
<path d="M154.372 115.392H144.758V100.307C144.758 96.7096 144.683 92.0867 139.731 92.0867C134.717 92.0867 133.954 95.9886 133.954 100.041V115.39H124.328V84.3722H133.574V88.6032H133.698C134.99 86.1597 138.132 83.5902 142.82 83.5902C152.572 83.5902 154.382 90.0108 154.382 98.359V115.39L154.372 115.392ZM113.452 80.1331C112.718 80.1334 111.99 79.9887 111.311 79.7074C110.633 79.426 110.016 79.0135 109.497 78.4935C108.978 77.9735 108.566 77.3562 108.286 76.677C108.006 75.9977 107.863 75.2699 107.864 74.5352C107.866 73.4293 108.195 72.3486 108.81 71.4297C109.425 70.5109 110.299 69.7951 111.322 69.3729C112.344 68.9507 113.468 68.8411 114.553 69.0579C115.637 69.2747 116.633 69.8081 117.414 70.5908C118.195 71.3735 118.727 72.3703 118.942 73.4551C119.157 74.5399 119.045 75.664 118.621 76.6854C118.197 77.7067 117.48 78.5794 116.56 79.1931C115.64 79.8068 114.558 80.1339 113.452 80.1331ZM118.275 115.392H108.628V84.3742H118.275V115.392ZM159.198 60H103.794C101.147 60 99 62.0942 99 64.6859V120.314C99 122.906 101.147 125 103.794 125H159.188C161.831 125 164 122.906 164 120.314V64.6859C164 62.0942 161.831 60 159.188 60H159.198Z" fill="#ED8798"/>
<path d="M212.5 60C194.219 60 180 74.6774 180 93.5484C180 115.565 199.297 125 202.344 125C204.375 125 204.375 123.952 204.375 122.903V117.661C197.266 119.758 194.219 115.565 193.203 112.419C193.203 112.419 193.203 111.371 191.172 109.274C190.156 108.226 186.094 106.129 190.156 106.129C193.203 106.129 195.234 110.323 195.234 110.323C198.281 114.516 202.344 113.468 204.375 112.419C204.375 110.323 206.406 108.226 206.406 108.226C198.281 107.177 192.188 104.032 192.188 92.5C192.188 88.3065 193.203 85.1613 195.234 83.0645C195.234 83.0645 193.203 78.871 195.234 73.629C195.234 73.629 200.313 73.629 204.375 77.8226C207.422 75.7258 217.578 75.7258 220.625 77.8226C224.688 73.629 229.766 73.629 229.766 73.629C231.797 80.9677 229.766 83.0645 229.766 83.0645C231.797 85.1613 232.813 88.3065 232.813 92.5C232.813 104.032 225.703 107.177 218.594 108.226C219.609 109.274 220.625 111.371 220.625 114.516V122.903C220.625 123.952 220.625 125 222.656 125C225.703 125 245 115.565 245 93.5484C245 74.6774 230.781 60 212.5 60Z" fill="#ED8798"/>
<defs>
<filter id="filter0_d" x="0" y="0" width="258" height="198" filterUnits="userSpaceOnUse" color-interpolation-filters="sRGB">
<feFlood flood-opacity="0" result="BackgroundImageFix"/>
<feColorMatrix in="SourceAlpha" type="matrix" values="0 0 0 0 0 0 0 0 0 0 0 0 0 0 0 0 0 0 127 0"/>
<feOffset dy="4"/>
<feGaussianBlur stdDeviation="2"/>
<feColorMatrix type="matrix" values="0 0 0 0 0 0 0 0 0 0 0 0 0 0 0 0 0 0 0.5 0"/>
<feBlend mode="normal" in2="BackgroundImageFix" result="effect1_dropShadow"/>
<feBlend mode="normal" in="SourceGraphic" in2="effect1_dropShadow" result="shape"/>
</filter>
</defs>
</svg>
