<svg width="258" height="198" viewBox="0 0 258 198" fill="none" xmlns="http://www.w3.org/2000/svg">
<g filter="url(#filter0_d)">
<rect x="4" width="250" height="190" rx="50" fill="#DAE2DC" fill-opacity="0.9"/>
<rect x="4.5" y="0.5" width="249" height="189" rx="49.5" stroke="#343D24"/>
</g>
<path d="M76.5723 88.376V96.824L73.2763 100.12H63.6763V109.72H66.2363V111H53.7563V109.72H56.3163V86.68H53.7563V85.4H73.5963L76.5723 88.376ZM63.6763 98.84H69.2123V86.68H63.6763V98.84ZM96.7475 94.136L95.7555 95.128L93.7075 93.08H90.9875L88.7475 95.32V109.72H91.3075V111H84.3635L81.3875 108.024V93.08H78.8275V91.8H85.7715L88.0435 94.04L90.2835 91.8H94.4115L96.7475 94.136ZM116.718 95.096V107.704L113.422 111H101.646L98.35 107.704V95.096L101.646 91.8H113.422L116.718 95.096ZM106.03 93.08V109.72H109.038V93.08H106.03ZM128.873 84.12V91.8H133.033V93.08H128.873V108.024L125.897 111H118.953V109.72H121.513V93.08H118.953V91.8H121.513V85.816L124.489 82.84H131.817L134.472 85.496L133.481 86.488L131.113 84.12H128.873ZM140.464 89.24L135.6 84.344L140.496 79.48L145.36 84.376L140.464 89.24ZM147.12 109.72V111H140.176L137.2 108.024V93.08H134.64V91.8H141.584L144.56 94.776V109.72H147.12ZM159.59 109.72V111H152.966L149.99 108.024V84.12H147.75V82.84H154.374L157.35 85.816V109.72H159.59ZM164.795 111H177.243L180.219 108.024L179.227 107.032L176.539 109.72H169.179V103H177.083L180.059 100.024V94.776L177.083 91.8H164.795L161.819 94.776V108.024L164.795 111ZM169.179 93.08H172.699V101.72H169.179V93.08ZM184.704 111.32V108.824L186.88 111H196.96L199.616 108.344V104.472L188.864 93.08H194.976L197.856 95.96V98.36H199.296V91.48H197.856V93.976L195.68 91.8H186.24L183.584 94.456V98.328L194.336 109.72H187.584L184.704 106.84V104.44H183.264V111.32H184.704Z" fill="#343D24"/>
<defs>
<filter id="filter0_d" x="0" y="0" width="258" height="198" filterUnits="userSpaceOnUse" color-interpolation-filters="sRGB">
<feFlood flood-opacity="0" result="BackgroundImageFix"/>
<feColorMatrix in="SourceAlpha" type="matrix" values="0 0 0 0 0 0 0 0 0 0 0 0 0 0 0 0 0 0 127 0"/>
<feOffset dy="4"/>
<feGaussianBlur stdDeviation="2"/>
<feColorMatrix type="matrix" values="0 0 0 0 0 0 0 0 0 0 0 0 0 0 0 0 0 0 0.25 0"/>
<feBlend mode="normal" in2="BackgroundImageFix" result="effect1_dropShadow"/>
<feBlend mode="normal" in="SourceGraphic" in2="effect1_dropShadow" result="shape"/>
</filter>
</defs>
</svg>
