<svg width="258" height="198" viewBox="0 0 258 198" fill="none" xmlns="http://www.w3.org/2000/svg">
<g filter="url(#filter0_d)">
<rect x="4" width="250" height="190" rx="10" fill="#FFEAEA" fill-opacity="0.9"/>
</g>
<path d="M80.224 87.79V95.71L77.134 98.8H68.134V107.8H70.534V109H58.834V107.8H61.234V86.2H58.834V85H77.434L80.224 87.79ZM68.134 97.6H73.324V86.2H68.134V97.6ZM99.1383 93.19L98.2083 94.12L96.2883 92.2H93.7383L91.6383 94.3V107.8H94.0383V109H87.5283L84.7383 106.21V92.2H82.3383V91H88.8483L90.9783 93.1L93.0783 91H96.9483L99.1383 93.19ZM117.861 94.09V105.91L114.771 109H103.731L100.641 105.91V94.09L103.731 91H114.771L117.861 94.09ZM107.841 92.2V107.8H110.661V92.2H107.841ZM129.255 83.8V91H133.155V92.2H129.255V106.21L126.465 109H119.955V107.8H122.355V92.2H119.955V91H122.355V85.39L125.145 82.6H132.015L134.505 85.09L133.575 86.02L131.355 83.8H129.255ZM140.123 88.6L135.563 84.01L140.153 79.45L144.713 84.04L140.123 88.6ZM146.363 107.8V109H139.853L137.063 106.21V92.2H134.663V91H141.173L143.963 93.79V107.8H146.363ZM158.053 107.8V109H151.843L149.053 106.21V83.8H146.953V82.6H153.163L155.953 85.39V107.8H158.053ZM162.933 109H174.603L177.393 106.21L176.463 105.28L173.943 107.8H167.043V101.5H174.453L177.243 98.71V93.79L174.453 91H162.933L160.143 93.79V106.21L162.933 109ZM167.043 92.2H170.343V100.3H167.043V92.2ZM181.597 109.3V106.96L183.637 109H193.087L195.577 106.51V102.88L185.497 92.2H191.227L193.927 94.9V97.15H195.277V90.7H193.927V93.04L191.887 91H183.037L180.547 93.49V97.12L190.627 107.8H184.297L181.597 105.1V102.85H180.247V109.3H181.597Z" fill="#343D24"/>
<defs>
<filter id="filter0_d" x="0" y="0" width="258" height="198" filterUnits="userSpaceOnUse" color-interpolation-filters="sRGB">
<feFlood flood-opacity="0" result="BackgroundImageFix"/>
<feColorMatrix in="SourceAlpha" type="matrix" values="0 0 0 0 0 0 0 0 0 0 0 0 0 0 0 0 0 0 127 0"/>
<feOffset dy="4"/>
<feGaussianBlur stdDeviation="2"/>
<feColorMatrix type="matrix" values="0 0 0 0 0 0 0 0 0 0 0 0 0 0 0 0 0 0 0.25 0"/>
<feBlend mode="normal" in2="BackgroundImageFix" result="effect1_dropShadow"/>
<feBlend mode="normal" in="SourceGraphic" in2="effect1_dropShadow" result="shape"/>
</filter>
</defs>
</svg>
