<svg width="258" height="198" viewBox="0 0 258 198" fill="none" xmlns="http://www.w3.org/2000/svg">
<g filter="url(#filter0_d)">
<path d="M4 50C4 22.3858 26.3858 0 54 0H204C231.614 0 254 22.3858 254 50V140C254 167.614 231.614 190 204 190H54C26.3858 190 4 167.614 4 140V50Z" fill="#F0F0F0" fill-opacity="0.85"/>
<path d="M54 0.5H204C231.338 0.5 253.5 22.6619 253.5 50V140C253.5 167.338 231.338 189.5 204 189.5H54C26.6619 189.5 4.5 167.338 4.5 140V50C4.5 22.6619 26.6619 0.5 54 0.5Z" stroke="#343D24"/>
</g>
<path d="M41.42 38.18C39.9533 38.18 38.8867 37.82 38.22 37.1C37.5667 36.38 37.24 35.28 37.24 33.8V27H38.54V34.12C38.54 34.7733 38.66 35.3333 38.9 35.8C39.1267 36.2133 39.44 36.52 39.84 36.72C40.2533 36.92 40.78 37.02 41.42 37.02C42.6733 37.02 43.5067 36.6133 43.92 35.8C44.1733 35.32 44.3 34.76 44.3 34.12V27H45.6V33.8C45.6 35.28 45.2667 36.38 44.6 37.1C43.9467 37.82 42.8867 38.18 41.42 38.18ZM49.0638 27H47.4437L50.9837 32.24L47.0237 38H48.6237L51.7238 33.36L54.8238 38H56.5237L52.6037 32.22L56.1038 27H54.6037L51.8637 31.12L49.0638 27ZM68.7094 38V36.84H63.7694V27H62.4494V38H68.7094ZM73.3094 30.22C74.3227 30.22 75.1027 30.5267 75.6494 31.14C76.196 31.74 76.4694 32.5933 76.4694 33.7V34.4L76.3894 34.56H71.1294C71.1294 35.2133 71.376 35.82 71.8694 36.38C72.336 36.8467 73.0627 37.08 74.0494 37.08C74.7027 37.08 75.3227 36.98 75.9094 36.78L76.1494 37.74C75.336 38.02 74.516 38.16 73.6894 38.16C72.4494 38.16 71.5027 37.8267 70.8494 37.16C70.196 36.4933 69.8694 35.54 69.8694 34.3C69.8694 33.1267 70.156 32.16 70.7294 31.4C71.3427 30.6133 72.2027 30.22 73.3094 30.22ZM75.1494 33.52C75.1494 32.8533 75.0027 32.3067 74.7094 31.88C74.4294 31.4533 74.0094 31.24 73.4494 31.24C72.7427 31.24 72.2027 31.4533 71.8294 31.88C71.456 32.3067 71.2294 32.8533 71.1494 33.52H75.1494ZM80.7875 31.34C80.5075 31.34 80.1675 31.3733 79.7675 31.44C79.3808 31.4933 79.0342 31.5667 78.7275 31.66L78.4675 30.7C79.3608 30.3933 80.1942 30.24 80.9675 30.24C81.8342 30.24 82.4942 30.3733 82.9475 30.64C83.3475 30.9333 83.6208 31.2467 83.7675 31.58C83.9275 31.9133 84.0075 32.4 84.0075 33.04V38H83.0275L82.7475 37.28C81.9875 37.8933 81.2075 38.2 80.4075 38.2C79.7142 38.2 79.1275 38 78.6475 37.6C78.1808 37.2 77.9475 36.6933 77.9475 36.08C77.9475 35.48 78.1275 34.9867 78.4875 34.6C78.8608 34.2 79.3142 33.9333 79.8475 33.8C80.5275 33.6267 81.4808 33.5267 82.7075 33.5V33.44C82.7075 32.8933 82.6542 32.4933 82.5475 32.24C82.3342 31.64 81.7475 31.34 80.7875 31.34ZM80.5875 37.16C81.0275 37.16 81.4142 37.0867 81.7475 36.94C82.0808 36.78 82.4008 36.56 82.7075 36.28V34.44C81.7875 34.4533 81.1075 34.5067 80.6675 34.6C80.1742 34.7067 79.8075 34.8667 79.5675 35.08C79.3275 35.28 79.2075 35.5667 79.2075 35.94C79.2075 36.3267 79.3408 36.6267 79.6075 36.84C79.8875 37.0533 80.2142 37.16 80.5875 37.16ZM89.3669 38.16C88.2202 38.16 87.3402 37.8067 86.7269 37.1C86.1135 36.38 85.8069 35.4267 85.8069 34.24C85.8069 32.9333 86.1735 31.9133 86.9069 31.18C87.6135 30.5 88.4935 30.16 89.5469 30.16C90.2535 30.16 90.8535 30.28 91.3469 30.52V27.36H92.7069V38H91.7469L91.5269 37.46C90.8069 37.9267 90.0869 38.16 89.3669 38.16ZM89.6269 37.06C89.9869 37.06 90.2869 37.0267 90.5269 36.96C90.7802 36.88 91.0535 36.76 91.3469 36.6V31.52C90.8535 31.32 90.2869 31.22 89.6469 31.22C88.8202 31.22 88.1935 31.4867 87.7669 32.02C87.3535 32.5533 87.1469 33.2667 87.1469 34.16C87.1469 35.04 87.3535 35.7467 87.7669 36.28C88.1935 36.8 88.8135 37.06 89.6269 37.06ZM40.18 62.8C40.98 62.8 41.6467 62.66 42.18 62.38C42.7133 62.0867 42.98 61.66 42.98 61.1C42.98 60.6067 42.7667 60.2133 42.34 59.92C41.9133 59.6267 41.3 59.3333 40.5 59.04L40.04 58.86C39.04 58.46 38.2933 58.0467 37.8 57.62C37.3067 57.1933 37.06 56.6 37.06 55.84C37.06 54.84 37.3867 54.0867 38.04 53.58C38.4267 53.2867 38.8333 53.08 39.26 52.96C39.6867 52.8267 40.1867 52.76 40.76 52.76C41.5733 52.76 42.58 53.0133 43.78 53.52L43.4 54.7C42.3333 54.2733 41.5067 54.06 40.92 54.06C40.1467 54.06 39.5333 54.2067 39.08 54.5C38.64 54.78 38.42 55.18 38.42 55.7C38.42 56.06 38.5333 56.3667 38.76 56.62C39 56.8733 39.26 57.0733 39.54 57.22C39.8333 57.3533 40.24 57.5267 40.76 57.74C40.9733 57.8333 41.1667 57.9067 41.34 57.96C42.0333 58.24 42.5733 58.4933 42.96 58.72C43.36 58.9333 43.7 59.2267 43.98 59.6C44.26 59.9733 44.4 60.4467 44.4 61.02C44.4 62.0467 43.9867 62.8267 43.16 63.36C42.3333 63.8933 41.3267 64.16 40.14 64.16C39.5267 64.16 39.02 64.1067 38.62 64C38.22 63.8933 37.6133 63.7 36.8 63.42L37.26 62.14C38.4333 62.58 39.4067 62.8 40.18 62.8ZM49.7144 64.18C48.5277 64.18 47.6077 63.84 46.9544 63.16C46.3144 62.48 45.9944 61.5267 45.9944 60.3C45.9944 59.1533 46.3277 58.1667 46.9944 57.34C47.661 56.5933 48.6544 56.22 49.9744 56.22C50.6277 56.22 51.281 56.36 51.9344 56.64L51.6144 57.6C51.1477 57.4 50.621 57.3 50.0344 57.3C49.1277 57.3 48.4477 57.54 47.9944 58.02C47.541 58.4867 47.3144 59.1667 47.3144 60.06C47.3144 61.2067 47.5877 62 48.1344 62.44C48.681 62.88 49.3544 63.1 50.1544 63.1C50.661 63.1 51.1477 63.0133 51.6144 62.84L51.9144 63.74C51.141 64.0333 50.4077 64.18 49.7144 64.18ZM56.94 56.22C57.2333 56.22 57.4667 56.24 57.64 56.28C57.8267 56.3067 58.0067 56.36 58.18 56.44L57.72 57.6C57.3733 57.44 56.9933 57.36 56.58 57.36C56.02 57.36 55.4667 57.5467 54.92 57.92V64H53.62V56.32H54.56L54.84 56.98C55.5067 56.4733 56.2067 56.22 56.94 56.22ZM60.7794 61.26C60.7794 61.9133 60.906 62.38 61.1594 62.66C61.4127 62.94 61.846 63.08 62.4594 63.08C63.086 63.08 63.786 62.9 64.5594 62.54V56.32H65.8594V64H64.9594L64.6794 63.44C63.706 63.9467 62.806 64.2 61.9794 64.2C61.1794 64.2 60.5594 63.9667 60.1194 63.5C59.6927 63.0333 59.4794 62.3933 59.4794 61.58V56.32H60.7794V61.26ZM77.2531 59.12C77.2531 57.8667 76.7531 57.24 75.7531 57.24C75.2598 57.24 74.6465 57.4667 73.9131 57.92C73.9531 58.0667 73.9731 58.36 73.9731 58.8V64H72.6731V59.12C72.6731 57.8667 72.1665 57.24 71.1531 57.24C70.6731 57.24 70.0798 57.4333 69.3731 57.82V64H68.0731V56.32H68.9731L69.2531 56.96C69.7065 56.6533 70.1265 56.44 70.5131 56.32C70.8198 56.24 71.1731 56.2 71.5731 56.2C72.0131 56.2 72.3998 56.2867 72.7331 56.46C73.0798 56.6333 73.3598 56.8733 73.5731 57.18C74.0131 56.86 74.4331 56.62 74.8331 56.46C75.2331 56.2867 75.6731 56.2 76.1531 56.2C76.9398 56.2 77.5398 56.44 77.9531 56.92C78.3798 57.3867 78.5931 58.0133 78.5931 58.8V64H77.2531V59.12ZM86.7069 64V54.86L90.0869 60.84H91.4269L94.8069 54.86V64H96.1269V53H94.3869L90.7669 59.66L87.2669 53H85.3869V64H86.7069ZM101.084 57.34C100.804 57.34 100.464 57.3733 100.064 57.44C99.6777 57.4933 99.331 57.5667 99.0244 57.66L98.7644 56.7C99.6577 56.3933 100.491 56.24 101.264 56.24C102.131 56.24 102.791 56.3733 103.244 56.64C103.644 56.9333 103.918 57.2467 104.064 57.58C104.224 57.9133 104.304 58.4 104.304 59.04V64H103.324L103.044 63.28C102.284 63.8933 101.504 64.2 100.704 64.2C100.011 64.2 99.4244 64 98.9444 63.6C98.4777 63.2 98.2444 62.6933 98.2444 62.08C98.2444 61.48 98.4244 60.9867 98.7844 60.6C99.1577 60.2 99.611 59.9333 100.144 59.8C100.824 59.6267 101.778 59.5267 103.004 59.5V59.44C103.004 58.8933 102.951 58.4933 102.844 58.24C102.631 57.64 102.044 57.34 101.084 57.34ZM100.884 63.16C101.324 63.16 101.711 63.0867 102.044 62.94C102.378 62.78 102.698 62.56 103.004 62.28V60.44C102.084 60.4533 101.404 60.5067 100.964 60.6C100.471 60.7067 100.104 60.8667 99.8644 61.08C99.6244 61.28 99.5044 61.5667 99.5044 61.94C99.5044 62.3267 99.6377 62.6267 99.9044 62.84C100.184 63.0533 100.511 63.16 100.884 63.16ZM108.884 63.08C109.35 63.08 109.744 62.9933 110.064 62.82C110.397 62.6333 110.564 62.3667 110.564 62.02C110.564 61.74 110.444 61.52 110.204 61.36C109.964 61.2 109.457 60.96 108.684 60.64L107.924 60.34C107.59 60.18 107.317 60.04 107.104 59.92C106.89 59.7867 106.697 59.5933 106.524 59.34C106.35 59.0733 106.264 58.74 106.264 58.34C106.264 57.62 106.557 57.0867 107.144 56.74C107.744 56.3933 108.477 56.22 109.344 56.22C110.077 56.22 110.81 56.3867 111.544 56.72L111.224 57.68C110.624 57.4267 110.044 57.3 109.484 57.3C108.91 57.3 108.444 57.3867 108.084 57.56C107.737 57.72 107.564 57.9533 107.564 58.26C107.564 58.5667 107.684 58.8067 107.924 58.98C108.177 59.1533 108.604 59.3533 109.204 59.58L109.864 59.84C110.597 60.1467 111.11 60.4667 111.404 60.8C111.697 61.1333 111.844 61.5733 111.844 62.12C111.844 62.68 111.584 63.1667 111.064 63.58C110.544 63.98 109.85 64.18 108.984 64.18C107.997 64.18 107.024 63.9867 106.064 63.6L106.424 62.62C107.29 62.9267 108.11 63.08 108.884 63.08ZM116.51 64.16C115.737 64.16 115.183 63.9533 114.85 63.54C114.53 63.1133 114.37 62.4733 114.37 61.62V57.4H113.07V56.32H114.37V54.44L115.67 54.34V56.32H118.19V57.4H115.67V61.54C115.67 62.0733 115.75 62.46 115.91 62.7C116.083 62.94 116.41 63.06 116.89 63.06C117.343 63.06 117.75 63.02 118.11 62.94L118.33 63.82C117.73 64.0467 117.123 64.16 116.51 64.16ZM122.887 56.22C123.901 56.22 124.681 56.5267 125.227 57.14C125.774 57.74 126.047 58.5933 126.047 59.7V60.4L125.967 60.56H120.707C120.707 61.2133 120.954 61.82 121.447 62.38C121.914 62.8467 122.641 63.08 123.628 63.08C124.281 63.08 124.901 62.98 125.487 62.78L125.727 63.74C124.914 64.02 124.094 64.16 123.267 64.16C122.027 64.16 121.081 63.8267 120.428 63.16C119.774 62.4933 119.447 61.54 119.447 60.3C119.447 59.1267 119.734 58.16 120.308 57.4C120.921 56.6133 121.781 56.22 122.887 56.22ZM124.727 59.52C124.727 58.8533 124.581 58.3067 124.287 57.88C124.007 57.4533 123.587 57.24 123.027 57.24C122.321 57.24 121.781 57.4533 121.408 57.88C121.034 58.3067 120.807 58.8533 120.727 59.52H124.727ZM131.206 56.22C131.499 56.22 131.732 56.24 131.906 56.28C132.092 56.3067 132.272 56.36 132.446 56.44L131.986 57.6C131.639 57.44 131.259 57.36 130.846 57.36C130.286 57.36 129.732 57.5467 129.186 57.92V64H127.886V56.32H128.826L129.106 56.98C129.772 56.4733 130.472 56.22 131.206 56.22ZM39.76 86.78C39.76 87.1533 39.7333 87.42 39.68 87.58C39.56 88.02 39.3067 88.3667 38.92 88.62C38.5333 88.8733 38.0467 89 37.46 89C37.18 89 36.8133 88.9467 36.36 88.84L36.18 89.96C36.66 90.08 37.1533 90.14 37.66 90.14C38.82 90.14 39.7067 89.8133 40.32 89.16C40.6 88.8533 40.7933 88.52 40.9 88.16C41.0067 87.7867 41.06 87.3 41.06 86.7V79H39.76V86.78ZM45.8656 83.34C45.5856 83.34 45.2456 83.3733 44.8456 83.44C44.459 83.4933 44.1123 83.5667 43.8056 83.66L43.5456 82.7C44.439 82.3933 45.2723 82.24 46.0456 82.24C46.9123 82.24 47.5723 82.3733 48.0256 82.64C48.4256 82.9333 48.699 83.2467 48.8456 83.58C49.0056 83.9133 49.0856 84.4 49.0856 85.04V90H48.1056L47.8256 89.28C47.0656 89.8933 46.2856 90.2 45.4856 90.2C44.7923 90.2 44.2056 90 43.7256 89.6C43.259 89.2 43.0256 88.6933 43.0256 88.08C43.0256 87.48 43.2056 86.9867 43.5656 86.6C43.939 86.2 44.3923 85.9333 44.9256 85.8C45.6056 85.6267 46.559 85.5267 47.7856 85.5V85.44C47.7856 84.8933 47.7323 84.4933 47.6256 84.24C47.4123 83.64 46.8256 83.34 45.8656 83.34ZM45.6656 89.16C46.1056 89.16 46.4923 89.0867 46.8256 88.94C47.159 88.78 47.479 88.56 47.7856 88.28V86.44C46.8656 86.4533 46.1856 86.5067 45.7456 86.6C45.2523 86.7067 44.8856 86.8667 44.6456 87.08C44.4056 87.28 44.2856 87.5667 44.2856 87.94C44.2856 88.3267 44.419 88.6267 44.6856 88.84C44.9656 89.0533 45.2923 89.16 45.6656 89.16ZM53.425 90L50.565 82.32H51.965L54.085 88.34L54.165 88.74L54.225 88.34L56.365 82.32H57.705L54.865 90H53.425ZM61.7406 83.34C61.4606 83.34 61.1206 83.3733 60.7206 83.44C60.334 83.4933 59.9873 83.5667 59.6806 83.66L59.4206 82.7C60.314 82.3933 61.1473 82.24 61.9206 82.24C62.7873 82.24 63.4473 82.3733 63.9006 82.64C64.3006 82.9333 64.574 83.2467 64.7206 83.58C64.8806 83.9133 64.9606 84.4 64.9606 85.04V90H63.9806L63.7006 89.28C62.9406 89.8933 62.1606 90.2 61.3606 90.2C60.6673 90.2 60.0806 90 59.6006 89.6C59.134 89.2 58.9006 88.6933 58.9006 88.08C58.9006 87.48 59.0806 86.9867 59.4406 86.6C59.814 86.2 60.2673 85.9333 60.8006 85.8C61.4806 85.6267 62.434 85.5267 63.6606 85.5V85.44C63.6606 84.8933 63.6073 84.4933 63.5006 84.24C63.2873 83.64 62.7006 83.34 61.7406 83.34ZM61.5406 89.16C61.9806 89.16 62.3673 89.0867 62.7006 88.94C63.034 88.78 63.354 88.56 63.6606 88.28V86.44C62.7406 86.4533 62.0606 86.5067 61.6206 86.6C61.1273 86.7067 60.7606 86.8667 60.5206 87.08C60.2806 87.28 60.1606 87.5667 60.1606 87.94C60.1606 88.3267 60.294 88.6267 60.5606 88.84C60.8406 89.0533 61.1673 89.16 61.5406 89.16ZM70.18 88.8C70.98 88.8 71.6467 88.66 72.18 88.38C72.7133 88.0867 72.98 87.66 72.98 87.1C72.98 86.6067 72.7667 86.2133 72.34 85.92C71.9133 85.6267 71.3 85.3333 70.5 85.04L70.04 84.86C69.04 84.46 68.2933 84.0467 67.8 83.62C67.3067 83.1933 67.06 82.6 67.06 81.84C67.06 80.84 67.3867 80.0867 68.04 79.58C68.4267 79.2867 68.8333 79.08 69.26 78.96C69.6867 78.8267 70.1867 78.76 70.76 78.76C71.5733 78.76 72.58 79.0133 73.78 79.52L73.4 80.7C72.3333 80.2733 71.5067 80.06 70.92 80.06C70.1467 80.06 69.5333 80.2067 69.08 80.5C68.64 80.78 68.42 81.18 68.42 81.7C68.42 82.06 68.5333 82.3667 68.76 82.62C69 82.8733 69.26 83.0733 69.54 83.22C69.8333 83.3533 70.24 83.5267 70.76 83.74C70.9733 83.8333 71.1667 83.9067 71.34 83.96C72.0333 84.24 72.5733 84.4933 72.96 84.72C73.36 84.9333 73.7 85.2267 73.98 85.6C74.26 85.9733 74.4 86.4467 74.4 87.02C74.4 88.0467 73.9867 88.8267 73.16 89.36C72.3333 89.8933 71.3267 90.16 70.14 90.16C69.5267 90.16 69.02 90.1067 68.62 90C68.22 89.8933 67.6133 89.7 66.8 89.42L67.26 88.14C68.4333 88.58 69.4067 88.8 70.18 88.8ZM79.7144 90.18C78.5277 90.18 77.6077 89.84 76.9544 89.16C76.3144 88.48 75.9944 87.5267 75.9944 86.3C75.9944 85.1533 76.3277 84.1667 76.9944 83.34C77.661 82.5933 78.6544 82.22 79.9744 82.22C80.6277 82.22 81.281 82.36 81.9344 82.64L81.6144 83.6C81.1477 83.4 80.621 83.3 80.0344 83.3C79.1277 83.3 78.4477 83.54 77.9944 84.02C77.541 84.4867 77.3144 85.1667 77.3144 86.06C77.3144 87.2067 77.5877 88 78.1344 88.44C78.681 88.88 79.3544 89.1 80.1544 89.1C80.661 89.1 81.1477 89.0133 81.6144 88.84L81.9144 89.74C81.141 90.0333 80.4077 90.18 79.7144 90.18ZM86.94 82.22C87.2333 82.22 87.4667 82.24 87.64 82.28C87.8267 82.3067 88.0067 82.36 88.18 82.44L87.72 83.6C87.3733 83.44 86.9933 83.36 86.58 83.36C86.02 83.36 85.4667 83.5467 84.92 83.92V90H83.62V82.32H84.56L84.84 82.98C85.5067 82.4733 86.2067 82.22 86.94 82.22ZM90.1794 80.84C89.9394 80.84 89.7394 80.76 89.5794 80.6C89.4194 80.4267 89.3394 80.2267 89.3394 80C89.3394 79.7867 89.4194 79.6 89.5794 79.44C89.7394 79.2667 89.9394 79.18 90.1794 79.18C90.406 79.18 90.5994 79.2667 90.7594 79.44C90.9194 79.6 90.9994 79.7867 90.9994 80C90.9994 80.2267 90.9194 80.4267 90.7594 80.6C90.6127 80.76 90.4194 80.84 90.1794 80.84ZM90.8194 90H89.5194V82.32H90.8194V90ZM93.1444 82.32H94.0644L94.3244 82.9C94.9777 82.4467 95.6977 82.22 96.4844 82.22C97.231 82.22 97.8644 82.38 98.3844 82.7C99.491 83.3933 100.044 84.52 100.044 86.08C100.044 87.4133 99.671 88.44 98.9244 89.16C98.191 89.8533 97.3177 90.2 96.3044 90.2C95.651 90.2 95.031 90.0733 94.4444 89.82V94.16H93.1444V82.32ZM96.1644 83.3C95.791 83.3 95.4777 83.3333 95.2244 83.4C94.9844 83.4667 94.7244 83.5867 94.4444 83.76V88.8C94.9644 89.04 95.531 89.16 96.1444 89.16C96.9444 89.16 97.5644 88.8867 98.0044 88.34C98.4444 87.7933 98.6644 87.0867 98.6644 86.22C98.6644 85.3267 98.451 84.62 98.0244 84.1C97.5977 83.5667 96.9777 83.3 96.1644 83.3ZM104.541 90.16C103.768 90.16 103.215 89.9533 102.881 89.54C102.561 89.1133 102.401 88.4733 102.401 87.62V83.4H101.101V82.32H102.401V80.44L103.701 80.34V82.32H106.221V83.4H103.701V87.54C103.701 88.0733 103.781 88.46 103.941 88.7C104.115 88.94 104.441 89.06 104.921 89.06C105.375 89.06 105.781 89.02 106.141 88.94L106.361 89.82C105.761 90.0467 105.155 90.16 104.541 90.16ZM38.66 111.44V116H37.34V105H40.8C41.32 105 41.6933 105.02 41.92 105.06C42.16 105.087 42.3933 105.127 42.62 105.18C43.26 105.407 43.76 105.787 44.12 106.32C44.48 106.84 44.66 107.48 44.66 108.24C44.6467 108.987 44.4133 109.627 43.96 110.16C43.52 110.693 42.9133 111.06 42.14 111.26L45.26 116H43.76L40.76 111.44H38.66ZM40.1 110.28C40.7933 110.28 41.3667 110.233 41.82 110.14C42.2733 110.047 42.64 109.847 42.92 109.54C43.2 109.22 43.34 108.76 43.34 108.16C43.34 107.573 43.1733 107.113 42.84 106.78C42.5067 106.447 42.06 106.253 41.5 106.2C41.3 106.147 40.8333 106.12 40.1 106.12H38.66V110.22C39.1933 110.26 39.6733 110.28 40.1 110.28ZM50.1219 108.22C51.1352 108.22 51.9152 108.527 52.4619 109.14C53.0085 109.74 53.2819 110.593 53.2819 111.7V112.4L53.2019 112.56H47.9419C47.9419 113.213 48.1885 113.82 48.6819 114.38C49.1485 114.847 49.8752 115.08 50.8619 115.08C51.5152 115.08 52.1352 114.98 52.7219 114.78L52.9619 115.74C52.1485 116.02 51.3285 116.16 50.5019 116.16C49.2619 116.16 48.3152 115.827 47.6619 115.16C47.0085 114.493 46.6819 113.54 46.6819 112.3C46.6819 111.127 46.9685 110.16 47.5419 109.4C48.1552 108.613 49.0152 108.22 50.1219 108.22ZM51.9619 111.52C51.9619 110.853 51.8152 110.307 51.5219 109.88C51.2419 109.453 50.8219 109.24 50.2619 109.24C49.5552 109.24 49.0152 109.453 48.6419 109.88C48.2685 110.307 48.0419 110.853 47.9619 111.52H51.9619ZM57.6 109.34C57.32 109.34 56.98 109.373 56.58 109.44C56.1933 109.493 55.8467 109.567 55.54 109.66L55.28 108.7C56.1733 108.393 57.0067 108.24 57.78 108.24C58.6467 108.24 59.3067 108.373 59.76 108.64C60.16 108.933 60.4333 109.247 60.58 109.58C60.74 109.913 60.82 110.4 60.82 111.04V116H59.84L59.56 115.28C58.8 115.893 58.02 116.2 57.22 116.2C56.5267 116.2 55.94 116 55.46 115.6C54.9933 115.2 54.76 114.693 54.76 114.08C54.76 113.48 54.94 112.987 55.3 112.6C55.6733 112.2 56.1267 111.933 56.66 111.8C57.34 111.627 58.2933 111.527 59.52 111.5V111.44C59.52 110.893 59.4667 110.493 59.36 110.24C59.1467 109.64 58.56 109.34 57.6 109.34ZM57.4 115.16C57.84 115.16 58.2267 115.087 58.56 114.94C58.8933 114.78 59.2133 114.56 59.52 114.28V112.44C58.6 112.453 57.92 112.507 57.48 112.6C56.9867 112.707 56.62 112.867 56.38 113.08C56.14 113.28 56.02 113.567 56.02 113.94C56.02 114.327 56.1533 114.627 56.42 114.84C56.7 115.053 57.0267 115.16 57.4 115.16ZM66.3394 116.18C65.1527 116.18 64.2327 115.84 63.5794 115.16C62.9394 114.48 62.6194 113.527 62.6194 112.3C62.6194 111.153 62.9527 110.167 63.6194 109.34C64.286 108.593 65.2794 108.22 66.5994 108.22C67.2527 108.22 67.906 108.36 68.5594 108.64L68.2394 109.6C67.7727 109.4 67.246 109.3 66.6594 109.3C65.7527 109.3 65.0727 109.54 64.6194 110.02C64.166 110.487 63.9394 111.167 63.9394 112.06C63.9394 113.207 64.2127 114 64.7594 114.44C65.306 114.88 65.9794 115.1 66.7794 115.1C67.286 115.1 67.7727 115.013 68.2394 114.84L68.5394 115.74C67.766 116.033 67.0327 116.18 66.3394 116.18ZM72.885 116.16C72.1117 116.16 71.5583 115.953 71.225 115.54C70.905 115.113 70.745 114.473 70.745 113.62V109.4H69.445V108.32H70.745V106.44L72.045 106.34V108.32H74.565V109.4H72.045V113.54C72.045 114.073 72.125 114.46 72.285 114.7C72.4583 114.94 72.785 115.06 73.265 115.06C73.7183 115.06 74.125 115.02 74.485 114.94L74.705 115.82C74.105 116.047 73.4983 116.16 72.885 116.16ZM43.78 140.84H38.66V136.88H43.38V135.74H38.66V132.12H43.78V131H37.34V142H43.78V140.84ZM50.9837 134.32H52.4437L49.6637 138.18L52.4437 142H50.8637L48.8438 139.18L46.8237 142H45.3837L48.1237 138.22L45.3837 134.32H46.8637L48.9437 137.2L50.9837 134.32ZM54.1444 134.32H55.0644L55.3244 134.9C55.9777 134.447 56.6977 134.22 57.4844 134.22C58.231 134.22 58.8644 134.38 59.3844 134.7C60.491 135.393 61.0444 136.52 61.0444 138.08C61.0444 139.413 60.671 140.44 59.9244 141.16C59.191 141.853 58.3177 142.2 57.3044 142.2C56.651 142.2 56.031 142.073 55.4444 141.82V146.16H54.1444V134.32ZM57.1644 135.3C56.791 135.3 56.4777 135.333 56.2244 135.4C55.9844 135.467 55.7244 135.587 55.4444 135.76V140.8C55.9644 141.04 56.531 141.16 57.1444 141.16C57.9444 141.16 58.5644 140.887 59.0044 140.34C59.4444 139.793 59.6644 139.087 59.6644 138.22C59.6644 137.327 59.451 136.62 59.0244 136.1C58.5977 135.567 57.9777 135.3 57.1644 135.3ZM66.2213 134.22C66.5146 134.22 66.7479 134.24 66.9212 134.28C67.1079 134.307 67.2879 134.36 67.4612 134.44L67.0012 135.6C66.6546 135.44 66.2746 135.36 65.8612 135.36C65.3012 135.36 64.7479 135.547 64.2012 135.92V142H62.9013V134.32H63.8412L64.1212 134.98C64.7879 134.473 65.4879 134.22 66.2213 134.22ZM71.8406 134.22C72.854 134.22 73.634 134.527 74.1806 135.14C74.7273 135.74 75.0006 136.593 75.0006 137.7V138.4L74.9206 138.56H69.6606C69.6606 139.213 69.9073 139.82 70.4006 140.38C70.8673 140.847 71.594 141.08 72.5806 141.08C73.234 141.08 73.854 140.98 74.4406 140.78L74.6806 141.74C73.8673 142.02 73.0473 142.16 72.2206 142.16C70.9806 142.16 70.034 141.827 69.3806 141.16C68.7273 140.493 68.4006 139.54 68.4006 138.3C68.4006 137.127 68.6873 136.16 69.2606 135.4C69.874 134.613 70.734 134.22 71.8406 134.22ZM73.6806 137.52C73.6806 136.853 73.534 136.307 73.2406 135.88C72.9606 135.453 72.5406 135.24 71.9806 135.24C71.274 135.24 70.734 135.453 70.3606 135.88C69.9873 136.307 69.7606 136.853 69.6806 137.52H73.6806ZM79.2587 141.08C79.7254 141.08 80.1187 140.993 80.4387 140.82C80.7721 140.633 80.9387 140.367 80.9387 140.02C80.9387 139.74 80.8187 139.52 80.5787 139.36C80.3387 139.2 79.8321 138.96 79.0587 138.64L78.2987 138.34C77.9654 138.18 77.6921 138.04 77.4787 137.92C77.2654 137.787 77.0721 137.593 76.8987 137.34C76.7254 137.073 76.6387 136.74 76.6387 136.34C76.6387 135.62 76.9321 135.087 77.5187 134.74C78.1188 134.393 78.8521 134.22 79.7188 134.22C80.4521 134.22 81.1854 134.387 81.9187 134.72L81.5987 135.68C80.9987 135.427 80.4187 135.3 79.8587 135.3C79.2854 135.3 78.8187 135.387 78.4588 135.56C78.1121 135.72 77.9388 135.953 77.9388 136.26C77.9388 136.567 78.0587 136.807 78.2987 136.98C78.5521 137.153 78.9787 137.353 79.5787 137.58L80.2387 137.84C80.9721 138.147 81.4854 138.467 81.7787 138.8C82.0721 139.133 82.2188 139.573 82.2188 140.12C82.2188 140.68 81.9587 141.167 81.4387 141.58C80.9187 141.98 80.2254 142.18 79.3587 142.18C78.3721 142.18 77.3987 141.987 76.4387 141.6L76.7987 140.62C77.6654 140.927 78.4854 141.08 79.2587 141.08ZM86.665 141.08C87.1317 141.08 87.525 140.993 87.845 140.82C88.1783 140.633 88.345 140.367 88.345 140.02C88.345 139.74 88.225 139.52 87.985 139.36C87.745 139.2 87.2383 138.96 86.465 138.64L85.705 138.34C85.3717 138.18 85.0983 138.04 84.885 137.92C84.6717 137.787 84.4783 137.593 84.305 137.34C84.1317 137.073 84.045 136.74 84.045 136.34C84.045 135.62 84.3383 135.087 84.925 134.74C85.525 134.393 86.2583 134.22 87.125 134.22C87.8583 134.22 88.5917 134.387 89.325 134.72L89.005 135.68C88.405 135.427 87.825 135.3 87.265 135.3C86.6917 135.3 86.225 135.387 85.865 135.56C85.5183 135.72 85.345 135.953 85.345 136.26C85.345 136.567 85.465 136.807 85.705 136.98C85.9583 137.153 86.385 137.353 86.985 137.58L87.645 137.84C88.3783 138.147 88.8917 138.467 89.185 138.8C89.4783 139.133 89.625 139.573 89.625 140.12C89.625 140.68 89.365 141.167 88.845 141.58C88.325 141.98 87.6317 142.18 86.765 142.18C85.7783 142.18 84.805 141.987 83.845 141.6L84.205 140.62C85.0717 140.927 85.8917 141.08 86.665 141.08ZM38.58 168V158.74L44.58 168H46.28V157H44.92V166.22L38.94 157H37.26V168H38.58ZM51.9244 168.18C50.7644 168.18 49.8577 167.82 49.2044 167.1C48.5644 166.38 48.2444 165.413 48.2444 164.2C48.2444 162.973 48.571 162.007 49.2244 161.3C49.891 160.58 50.811 160.22 51.9844 160.22C53.1577 160.22 54.0644 160.573 54.7044 161.28C55.3444 161.987 55.6644 162.953 55.6644 164.18C55.6644 165.38 55.331 166.347 54.6644 167.08C53.9977 167.813 53.0844 168.18 51.9244 168.18ZM51.9844 161.24C51.2244 161.24 50.631 161.52 50.2044 162.08C49.791 162.64 49.5844 163.347 49.5844 164.2C49.5844 165.053 49.791 165.753 50.2044 166.3C50.631 166.847 51.2244 167.12 51.9844 167.12C52.731 167.12 53.311 166.847 53.7244 166.3C54.1377 165.74 54.3444 165.04 54.3444 164.2C54.3444 163.347 54.131 162.64 53.7044 162.08C53.291 161.52 52.7177 161.24 51.9844 161.24ZM60.7419 168.16C59.5952 168.16 58.7152 167.807 58.1019 167.1C57.4885 166.38 57.1819 165.427 57.1819 164.24C57.1819 162.933 57.5485 161.913 58.2819 161.18C58.9885 160.5 59.8685 160.16 60.9219 160.16C61.6285 160.16 62.2285 160.28 62.7219 160.52V157.36H64.0819V168H63.1219L62.9019 167.46C62.1819 167.927 61.4619 168.16 60.7419 168.16ZM61.0019 167.06C61.3619 167.06 61.6619 167.027 61.9019 166.96C62.1552 166.88 62.4285 166.76 62.7219 166.6V161.52C62.2285 161.32 61.6619 161.22 61.0219 161.22C60.1952 161.22 59.5685 161.487 59.1419 162.02C58.7285 162.553 58.5219 163.267 58.5219 164.16C58.5219 165.04 58.7285 165.747 59.1419 166.28C59.5685 166.8 60.1885 167.06 61.0019 167.06ZM69.4031 160.22C70.4165 160.22 71.1965 160.527 71.7431 161.14C72.2898 161.74 72.5631 162.593 72.5631 163.7V164.4L72.4831 164.56H67.2231C67.2231 165.213 67.4698 165.82 67.9631 166.38C68.4298 166.847 69.1565 167.08 70.1431 167.08C70.7965 167.08 71.4165 166.98 72.0031 166.78L72.2431 167.74C71.4298 168.02 70.6098 168.16 69.7831 168.16C68.5431 168.16 67.5965 167.827 66.9431 167.16C66.2898 166.493 65.9631 165.54 65.9631 164.3C65.9631 163.127 66.2498 162.16 66.8231 161.4C67.4365 160.613 68.2965 160.22 69.4031 160.22ZM71.2431 163.52C71.2431 162.853 71.0965 162.307 70.8031 161.88C70.5231 161.453 70.1031 161.24 69.5431 161.24C68.8365 161.24 68.2965 161.453 67.9231 161.88C67.5498 162.307 67.3231 162.853 67.2431 163.52H71.2431ZM77.0412 164.78C77.0412 165.153 77.0146 165.42 76.9612 165.58C76.8412 166.02 76.5879 166.367 76.2012 166.62C75.8146 166.873 75.3279 167 74.7412 167C74.4612 167 74.0946 166.947 73.6412 166.84L73.4612 167.96C73.9412 168.08 74.4346 168.14 74.9412 168.14C76.1012 168.14 76.9879 167.813 77.6012 167.16C77.8812 166.853 78.0746 166.52 78.1813 166.16C78.2879 165.787 78.3412 165.3 78.3412 164.7V157H77.0412V164.78ZM83.7269 166.8C84.5269 166.8 85.1935 166.66 85.7269 166.38C86.2602 166.087 86.5269 165.66 86.5269 165.1C86.5269 164.607 86.3135 164.213 85.8869 163.92C85.4602 163.627 84.8469 163.333 84.0469 163.04L83.5869 162.86C82.5869 162.46 81.8402 162.047 81.3469 161.62C80.8535 161.193 80.6069 160.6 80.6069 159.84C80.6069 158.84 80.9335 158.087 81.5869 157.58C81.9735 157.287 82.3802 157.08 82.8069 156.96C83.2335 156.827 83.7335 156.76 84.3069 156.76C85.1202 156.76 86.1269 157.013 87.3269 157.52L86.9469 158.7C85.8802 158.273 85.0535 158.06 84.4669 158.06C83.6935 158.06 83.0802 158.207 82.6269 158.5C82.1869 158.78 81.9669 159.18 81.9669 159.7C81.9669 160.06 82.0802 160.367 82.3069 160.62C82.5469 160.873 82.8069 161.073 83.0869 161.22C83.3802 161.353 83.7869 161.527 84.3069 161.74C84.5202 161.833 84.7135 161.907 84.8869 161.96C85.5802 162.24 86.1202 162.493 86.5069 162.72C86.9069 162.933 87.2469 163.227 87.5269 163.6C87.8069 163.973 87.9469 164.447 87.9469 165.02C87.9469 166.047 87.5335 166.827 86.7069 167.36C85.8802 167.893 84.8735 168.16 83.6869 168.16C83.0735 168.16 82.5669 168.107 82.1669 168C81.7669 167.893 81.1602 167.7 80.3469 167.42L80.8069 166.14C81.9802 166.58 82.9535 166.8 83.7269 166.8Z" fill="#177861"/>
<path d="M204.092 27.8C203.545 27.48 202.979 27.24 202.392 27.08C201.819 26.92 201.179 26.84 200.472 26.84C199.445 26.84 198.525 27.0867 197.712 27.58C196.912 28.0467 196.265 28.7133 195.772 29.58C195.292 30.4467 195.052 31.4467 195.052 32.58C195.052 33.5933 195.285 34.5333 195.752 35.4C196.192 36.24 196.819 36.9133 197.632 37.42C198.445 37.9133 199.352 38.16 200.352 38.16C201.339 38.16 202.225 37.98 203.012 37.62C203.625 37.3533 204.139 37.0133 204.552 36.6V32.18H200.172V33.26H203.332V36.18C203.025 36.4333 202.639 36.6333 202.172 36.78C201.719 36.9267 201.272 37 200.832 37C200.405 37 200.019 36.9533 199.672 36.86C199.325 36.7533 198.959 36.5933 198.572 36.38C197.945 36.02 197.445 35.5067 197.072 34.84C196.699 34.16 196.512 33.3733 196.512 32.48C196.512 31.6533 196.665 30.9133 196.972 30.26C197.279 29.6067 197.759 29.0667 198.412 28.64C199.079 28.2133 199.805 28 200.592 28C201.059 28 201.565 28.0733 202.112 28.22C202.672 28.3667 203.159 28.5467 203.572 28.76L204.092 27.8ZM207.257 28.84C207.017 28.84 206.817 28.76 206.658 28.6C206.497 28.4267 206.417 28.2267 206.417 28C206.417 27.7867 206.497 27.6 206.658 27.44C206.817 27.2667 207.017 27.18 207.257 27.18C207.484 27.18 207.677 27.2667 207.837 27.44C207.997 27.6 208.077 27.7867 208.077 28C208.077 28.2267 207.997 28.4267 207.837 28.6C207.691 28.76 207.498 28.84 207.257 28.84ZM207.898 38H206.597V30.32H207.898V38ZM212.822 38.16C212.049 38.16 211.496 37.9533 211.162 37.54C210.842 37.1133 210.683 36.4733 210.683 35.62V31.4H209.382V30.32H210.683V28.44L211.982 28.34V30.32H214.503V31.4H211.982V35.54C211.982 36.0733 212.062 36.46 212.222 36.7C212.396 36.94 212.722 37.06 213.202 37.06C213.656 37.06 214.062 37.02 214.422 36.94L214.642 37.82C214.042 38.0467 213.436 38.16 212.822 38.16ZM181.302 53H174.902V64H176.222V58.88H180.842V57.74H176.222V54.12H181.302V53ZM183.867 54.84C183.627 54.84 183.427 54.76 183.267 54.6C183.107 54.4267 183.027 54.2267 183.027 54C183.027 53.7867 183.107 53.6 183.267 53.44C183.427 53.2667 183.627 53.18 183.867 53.18C184.094 53.18 184.287 53.2667 184.447 53.44C184.607 53.6 184.687 53.7867 184.687 54C184.687 54.2267 184.607 54.4267 184.447 54.6C184.3 54.76 184.107 54.84 183.867 54.84ZM184.507 64H183.207V56.32H184.507V64ZM191.972 63.64C191.305 63.9867 190.632 64.16 189.952 64.16C188.725 64.16 187.785 63.6867 187.132 62.74C186.665 62.0467 186.432 61.2333 186.432 60.3C186.432 59.3533 186.632 58.5533 187.032 57.9C187.445 57.2333 188.012 56.7533 188.732 56.46C189.065 56.3 189.499 56.22 190.032 56.22C190.659 56.22 191.259 56.3533 191.832 56.62L192.212 56.8L192.352 56.32H193.292V64.36C193.292 65.0667 193.212 65.6333 193.052 66.06C192.892 66.4867 192.619 66.88 192.232 67.24C191.912 67.5467 191.512 67.78 191.032 67.94C190.565 68.1133 190.039 68.2 189.452 68.2C189.079 68.2 188.672 68.1533 188.232 68.06C187.805 67.9667 187.432 67.8467 187.112 67.7L187.452 66.78C188.212 67.0467 188.819 67.18 189.272 67.18C190.072 67.18 190.699 66.9867 191.152 66.6C191.605 66.2133 191.872 65.6667 191.952 64.96C191.965 64.8133 191.972 64.44 191.972 63.84V63.64ZM190.252 63.1C190.919 63.1 191.492 62.96 191.972 62.68V57.66C191.372 57.3933 190.779 57.26 190.192 57.26C189.392 57.26 188.785 57.52 188.372 58.04C187.959 58.56 187.752 59.2533 187.752 60.12C187.752 60.7467 187.872 61.3 188.112 61.78C188.352 62.26 188.679 62.6067 189.092 62.82C189.425 63.0067 189.812 63.1 190.252 63.1ZM204.753 59.12C204.753 57.8667 204.253 57.24 203.253 57.24C202.76 57.24 202.146 57.4667 201.413 57.92C201.453 58.0667 201.473 58.36 201.473 58.8V64H200.173V59.12C200.173 57.8667 199.666 57.24 198.653 57.24C198.173 57.24 197.58 57.4333 196.873 57.82V64H195.573V56.32H196.473L196.753 56.96C197.206 56.6533 197.626 56.44 198.013 56.32C198.32 56.24 198.673 56.2 199.073 56.2C199.513 56.2 199.9 56.2867 200.233 56.46C200.58 56.6333 200.86 56.8733 201.073 57.18C201.513 56.86 201.933 56.62 202.333 56.46C202.733 56.2867 203.173 56.2 203.653 56.2C204.44 56.2 205.04 56.44 205.453 56.92C205.88 57.3867 206.093 58.0133 206.093 58.8V64H204.753V59.12ZM210.741 57.34C210.461 57.34 210.121 57.3733 209.721 57.44C209.334 57.4933 208.987 57.5667 208.681 57.66L208.421 56.7C209.314 56.3933 210.147 56.24 210.921 56.24C211.787 56.24 212.447 56.3733 212.901 56.64C213.301 56.9333 213.574 57.2467 213.721 57.58C213.881 57.9133 213.961 58.4 213.961 59.04V64H212.981L212.701 63.28C211.941 63.8933 211.161 64.2 210.361 64.2C209.667 64.2 209.081 64 208.601 63.6C208.134 63.2 207.901 62.6933 207.901 62.08C207.901 61.48 208.081 60.9867 208.441 60.6C208.814 60.2 209.267 59.9333 209.801 59.8C210.481 59.6267 211.434 59.5267 212.661 59.5V59.44C212.661 58.8933 212.607 58.4933 212.501 58.24C212.287 57.64 211.701 57.34 210.741 57.34ZM210.541 63.16C210.981 63.16 211.367 63.0867 211.701 62.94C212.034 62.78 212.354 62.56 212.661 62.28V60.44C211.741 60.4533 211.061 60.5067 210.621 60.6C210.127 60.7067 209.761 60.8667 209.521 61.08C209.281 61.28 209.161 61.5667 209.161 61.94C209.161 62.3267 209.294 62.6267 209.561 62.84C209.841 63.0533 210.167 63.16 210.541 63.16ZM166.738 83.86V79H165.418V90H166.738V85.06H172.858V90H174.178V79H172.858V83.86H166.738ZM179.731 82.22C180.745 82.22 181.525 82.5267 182.071 83.14C182.618 83.74 182.891 84.5933 182.891 85.7V86.4L182.811 86.56H177.551C177.551 87.2133 177.798 87.82 178.291 88.38C178.758 88.8467 179.485 89.08 180.471 89.08C181.125 89.08 181.745 88.98 182.331 88.78L182.571 89.74C181.758 90.02 180.938 90.16 180.111 90.16C178.871 90.16 177.925 89.8267 177.271 89.16C176.618 88.4933 176.291 87.54 176.291 86.3C176.291 85.1267 176.578 84.16 177.151 83.4C177.765 82.6133 178.625 82.22 179.731 82.22ZM181.571 85.52C181.571 84.8533 181.425 84.3067 181.131 83.88C180.851 83.4533 180.431 83.24 179.871 83.24C179.165 83.24 178.625 83.4533 178.251 83.88C177.878 84.3067 177.651 84.8533 177.571 85.52H181.571ZM188.049 82.22C188.343 82.22 188.576 82.24 188.749 82.28C188.936 82.3067 189.116 82.36 189.289 82.44L188.829 83.6C188.483 83.44 188.103 83.36 187.689 83.36C187.129 83.36 186.576 83.5467 186.029 83.92V90H184.729V82.32H185.669L185.949 82.98C186.616 82.4733 187.316 82.22 188.049 82.22ZM193.909 90.18C192.749 90.18 191.842 89.82 191.189 89.1C190.549 88.38 190.229 87.4133 190.229 86.2C190.229 84.9733 190.555 84.0067 191.209 83.3C191.875 82.58 192.795 82.22 193.969 82.22C195.142 82.22 196.049 82.5733 196.689 83.28C197.329 83.9867 197.649 84.9533 197.649 86.18C197.649 87.38 197.315 88.3467 196.649 89.08C195.982 89.8133 195.069 90.18 193.909 90.18ZM193.969 83.24C193.209 83.24 192.615 83.52 192.189 84.08C191.775 84.64 191.569 85.3467 191.569 86.2C191.569 87.0533 191.775 87.7533 192.189 88.3C192.615 88.8467 193.209 89.12 193.969 89.12C194.715 89.12 195.295 88.8467 195.709 88.3C196.122 87.74 196.329 87.04 196.329 86.2C196.329 85.3467 196.115 84.64 195.689 84.08C195.275 83.52 194.702 83.24 193.969 83.24ZM200.906 90H199.606V79.36H200.906V90ZM202.586 85.76L206.106 90H204.506L201.046 85.76L204.406 82.32H205.926L202.586 85.76ZM208.826 87.26C208.826 87.9133 208.953 88.38 209.206 88.66C209.46 88.94 209.893 89.08 210.506 89.08C211.133 89.08 211.833 88.9 212.606 88.54V82.32H213.906V90H213.006L212.726 89.44C211.753 89.9467 210.853 90.2 210.026 90.2C209.226 90.2 208.606 89.9667 208.166 89.5C207.74 89.0333 207.526 88.3933 207.526 87.58V82.32H208.826V87.26ZM128.113 108.24C128.086 108.96 127.886 109.573 127.513 110.08C127.153 110.587 126.673 110.94 126.073 111.14C125.793 111.233 125.406 111.307 124.913 111.36C124.42 111.413 123.926 111.44 123.433 111.44C122.873 111.44 122.433 111.427 122.113 111.4V116H120.793V105H124.253C124.773 105 125.146 105.02 125.373 105.06C125.613 105.087 125.846 105.127 126.073 105.18C126.713 105.407 127.213 105.787 127.573 106.32C127.933 106.84 128.113 107.48 128.113 108.24ZM123.553 110.28C124.246 110.28 124.82 110.233 125.273 110.14C125.726 110.047 126.093 109.847 126.373 109.54C126.653 109.22 126.793 108.76 126.793 108.16C126.793 107.573 126.626 107.113 126.293 106.78C125.96 106.447 125.513 106.253 124.953 106.2C124.753 106.147 124.286 106.12 123.553 106.12H122.113V110.22C122.646 110.26 123.126 110.28 123.553 110.28ZM133.19 116.18C132.03 116.18 131.123 115.82 130.47 115.1C129.83 114.38 129.51 113.413 129.51 112.2C129.51 110.973 129.837 110.007 130.49 109.3C131.157 108.58 132.077 108.22 133.25 108.22C134.423 108.22 135.33 108.573 135.97 109.28C136.61 109.987 136.93 110.953 136.93 112.18C136.93 113.38 136.597 114.347 135.93 115.08C135.263 115.813 134.35 116.18 133.19 116.18ZM133.25 109.24C132.49 109.24 131.897 109.52 131.47 110.08C131.057 110.64 130.85 111.347 130.85 112.2C130.85 113.053 131.057 113.753 131.47 114.3C131.897 114.847 132.49 115.12 133.25 115.12C133.997 115.12 134.577 114.847 134.99 114.3C135.403 113.74 135.61 113.04 135.61 112.2C135.61 111.347 135.397 110.64 134.97 110.08C134.557 109.52 133.983 109.24 133.25 109.24ZM141.227 115.08C141.694 115.08 142.087 114.993 142.407 114.82C142.741 114.633 142.907 114.367 142.907 114.02C142.907 113.74 142.787 113.52 142.547 113.36C142.307 113.2 141.801 112.96 141.027 112.64L140.267 112.34C139.934 112.18 139.661 112.04 139.447 111.92C139.234 111.787 139.041 111.593 138.867 111.34C138.694 111.073 138.607 110.74 138.607 110.34C138.607 109.62 138.901 109.087 139.487 108.74C140.088 108.393 140.821 108.22 141.688 108.22C142.421 108.22 143.154 108.387 143.887 108.72L143.567 109.68C142.967 109.427 142.387 109.3 141.827 109.3C141.254 109.3 140.787 109.387 140.428 109.56C140.081 109.72 139.908 109.953 139.908 110.26C139.908 110.567 140.027 110.807 140.267 110.98C140.521 111.153 140.947 111.353 141.547 111.58L142.207 111.84C142.941 112.147 143.454 112.467 143.747 112.8C144.041 113.133 144.188 113.573 144.188 114.12C144.188 114.68 143.927 115.167 143.407 115.58C142.887 115.98 142.194 116.18 141.327 116.18C140.341 116.18 139.367 115.987 138.407 115.6L138.767 114.62C139.634 114.927 140.454 115.08 141.227 115.08ZM148.854 116.16C148.08 116.16 147.527 115.953 147.194 115.54C146.874 115.113 146.714 114.473 146.714 113.62V109.4H145.414V108.32H146.714V106.44L148.014 106.34V108.32H150.534V109.4H148.014V113.54C148.014 114.073 148.094 114.46 148.254 114.7C148.427 114.94 148.754 115.06 149.234 115.06C149.687 115.06 150.094 115.02 150.454 114.94L150.674 115.82C150.074 116.047 149.467 116.16 148.854 116.16ZM157.331 115.64C156.665 115.987 155.991 116.16 155.311 116.16C154.085 116.16 153.145 115.687 152.491 114.74C152.025 114.047 151.791 113.233 151.791 112.3C151.791 111.353 151.991 110.553 152.391 109.9C152.805 109.233 153.371 108.753 154.091 108.46C154.425 108.3 154.858 108.22 155.391 108.22C156.018 108.22 156.618 108.353 157.191 108.62L157.571 108.8L157.711 108.32H158.651V116.36C158.651 117.067 158.571 117.633 158.411 118.06C158.251 118.487 157.978 118.88 157.591 119.24C157.271 119.547 156.871 119.78 156.391 119.94C155.925 120.113 155.398 120.2 154.811 120.2C154.438 120.2 154.031 120.153 153.591 120.06C153.165 119.967 152.791 119.847 152.471 119.7L152.811 118.78C153.571 119.047 154.178 119.18 154.631 119.18C155.431 119.18 156.058 118.987 156.511 118.6C156.965 118.213 157.231 117.667 157.311 116.96C157.325 116.813 157.331 116.44 157.331 115.84V115.64ZM155.611 115.1C156.278 115.1 156.851 114.96 157.331 114.68V109.66C156.731 109.393 156.138 109.26 155.551 109.26C154.751 109.26 154.145 109.52 153.731 110.04C153.318 110.56 153.111 111.253 153.111 112.12C153.111 112.747 153.231 113.3 153.471 113.78C153.711 114.26 154.038 114.607 154.451 114.82C154.785 115.007 155.171 115.1 155.611 115.1ZM164.253 108.22C164.546 108.22 164.779 108.24 164.952 108.28C165.139 108.307 165.319 108.36 165.492 108.44L165.032 109.6C164.686 109.44 164.306 109.36 163.892 109.36C163.332 109.36 162.779 109.547 162.232 109.92V116H160.933V108.32H161.872L162.152 108.98C162.819 108.473 163.519 108.22 164.253 108.22ZM169.872 108.22C170.885 108.22 171.665 108.527 172.212 109.14C172.759 109.74 173.032 110.593 173.032 111.7V112.4L172.952 112.56H167.692C167.692 113.213 167.939 113.82 168.432 114.38C168.899 114.847 169.625 115.08 170.612 115.08C171.265 115.08 171.885 114.98 172.472 114.78L172.712 115.74C171.899 116.02 171.079 116.16 170.252 116.16C169.012 116.16 168.065 115.827 167.412 115.16C166.759 114.493 166.432 113.54 166.432 112.3C166.432 111.127 166.719 110.16 167.292 109.4C167.905 108.613 168.765 108.22 169.872 108.22ZM171.712 111.52C171.712 110.853 171.565 110.307 171.272 109.88C170.992 109.453 170.572 109.24 170.012 109.24C169.305 109.24 168.765 109.453 168.392 109.88C168.019 110.307 167.792 110.853 167.712 111.52H171.712ZM177.29 115.08C177.757 115.08 178.15 114.993 178.47 114.82C178.803 114.633 178.97 114.367 178.97 114.02C178.97 113.74 178.85 113.52 178.61 113.36C178.37 113.2 177.863 112.96 177.09 112.64L176.33 112.34C175.997 112.18 175.723 112.04 175.51 111.92C175.297 111.787 175.103 111.593 174.93 111.34C174.757 111.073 174.67 110.74 174.67 110.34C174.67 109.62 174.963 109.087 175.55 108.74C176.15 108.393 176.883 108.22 177.75 108.22C178.483 108.22 179.217 108.387 179.95 108.72L179.63 109.68C179.03 109.427 178.45 109.3 177.89 109.3C177.317 109.3 176.85 109.387 176.49 109.56C176.143 109.72 175.97 109.953 175.97 110.26C175.97 110.567 176.09 110.807 176.33 110.98C176.583 111.153 177.01 111.353 177.61 111.58L178.27 111.84C179.003 112.147 179.517 112.467 179.81 112.8C180.103 113.133 180.25 113.573 180.25 114.12C180.25 114.68 179.99 115.167 179.47 115.58C178.95 115.98 178.257 116.18 177.39 116.18C176.403 116.18 175.43 115.987 174.47 115.6L174.83 114.62C175.697 114.927 176.517 115.08 177.29 115.08ZM189.742 114.8C190.543 114.8 191.209 114.66 191.742 114.38C192.276 114.087 192.543 113.66 192.543 113.1C192.543 112.607 192.329 112.213 191.902 111.92C191.476 111.627 190.862 111.333 190.062 111.04L189.602 110.86C188.602 110.46 187.856 110.047 187.362 109.62C186.869 109.193 186.622 108.6 186.622 107.84C186.622 106.84 186.949 106.087 187.602 105.58C187.989 105.287 188.396 105.08 188.822 104.96C189.249 104.827 189.749 104.76 190.322 104.76C191.136 104.76 192.142 105.013 193.342 105.52L192.962 106.7C191.896 106.273 191.069 106.06 190.483 106.06C189.709 106.06 189.096 106.207 188.642 106.5C188.202 106.78 187.982 107.18 187.982 107.7C187.982 108.06 188.096 108.367 188.322 108.62C188.562 108.873 188.822 109.073 189.102 109.22C189.396 109.353 189.802 109.527 190.322 109.74C190.536 109.833 190.729 109.907 190.902 109.96C191.596 110.24 192.136 110.493 192.523 110.72C192.922 110.933 193.262 111.227 193.543 111.6C193.822 111.973 193.962 112.447 193.962 113.02C193.962 114.047 193.549 114.827 192.722 115.36C191.896 115.893 190.889 116.16 189.702 116.16C189.089 116.16 188.582 116.107 188.182 116C187.782 115.893 187.176 115.7 186.362 115.42L186.822 114.14C187.996 114.58 188.969 114.8 189.742 114.8ZM200.877 104.88C201.944 104.88 202.857 105.12 203.617 105.6C204.377 106.067 204.97 106.707 205.397 107.52C205.824 108.373 206.037 109.367 206.037 110.5C206.037 111.66 205.824 112.647 205.397 113.46C205.25 113.753 205.097 114.007 204.937 114.22L206.437 115.58L205.617 116.44L204.117 115.06C203.717 115.407 203.237 115.673 202.677 115.86C202.13 116.047 201.53 116.14 200.877 116.14C199.784 116.14 198.857 115.9 198.097 115.42C197.337 114.94 196.744 114.287 196.317 113.46C195.89 112.687 195.677 111.7 195.677 110.5C195.677 109.327 195.89 108.333 196.317 107.52C196.744 106.707 197.337 106.067 198.097 105.6C198.857 105.12 199.784 104.88 200.877 104.88ZM203.977 113.28C204.39 112.507 204.597 111.58 204.597 110.5C204.597 109.62 204.437 108.86 204.117 108.22C203.437 106.767 202.357 106.04 200.877 106.04C200.05 106.04 199.377 106.24 198.857 106.64C198.35 107.027 197.937 107.553 197.617 108.22C197.297 108.9 197.137 109.66 197.137 110.5C197.137 111.353 197.297 112.113 197.617 112.78C197.937 113.46 198.35 114 198.857 114.4C199.377 114.787 200.05 114.98 200.877 114.98C201.81 114.98 202.604 114.72 203.257 114.2L200.837 111.92L201.677 111.1L203.977 113.28ZM214.6 116V114.84H209.66V105H208.34V116H214.6ZM195.832 131.42C195.139 131.193 194.632 131.047 194.312 130.98C193.832 130.887 193.219 130.84 192.472 130.84C191.739 130.84 190.985 130.993 190.212 131.3C189.545 131.567 188.972 131.947 188.492 132.44C188.039 132.893 187.685 133.467 187.432 134.16C187.179 134.84 187.052 135.613 187.052 136.48C187.052 138.173 187.552 139.54 188.552 140.58C189.032 141.06 189.625 141.447 190.332 141.74C191.039 142.033 191.812 142.18 192.652 142.18C193.879 142.18 194.979 141.94 195.952 141.46L195.632 140.42C194.685 140.78 193.825 140.96 193.052 140.96C192.119 140.96 191.299 140.767 190.592 140.38C189.952 140.007 189.445 139.487 189.072 138.82C188.699 138.14 188.512 137.353 188.512 136.46C188.512 135.54 188.672 134.747 188.992 134.08C189.325 133.4 189.799 132.88 190.412 132.52C190.999 132.2 191.812 132.04 192.852 132.04C193.372 132.04 193.812 132.08 194.172 132.16C194.545 132.227 194.972 132.34 195.452 132.5L195.832 131.42ZM200.711 140.8C201.511 140.8 202.178 140.66 202.711 140.38C203.245 140.087 203.511 139.66 203.511 139.1C203.511 138.607 203.298 138.213 202.871 137.92C202.445 137.627 201.831 137.333 201.031 137.04L200.571 136.86C199.571 136.46 198.825 136.047 198.331 135.62C197.838 135.193 197.591 134.6 197.591 133.84C197.591 132.84 197.918 132.087 198.571 131.58C198.958 131.287 199.365 131.08 199.791 130.96C200.218 130.827 200.718 130.76 201.291 130.76C202.105 130.76 203.111 131.013 204.311 131.52L203.931 132.7C202.865 132.273 202.038 132.06 201.451 132.06C200.678 132.06 200.065 132.207 199.611 132.5C199.171 132.78 198.951 133.18 198.951 133.7C198.951 134.06 199.065 134.367 199.291 134.62C199.531 134.873 199.791 135.073 200.071 135.22C200.365 135.353 200.771 135.527 201.291 135.74C201.505 135.833 201.698 135.907 201.871 135.96C202.565 136.24 203.105 136.493 203.491 136.72C203.891 136.933 204.231 137.227 204.511 137.6C204.791 137.973 204.931 138.447 204.931 139.02C204.931 140.047 204.518 140.827 203.691 141.36C202.865 141.893 201.858 142.16 200.671 142.16C200.058 142.16 199.551 142.107 199.151 142C198.751 141.893 198.145 141.7 197.331 141.42L197.791 140.14C198.965 140.58 199.938 140.8 200.711 140.8ZM209.946 140.8C210.746 140.8 211.412 140.66 211.946 140.38C212.479 140.087 212.746 139.66 212.746 139.1C212.746 138.607 212.532 138.213 212.106 137.92C211.679 137.627 211.066 137.333 210.266 137.04L209.806 136.86C208.806 136.46 208.059 136.047 207.566 135.62C207.072 135.193 206.826 134.6 206.826 133.84C206.826 132.84 207.152 132.087 207.806 131.58C208.192 131.287 208.599 131.08 209.026 130.96C209.452 130.827 209.952 130.76 210.526 130.76C211.339 130.76 212.346 131.013 213.546 131.52L213.166 132.7C212.099 132.273 211.272 132.06 210.686 132.06C209.912 132.06 209.299 132.207 208.846 132.5C208.406 132.78 208.186 133.18 208.186 133.7C208.186 134.06 208.299 134.367 208.526 134.62C208.766 134.873 209.026 135.073 209.306 135.22C209.599 135.353 210.006 135.527 210.526 135.74C210.739 135.833 210.932 135.907 211.106 135.96C211.799 136.24 212.339 136.493 212.726 136.72C213.126 136.933 213.466 137.227 213.746 137.6C214.026 137.973 214.166 138.447 214.166 139.02C214.166 140.047 213.752 140.827 212.926 141.36C212.099 141.893 211.092 142.16 209.906 142.16C209.292 142.16 208.786 142.107 208.386 142C207.986 141.893 207.379 141.7 206.566 141.42L207.026 140.14C208.199 140.58 209.172 140.8 209.946 140.8ZM168.41 161.86V157H167.09V168H168.41V163.06H174.53V168H175.85V157H174.53V161.86H168.41ZM181.023 158.12V168H182.343V158.12H186.043V157H177.383V158.12H181.023ZM188.879 168V158.86L192.259 164.84H193.599L196.979 158.86V168H198.299V157H196.559L192.939 163.66L189.439 157H187.559V168H188.879ZM207.256 168V166.84H202.316V157H200.996V168H207.256ZM210.556 163.22C210.143 163.22 209.61 163.267 208.956 163.36L208.656 163.26V158.88H213.856V159.94H209.856V162.18C210.19 162.14 210.583 162.12 211.036 162.12C212.116 162.12 212.943 162.4 213.516 162.96C214.103 163.507 214.396 164.213 214.396 165.08C214.396 166.16 214.043 166.94 213.336 167.42C212.643 167.9 211.763 168.14 210.696 168.14C210.336 168.14 209.936 168.1 209.496 168.02C209.07 167.94 208.656 167.833 208.256 167.7L208.576 166.56C209.43 166.827 210.13 166.96 210.676 166.96C211.516 166.96 212.143 166.813 212.556 166.52C212.983 166.213 213.196 165.74 213.196 165.1C213.196 164.433 212.99 163.953 212.576 163.66C212.176 163.367 211.503 163.22 210.556 163.22Z" fill="#177861"/>
<defs>
<filter id="filter0_d" x="0" y="0" width="258" height="198" filterUnits="userSpaceOnUse" color-interpolation-filters="sRGB">
<feFlood flood-opacity="0" result="BackgroundImageFix"/>
<feColorMatrix in="SourceAlpha" type="matrix" values="0 0 0 0 0 0 0 0 0 0 0 0 0 0 0 0 0 0 127 0"/>
<feOffset dy="4"/>
<feGaussianBlur stdDeviation="2"/>
<feColorMatrix type="matrix" values="0 0 0 0 0 0 0 0 0 0 0 0 0 0 0 0 0 0 0.5 0"/>
<feBlend mode="normal" in2="BackgroundImageFix" result="effect1_dropShadow"/>
<feBlend mode="normal" in="SourceGraphic" in2="effect1_dropShadow" result="shape"/>
</filter>
</defs>
</svg>
