<svg width="258" height="198" viewBox="0 0 258 198" fill="none" xmlns="http://www.w3.org/2000/svg">
<g filter="url(#filter0_d)">
<rect x="4" width="250" height="190" rx="10" fill="#FFEAEA" fill-opacity="0.9"/>
</g>
<path d="M79.5488 101.8H80.8988V105.04L83.6588 107.8H93.3188L79.8488 91.93V87.79L82.6388 85H94.4288L96.5288 87.1V84.7H97.8788V92.2H96.5288V88.96L93.7688 86.2H85.0088L98.4788 102.07V106.21L95.6888 109H82.9988L80.8988 106.9V109.3H79.5488V101.8ZM113.942 106.21L111.152 109H105.182L102.392 106.21V87.1H100.292V85.9H106.352L108.842 88.39V92.8H113.042V94H108.842V107.8H110.492L113.012 105.28L113.942 106.21ZM118.843 109H125.413L127.243 107.17L129.043 109H135.853V107.8H133.453V93.49L130.963 91H119.593L117.103 93.49V97H123.403V92.2H126.553V99.4H118.843L116.353 101.89V106.51L118.843 109ZM123.403 100.6H126.553V106L124.753 107.8H123.403V100.6ZM147.717 97V92.2H144.567V107.8H150.267L152.637 105.43L153.567 106.36L150.927 109H140.457L137.667 106.21V93.79L140.457 91H151.527L153.717 93.19V97H147.717ZM161.441 82.6L164.231 85.39V109H160.121L157.331 106.21V83.8H154.931V82.6H161.441ZM177.491 107.8V109H169.031L164.981 99.97V98.8L171.761 91H175.211V92.2H172.451L166.721 98.8H171.971L175.991 107.8H177.491Z" fill="#343D24"/>
<defs>
<filter id="filter0_d" x="0" y="0" width="258" height="198" filterUnits="userSpaceOnUse" color-interpolation-filters="sRGB">
<feFlood flood-opacity="0" result="BackgroundImageFix"/>
<feColorMatrix in="SourceAlpha" type="matrix" values="0 0 0 0 0 0 0 0 0 0 0 0 0 0 0 0 0 0 127 0"/>
<feOffset dy="4"/>
<feGaussianBlur stdDeviation="2"/>
<feColorMatrix type="matrix" values="0 0 0 0 0 0 0 0 0 0 0 0 0 0 0 0 0 0 0.25 0"/>
<feBlend mode="normal" in2="BackgroundImageFix" result="effect1_dropShadow"/>
<feBlend mode="normal" in="SourceGraphic" in2="effect1_dropShadow" result="shape"/>
</filter>
</defs>
</svg>
