<svg width="258" height="198" viewBox="0 0 258 198" fill="none" xmlns="http://www.w3.org/2000/svg">
<g filter="url(#filter0_d)">
<path d="M4 10C4 4.47715 8.47715 0 14 0H244C249.523 0 254 4.47715 254 10V180C254 185.523 249.523 190 244 190H14C8.47716 190 4 185.523 4 180V10Z" fill="#FFEAEA" fill-opacity="0.9"/>
</g>
<path d="M24.768 18.84H23.488V29.352L21.84 31H15.408L13.76 29.352V18.84H12.48V18.2H18.72V18.84H17.44V30.36H21.488L22.768 29.08V18.84H21.488V18.2H24.768V18.84ZM39.474 30.36V31H32.386V30.36H33.922L31.186 25.816L27.922 30.36H29.426V31H25.682V30.36H27.058L30.786 25.16L26.994 18.84H25.89V18.2H32.946V18.84H31.442L33.746 22.664L36.498 18.84H34.962V18.2H38.706V18.84H37.362L34.146 23.32L38.37 30.36H39.474ZM54.4256 30.36H49.5456V18.84H50.8256V18.2H44.5856V18.84H45.8656V30.36H44.5856V31H55.1456V27.32H54.4256V30.36ZM57.913 31H64.137L65.625 29.512L65.129 29.016L63.785 30.36H60.105V27H64.057L65.545 25.512V22.888L64.057 21.4H57.913L56.425 22.888V29.512L57.913 31ZM60.105 22.04H61.865V26.36H60.105V22.04ZM68.4755 31H71.9795L72.9555 30.024L73.9155 31H77.5475V30.36H76.2675V22.728L74.9395 21.4H68.8755L67.5475 22.728V24.6H70.9075V22.04H72.5875V25.88H68.4755L67.1475 27.208V29.672L68.4755 31ZM70.9075 26.52H72.5875V29.4L71.6275 30.36H70.9075V26.52ZM89.891 30.36V31H86.419L85.299 29.864L84.163 31H80.163L78.675 29.512V22.888L80.163 21.4H84.067L84.931 22.264V17.56H83.651V16.92H87.123L88.611 18.408V30.36H89.891ZM84.931 29.24V23.256L83.715 22.04H82.435V30.36H83.811L84.931 29.24ZM12.8 55.16H13.52V56.888L14.992 58.36H20.144L12.96 49.896V47.688L14.448 46.2H20.736L21.856 47.32V46.04H22.576V50.04H21.856V48.312L20.384 46.84H15.712L22.896 55.304V57.512L21.408 59H14.64L13.52 57.88V59.16H12.8V55.16ZM29.7031 52.6V50.04H28.0231V58.36H31.0631L32.3271 57.096L32.8231 57.592L31.4151 59H25.8311L24.3431 57.512V50.888L25.8311 49.4H31.7351L32.9031 50.568V52.6H29.7031ZM42.6706 50.568L42.1746 51.064L41.1506 50.04H39.7906L38.6706 51.16V58.36H39.9506V59H36.4786L34.9906 57.512V50.04H33.7106V49.4H37.1826L38.3186 50.52L39.4386 49.4H41.5026L42.6706 50.568ZM55.0719 58.36V59H51.5999L50.4799 57.864L49.3439 59H45.7599L44.2719 57.512V50.04H42.9919V49.4H46.3839L47.8719 50.888V58.36H48.9919L50.1119 57.24V49.4H52.3039L53.7919 50.888V58.36H55.0719ZM73.8706 58.36V59H70.3186L68.9906 57.672V50.04H67.8706L66.7506 51.16V58.36H67.7106V59H63.0706V50.04H61.9506L60.8306 51.16V58.36H61.7906V59H55.8706V58.36H57.1506V50.04H55.8706V49.4H59.3426L60.4786 50.52L61.5986 49.4H65.2626L66.3986 50.52L67.5186 49.4H71.1026L72.5906 50.888V58.36H73.8706ZM95.044 46.84V58.36H96.164V59H89.764V58.36H91.364V46.936L88.212 59H84.452L80.98 46.872V58.36H82.58V59H78.98V58.36H80.26V46.84H78.98V46.2H84.548L87.828 57.656L90.82 46.2H96.164V46.84H95.044ZM98.9286 59H102.433L103.409 58.024L104.369 59H108.001V58.36H106.721V50.728L105.393 49.4H99.3286L98.0006 50.728V52.6H101.361V50.04H103.041V53.88H98.9286L97.6006 55.208V57.672L98.9286 59ZM101.361 54.52H103.041V57.4L102.081 58.36H101.361V54.52ZM110.008 59.16V57.912L111.096 59H116.136L117.464 57.672V55.736L112.088 50.04H115.144L116.584 51.48V52.68H117.304V49.24H116.584V50.488L115.496 49.4H110.776L109.448 50.728V52.664L114.824 58.36H111.448L110.008 56.92V55.72H109.288V59.16H110.008ZM126.018 57.512L124.53 59H121.346L119.858 57.512V47.32H118.738V46.68H121.97L123.298 48.008V50.36H125.538V51H123.298V58.36H124.178L125.522 57.016L126.018 57.512ZM128.632 59H134.856L136.344 57.512L135.848 57.016L134.504 58.36H130.824V55H134.776L136.264 53.512V50.888L134.776 49.4H128.632L127.144 50.888V57.512L128.632 59ZM130.824 50.04H132.584V54.36H130.824V50.04ZM146.186 50.568L145.69 51.064L144.666 50.04H143.306L142.186 51.16V58.36H143.466V59H139.994L138.506 57.512V50.04H137.226V49.4H140.698L141.834 50.52L142.954 49.4H145.018L146.186 50.568ZM9.776 87.896L11.12 89.24H13.68V74.84H12.4V74.2H18.48V74.84H17.36V88.392L15.872 89.88H10.768L9.28 88.392L9.776 87.896ZM21.0849 87H24.5889L25.5649 86.024L26.5249 87H30.1569V86.36H28.8769V78.728L27.5489 77.4H21.4849L20.1569 78.728V80.6H23.5169V78.04H25.1969V81.88H21.0849L19.7569 83.208V85.672L21.0849 87ZM23.5169 82.52H25.1969V85.4L24.2369 86.36H23.5169V82.52ZM42.4684 78.04H41.3804L38.4684 87H34.8044L31.8924 78.04H30.8044V77.4H36.7084V78.04H35.5564L38.0844 85.816L40.6124 78.04H39.4604V77.4H42.4684V78.04ZM45.0693 87H48.5733L49.5493 86.024L50.5093 87H54.1413V86.36H52.8613V78.728L51.5333 77.4H45.4693L44.1413 78.728V80.6H47.5013V78.04H49.1813V81.88H45.0693L43.7413 83.208V85.672L45.0693 87ZM47.5013 82.52H49.1813V85.4L48.2213 86.36H47.5013V82.52ZM55.2688 83.16H55.9888V84.888L57.4608 86.36H62.6128L55.4288 77.896V75.688L56.9168 74.2H63.2048L64.3248 75.32V74.04H65.0448V78.04H64.3248V76.312L62.8528 74.84H58.1808L65.3648 83.304V85.512L63.8767 87H57.1088L55.9888 85.88V87.16H55.2688V83.16ZM72.1719 80.6V78.04H70.4919V86.36H73.5319L74.7959 85.096L75.2919 85.592L73.8839 87H68.2999L66.8119 85.512V78.888L68.2999 77.4H74.2039L75.3719 78.568V80.6H72.1719ZM85.1394 78.568L84.6434 79.064L83.6194 78.04H82.2594L81.1394 79.16V86.36H82.4194V87H78.9474L77.4594 85.512V78.04H76.1794V77.4H79.6514L80.7874 78.52L81.9074 77.4H83.9714L85.1394 78.568ZM88.3726 76.12L85.9406 73.672L88.3886 71.24L90.8206 73.688L88.3726 76.12ZM91.7006 86.36V87H88.2286L86.7406 85.512V78.04H85.4606V77.4H88.9326L90.4206 78.888V86.36H91.7006ZM93.6156 78.04V90.792L95.1036 92.28H98.4156V91.64H97.2956V86.232L98.0636 87H101.808L103.296 85.512V78.888L101.808 77.4H98.0636L96.9436 78.52L95.8076 77.4H92.3356V78.04H93.6156ZM97.2956 79.16L98.4156 78.04H99.5356V86.36H98.4156L97.2956 85.24V79.16ZM111.534 85.512L110.046 87H106.862L105.374 85.512V75.32H104.254V74.68H107.486L108.814 76.008V78.36H111.054V79H108.814V86.36H109.694L111.038 85.016L111.534 85.512ZM19.04 115V114.36H17.76V108.92H20.368V113.672L21.696 115H25.328V114.36H24.048V109.928L22.72 108.6L24.048 107.272V103.688L22.56 102.2H12.8V102.84H14.08V114.36H12.8V115H19.04ZM17.76 102.84H20.368V108.28H17.76V102.84ZM27.6161 115H33.8401L35.3281 113.512L34.8321 113.016L33.4881 114.36H29.8081V111H33.7601L35.2481 109.512V106.888L33.7601 105.4H27.6161L26.1281 106.888V113.512L27.6161 115ZM29.8081 106.04H31.5681V110.36H29.8081V106.04ZM38.1786 115H41.6826L42.6586 114.024L43.6186 115H47.2506V114.36H45.9706V106.728L44.6426 105.4H38.5786L37.2506 106.728V108.6H40.6106V106.04H42.2906V109.88H38.1786L36.8506 111.208V113.672L38.1786 115ZM40.6106 110.52H42.2906V113.4L41.3306 114.36H40.6106V110.52ZM53.5781 108.6V106.04H51.8981V114.36H54.9381L56.2021 113.096L56.6981 113.592L55.2901 115H49.7061L48.2181 113.512V106.888L49.7061 105.4H55.6101L56.7781 106.568V108.6H53.5781ZM64.7056 113.512L63.2176 115H60.0336L58.5456 113.512V103.32H57.4256V102.68H60.6576L61.9856 104.008V106.36H64.2256V107H61.9856V114.36H62.8656L64.2096 113.016L64.7056 113.512ZM22.608 143V139.32H21.888V142.36H17.28V136.76H21.408V136.12H17.28V130.84H21.888V133.88H22.608V130.2H12.32V130.84H13.6V142.36H12.32V143H22.608ZM23.7225 133.4H29.5305V134.04H28.5705L30.3305 136.792L32.2505 134.04H31.4185V133.4H34.2665V134.04H33.1145L30.7305 137.432L33.8665 142.36H34.9065V143H28.8905V142.36H30.0585L28.0425 139.208L25.8345 142.36H26.9865V143H23.8825V142.36H24.9705L27.6425 138.552L24.7625 134.04H23.7225V133.4ZM36.8188 134.04V146.792L38.3068 148.28H41.6188V147.64H40.4988V142.232L41.2668 143H45.0108L46.4988 141.512V134.888L45.0108 133.4H41.2668L40.1468 134.52L39.0108 133.4H35.5388V134.04H36.8188ZM40.4988 135.16L41.6188 134.04H42.7388V142.36H41.6188L40.4988 141.24V135.16ZM56.5769 134.568L56.0809 135.064L55.0569 134.04H53.6969L52.5769 135.16V142.36H53.8569V143H50.3849L48.8969 141.512V134.04H47.6169V133.4H51.0889L52.2249 134.52L53.3449 133.4H55.4089L56.5769 134.568ZM58.8661 143H65.0901L66.5781 141.512L66.0821 141.016L64.7381 142.36H61.0581V139H65.0101L66.4981 137.512V134.888L65.0101 133.4H58.8661L57.3781 134.888V141.512L58.8661 143ZM61.0581 134.04H62.8181V138.36H61.0581V134.04ZM68.8206 143.16V141.912L69.9086 143H74.9486L76.2766 141.672V139.736L70.9006 134.04H73.9566L75.3966 135.48V136.68H76.1166V133.24H75.3966V134.488L74.3086 133.4H69.5886L68.2606 134.728V136.664L73.6366 142.36H70.2606L68.8206 140.92V139.72H68.1006V143.16H68.8206ZM79.0706 143.16V141.912L80.1586 143H85.1986L86.5266 141.672V139.736L81.1506 134.04H84.2066L85.6466 135.48V136.68H86.3666V133.24H85.6466V134.488L84.5586 133.4H79.8386L78.5106 134.728V136.664L83.8866 142.36H80.5106L79.0706 140.92V139.72H78.3506V143.16H79.0706ZM25.984 158.84H24.704V171H20.384L14.32 158.84V170.36H15.6V171H12.32V170.36H13.6V158.84H12.32V158.2H17.92L23.984 170.36V158.84H22.704V158.2H25.984V158.84ZM36.2809 163.048V169.352L34.6329 171H28.7449L27.0969 169.352V163.048L28.7449 161.4H34.6329L36.2809 163.048ZM30.9369 162.04V170.36H32.4409V162.04H30.9369ZM49.0941 170.36V171H45.6221L44.5021 169.864L43.3661 171H39.3661L37.8781 169.512V162.888L39.3661 161.4H43.2701L44.1341 162.264V157.56H42.8541V156.92H46.3261L47.8141 158.408V170.36H49.0941ZM44.1341 169.24V163.256L42.9181 162.04H41.6381V170.36H43.0141L44.1341 169.24ZM51.538 171H57.762L59.25 169.512L58.754 169.016L57.41 170.36H53.73V167H57.682L59.17 165.512V162.888L57.682 161.4H51.538L50.05 162.888V169.512L51.538 171ZM53.73 162.04H55.49V166.36H53.73V162.04ZM57.5885 171.896L58.9325 173.24H61.4925V158.84H60.2125V158.2H66.2925V158.84H65.1725V172.392L63.6845 173.88H58.5805L57.0925 172.392L57.5885 171.896ZM67.4094 167.16H68.1294V168.888L69.6014 170.36H74.7534L67.5694 161.896V159.688L69.0574 158.2H75.3454L76.4654 159.32V158.04H77.1854V162.04H76.4654V160.312L74.9934 158.84H70.3214L77.5054 167.304V169.512L76.0174 171H69.2494L68.1294 169.88V171.16H67.4094V167.16Z" fill="#343D24"/>
<path d="M218.28 19.848L219.928 18.2H226.408L227.528 19.32V18.04H228.248V22.04H227.528V20.312L226.056 18.84H221.96V30.36H223.96L225.16 29.16V25.08H223.88V24.44H229.88V25.08H228.76V31H226.728L225.528 29.784L224.312 31H219.928L218.28 29.352V19.848ZM233.591 20.12L231.159 17.672L233.607 15.24L236.039 17.688L233.591 20.12ZM236.919 30.36V31H233.447L231.959 29.512V22.04H230.679V21.4H234.151L235.639 22.888V30.36H236.919ZM244.674 29.512L243.186 31H240.002L238.514 29.512V19.32H237.394V18.68H240.626L241.954 20.008V22.36H244.194V23H241.954V30.36H242.834L244.178 29.016L244.674 29.512ZM191.763 59V58.36H190.483V53.08H194.291V52.44H190.483V46.84H194.931V49.88H195.651V46.2H185.523V46.84H186.803V58.36H185.523V59H191.763ZM199.201 48.12L196.769 45.672L199.217 43.24L201.649 45.688L199.201 48.12ZM202.529 58.36V59H199.057L197.569 57.512V50.04H196.289V49.4H199.761L201.249 50.888V58.36H202.529ZM213.564 49.4V61.512L212.076 63H204.972L203.644 61.672V59.8H207.244V62.36H209.884V57.272L209.116 58.04H205.212L203.724 56.552V50.888L205.212 49.4H209.116L210.252 50.52L211.372 49.4H213.564ZM209.884 56.28V51.16L208.764 50.04H207.324V57.4H208.764L209.884 56.28ZM232.839 58.36V59H229.287L227.959 57.672V50.04H226.839L225.719 51.16V58.36H226.679V59H222.039V50.04H220.919L219.799 51.16V58.36H220.759V59H214.839V58.36H216.119V50.04H214.839V49.4H218.311L219.447 50.52L220.567 49.4H224.231L225.367 50.52L226.487 49.4H230.071L231.559 50.888V58.36H232.839ZM235.601 59H239.105L240.081 58.024L241.041 59H244.673V58.36H243.393V50.728L242.065 49.4H236.001L234.673 50.728V52.6H238.033V50.04H239.713V53.88H235.601L234.273 55.208V57.672L235.601 59ZM238.033 54.52H239.713V57.4L238.753 58.36H238.033V54.52ZM188.904 74.2H182.824V74.84H183.944V80.12H180.264V74.84H181.384V74.2H175.304V74.84H176.584V86.36H175.304V87H181.384V86.36H180.264V80.76H183.944V86.36H182.824V87H188.904V86.36H187.624V74.84H188.904V74.2ZM191.507 87H197.731L199.219 85.512L198.723 85.016L197.379 86.36H193.699V83H197.651L199.139 81.512V78.888L197.651 77.4H191.507L190.019 78.888V85.512L191.507 87ZM193.699 78.04H195.459V82.36H193.699V78.04ZM209.061 78.568L208.565 79.064L207.541 78.04H206.181L205.061 79.16V86.36H206.341V87H202.869L201.381 85.512V78.04H200.101V77.4H203.573L204.709 78.52L205.829 77.4H207.893L209.061 78.568ZM219.047 79.048V85.352L217.399 87H211.511L209.863 85.352V79.048L211.511 77.4H217.399L219.047 79.048ZM213.703 78.04V86.36H215.207V78.04H213.703ZM223.476 72.92L224.964 74.408V87H222.772L221.284 85.512V73.56H220.004V72.92H223.476ZM232.036 86.36V87H227.524L225.364 82.184V81.56L228.98 77.4H230.82V78.04H229.348L226.292 81.56H229.092L231.236 86.36H232.036ZM244.681 86.36V87H241.209L240.089 85.864L238.953 87H235.369L233.881 85.512V78.04H232.601V77.4H235.993L237.481 78.888V86.36H238.601L239.721 85.24V77.4H241.913L243.401 78.888V86.36H244.681ZM135.052 103.688V107.912L133.404 109.56H128.604V114.36H129.884V115H123.644V114.36H124.924V102.84H123.644V102.2H133.564L135.052 103.688ZM128.604 108.92H131.372V102.84H128.604V108.92ZM145.843 107.048V113.352L144.195 115H138.307L136.659 113.352V107.048L138.307 105.4H144.195L145.843 107.048ZM140.499 106.04V114.36H142.003V106.04H140.499ZM148.321 115.16V113.912L149.409 115H154.449L155.777 113.672V111.736L150.401 106.04H153.457L154.897 107.48V108.68H155.617V105.24H154.897V106.488L153.809 105.4H149.089L147.761 106.728V108.664L153.137 114.36H149.761L148.321 112.92V111.72H147.601V115.16H148.321ZM164.331 113.512L162.843 115H159.659L158.171 113.512V103.32H157.051V102.68H160.283L161.611 104.008V106.36H163.851V107H161.611V114.36H162.491L163.835 113.016L164.331 113.512ZM175.376 105.4V117.512L173.888 119H166.784L165.456 117.672V115.8H169.056V118.36H171.696V113.272L170.928 114.04H167.024L165.536 112.552V106.888L167.024 105.4H170.928L172.064 106.52L173.184 105.4H175.376ZM171.696 112.28V107.16L170.576 106.04H169.136V113.4H170.576L171.696 112.28ZM185.452 106.568L184.956 107.064L183.932 106.04H182.572L181.452 107.16V114.36H182.732V115H179.26L177.772 113.512V106.04H176.492V105.4H179.964L181.1 106.52L182.22 105.4H184.284L185.452 106.568ZM187.741 115H193.965L195.453 113.512L194.957 113.016L193.613 114.36H189.933V111H193.885L195.373 109.512V106.888L193.885 105.4H187.741L186.253 106.888V113.512L187.741 115ZM189.933 106.04H191.693V110.36H189.933V106.04ZM197.696 115.16V113.912L198.784 115H203.824L205.152 113.672V111.736L199.776 106.04H202.832L204.272 107.48V108.68H204.992V105.24H204.272V106.488L203.184 105.4H198.464L197.136 106.728V108.664L202.512 114.36H199.136L197.696 112.92V111.72H196.976V115.16H197.696ZM211.222 111.16H211.942V112.888L213.414 114.36H218.566L211.382 105.896V103.688L212.87 102.2H219.158L220.278 103.32V102.04H220.998V106.04H220.278V104.312L218.806 102.84H214.134L221.318 111.304V113.512L219.83 115H213.062L211.942 113.88V115.16H211.222V111.16ZM224.573 115H225.885V117.176L227.373 118.664L231.485 118.68V118.04H229.885V115.016H231.197L232.845 113.368V103.864L231.197 102.216L224.573 102.2L222.925 103.848V113.352L224.573 115ZM229.165 102.856V114.376L226.605 114.36V102.84L229.165 102.856ZM243.801 114.36H238.921V102.84H240.201V102.2H233.961V102.84H235.241V114.36H233.961V115H244.521V111.32H243.801V114.36ZM210.878 131.848L212.526 130.2H218.846L219.966 131.32V130.04H220.686V134.36H219.966V132.312L218.494 130.84H214.558V142.36H218.862L220.302 140.92L220.798 141.416L219.214 143H212.526L210.878 141.352V131.848ZM222.394 139.16H223.114V140.888L224.586 142.36H229.738L222.554 133.896V131.688L224.042 130.2H230.33L231.45 131.32V130.04H232.17V134.04H231.45V132.312L229.978 130.84H225.306L232.49 139.304V141.512L231.002 143H224.234L223.114 141.88V143.16H222.394V139.16ZM234.097 139.16H234.817V140.888L236.289 142.36H241.441L234.257 133.896V131.688L235.745 130.2H242.033L243.153 131.32V130.04H243.873V134.04H243.153V132.312L241.681 130.84H237.009L244.193 139.304V141.512L242.705 143H235.937L234.817 141.88V143.16H234.097V139.16ZM192.061 158.2H185.981V158.84H187.101V164.12H183.421V158.84H184.541V158.2H178.461V158.84H179.741V170.36H178.461V171H184.541V170.36H183.421V164.76H187.101V170.36H185.981V171H192.061V170.36H190.781V158.84H192.061V158.2ZM193.895 161.88V158.84H196.775V170.36H195.495V171H201.735V170.36H200.455V158.84H203.335V161.88H204.055V158.2H193.175V161.88H193.895ZM221.403 158.84V170.36H222.523V171H216.123V170.36H217.723V158.936L214.571 171H210.811L207.339 158.872V170.36H208.939V171H205.339V170.36H206.619V158.84H205.339V158.2H210.907L214.187 169.656L217.179 158.2H222.523V158.84H221.403ZM233.16 170.36H228.28V158.84H229.56V158.2H223.32V158.84H224.6V170.36H223.32V171H233.88V167.32H233.16V170.36ZM236.007 171H242.871L244.359 169.512V165.288L243.031 163.8H238.679V159.16H244.039V158.52H234.999V163.432L236.007 164.44H240.679V170.36H238.679V167.48H234.999V169.992L236.007 171Z" fill="#343D24"/>
<defs>
<filter id="filter0_d" x="0" y="0" width="258" height="198" filterUnits="userSpaceOnUse" color-interpolation-filters="sRGB">
<feFlood flood-opacity="0" result="BackgroundImageFix"/>
<feColorMatrix in="SourceAlpha" type="matrix" values="0 0 0 0 0 0 0 0 0 0 0 0 0 0 0 0 0 0 127 0"/>
<feOffset dy="4"/>
<feGaussianBlur stdDeviation="2"/>
<feColorMatrix type="matrix" values="0 0 0 0 0 0 0 0 0 0 0 0 0 0 0 0 0 0 0.25 0"/>
<feBlend mode="normal" in2="BackgroundImageFix" result="effect1_dropShadow"/>
<feBlend mode="normal" in="SourceGraphic" in2="effect1_dropShadow" result="shape"/>
</filter>
</defs>
</svg>
