<svg width="258" height="198" viewBox="0 0 258 198" fill="none" xmlns="http://www.w3.org/2000/svg">
<g filter="url(#filter0_d)">
<rect x="4" width="250" height="190" rx="50" fill="#FFEAEA" fill-opacity="0.9"/>
</g>
<path d="M76.8188 103.32H78.2588V106.776L81.2028 109.72H91.5068L77.1388 92.792V88.376L80.1148 85.4H92.6908L94.9308 87.64V85.08H96.3708V93.08H94.9308V89.624L91.9868 86.68H82.6428L97.0108 103.608V108.024L94.0347 111H80.4988L78.2588 108.76V111.32H76.8188V103.32ZM113.505 108.024L110.529 111H104.161L101.185 108.024V87.64H98.945V86.36H105.409L108.065 89.016V93.72H112.545V95H108.065V109.72H109.825L112.513 107.032L113.505 108.024ZM118.732 111H125.74L127.692 109.048L129.612 111H136.876V109.72H134.316V94.456L131.66 91.8H119.532L116.876 94.456V98.2H123.596V93.08H126.956V100.76H118.732L116.076 103.416V108.344L118.732 111ZM123.596 102.04H126.956V107.8L125.036 109.72H123.596V102.04ZM149.531 98.2V93.08H146.171V109.72H152.251L154.779 107.192L155.771 108.184L152.955 111H141.787L138.811 108.024V94.776L141.787 91.8H153.595L155.931 94.136V98.2H149.531ZM164.17 82.84L167.146 85.816V111H162.762L159.786 108.024V84.12H157.226V82.84H164.17ZM181.29 109.72V111H172.266L167.946 101.368V100.12L175.178 91.8H178.858V93.08H175.914L169.802 100.12H175.402L179.69 109.72H181.29Z" fill="#343D24"/>
<defs>
<filter id="filter0_d" x="0" y="0" width="258" height="198" filterUnits="userSpaceOnUse" color-interpolation-filters="sRGB">
<feFlood flood-opacity="0" result="BackgroundImageFix"/>
<feColorMatrix in="SourceAlpha" type="matrix" values="0 0 0 0 0 0 0 0 0 0 0 0 0 0 0 0 0 0 127 0"/>
<feOffset dy="4"/>
<feGaussianBlur stdDeviation="2"/>
<feColorMatrix type="matrix" values="0 0 0 0 0 0 0 0 0 0 0 0 0 0 0 0 0 0 0.25 0"/>
<feBlend mode="normal" in2="BackgroundImageFix" result="effect1_dropShadow"/>
<feBlend mode="normal" in="SourceGraphic" in2="effect1_dropShadow" result="shape"/>
</filter>
</defs>
</svg>
