<svg width="661" height="504" viewBox="0 0 661 504" fill="none" xmlns="http://www.w3.org/2000/svg">
<g filter="url(#filter0_d)">
<rect x="4" width="653" height="496" rx="50" fill="#0E151B" fill-opacity="0.9"/>
</g>
<path d="M197.094 215.469C196.01 215.115 195.219 214.885 194.719 214.781C193.969 214.635 193.01 214.563 191.844 214.563C190.698 214.563 189.521 214.802 188.312 215.281C187.271 215.698 186.375 216.292 185.625 217.063C184.917 217.771 184.365 218.667 183.969 219.75C183.573 220.813 183.375 222.021 183.375 223.375C183.375 226.021 184.156 228.156 185.719 229.781C186.469 230.531 187.396 231.135 188.5 231.594C189.604 232.052 190.812 232.281 192.125 232.281C194.042 232.281 195.76 231.906 197.281 231.156L196.781 229.531C195.302 230.094 193.958 230.375 192.75 230.375C191.292 230.375 190.01 230.073 188.906 229.469C187.906 228.885 187.115 228.073 186.531 227.031C185.948 225.969 185.656 224.74 185.656 223.344C185.656 221.906 185.906 220.667 186.406 219.625C186.927 218.563 187.667 217.75 188.625 217.188C189.542 216.688 190.812 216.437 192.437 216.437C193.25 216.437 193.938 216.5 194.5 216.625C195.083 216.729 195.75 216.906 196.5 217.156L197.094 215.469ZM201.968 227.719C201.968 228.74 202.166 229.469 202.562 229.906C202.957 230.344 203.634 230.563 204.593 230.563C205.572 230.563 206.666 230.281 207.874 229.719V220H209.905V232H208.499L208.062 231.125C206.541 231.917 205.134 232.312 203.843 232.312C202.593 232.312 201.624 231.948 200.937 231.219C200.27 230.49 199.937 229.49 199.937 228.219V220H201.968V227.719ZM218.552 219.844C219.01 219.844 219.375 219.875 219.646 219.938C219.937 219.979 220.218 220.063 220.489 220.188L219.771 222C219.229 221.75 218.635 221.625 217.989 221.625C217.114 221.625 216.25 221.917 215.396 222.5V232H213.364V220H214.833L215.271 221.031C216.312 220.24 217.406 219.844 218.552 219.844ZM227.707 219.844C228.165 219.844 228.53 219.875 228.801 219.938C229.092 219.979 229.374 220.063 229.645 220.188L228.926 222C228.384 221.75 227.79 221.625 227.145 221.625C226.27 221.625 225.405 221.917 224.551 222.5V232H222.52V220H223.988L224.426 221.031C225.467 220.24 226.561 219.844 227.707 219.844ZM236.487 219.844C238.071 219.844 239.289 220.323 240.144 221.281C240.998 222.219 241.425 223.552 241.425 225.281V226.375L241.3 226.625H233.081C233.081 227.646 233.466 228.594 234.237 229.469C234.966 230.198 236.102 230.563 237.644 230.563C238.664 230.563 239.633 230.406 240.55 230.094L240.925 231.594C239.654 232.031 238.373 232.25 237.081 232.25C235.144 232.25 233.664 231.729 232.644 230.688C231.623 229.646 231.112 228.156 231.112 226.219C231.112 224.385 231.56 222.875 232.456 221.688C233.414 220.458 234.758 219.844 236.487 219.844ZM239.362 225C239.362 223.958 239.133 223.104 238.675 222.438C238.237 221.771 237.581 221.438 236.706 221.438C235.602 221.438 234.758 221.771 234.175 222.438C233.591 223.104 233.237 223.958 233.112 225H239.362ZM252.234 224.375C252.234 223.354 252.036 222.625 251.641 222.188C251.266 221.75 250.599 221.531 249.641 221.531C248.62 221.531 247.516 221.813 246.328 222.375V232H244.297V220H245.703L246.141 221C247.578 220.208 248.984 219.813 250.359 219.813C251.63 219.813 252.599 220.177 253.266 220.906C253.932 221.615 254.266 222.604 254.266 223.875V232H252.234V224.375ZM261.776 232.25C260.568 232.25 259.703 231.927 259.183 231.281C258.683 230.615 258.433 229.615 258.433 228.281V221.688H256.401V220H258.433V217.063L260.464 216.906V220H264.401V221.688H260.464V228.156C260.464 228.99 260.589 229.594 260.839 229.969C261.11 230.344 261.62 230.531 262.37 230.531C263.078 230.531 263.714 230.469 264.276 230.344L264.62 231.719C263.683 232.073 262.735 232.25 261.776 232.25ZM270.491 230.406C270.804 230.406 271.158 230.344 271.554 230.219L271.929 231.688C271.866 231.708 271.616 231.813 271.179 232C270.741 232.187 270.179 232.281 269.491 232.281C268.72 232.281 268.106 232.021 267.647 231.5C267.189 230.958 266.95 230.26 266.929 229.406V215.344H268.897V228.688C268.897 229.25 268.991 229.677 269.179 229.969C269.366 230.26 269.804 230.406 270.491 230.406ZM277.345 238.437H275.251L277.563 232.625L272.751 220H274.876L278.563 229.938L282.251 220H284.188L277.345 238.437ZM294.658 217.688C294.283 217.688 293.971 217.563 293.721 217.313C293.471 217.042 293.346 216.729 293.346 216.375C293.346 216.042 293.471 215.75 293.721 215.5C293.971 215.229 294.283 215.094 294.658 215.094C295.012 215.094 295.314 215.229 295.564 215.5C295.814 215.75 295.939 216.042 295.939 216.375C295.939 216.729 295.814 217.042 295.564 217.313C295.335 217.563 295.033 217.688 294.658 217.688ZM295.658 232H293.627V220H295.658V232ZM307.166 224.375C307.166 223.354 306.968 222.625 306.572 222.188C306.197 221.75 305.531 221.531 304.572 221.531C303.551 221.531 302.447 221.813 301.26 222.375V232H299.229V220H300.635L301.072 221C302.51 220.208 303.916 219.813 305.291 219.813C306.562 219.813 307.531 220.177 308.197 220.906C308.864 221.615 309.197 222.604 309.197 223.875V232H307.166V224.375ZM324.468 232.25C322.676 232.25 321.301 231.698 320.343 230.594C319.384 229.469 318.905 227.979 318.905 226.125C318.905 224.083 319.478 222.49 320.624 221.344C321.728 220.281 323.103 219.75 324.749 219.75C325.853 219.75 326.791 219.938 327.562 220.312V215.375H329.687V232H328.187L327.843 231.156C326.718 231.885 325.593 232.25 324.468 232.25ZM324.874 230.531C325.437 230.531 325.905 230.479 326.28 230.375C326.676 230.25 327.103 230.063 327.562 229.813V221.875C326.791 221.563 325.905 221.406 324.905 221.406C323.614 221.406 322.634 221.823 321.968 222.656C321.322 223.49 320.999 224.604 320.999 226C320.999 227.375 321.322 228.479 321.968 229.313C322.634 230.125 323.603 230.531 324.874 230.531ZM338.001 219.844C339.584 219.844 340.803 220.323 341.657 221.281C342.511 222.219 342.938 223.552 342.938 225.281V226.375L342.813 226.625H334.595C334.595 227.646 334.98 228.594 335.751 229.469C336.48 230.198 337.616 230.563 339.157 230.563C340.178 230.563 341.147 230.406 342.063 230.094L342.438 231.594C341.168 232.031 339.886 232.25 338.595 232.25C336.657 232.25 335.178 231.729 334.157 230.688C333.136 229.646 332.626 228.156 332.626 226.219C332.626 224.385 333.074 222.875 333.97 221.688C334.928 220.458 336.272 219.844 338.001 219.844ZM340.876 225C340.876 223.958 340.647 223.104 340.188 222.438C339.751 221.771 339.095 221.438 338.22 221.438C337.116 221.438 336.272 221.771 335.688 222.438C335.105 223.104 334.751 223.958 334.626 225H340.876ZM349.217 232L344.748 220H346.936L350.248 229.406L350.373 230.031L350.467 229.406L353.811 220H355.904L351.467 232H349.217ZM363.147 219.844C364.731 219.844 365.95 220.323 366.804 221.281C367.658 222.219 368.085 223.552 368.085 225.281V226.375L367.96 226.625H359.741C359.741 227.646 360.127 228.594 360.897 229.469C361.627 230.198 362.762 230.563 364.304 230.563C365.325 230.563 366.293 230.406 367.21 230.094L367.585 231.594C366.314 232.031 365.033 232.25 363.741 232.25C361.804 232.25 360.325 231.729 359.304 230.688C358.283 229.646 357.772 228.156 357.772 226.219C357.772 224.385 358.22 222.875 359.116 221.688C360.075 220.458 361.418 219.844 363.147 219.844ZM366.022 225C366.022 223.958 365.793 223.104 365.335 222.438C364.897 221.771 364.241 221.438 363.366 221.438C362.262 221.438 361.418 221.771 360.835 222.438C360.252 223.104 359.897 223.958 359.772 225H366.022ZM374.52 230.406C374.832 230.406 375.186 230.344 375.582 230.219L375.957 231.688C375.895 231.708 375.645 231.813 375.207 232C374.77 232.187 374.207 232.281 373.52 232.281C372.749 232.281 372.134 232.021 371.676 231.5C371.217 230.958 370.978 230.26 370.957 229.406V215.344H372.926V228.688C372.926 229.25 373.02 229.677 373.207 229.969C373.395 230.26 373.832 230.406 374.52 230.406ZM383.029 232.281C381.217 232.281 379.8 231.719 378.779 230.594C377.779 229.469 377.279 227.958 377.279 226.063C377.279 224.146 377.79 222.635 378.811 221.531C379.852 220.406 381.29 219.844 383.123 219.844C384.956 219.844 386.373 220.396 387.373 221.5C388.373 222.604 388.873 224.115 388.873 226.031C388.873 227.906 388.352 229.417 387.311 230.563C386.269 231.708 384.842 232.281 383.029 232.281ZM383.123 221.438C381.936 221.438 381.008 221.875 380.342 222.75C379.696 223.625 379.373 224.729 379.373 226.063C379.373 227.396 379.696 228.49 380.342 229.344C381.008 230.198 381.936 230.625 383.123 230.625C384.29 230.625 385.196 230.198 385.842 229.344C386.488 228.469 386.811 227.375 386.811 226.063C386.811 224.729 386.477 223.625 385.811 222.75C385.165 221.875 384.269 221.438 383.123 221.438ZM391.869 220H393.307L393.713 220.906C394.734 220.198 395.859 219.844 397.088 219.844C398.255 219.844 399.244 220.094 400.057 220.594C401.786 221.677 402.65 223.438 402.65 225.875C402.65 227.958 402.067 229.563 400.9 230.688C399.755 231.771 398.39 232.312 396.807 232.312C395.786 232.312 394.817 232.115 393.9 231.719V238.5H391.869V220ZM396.588 221.531C396.005 221.531 395.515 221.583 395.119 221.688C394.744 221.792 394.338 221.979 393.9 222.25V230.125C394.713 230.5 395.598 230.688 396.557 230.688C397.807 230.688 398.775 230.26 399.463 229.406C400.15 228.552 400.494 227.448 400.494 226.094C400.494 224.698 400.161 223.594 399.494 222.781C398.827 221.948 397.859 221.531 396.588 221.531ZM419.896 224.375C419.896 222.417 419.114 221.438 417.552 221.438C416.781 221.438 415.823 221.792 414.677 222.5C414.739 222.729 414.771 223.188 414.771 223.875V232H412.739V224.375C412.739 222.417 411.948 221.438 410.364 221.438C409.614 221.438 408.687 221.74 407.583 222.344V232H405.552V220H406.958L407.396 221C408.104 220.521 408.76 220.188 409.364 220C409.843 219.875 410.396 219.813 411.021 219.813C411.708 219.813 412.312 219.948 412.833 220.219C413.375 220.49 413.812 220.865 414.146 221.344C414.833 220.844 415.489 220.469 416.114 220.219C416.739 219.948 417.427 219.813 418.177 219.813C419.406 219.813 420.343 220.188 420.989 220.938C421.656 221.667 421.989 222.646 421.989 223.875V232H419.896V224.375ZM430.188 219.844C431.772 219.844 432.991 220.323 433.845 221.281C434.699 222.219 435.126 223.552 435.126 225.281V226.375L435.001 226.625H426.782C426.782 227.646 427.168 228.594 427.938 229.469C428.668 230.198 429.803 230.563 431.345 230.563C432.366 230.563 433.334 230.406 434.251 230.094L434.626 231.594C433.355 232.031 432.074 232.25 430.782 232.25C428.845 232.25 427.366 231.729 426.345 230.688C425.324 229.646 424.813 228.156 424.813 226.219C424.813 224.385 425.261 222.875 426.157 221.688C427.116 220.458 428.459 219.844 430.188 219.844ZM433.063 225C433.063 223.958 432.834 223.104 432.376 222.438C431.938 221.771 431.282 221.438 430.407 221.438C429.303 221.438 428.459 221.771 427.876 222.438C427.293 223.104 426.938 223.958 426.813 225H433.063ZM445.936 224.375C445.936 223.354 445.738 222.625 445.342 222.188C444.967 221.75 444.3 221.531 443.342 221.531C442.321 221.531 441.217 221.813 440.029 222.375V232H437.998V220H439.404L439.842 221C441.279 220.208 442.686 219.813 444.061 219.813C445.331 219.813 446.3 220.177 446.967 220.906C447.633 221.615 447.967 222.604 447.967 223.875V232H445.936V224.375ZM455.478 232.25C454.269 232.25 453.405 231.927 452.884 231.281C452.384 230.615 452.134 229.615 452.134 228.281V221.688H450.103V220H452.134V217.063L454.165 216.906V220H458.103V221.688H454.165V228.156C454.165 228.99 454.29 229.594 454.54 229.969C454.811 230.344 455.321 230.531 456.071 230.531C456.78 230.531 457.415 230.469 457.978 230.344L458.321 231.719C457.384 232.073 456.436 232.25 455.478 232.25ZM462.317 232.125C461.901 232.125 461.557 231.99 461.286 231.719C461.036 231.448 460.911 231.115 460.911 230.719C460.911 230.323 461.036 229.99 461.286 229.719C461.557 229.448 461.901 229.313 462.317 229.313C462.734 229.313 463.067 229.448 463.317 229.719C463.588 229.99 463.724 230.323 463.724 230.719C463.724 231.115 463.588 231.448 463.317 231.719C463.067 231.99 462.734 232.125 462.317 232.125ZM469.202 232.125C468.785 232.125 468.442 231.99 468.171 231.719C467.921 231.448 467.796 231.115 467.796 230.719C467.796 230.323 467.921 229.99 468.171 229.719C468.442 229.448 468.785 229.313 469.202 229.313C469.619 229.313 469.952 229.448 470.202 229.719C470.473 229.99 470.608 230.323 470.608 230.719C470.608 231.115 470.473 231.448 470.202 231.719C469.952 231.99 469.619 232.125 469.202 232.125ZM476.087 232.125C475.67 232.125 475.326 231.99 475.056 231.719C474.806 231.448 474.681 231.115 474.681 230.719C474.681 230.323 474.806 229.99 475.056 229.719C475.326 229.448 475.67 229.313 476.087 229.313C476.504 229.313 476.837 229.448 477.087 229.719C477.358 229.99 477.493 230.323 477.493 230.719C477.493 231.115 477.358 231.448 477.087 231.719C476.837 231.99 476.504 232.125 476.087 232.125Z" fill="#ED8798"/>
<defs>
<filter id="filter0_d" x="0" y="0" width="661" height="504" filterUnits="userSpaceOnUse" color-interpolation-filters="sRGB">
<feFlood flood-opacity="0" result="BackgroundImageFix"/>
<feColorMatrix in="SourceAlpha" type="matrix" values="0 0 0 0 0 0 0 0 0 0 0 0 0 0 0 0 0 0 127 0"/>
<feOffset dy="4"/>
<feGaussianBlur stdDeviation="2"/>
<feColorMatrix type="matrix" values="0 0 0 0 0 0 0 0 0 0 0 0 0 0 0 0 0 0 0.25 0"/>
<feBlend mode="normal" in2="BackgroundImageFix" result="effect1_dropShadow"/>
<feBlend mode="normal" in="SourceGraphic" in2="effect1_dropShadow" result="shape"/>
</filter>
</defs>
</svg>
