<svg width="661" height="504" viewBox="0 0 661 504" fill="none" xmlns="http://www.w3.org/2000/svg">
<g filter="url(#filter0_d)">
<rect x="4" width="653" height="496" rx="50" fill="#0E151B" fill-opacity="0.9"/>
</g>
<path d="M156.487 156.795C156.441 156.444 156.387 156.092 156.315 155.748C156.249 155.387 156.166 155.029 156.064 154.676L155.795 154.25C154.685 153.381 153.488 152.724 152.272 152.143C151.269 151.671 150.25 151.259 149.218 150.879C146.344 142.923 141.404 135.868 134.908 130.952C128.194 125.872 120.296 123.182 112.072 123.182C103.847 123.182 95.9495 125.872 89.2353 130.953C82.7389 135.868 77.798 142.923 74.9244 150.882C73.8956 151.259 72.8745 151.673 71.8726 152.143C70.6548 152.724 69.4583 153.381 68.3484 154.25L68.0783 154.676C67.9816 155.03 67.8981 155.388 67.8278 155.748C67.7581 156.093 67.7058 156.443 67.6558 156.795C67.5569 157.491 67.4894 158.191 67.4535 158.893C67.3823 160.299 67.4239 161.708 67.5781 163.107C67.7286 164.509 67.9901 165.898 68.3602 167.259C68.5544 167.944 68.7814 168.619 69.0403 169.283C69.1707 169.617 69.3131 169.95 69.4711 170.282C69.5492 170.447 69.6341 170.609 69.7212 170.778C69.9141 171.115 69.9493 171.181 70.0304 171.3L70.3949 171.635C70.6325 171.757 70.8291 171.85 71.044 171.951L71.6718 172.232C71.7882 172.28 71.8973 172.327 72.0159 172.374C69.1646 175.004 66.0682 178.42 63.3867 182.641L60 187.97L64.7541 183.808C64.8348 183.737 68.8213 180.295 75.4696 176.395L75.5628 177.158C75.1278 177.383 73.0374 178.477 72.416 178.996C71.3861 179.849 71.3361 181.173 71.612 183.643C71.7533 184.909 72.2292 187.366 72.8711 189.62C73.9767 193.497 74.7872 194.183 75.4988 194.343C75.8197 194.42 76.2339 194.455 76.6999 194.455C77.9734 194.455 79.6046 194.208 80.669 193.888C81.9175 197.76 83.6858 201.256 85.8418 204.324C85.7376 204.352 85.6349 204.386 85.5307 204.416C84.2341 203.816 79.7001 201.721 78.1761 201.037L74.9914 199.607L76.875 202.541C77.0121 202.753 80.2635 207.81 82.9178 211.218C85.4007 214.396 88.8003 217.65 95.2152 217.65C95.9874 217.65 96.7952 217.6 97.6277 217.509C99.5404 217.29 100.978 217.118 102.071 216.978C108.805 219.446 116.23 219.598 123.277 216.934C125.122 216.234 126.897 215.36 128.576 214.324C131.292 213.673 134.264 212.967 135.732 212.555C135.967 212.492 136.262 212.422 136.569 212.35C138.614 211.881 142.032 211.089 143.855 207.452C145.692 203.783 148.687 198.16 148.719 198.103L150.119 195.48L147.39 196.663C147.244 196.729 143.786 198.231 141.99 199.17C143.238 196.304 143.974 193.931 144.23 193.02C145.236 193.262 146.727 193.231 147.824 193.231C148.363 193.231 148.918 193.137 149.278 193.046C149.991 192.865 150.542 192.392 151.577 188.391C152.18 186.066 152.612 183.534 152.73 182.232C152.96 179.699 152.885 178.341 151.849 177.484C151.333 177.059 149.817 176.245 149.046 175.844C149.478 175.66 149.689 175.714 149.706 175.719L150.405 173.072C150.651 172.967 150.912 172.861 151.208 172.748C151.631 172.58 152.053 172.413 152.476 172.232L153.1 171.951C153.318 171.849 153.513 171.757 153.751 171.635L154.116 171.3C154.195 171.18 154.237 171.114 154.285 171.023C154.516 170.608 154.598 170.447 154.675 170.282C154.833 169.95 154.973 169.617 155.105 169.282C155.364 168.619 155.591 167.944 155.784 167.259C156.155 165.897 156.417 164.509 156.568 163.106C156.725 161.708 156.76 160.299 156.69 158.893C156.655 158.191 156.588 157.491 156.487 156.795V156.795Z" fill="#0E0F0D"/>
<path d="M116.482 211.301C115.967 211.378 115.451 211.441 114.942 211.482C114.611 211.498 114.263 211.531 113.946 211.531L113.827 211.534C114.225 210.65 114.528 209.962 114.755 209.441C115.221 209.962 115.814 210.605 116.482 211.301Z" fill="#E1C5A2"/>
<path d="M115.857 171.757C115.051 172.41 114.203 173.017 113.319 173.55L110.37 175.324C108.521 175.549 106.916 176.005 106.824 176.033C106.771 176.044 106.72 176.07 106.672 176.098C106.526 176.184 106.417 176.322 106.367 176.483L103.364 186.352L87.315 189.912L82.2585 186.38L80.7883 174.497C83.6601 173.971 87.4988 173.364 92.1101 172.848C91.6075 173.447 91.1309 174.067 90.6816 174.706L87.9364 178.637L91.9342 175.979C91.9949 175.937 94.5388 174.267 98.703 172.234C103.239 171.895 107.787 171.725 112.336 171.724C113.533 171.724 114.705 171.738 115.857 171.758V171.757ZM90.8756 185.144C92.0161 184.529 93.3044 184.62 95.3213 184.624C95.5361 184.628 95.7601 184.626 95.9919 184.62C96.1909 184.62 96.3898 184.616 96.6008 184.61C98.6795 184.589 100.406 184.785 100.375 181.533C100.344 178.28 98.8944 175.649 96.8172 175.669C94.7408 175.688 92.7303 178.354 92.8546 181.605C92.8876 182.452 93.0137 183.064 93.213 183.503C91.403 183.957 90.9017 185.074 90.8752 185.144H90.8756Z" fill="#A89983"/>
<path d="M143.674 174.458L142.229 184.562L137.131 188.123L121.103 186.306L118.112 176.483C118.079 176.376 118.02 176.279 117.94 176.2C117.861 176.121 117.762 176.064 117.654 176.033C117.556 176.003 115.571 175.437 113.468 175.256L113.853 175.23C114.184 175.205 119.712 174.53 126.314 172.261C133.623 172.821 139.594 173.715 143.674 174.458H143.674ZM133.433 183.811C133.412 183.732 132.972 182.425 131.043 182.655C131.264 182.171 131.364 181.518 131.294 180.622C131.04 177.376 129.144 174.795 127.069 174.868C124.992 174.94 123.664 177.632 123.779 180.889C123.893 184.139 125.634 184.116 127.711 184.042C130.5 183.989 132.032 183.135 133.433 183.811V183.811Z" fill="#A89983"/>
<path d="M127.949 177.966C127.954 178.246 127.847 178.517 127.652 178.719C127.457 178.921 127.189 179.038 126.908 179.043C126.769 179.046 126.63 179.021 126.501 178.97C126.371 178.919 126.253 178.843 126.153 178.746C126.052 178.65 125.972 178.535 125.917 178.407C125.861 178.28 125.832 178.143 125.829 178.004C125.827 177.865 125.851 177.727 125.902 177.597C125.953 177.468 126.029 177.35 126.125 177.25C126.222 177.15 126.337 177.07 126.465 177.014C126.592 176.959 126.73 176.929 126.869 176.927C127.009 176.923 127.147 176.948 127.277 176.999C127.407 177.049 127.526 177.125 127.626 177.222C127.727 177.318 127.807 177.434 127.862 177.562C127.918 177.689 127.947 177.827 127.949 177.966" fill="white"/>
<path d="M98.1987 178.744C98.2058 179.025 98.1011 179.296 97.9078 179.499C97.7145 179.703 97.4482 179.821 97.1673 179.829C97.0277 179.833 96.8886 179.81 96.758 179.76C96.6274 179.711 96.5079 179.636 96.4064 179.54C96.3048 179.444 96.2233 179.33 96.1663 179.202C96.1094 179.075 96.0782 178.938 96.0746 178.798C96.071 178.659 96.0949 178.521 96.145 178.391C96.1951 178.261 96.2703 178.143 96.3665 178.042C96.4627 177.941 96.5778 177.86 96.7054 177.804C96.8329 177.748 96.9703 177.717 97.1098 177.714C97.3911 177.707 97.6639 177.811 97.8681 178.004C98.0723 178.198 98.1912 178.464 98.1987 178.744" fill="white"/>
<path d="M150.67 178.903C150.42 178.697 149.583 178.22 148.767 177.78L147.424 187.172C147.41 187.262 147.378 187.349 147.329 187.427C147.281 187.505 147.217 187.572 147.142 187.625L145.22 188.966C145.174 189.193 145.139 189.383 145.105 189.56C146.993 190.024 148.827 188.665 149.857 187.685C150.334 185.835 150.749 183.638 150.892 182.066C151.111 179.629 150.917 179.106 150.67 178.903" fill="#E1C5A2"/>
<path d="M120.986 214.585C119.739 214.142 118.596 213.421 117.601 212.439C117.518 212.355 117.439 212.274 117.355 212.191C116.577 212.35 115.789 212.463 114.997 212.529C114.659 212.544 114.337 212.573 113.985 212.573L113.463 212.578L113.262 212.573C112.07 214.339 110.067 215.31 108.497 215.826C113.161 216.624 118.293 215.403 120.986 214.585" fill="#E1C5A2"/>
<path d="M79.9247 191.583C79.883 191.441 79.8391 191.301 79.7985 191.159L77.3015 189.415C77.2245 189.361 77.1598 189.291 77.1113 189.211C77.0628 189.13 77.0317 189.04 77.02 188.947L75.8026 179.084C74.9015 179.564 73.8599 180.156 73.5829 180.388C73.3419 180.586 73.1582 181.092 73.4185 183.442C73.6163 185.208 74.2384 187.923 74.8739 189.956C76.1383 190.921 78.0006 191.938 79.9247 191.583" fill="#E1C5A2"/>
<path d="M117.253 191.133C117.123 191.118 116.999 191.065 116.898 190.981C116.798 190.897 116.724 190.785 116.686 190.659L113.605 180.53C113.088 180.463 112.629 180.425 112.242 180.425C111.853 180.425 111.397 180.463 110.881 180.53L107.886 190.368C107.851 190.481 107.786 190.583 107.699 190.664C107.612 190.744 107.504 190.8 107.388 190.826L105.956 191.144C105.835 191.649 105.423 192.389 104.094 192.795C101.951 193.447 88.3846 197.481 86.8376 197.261C85.9342 197.135 84.2155 196.189 82.9443 195.424C82.4354 194.229 82.1539 193.417 82.0895 193.224V193.221L82.0857 193.224C82.2657 193.749 84.0359 198.832 87.6329 203.804C91.489 202.67 94.8196 201.614 95.8847 201.278C98.0536 197.941 101.144 194.631 103.339 194.518C103.725 194.498 104.112 194.488 104.5 194.487C105.575 194.487 106.601 194.563 107.554 194.676C106.745 193.943 106.579 193.086 106.461 192.706C106.461 192.706 109.264 194.893 112.829 194.433C116.4 193.977 118.615 191.926 118.615 191.926L118.685 191.295L117.253 191.133" fill="#E1C5A2"/>
<path d="M120.151 192.415C119.412 192.224 118.946 191.92 118.651 191.602L118.614 191.926C118.614 191.926 118.602 193.42 117.05 194.578C120.04 193.675 121.276 193.369 122.123 193.369C123.055 193.369 123.516 193.757 123.92 194.098C123.996 194.162 124.073 194.228 124.165 194.3C126.127 195.841 128.084 197.388 130.037 198.941C130.972 199.049 133.943 199.388 135.813 199.558C136.89 199.658 137.865 199.739 138.82 199.739C139.126 199.739 139.416 199.728 139.69 199.71C140.676 197.826 141.583 195.743 142.391 193.446C141.286 194.219 138.766 195.913 137.586 196.131C136.05 196.418 122.317 192.975 120.151 192.415" fill="#E1C5A2"/>
<path d="M154.709 156.993C154.682 156.67 154.649 156.347 154.608 156.025C154.581 155.794 154.546 155.565 154.505 155.337C153.638 154.61 152.652 153.961 151.626 153.375C150.514 152.724 149.351 152.145 148.162 151.607C146.985 151.051 145.772 150.549 144.556 150.059C143.947 149.812 143.334 149.574 142.718 149.347C142.104 149.108 141.485 148.885 140.864 148.659C142.166 148.875 143.458 149.172 144.74 149.5C145.574 149.713 146.403 149.954 147.226 150.213C141.366 134.941 127.363 124.997 112.072 124.997C96.7785 124.997 82.776 134.941 76.9204 150.213C77.7426 149.954 78.5732 149.713 79.4033 149.5C80.6841 149.172 81.9769 148.875 83.2815 148.659C82.6563 148.885 82.0386 149.108 81.4218 149.347C80.8066 149.575 80.195 149.813 79.5871 150.059C78.3697 150.549 77.1598 151.051 75.978 151.607C74.794 152.145 73.6307 152.724 72.5179 153.375C71.4914 153.961 70.5074 154.61 69.6382 155.337C69.6002 155.566 69.5661 155.795 69.5359 156.025C69.4967 156.347 69.4624 156.67 69.4332 156.993C69.3794 157.645 69.3516 158.298 69.3498 158.952C69.3358 160.261 69.4249 161.57 69.5901 162.864C69.7704 164.163 70.0087 165.453 70.3615 166.701C70.5324 167.322 70.7327 167.935 70.9617 168.537C71.0773 168.834 71.2019 169.129 71.3323 169.413C71.3963 169.555 71.4626 169.696 71.5316 169.83L71.6157 169.989C71.7116 170.037 71.8127 170.088 71.9074 170.134L72.4894 170.411C72.8145 170.56 73.2647 170.772 73.6364 170.938C73.6572 170.919 73.6781 170.9 73.6947 170.882L72.6141 166.775C72.8437 166.714 74.8959 166.185 78.4326 165.512C78.146 165.458 77.8609 165.398 77.5774 165.33C76.7722 165.129 75.9773 164.886 75.2062 164.576C74.825 164.414 74.4488 164.239 74.0903 164.037C73.7323 163.83 73.3803 163.599 73.1063 163.289C76.9912 164.555 85.0214 163.983 92.16 163.246C98.6866 162.575 105.233 162.141 111.81 162.126C118.386 162.141 124.935 162.575 131.458 163.246C138.6 163.983 146.63 164.555 150.514 163.289C150.243 163.599 149.889 163.83 149.534 164.037C149.172 164.239 148.795 164.415 148.414 164.576C147.644 164.886 146.852 165.129 146.046 165.33C145.926 165.359 145.805 165.383 145.686 165.41C149.566 166.128 151.823 166.712 152.063 166.775L151.03 170.687C151.24 170.596 151.45 170.505 151.653 170.41L152.236 170.133C152.332 170.087 152.432 170.036 152.531 169.988L152.609 169.83C152.68 169.696 152.748 169.555 152.812 169.413C152.942 169.129 153.067 168.834 153.181 168.536C153.409 167.934 153.609 167.322 153.782 166.701C154.135 165.453 154.373 164.162 154.551 162.863C154.72 161.57 154.809 160.26 154.797 158.951C154.795 158.298 154.766 157.645 154.709 156.993" fill="#E0D896"/>
<path d="M128.16 149.397C128.22 151.144 128.177 154.314 127.361 157.28C127.328 157.394 127.332 157.512 127.361 157.622C126.323 157.513 125.284 157.417 124.243 157.334C125.409 154.897 125.663 152.301 125.72 151.386C126.616 150.752 127.507 149.99 128.16 149.397" fill="#D7C184"/>
<path d="M98.4264 151.386C98.4805 152.301 98.7352 154.89 99.9003 157.328C98.861 157.41 97.8216 157.506 96.7846 157.616C96.8126 157.511 96.8149 157.394 96.7846 157.281C95.9699 154.319 95.9267 151.149 95.9828 149.397C96.6394 149.99 97.528 150.752 98.4264 151.386Z" fill="#D7C184"/>
<path d="M140.924 160.042C140.919 160.071 140.912 160.1 140.903 160.129C141.017 160.162 141.129 160.195 141.243 160.232C142.204 160.546 143.166 160.875 144.085 161.298C142.551 160.304 141.578 157.436 141.036 155.244C141.185 158.114 140.938 159.933 140.924 160.042Z" fill="#D7C184"/>
<path d="M94.7041 148.846L84.7828 151.66C84.1887 155.51 84.3698 158.449 84.4653 159.47L84.5157 159.439C84.5157 159.439 84.8389 155.246 85.4978 153.637C85.8373 152.811 87.9141 152.284 89.4972 151.906C91.084 151.531 93.614 150.777 94.105 152.999C94.4082 154.372 94.8257 155.514 95.2258 156.356C94.5885 153.303 94.6291 150.318 94.7041 148.846" fill="#D7C184"/>
<path d="M129.438 148.846C129.519 150.376 129.557 153.538 128.838 156.713C129.289 155.85 129.789 154.578 130.138 152.999C130.628 150.777 133.158 151.531 134.745 151.907C136.331 152.284 138.405 152.811 138.745 153.637C139.304 154.999 139.62 158.21 139.704 159.166C139.798 157.938 139.902 155.178 139.362 151.66L129.438 148.846" fill="#D7C184"/>
<path d="M98.3475 149.703C98.6969 149.982 99.0572 150.248 99.4274 150.5C99.6006 150.62 99.7067 150.816 99.7105 151.027C99.7127 151.06 99.787 154.32 101.232 157.097C101.253 157.138 101.268 157.184 101.282 157.227C104.875 156.983 108.478 156.884 112.072 156.882C115.669 156.884 119.27 156.99 122.861 157.235C122.875 157.188 122.889 157.142 122.914 157.097C124.357 154.32 124.434 151.06 124.434 151.027C124.437 150.923 124.464 150.821 124.514 150.729C124.563 150.638 124.634 150.559 124.72 150.5C125.076 150.257 125.422 150 125.759 149.73L125.804 149.603C126.555 142.31 125.178 135.589 124.302 132.268C124.256 134.539 123.716 153.995 118.876 153.995H105.516C100.377 153.995 99.9632 132.059 99.9632 132.059L99.6983 132.838C98.8215 136.336 97.6178 142.765 98.3472 149.703" fill="#D7C184"/>
<path d="M83.2408 160.126C83.2363 160.098 83.2283 160.071 83.2219 160.041C83.206 159.933 82.9582 158.111 83.1075 155.239C82.5649 157.432 81.5896 160.305 80.0535 161.298C80.9723 160.873 81.9385 160.544 82.9009 160.23C83.0131 160.194 83.1283 160.161 83.2408 160.126" fill="#D7C184"/>
<path d="M145.105 189.56C145.024 189.992 144.929 190.421 144.821 190.847C145.923 191.103 147.724 191.302 148.585 191.134C148.954 190.735 149.43 189.349 149.858 187.685C148.828 188.665 146.993 190.023 145.105 189.559" fill="#9F8F78"/>
<path d="M105.622 216.46C108.253 217.179 110.941 217.491 113.589 217.316C116.246 217.136 119.696 216.564 123.357 215.081C122.548 215.022 121.75 214.856 120.986 214.585C118.293 215.404 113.161 216.625 108.497 215.827C107.262 216.232 106.294 216.358 106.2 216.37C106.005 216.392 105.843 216.419 105.622 216.461" fill="#9F8F78"/>
<path d="M80.0987 192.171C80.0381 191.976 79.9824 191.779 79.9244 191.583C78.0004 191.938 76.138 190.921 74.8748 189.957C75.284 191.262 75.6966 192.289 76.0054 192.6C76.9584 192.767 79.0662 192.475 80.0987 192.171" fill="#9F8F78"/>
<path d="M82.9439 195.424C84.2148 196.189 85.9335 197.135 86.8372 197.261C88.3843 197.48 101.951 193.447 104.094 192.795C105.422 192.389 105.835 191.649 105.956 191.144L86.3833 195.491C86.3349 195.5 86.2858 195.505 86.2366 195.506H86.2344C86.0995 195.506 85.9642 195.464 85.849 195.385L85.0866 194.854L82.8003 193.257V193.253L81.8777 192.611C81.8936 192.663 81.9125 192.715 81.9296 192.766C81.9819 192.918 82.0334 193.071 82.0887 193.22V193.224C82.1532 193.417 82.4347 194.229 82.9435 195.424" fill="#9F8F78"/>
<path d="M142.983 191.674C143.108 191.213 143.231 190.746 143.343 190.275L142.663 190.751L140.834 192.029L138.856 193.412C138.755 193.482 138.636 193.524 138.515 193.533C138.475 193.536 138.435 193.535 138.395 193.53L118.685 191.295L118.652 191.602C118.947 191.919 119.413 192.224 120.152 192.414C122.317 192.975 136.05 196.417 137.586 196.13C138.766 195.912 141.286 194.219 142.391 193.445C142.4 193.418 142.41 193.392 142.419 193.366C142.614 192.804 142.803 192.24 142.983 191.674" fill="#9F8F78"/>
<path d="M122.129 165.187C121.974 165.387 121.804 165.606 121.621 165.835C120.686 167.015 119.389 168.52 117.853 169.997C116.015 169.939 114.176 169.91 112.337 169.91C109.212 169.91 106.216 169.992 103.371 170.129C107.392 168.466 112.221 166.841 117.451 165.866C119 165.572 120.561 165.345 122.129 165.187" fill="#6E6A67"/>
<path d="M98.6046 166.982C97.1674 167.988 95.5483 169.27 93.977 170.827C90.4877 171.175 87.0097 171.626 83.5476 172.182C87.999 170.142 93.0801 168.262 98.6046 166.982" fill="#6E6A67"/>
<path d="M147.77 175.268L146.131 186.689L138.29 192.169L117.841 189.85L114.764 179.737C114.728 179.617 114.658 179.509 114.563 179.426C114.468 179.344 114.352 179.289 114.228 179.269C113.471 179.147 112.801 179.087 112.242 179.087C111.681 179.087 111.012 179.147 110.25 179.269C110.126 179.29 110.011 179.345 109.917 179.428C109.822 179.511 109.753 179.618 109.716 179.737L106.714 189.604L86.3798 194.117L78.3212 188.486L76.731 175.669C77.0816 175.474 77.4327 175.28 77.7843 175.086C78.2841 174.979 78.8453 174.865 79.4659 174.748L80.9626 186.843C80.9834 187.031 81.0895 187.198 81.2452 187.306L86.7905 191.181C86.9019 191.258 87.0387 191.302 87.1725 191.302C87.2221 191.302 87.2699 191.295 87.3221 191.285L104.04 187.575C104.098 187.561 104.154 187.54 104.207 187.514C104.361 187.431 104.484 187.29 104.535 187.115L107.547 177.228C108.355 177.022 110.424 176.538 112.242 176.538C114.056 176.538 116.124 177.022 116.934 177.228L119.945 187.115C120.022 187.37 120.247 187.557 120.512 187.587L137.233 189.482C137.393 189.501 137.558 189.457 137.691 189.364L143.238 185.496C143.388 185.388 143.49 185.221 143.516 185.039L144.997 174.704C146.109 174.917 147.038 175.111 147.77 175.268" fill="#6E6A67"/>
<path d="M149.834 168.105L148.394 173.552C145.451 172.904 138.986 171.633 130.186 170.778C133.06 169.555 135.988 168.023 138.663 166.104C143.9 166.842 147.745 167.634 149.834 168.105" fill="#6E6A67"/>
<path d="M74.844 168.105L75.2441 169.614C76.2198 168.838 77.224 168.099 78.2545 167.398C76.8446 167.668 75.6946 167.913 74.844 168.105Z" fill="#6E6A67"/>
<path d="M131.304 165.067C129.1 164.943 126.898 164.838 124.693 164.747C124.446 165.11 124.193 165.468 123.933 165.821C122.751 167.415 120.423 170.322 117.437 172.815C119.683 172.106 128.594 169.124 133.107 165.178C132.506 165.139 131.905 165.102 131.304 165.067" fill="#93232C"/>
<path d="M115.156 164.487L115.165 164.485C114.047 164.47 112.929 164.458 111.813 164.454H111.81C110.166 164.459 108.526 164.479 106.882 164.508L103.851 165.941C103.835 165.947 103.82 165.956 103.806 165.966C103.35 166.187 99.3709 168.19 95.6243 171.764C95.952 171.591 96.2995 171.413 96.6575 171.232C98.7067 169.858 104.172 166.606 112.67 164.463C113.498 164.468 114.327 164.473 115.155 164.487" fill="#93232C"/>
<path d="M96.5284 164.853C95.1249 164.917 93.7207 164.989 92.3187 165.068C90.6925 165.159 89.0715 165.268 87.4517 165.39C86.6439 165.452 85.8349 165.521 85.0339 165.605C84.8012 165.627 84.5739 165.652 84.3462 165.681C82.2296 166.943 74.1293 172.016 68.564 178.654C68.6598 178.539 68.7587 178.425 68.8569 178.311C79.1605 169.543 90.4568 166.13 96.5284 164.853" fill="#93232C"/>
<path d="M143.143 200.911L142.957 201.006C141.924 201.548 140.57 201.813 138.82 201.813C137.778 201.813 136.757 201.726 135.625 201.624C133.364 201.418 129.537 200.969 129.498 200.962L129.206 200.931L128.974 200.745C128.939 200.722 125.588 198.056 122.879 195.931C122.768 195.842 122.669 195.757 122.578 195.686C122.293 195.442 122.293 195.442 122.122 195.442C121.252 195.442 118.726 196.224 113.194 197.934L112.854 198.042L112.518 197.915C112.48 197.905 108.851 196.563 104.501 196.563C104.144 196.563 103.789 196.572 103.444 196.589C103.008 196.611 100.563 197.77 97.4341 202.704L97.2336 203.022L96.8737 203.137C96.8214 203.154 91.4386 204.887 85.7293 206.515L85.361 206.619L85.0086 206.457C84.9718 206.444 82.7423 205.41 80.6174 204.439C80.7739 204.511 80.9315 204.582 81.0884 204.655C83.186 206.461 87.2028 209.934 87.6488 210.415C87.7106 210.484 87.7966 210.569 87.8989 210.665C87.7955 210.548 87.6947 210.428 87.5965 210.306L87.5927 210.303L87.5931 210.303C88.5184 211.178 89.5513 211.934 90.6797 212.466C91.2427 212.73 91.8331 212.935 92.4332 213.034C92.736 213.083 93.0296 213.108 93.3362 213.108C93.6465 213.108 93.9636 213.099 94.2804 213.084C95.5354 213.019 96.802 212.923 98.0657 212.801C99.3274 212.688 100.59 212.562 101.851 212.409C103.11 212.274 104.369 212.116 105.617 211.923C106.242 211.832 106.864 211.729 107.471 211.595C107.769 211.525 108.08 211.447 108.316 211.341C108.531 211.238 108.793 211.032 109.022 210.835C109.492 210.432 109.946 209.984 110.395 209.538C110.845 209.089 111.287 208.633 111.722 208.169C112.461 207.397 113.095 206.576 113.811 205.782C113.902 205.683 113.996 205.577 114.091 205.475C114.091 205.477 114.091 205.477 114.093 205.477L114.101 205.487C114.25 205.594 114.399 205.702 114.545 205.816C115.406 206.457 116.296 207.15 117.153 207.749C118.26 208.524 119.379 209.301 120.537 209.947C120.827 210.108 121.126 210.258 121.411 210.352C121.448 210.366 121.479 210.372 121.507 210.376C121.529 210.389 121.605 210.401 121.614 210.401C121.67 210.41 121.745 210.413 121.818 210.418C121.974 210.42 122.136 210.413 122.298 210.406C122.951 210.36 123.613 210.266 124.277 210.162C125.601 209.956 126.929 209.718 128.249 209.454C129.573 209.202 130.894 208.931 132.207 208.64C133.526 208.36 134.838 208.056 136.145 207.726C136.793 207.552 137.442 207.391 138.021 207.114C138.612 206.84 139.16 206.463 139.665 206.032C140.685 205.166 141.541 204.092 142.253 202.923L142.251 202.927C142.601 202.28 142.899 201.606 143.143 200.911" fill="#93232C"/>
<path d="M118.443 138.805H120.773V134.084H103.738V138.805H106.068V136.407H110.885V150.987H108.902V153.693H115.608V150.987H113.625V136.407H118.443V138.805" fill="#93232C"/>
<path d="M136.07 165.387C136.066 165.385 136.061 165.383 136.056 165.383C135.092 165.311 134.127 165.244 133.162 165.182L133.106 165.178C128.593 169.124 119.683 172.106 117.437 172.816C117.393 172.853 117.35 172.89 117.307 172.926C120.198 172.407 124.518 171.377 129.001 169.397C131.206 168.423 133.45 167.221 135.585 165.735C135.75 165.62 135.91 165.501 136.07 165.387" fill="#731B2A"/>
<path d="M112.67 164.462C104.172 166.605 98.7067 169.858 96.6572 171.231C98.5494 170.271 100.477 169.381 102.435 168.563C102.671 168.465 102.908 168.368 103.144 168.271C103.219 168.241 103.292 168.211 103.367 168.181C103.564 168.101 103.762 168.023 103.962 167.943C104.074 167.9 104.183 167.856 104.296 167.813C104.475 167.743 104.657 167.673 104.839 167.604C104.976 167.552 105.113 167.5 105.251 167.449C105.419 167.384 105.587 167.322 105.757 167.26C105.916 167.201 106.077 167.143 106.237 167.086C106.394 167.028 106.551 166.972 106.71 166.916C106.89 166.852 107.073 166.789 107.256 166.726C107.401 166.676 107.545 166.626 107.69 166.576C107.905 166.504 108.121 166.433 108.338 166.362C108.457 166.322 108.575 166.283 108.695 166.244C109.035 166.134 109.378 166.026 109.723 165.92C110.477 165.689 111.248 165.469 112.031 165.257C113.066 164.975 114.108 164.718 115.156 164.487C114.328 164.473 113.498 164.468 112.67 164.462" fill="#731B2A"/>
<path d="M96.5284 164.852C90.4568 166.129 79.1605 169.542 68.8569 178.311C68.7587 178.425 68.6598 178.538 68.564 178.654C73.8016 175.022 82.8044 169.623 93.9344 166.338C94.2932 166.233 94.6555 166.129 95.0184 166.027C96.8999 165.501 98.802 165.052 100.72 164.681C99.324 164.731 97.9262 164.788 96.5284 164.852" fill="#731B2A"/>
<path d="M145.149 199.943C145.042 199.992 144.936 200.041 144.83 200.091C144.772 200.118 144.716 200.144 144.657 200.171L144.52 200.236L144.309 200.336C144.28 200.351 144.249 200.365 144.219 200.38C144.14 200.418 144.06 200.455 143.983 200.493L143.931 200.519C143.847 200.56 143.763 200.601 143.681 200.641L143.655 200.653C143.474 200.743 143.303 200.829 143.143 200.91C142.898 201.606 142.6 202.28 142.249 202.929L142.253 202.924C142.251 202.926 142.249 202.928 142.248 202.931C141.537 204.095 140.681 205.165 139.664 206.03C139.159 206.462 138.61 206.838 138.02 207.113C137.44 207.39 136.792 207.55 136.144 207.725C134.84 208.052 133.526 208.36 132.206 208.638C130.891 208.929 129.572 209.201 128.249 209.453C126.928 209.718 125.6 209.955 124.275 210.16C123.612 210.264 122.95 210.359 122.296 210.404C122.137 210.413 121.977 210.417 121.817 210.416C121.749 210.413 121.68 210.408 121.612 210.399C121.576 210.396 121.54 210.388 121.507 210.375C121.473 210.371 121.441 210.362 121.41 210.35C121.124 210.257 120.826 210.106 120.536 209.946C119.378 209.299 118.258 208.523 117.152 207.748C116.296 207.149 115.404 206.455 114.544 205.814L114.469 205.921L114.474 205.926C114.527 205.975 114.581 206.019 114.635 206.066L114.631 206.064C114.592 206.034 114.554 206.006 114.517 205.979L115.239 206.838C115.241 206.841 115.269 206.874 115.322 206.935C115.69 207.367 117.231 209.151 119.062 210.962C120.455 212.339 122.136 213.035 124.064 213.035C124.722 213.035 125.414 212.949 126.113 212.783C126.759 212.625 127.463 212.458 128.184 212.284C130.321 211.777 132.689 211.211 134.261 210.804C134.365 210.776 134.467 210.75 134.565 210.724C134.787 210.665 134.989 210.612 135.169 210.562C135.477 210.477 135.786 210.401 136.098 210.333C138.004 209.892 140.61 209.289 141.991 206.529C142.405 205.706 142.823 204.885 143.245 204.066C143.936 202.726 144.633 201.389 145.336 200.055C145.336 200.054 145.336 200.054 145.336 200.054L145.474 199.792L145.149 199.943" fill="#731B2A"/>
<path d="M113.935 205.898L113.811 205.78C113.095 206.576 112.461 207.396 111.722 208.168C111.287 208.632 110.845 209.089 110.394 209.538C109.945 209.984 109.491 210.432 109.022 210.834C108.792 211.031 108.531 211.238 108.316 211.34C108.08 211.446 107.769 211.524 107.471 211.594C106.865 211.729 106.242 211.831 105.617 211.922C104.369 212.115 103.11 212.274 101.851 212.409C100.59 212.561 99.3273 212.687 98.0656 212.8C96.8023 212.923 95.5352 213.019 94.2803 213.084C93.9635 213.098 93.6464 213.108 93.3361 213.108C93.0295 213.108 92.7351 213.084 92.4331 213.033C91.8326 212.934 91.2422 212.729 90.6796 212.466C89.5516 211.934 88.5187 211.177 87.593 210.303L87.5964 210.306C87.7214 210.459 87.859 210.603 87.9905 210.749C87.9586 210.72 87.9283 210.691 87.8988 210.664C87.7965 210.568 87.7104 210.484 87.6483 210.414C87.202 209.933 83.1848 206.46 81.0879 204.654C80.9311 204.581 80.7734 204.51 80.6169 204.438C81.0135 205.024 81.4139 205.607 81.8181 206.188C82.4362 207.078 83.0676 207.959 83.7122 208.83C83.9899 209.205 84.2718 209.576 84.5579 209.944C86.8378 212.87 89.7077 215.575 95.2151 215.575C95.9047 215.575 96.6386 215.532 97.3919 215.447C97.5673 215.428 97.7378 215.409 97.9057 215.389C98.0671 215.371 98.2259 215.353 98.3797 215.335C103.169 214.785 104.482 214.551 105.211 214.426C105.4 214.393 105.561 214.365 105.735 214.339C105.803 214.33 105.873 214.319 105.946 214.309C105.973 214.307 107.592 214.099 109.175 213.331C110.266 212.802 111.339 212.008 111.864 210.834C113.19 207.876 113.459 207.169 113.47 207.143L113.935 205.898" fill="#731B2A"/>
<path d="M126.908 179.044C127.189 179.038 127.457 178.922 127.652 178.72C127.847 178.518 127.954 178.247 127.949 177.967C127.947 177.827 127.918 177.69 127.862 177.562C127.807 177.435 127.726 177.319 127.626 177.222C127.525 177.126 127.407 177.05 127.277 176.999C127.147 176.949 127.008 176.924 126.868 176.927C126.729 176.93 126.591 176.96 126.464 177.015C126.336 177.071 126.221 177.151 126.124 177.251C126.027 177.351 125.951 177.469 125.901 177.599C125.85 177.728 125.825 177.866 125.828 178.005C125.833 178.286 125.95 178.553 126.152 178.748C126.355 178.942 126.627 179.049 126.908 179.044V179.044ZM133.433 183.811C132.032 183.136 130.5 183.99 127.711 184.043C125.634 184.117 123.893 184.139 123.779 180.889C123.664 177.632 124.992 174.94 127.069 174.868C129.144 174.796 131.039 177.376 131.294 180.623C131.364 181.518 131.265 182.171 131.043 182.655C132.972 182.425 133.412 183.732 133.433 183.811V183.811Z" fill="#0E0F0D"/>
<path d="M97.1676 179.829C97.4485 179.821 97.7148 179.703 97.9081 179.499C98.1014 179.296 98.206 179.025 98.199 178.744C98.1916 178.464 98.0727 178.197 97.8685 178.004C97.6643 177.811 97.3915 177.706 97.11 177.713C96.9708 177.717 96.8336 177.748 96.7064 177.805C96.5792 177.861 96.4645 177.943 96.3687 178.043C96.2729 178.144 96.198 178.263 96.1482 178.393C96.0984 178.523 96.0747 178.661 96.0785 178.8C96.0822 178.939 96.1134 179.075 96.1702 179.202C96.227 179.329 96.3083 179.444 96.4094 179.539C96.5105 179.635 96.6296 179.71 96.7597 179.759C96.8898 179.809 97.0284 179.832 97.1676 179.829V179.829ZM100.375 181.533C100.405 184.785 98.6787 184.589 96.6004 184.61C96.3894 184.617 96.1904 184.619 95.9911 184.619C95.7596 184.626 95.5357 184.628 95.3208 184.624C93.3035 184.619 92.0156 184.53 90.8748 185.144C90.9013 185.074 91.403 183.957 93.2126 183.502C93.0129 183.062 92.8875 182.451 92.8545 181.605C92.7299 178.354 94.7407 175.687 96.8171 175.669C98.8939 175.648 100.344 178.279 100.375 181.533Z" fill="#0E0F0D"/>
<path d="M139.705 159.165C139.689 159.366 139.67 159.565 139.648 159.765C138.825 159.544 137.998 159.337 137.168 159.145C134.424 158.544 131.647 158.098 128.857 157.781C128.761 157.768 128.662 157.762 128.564 157.75C128.583 157.708 128.6 157.667 128.612 157.626C128.696 157.322 128.769 157.018 128.838 156.713C129.557 153.538 129.52 150.376 129.438 148.846L139.362 151.66C139.903 155.178 139.798 157.937 139.705 159.165ZM127.361 157.28C127.328 157.394 127.332 157.512 127.361 157.622C126.323 157.513 125.284 157.417 124.243 157.334C125.409 154.896 125.663 152.301 125.72 151.386C126.616 150.752 127.506 149.99 128.16 149.397C128.22 151.144 128.177 154.314 127.361 157.28H127.361ZM96.7847 157.615C96.8127 157.51 96.815 157.394 96.7847 157.28C95.97 154.318 95.9268 151.148 95.9829 149.397C96.6392 149.99 97.5277 150.752 98.4265 151.386C98.4807 152.3 98.7353 154.89 99.9004 157.328C98.8611 157.41 97.8221 157.505 96.7847 157.615V157.615ZM95.2861 157.778C93.894 157.948 92.5004 158.123 91.1136 158.352C89.7306 158.588 88.3472 158.839 86.9759 159.143C86.1442 159.336 85.3201 159.54 84.4952 159.763C84.4876 159.698 84.4774 159.597 84.4657 159.469C84.3702 158.448 84.1891 155.509 84.7832 151.659L94.7041 148.844C94.6291 150.317 94.5885 153.302 95.2262 156.354C95.3149 156.778 95.4157 157.202 95.5316 157.624C95.5445 157.666 95.5612 157.707 95.5794 157.744C95.4797 157.757 95.3842 157.766 95.2857 157.778L95.2861 157.778ZM145.023 161.775C144.939 161.734 144.855 161.693 144.775 161.654C144.653 161.595 144.517 161.528 144.361 161.452C144.266 161.406 144.173 161.354 144.084 161.297C143.166 160.874 142.204 160.546 141.243 160.231C141.129 160.194 141.017 160.161 140.903 160.128C140.912 160.099 140.92 160.07 140.925 160.041C140.939 159.933 141.186 158.112 141.037 155.243C140.974 154.018 140.838 152.602 140.581 151.045C140.56 150.924 140.506 150.811 140.424 150.719C140.342 150.627 140.236 150.56 140.118 150.526L138.703 150.127C138.399 139.21 133.892 134.079 133.752 133.92C137.777 140.383 137.742 148.048 137.672 149.834L128.902 147.347C128.896 147.347 128.89 147.347 128.882 147.343C128.845 147.335 128.807 147.33 128.769 147.327C128.761 147.327 128.751 147.325 128.737 147.325C128.689 147.323 128.641 147.327 128.594 147.337C128.587 147.337 128.579 147.344 128.57 147.344C128.531 147.352 128.493 147.365 128.457 147.383C128.443 147.389 128.431 147.398 128.418 147.402C128.388 147.422 128.36 147.438 128.331 147.459C128.324 147.464 128.316 147.467 128.31 147.473C128.301 147.48 128.298 147.486 128.293 147.49C128.285 147.499 128.275 147.504 128.268 147.511C128.26 147.52 128.024 147.75 127.657 148.096C127.683 147.277 127.689 146.025 127.596 144.496L127.567 144.055C127.292 140.214 126.381 134.819 123.661 130.096C123.685 130.164 123.954 130.947 124.302 132.267C125.177 135.588 126.555 142.309 125.804 149.602C125.8 149.636 125.798 149.669 125.794 149.702C125.783 149.712 125.771 149.72 125.759 149.729C125.422 149.999 125.076 150.256 124.72 150.499C124.634 150.558 124.563 150.637 124.513 150.729C124.463 150.82 124.436 150.922 124.433 151.026C124.433 151.059 124.357 154.32 122.914 157.096C122.888 157.142 122.875 157.187 122.86 157.234C119.27 156.989 115.669 156.884 112.072 156.881C108.477 156.884 104.874 156.982 101.282 157.226C101.267 157.183 101.253 157.137 101.232 157.096C99.7867 154.32 99.7125 151.059 99.7102 151.026C99.7082 150.922 99.6814 150.82 99.6322 150.729C99.5829 150.637 99.5125 150.558 99.4268 150.499C99.0566 150.248 98.6964 149.982 98.3473 149.702C97.6175 142.764 98.8217 136.335 99.6981 132.837C100.114 131.176 100.457 130.172 100.485 130.095C96.5376 136.946 96.4008 145.212 96.4884 148.095C96.1151 147.75 95.8836 147.52 95.8776 147.511C95.8707 147.504 95.8586 147.498 95.8503 147.49L95.8363 147.473C95.8294 147.467 95.8215 147.463 95.8132 147.459C95.7852 147.439 95.7561 147.421 95.726 147.405C95.7116 147.398 95.701 147.389 95.6843 147.382C95.651 147.364 95.6147 147.352 95.5771 147.347C95.5665 147.343 95.5585 147.337 95.5517 147.337C95.5039 147.327 95.455 147.323 95.4062 147.325C95.3941 147.325 95.3812 147.326 95.3691 147.326C95.3335 147.33 95.299 147.334 95.2618 147.343C95.2531 147.347 95.249 147.347 95.2406 147.347L86.4743 149.833C86.4038 148.047 86.3659 140.382 90.3914 133.92C90.2519 134.08 85.7464 139.21 85.4398 150.128L84.0322 150.527C83.9126 150.559 83.8049 150.626 83.722 150.718C83.6391 150.81 83.5845 150.924 83.5646 151.046C83.3347 152.434 83.1821 153.834 83.1077 155.239C82.9591 158.112 83.2062 159.933 83.2221 160.042C83.2285 160.071 83.2365 160.099 83.241 160.127C83.1289 160.162 83.0133 160.195 82.9012 160.23C81.9387 160.545 80.9729 160.874 80.0541 161.299C79.9706 161.353 79.8841 161.401 79.7949 161.445L79.7805 161.453C79.624 161.528 79.488 161.596 79.3652 161.655L79.1496 161.76C79.1041 161.786 79.0572 161.809 79.0125 161.836C79.663 161.581 80.336 161.395 81.0082 161.23C81.6816 161.063 82.3596 160.915 83.0414 160.786C84.4066 160.533 85.7748 160.313 87.1517 160.145C88.5249 159.966 89.9037 159.817 91.2848 159.702C92.6663 159.584 94.0456 159.468 95.4301 159.388C100.967 159.062 106.518 158.958 112.072 158.956C117.627 158.96 123.177 159.047 128.714 159.387C130.099 159.466 131.478 159.582 132.861 159.698C134.244 159.816 135.619 159.966 136.992 160.146C138.369 160.311 139.74 160.53 141.103 160.785C141.784 160.913 142.461 161.061 143.133 161.23C143.811 161.395 144.48 161.581 145.132 161.836C145.096 161.814 145.058 161.795 145.023 161.775V161.775Z" fill="#0E0F0D"/>
<path d="M113.625 136.407V150.987H115.608V153.693H108.902V150.987H110.885V136.407H106.067V138.805H103.738V134.084H120.773V138.805H118.444V136.407H113.625V136.407ZM122.527 140.55V132.336H101.989V140.55H107.821V138.153H109.131V149.238H107.153V155.436H117.36V149.237H115.375V138.152H116.69V140.55H122.527V140.55Z" fill="#0E0F0D"/>
<g clip-path="url(#clip0)">
<path d="M238.25 234C248.324 234 256.5 225.936 256.5 216V198H238.25C228.176 198 220 206.064 220 216C220 225.936 228.176 234 238.25 234Z" fill="#0ACF83"/>
<path d="M220 180C220 170.064 228.176 162 238.25 162H256.5V198H238.25C228.176 198 220 189.936 220 180Z" fill="#A259FF"/>
<path d="M220 144C220 134.064 228.176 126 238.25 126H256.5V162H238.25C228.176 162 220 153.936 220 144Z" fill="#F24E1E"/>
<path d="M256.5 126H274.75C284.824 126 293 134.064 293 144C293 153.936 284.824 162 274.75 162H256.5V126Z" fill="#FF7262"/>
<path d="M293 180C293 189.936 284.824 198 274.75 198C264.676 198 256.5 189.936 256.5 180C256.5 170.064 264.676 162 274.75 162C284.824 162 293 170.064 293 180Z" fill="#1ABCFE"/>
</g>
<path d="M437.398 153.493C436.344 153.133 435.282 152.798 434.211 152.491C434.391 151.758 434.557 151.033 434.703 150.322C437.116 138.634 435.539 129.219 430.152 126.118C424.988 123.147 416.541 126.245 408.011 133.655C407.17 134.386 406.348 135.139 405.546 135.912C405.008 135.398 404.462 134.894 403.906 134.4C394.965 126.478 386.004 123.139 380.624 126.248C375.464 129.229 373.936 138.08 376.107 149.157C376.324 150.254 376.567 151.345 376.839 152.43C375.571 152.789 374.347 153.172 373.175 153.58C362.694 157.227 356 162.943 356 168.872C356 174.995 363.186 181.137 374.103 184.861C374.988 185.162 375.881 185.44 376.78 185.697C376.488 186.865 376.228 188.041 376.002 189.224C373.932 200.108 375.549 208.75 380.695 211.712C386.01 214.772 394.931 211.627 403.617 204.049C404.321 203.433 405.01 202.799 405.683 202.149C406.552 202.986 407.444 203.799 408.359 204.586C416.773 211.812 425.083 214.73 430.224 211.759C435.534 208.691 437.26 199.407 435.019 188.112C434.843 187.227 434.645 186.347 434.425 185.471C435.052 185.286 435.667 185.095 436.266 184.897C447.616 181.144 455 175.077 455 168.872C455 162.921 448.09 157.167 437.398 153.493V153.493ZM434.936 180.891C434.395 181.069 433.84 181.242 433.273 181.41C432.02 177.451 430.33 173.242 428.26 168.892C430.235 164.647 431.861 160.491 433.078 156.558C434.091 156.851 435.074 157.159 436.021 157.484C445.183 160.632 450.771 165.286 450.771 168.872C450.771 172.691 444.736 177.65 434.936 180.891V180.891ZM430.87 188.932C431.861 193.926 432.002 198.442 431.346 201.973C430.757 205.145 429.571 207.259 428.104 208.107C424.985 209.909 418.313 207.566 411.117 201.386C410.266 200.654 409.436 199.899 408.628 199.121C411.418 196.076 414.205 192.536 416.926 188.605C421.712 188.181 426.234 187.488 430.334 186.542C430.536 187.355 430.716 188.152 430.87 188.932V188.932ZM389.751 207.795C386.703 208.869 384.275 208.9 382.808 208.056C379.685 206.258 378.387 199.319 380.158 190.011C380.368 188.911 380.609 187.817 380.88 186.731C384.935 187.626 389.424 188.27 394.221 188.658C396.961 192.505 399.829 196.041 402.72 199.137C402.106 199.731 401.477 200.309 400.834 200.871C396.993 204.222 393.144 206.599 389.751 207.795V207.795ZM375.471 180.867C370.644 179.22 366.657 177.08 363.925 174.745C361.469 172.646 360.23 170.562 360.23 168.872C360.23 165.274 365.604 160.685 374.568 157.566C375.655 157.187 376.794 156.83 377.975 156.495C379.214 160.517 380.839 164.722 382.8 168.974C380.814 173.29 379.166 177.562 377.915 181.631C377.094 181.396 376.279 181.142 375.471 180.867V180.867ZM380.258 148.346C378.398 138.856 379.633 131.698 382.743 129.901C386.055 127.987 393.378 130.716 401.098 137.557C401.601 138.004 402.096 138.46 402.583 138.925C399.707 142.007 396.865 145.517 394.149 149.341C389.493 149.772 385.036 150.464 380.939 151.39C380.686 150.381 380.459 149.366 380.258 148.346V148.346ZM422.962 158.87C421.994 157.202 420.991 155.554 419.952 153.929C423.11 154.327 426.137 154.857 428.979 155.504C428.126 158.233 427.062 161.086 425.81 164.012C424.895 162.279 423.946 160.565 422.962 158.87V158.87ZM405.548 141.941C407.498 144.051 409.452 146.406 411.373 148.961C407.475 148.777 403.571 148.776 399.673 148.958C401.596 146.427 403.566 144.075 405.548 141.941ZM388.021 158.899C387.05 160.58 386.118 162.284 385.226 164.009C383.995 161.093 382.941 158.227 382.081 155.459C384.905 154.828 387.917 154.312 391.056 153.921C390.006 155.556 388.994 157.216 388.021 158.899V158.899ZM391.146 184.123C387.904 183.762 384.846 183.273 382.022 182.659C382.896 179.841 383.973 176.914 385.231 173.936C386.126 175.662 387.062 177.367 388.038 179.049C389.041 180.778 390.08 182.471 391.146 184.123ZM405.664 196.099C403.66 193.941 401.66 191.553 399.708 188.985C401.603 189.059 403.536 189.097 405.5 189.097C407.518 189.097 409.513 189.052 411.476 188.964C409.548 191.579 407.602 193.97 405.664 196.099ZM425.85 173.784C427.174 176.794 428.289 179.707 429.175 182.476C426.304 183.13 423.205 183.656 419.94 184.047C420.986 182.392 421.999 180.715 422.979 179.02C423.975 177.296 424.932 175.55 425.85 173.784V173.784ZM419.316 176.911C417.816 179.511 416.232 182.061 414.566 184.559C411.549 184.772 408.525 184.878 405.5 184.876C402.419 184.876 399.422 184.78 396.537 184.594C394.827 182.102 393.213 179.547 391.698 176.934H391.698C390.189 174.334 388.78 171.679 387.474 168.973C388.777 166.266 390.182 163.609 391.685 161.007L391.685 161.008C393.188 158.406 394.789 155.861 396.485 153.381C399.429 153.158 402.448 153.043 405.5 153.043H405.5C408.565 153.043 411.588 153.16 414.531 153.383C416.211 155.86 417.802 158.396 419.302 160.985C420.81 163.581 422.233 166.225 423.569 168.913C422.247 171.628 420.828 174.296 419.316 176.911V176.911ZM428.04 129.775C431.355 131.683 432.644 139.378 430.561 149.469C430.428 150.113 430.279 150.769 430.117 151.434C426.009 150.488 421.549 149.784 416.879 149.347C414.159 145.48 411.34 141.965 408.511 138.922C409.252 138.209 410.011 137.514 410.788 136.838C418.097 130.49 424.928 127.984 428.04 129.775V129.775ZM405.5 160.049C410.382 160.049 414.34 163.999 414.34 168.872C414.34 173.745 410.382 177.695 405.5 177.695C400.618 177.695 396.66 173.745 396.66 168.872C396.66 163.999 400.618 160.049 405.5 160.049V160.049Z" fill="#00D8FF"/>
<g clip-path="url(#clip1)">
<path d="M591.227 270H574.142C570.009 270 566.617 273.356 566.617 277.445V299.291H541.884C537.875 299.291 534.606 302.525 534.606 306.553V331.023H512.34C511.375 331.02 510.419 331.206 509.528 331.57C508.636 331.934 507.826 332.469 507.143 333.143C506.461 333.818 505.921 334.62 505.553 335.502C505.185 336.385 504.997 337.33 505 338.285V355.371C505 359.398 508.269 362.633 512.34 362.754H591.289C595.421 362.754 598.814 359.398 598.814 355.31V277.445C598.752 273.357 595.359 270 591.227 270Z" fill="url(#paint0_linear)"/>
<path d="M591.227 270H574.142C570.009 270 566.617 273.356 566.617 277.445V299.291H541.884C537.875 299.291 534.606 302.525 534.606 306.553V331.023H512.34C511.375 331.02 510.419 331.206 509.528 331.57C508.636 331.934 507.826 332.469 507.143 333.143C506.461 333.818 505.921 334.62 505.553 335.502C505.185 336.385 504.997 337.33 505 338.285V355.371C505 359.398 508.269 362.633 512.34 362.754H591.289C595.421 362.754 598.814 359.398 598.814 355.31V277.445C598.752 273.357 595.359 270 591.227 270Z" fill="url(#paint1_linear)"/>
<mask id="mask0" mask-type="alpha" maskUnits="userSpaceOnUse" x="505" y="270" width="94" height="93">
<path d="M591.227 270H574.266C570.133 270 566.74 273.356 566.74 277.445V299.291H542.069C537.998 299.291 534.668 302.586 534.668 306.614V331.023H512.401C508.331 331.023 505 334.318 505 338.346V355.432C505 359.459 508.33 362.754 512.401 362.754H591.227C595.359 362.754 598.752 359.398 598.752 355.31V277.445C598.752 273.357 595.359 270 591.227 270Z" fill="white"/>
</mask>
<g mask="url(#mask0)">
<path d="M591.227 270H574.265C570.133 270 566.74 273.356 566.74 277.445V362.754H591.227C595.359 362.754 598.752 359.398 598.752 355.31V277.445C598.752 273.357 595.359 270 591.227 270Z" fill="#F57C00"/>
<g filter="url(#filter1_d)">
<path d="M534.606 306.614V331.023H512.401C508.331 331.023 505 334.318 505 338.346V355.432C505 359.46 508.33 362.755 512.401 362.755H566.679V299.291H542.007C537.936 299.291 534.606 302.586 534.606 306.614Z" fill="black"/>
</g>
<path d="M534.606 306.614V331.023H512.401C508.331 331.023 505 334.318 505 338.346V355.432C505 359.46 508.33 362.755 512.401 362.755H566.679V299.291H542.007C537.936 299.291 534.606 302.586 534.606 306.614Z" fill="#FFC107"/>
<path d="M566.679 299.291V362.754H591.165C595.298 362.754 598.69 359.398 598.69 355.31V331.023L566.679 299.291Z" fill="url(#paint2_linear)"/>
<path opacity="0.2" d="M542.007 299.901H566.679V299.291H542.007C537.936 299.291 534.606 302.586 534.606 306.614V307.224C534.606 303.196 537.936 299.901 542.007 299.901Z" fill="white"/>
<path opacity="0.2" d="M512.401 331.633H534.606V331.022H512.401C508.331 331.022 505 334.318 505 338.345V338.956C505 334.928 508.33 331.633 512.401 331.633Z" fill="white"/>
<path opacity="0.2" d="M591.227 270H574.265C570.133 270 566.74 273.356 566.74 277.445V278.055C566.74 273.966 570.133 270.61 574.265 270.61H591.227C595.359 270.61 598.752 273.966 598.752 278.055V277.445C598.752 273.357 595.359 270 591.227 270Z" fill="white"/>
<path opacity="0.2" d="M591.227 362.144H512.401C508.331 362.144 505 358.849 505 354.822V355.432C505 359.459 508.33 362.755 512.401 362.755H591.165C595.298 362.755 598.69 359.398 598.69 355.31L598.691 354.7C598.752 358.788 595.359 362.144 591.227 362.144V362.144Z" fill="#BF360C"/>
<path d="M591.227 270H574.266C570.133 270 566.74 273.356 566.74 277.445V299.291H542.069C537.998 299.291 534.668 302.586 534.668 306.614V331.023H512.401C508.331 331.023 505 334.318 505 338.346V355.432C505 359.459 508.33 362.754 512.401 362.754H591.227C595.359 362.754 598.752 359.398 598.752 355.31V277.445C598.752 273.357 595.359 270 591.227 270Z" fill="url(#paint3_linear)"/>
</g>
</g>
<path d="M368.171 310C370.056 310 371.59 311.526 371.634 313.426L371.635 313.51V345.49C371.635 347.4 370.129 348.954 368.254 348.999L368.171 349H340.464C338.579 349 337.045 347.474 337.001 345.574L337 345.49V313.51C337 311.599 338.506 310.046 340.381 310.001L340.464 310H368.171ZM368.171 311.95H340.464C340.066 311.951 339.683 312.107 339.397 312.387C339.11 312.666 338.941 313.047 338.925 313.45L338.924 313.51V345.49C338.925 345.893 339.079 346.281 339.355 346.571C339.631 346.862 340.007 347.033 340.405 347.049L340.464 347.05H368.171C368.569 347.049 368.951 346.893 369.238 346.614C369.525 346.334 369.694 345.953 369.71 345.55L369.711 345.49V313.51C369.71 313.096 369.548 312.7 369.259 312.407C368.971 312.115 368.579 311.95 368.171 311.95V311.95ZM345.659 335.35L349.988 339.25L345.659 343.15V335.35ZM349.507 315.85V326.922C351.428 326.288 354.114 325.6 356.723 325.6C359.101 325.6 360.525 326.548 361.301 327.343C362.931 329.014 362.978 331.136 362.976 331.437L362.976 331.45L362.976 343.15H359.128V331.504C359.109 330.594 358.676 329.5 356.722 329.5C352.849 329.5 348.509 331.455 348.38 331.513L348.377 331.515L345.659 332.763V315.85H349.507V315.85ZM362.976 315.85C362.716 318.065 361.83 320.189 360.09 322.187H356.242C357.754 320.177 358.704 318.06 359.128 315.85H362.976Z" fill="#430098"/>
<path d="M434.692 322.425C438.106 322.425 441.655 324.623 441.655 329.89C441.655 335.158 438.106 337.355 434.692 337.355C431.258 337.355 427.71 335.158 427.71 329.89C427.71 324.623 431.258 322.425 434.692 322.425V322.425ZM465.925 322.698V331.29C465.925 333.272 466.558 334.167 468.093 334.167C469.627 334.167 470.241 333.272 470.241 331.29V322.698H474V331.309C474 335.12 472.197 337.297 468.054 337.297C463.911 337.297 462.088 335.12 462.088 331.309V322.698H465.925ZM384.13 322.698V328.043H388.849V322.698H392.685V337.083H388.849V331.271H384.13V337.083H380.294V322.698H384.13ZM407.755 322.698V325.925H401.463V328.258H405.951V331.29H401.463V333.953H408.081V337.083H397.627V322.698H407.754H407.755ZM417.838 322.698C421.483 322.698 423.708 323.923 423.708 327.383C423.708 329.637 422.767 330.94 420.907 331.581L423.918 337.083H419.852L417.109 332.088H416.054V337.083H412.294V322.698H417.838ZM449.761 322.698V327.908L453.675 322.698H458.125L453.348 328.374L458.546 337.083H454.211L450.855 331.329L449.761 332.612V337.083H445.926V322.698H449.761V322.698ZM434.692 325.633C432.678 325.633 431.546 327.246 431.546 329.89C431.546 332.535 432.678 334.245 434.692 334.245C436.687 334.245 437.818 332.535 437.818 329.89C437.818 327.246 436.687 325.633 434.692 325.633ZM417.703 325.847H416.054V329.132H417.703C419.276 329.132 419.967 328.685 419.967 327.48C419.967 326.275 419.276 325.847 417.703 325.847Z" fill="#430098"/>
<path d="M243.245 294.932L209.869 308.551C208.013 309.309 208.032 311.908 209.9 312.639L243.415 325.745C246.36 326.897 249.64 326.897 252.584 325.745L286.101 312.638C287.968 311.908 287.987 309.309 286.131 308.551L252.755 294.932C249.71 293.689 246.29 293.689 243.245 294.932" fill="#FFBF00"/>
<path d="M251.293 333.56V366.762C251.293 368.341 252.881 369.422 254.345 368.841L291.592 354.345C292.007 354.179 292.364 353.893 292.615 353.522C292.866 353.152 293 352.714 293 352.266V319.064C293 317.485 291.412 316.404 289.948 316.986L252.701 331.481C252.285 331.647 251.929 331.933 251.678 332.304C251.427 332.674 251.293 333.112 251.293 333.56" fill="#26B5F8"/>
<path d="M242.352 335.253L231.164 340.639L230.028 341.186L206.408 352.47C204.911 353.19 203 352.102 203 350.444V319.078C203 318.478 203.309 317.96 203.723 317.569C203.892 317.401 204.085 317.257 204.294 317.142C204.858 316.805 205.664 316.714 206.348 316.985L242.164 331.133C243.985 331.853 244.128 334.397 242.352 335.252" fill="#ED3049"/>
<path d="M242.365 335.33L231.281 340.739L204.098 317.573C204.266 317.404 204.456 317.259 204.664 317.144C205.223 316.805 206.02 316.714 206.699 316.985L242.178 331.194C243.981 331.917 244.123 334.471 242.364 335.33" fill="black" fill-opacity="0.25"/>
<g clip-path="url(#clip2)">
<path d="M587.81 134.115C578.665 125.013 566.508 120 553.537 120C526.801 120.018 505.034 141.701 505.015 168.33L505 176.513L511.388 172.179C515.733 169.231 520.766 167.673 525.944 167.673C527.49 167.673 529.051 167.814 530.582 168.092C535.41 168.967 539.739 171.143 543.243 174.413C544.046 172.652 544.991 170.94 546.108 169.307C546.564 168.643 547.045 167.995 547.549 167.365C543.134 163.653 537.831 161.154 532.042 160.105C530.027 159.74 527.983 159.556 525.934 159.555C521.748 159.55 517.598 160.326 513.699 161.844C516.867 142.522 533.725 128.132 553.572 128.117C564.33 128.117 574.441 132.287 582.046 139.856C588.113 145.895 591.994 153.448 593.333 161.779C589.419 160.257 585.296 159.478 581.055 159.461L580.461 159.458C580.031 159.464 579.602 159.478 579.172 159.5C578.432 159.538 577.695 159.605 576.967 159.689C576.749 159.713 576.535 159.747 576.32 159.776C575.798 159.846 575.278 159.925 574.763 160.017C574.535 160.059 574.307 160.104 574.081 160.149C573.559 160.255 573.039 160.373 572.522 160.503C572.336 160.55 572.15 160.595 571.965 160.644C571.317 160.818 570.674 161.012 570.037 161.224C569.999 161.237 569.959 161.248 569.921 161.26C568.486 161.749 567.086 162.335 565.732 163.014C565.695 163.033 565.659 163.052 565.621 163.071C564.99 163.391 564.369 163.73 563.76 164.09L563.609 164.18C560.394 166.099 557.535 168.556 555.158 171.442C555.059 171.562 554.96 171.682 554.861 171.804C554.34 172.455 553.832 173.12 553.355 173.817C552.863 174.542 552.399 175.286 551.964 176.047C551.631 176.621 551.316 177.205 551.018 177.797C551.001 177.831 550.984 177.863 550.967 177.897C550.285 179.272 549.698 180.693 549.21 182.149L549.21 182.152V182.154C548.016 185.717 547.438 189.456 547.501 193.211C547.503 193.361 547.503 193.511 547.508 193.661C547.516 193.954 547.531 194.248 547.548 194.543C547.575 195.026 547.611 195.508 547.657 195.989C547.687 196.292 547.723 196.595 547.761 196.898C547.785 197.091 547.807 197.285 547.835 197.477C547.907 197.983 547.99 198.487 548.085 198.99C549.729 207.642 554.625 215.186 561.873 220.233L562.8 220.823L562.807 220.805C566.953 223.482 571.64 225.214 576.536 225.879L577.198 225.968L582.113 218.113L580.346 218.065C566.744 217.694 555.679 206.37 555.679 192.823C555.679 179.489 566.146 168.416 579.504 167.613L580.349 167.581C585.764 167.445 591.099 169.037 595.628 172.107L601.986 176.415L602 168.275C602.01 155.366 596.971 143.235 587.81 134.115" fill="#E0225C"/>
</g>
<path d="M135.748 334.886C135.748 330.76 132.44 327.415 128.359 327.415C128.096 327.415 127.838 327.429 127.582 327.456L137.731 297.189H94.6003L104.736 327.43C104.586 327.42 104.436 327.416 104.286 327.415C100.205 327.415 96.897 330.76 96.897 334.887C96.897 338.222 99.0589 341.046 102.043 342.007C100.467 344.767 98.4837 347.253 96.2323 349.401C93.1708 352.321 89.6671 354.535 85.8776 355.9C81.3658 353.556 79.2354 348.344 81.1577 343.774C81.3748 343.258 81.5965 342.735 81.8083 342.214C85.0768 341.443 87.5127 338.48 87.5127 334.94C87.5127 330.814 84.2043 327.469 80.1231 327.469C76.0419 327.469 72.7337 330.814 72.7337 334.94C72.7337 337.471 73.9787 339.706 75.8821 341.057C74.0532 345.268 71.3647 349.675 70.527 354.782C69.5231 360.903 70.5237 367.4 75.7592 371.069C87.9524 379.614 101.188 365.772 115.143 362.292C120.201 361.031 125.752 361.234 130.208 358.625C133.554 356.665 135.76 353.418 136.386 349.772C137.005 346.17 136.103 342.584 134.03 339.676C135.142 338.334 135.751 336.638 135.748 334.886" fill="#99425B"/>
<path d="M135.272 349.586C134.72 352.78 132.756 355.57 129.885 357.241C127.208 358.799 124 359.264 120.604 359.756C118.785 360.019 116.903 360.292 115.065 360.747C110.206 361.951 105.499 364.3 100.947 366.572C91.8375 371.118 83.9705 375.043 76.5526 369.878C71.1189 366.095 71.3697 359.094 72.0027 355.258C72.5894 351.704 74.1757 348.431 75.7094 345.266C75.9706 344.728 76.2298 344.189 76.4869 343.649C77.26 343.959 78.0712 344.164 78.8987 344.257C77.3373 349.434 79.7928 355.063 84.9463 357.723L85.6519 358.087L86.3986 357.82C90.4729 356.362 94.2273 354.023 97.5572 350.866C99.7096 348.826 101.56 346.569 103.081 344.157C103.544 344.227 104.011 344.262 104.479 344.262C109.209 344.262 113.126 340.709 113.732 336.121C115.668 336.05 117.724 336.049 119.672 336.12C120.277 340.709 124.195 344.262 128.925 344.262C130.903 344.262 132.737 343.639 134.249 342.582C135.298 344.74 135.69 347.168 135.272 349.586V349.586ZM79.9402 329.237C83.0676 329.237 85.6116 331.793 85.6116 334.935C85.6116 336.064 85.282 337.116 84.7161 338.003C83.7734 339.48 82.1709 340.492 80.3298 340.619C80.201 340.627 80.071 340.633 79.9402 340.633C79.2432 340.633 78.5756 340.506 77.9583 340.274C76.7151 339.804 75.674 338.913 75.0146 337.755C74.525 336.897 74.2678 335.925 74.2685 334.935C74.2685 331.793 76.8128 329.237 79.9402 329.237V329.237ZM98.8075 334.881C98.8075 332.026 100.908 329.656 103.637 329.246C103.912 329.205 104.193 329.183 104.479 329.183C106.297 329.183 107.916 330.049 108.954 331.389C109.214 331.724 109.436 332.086 109.616 332.47C109.969 333.224 110.151 334.048 110.15 334.881C110.15 335.337 110.095 335.78 109.995 336.204C109.442 338.529 107.469 340.306 105.051 340.551C104.863 340.569 104.672 340.579 104.479 340.579C103.388 340.58 102.32 340.263 101.405 339.666C99.8438 338.65 98.8075 336.885 98.8075 334.881V334.881ZM122.478 328.105C121.244 329.289 120.356 330.789 119.91 332.444C117.772 332.365 115.632 332.365 113.495 332.444C113.015 330.655 112.02 329.077 110.682 327.879L116.551 315.956L122.478 328.106V328.105ZM97.1984 298.683H135.887L126.749 325.76C126.356 325.855 125.969 325.975 125.592 326.12L116.565 307.619L107.513 326.01C107.118 325.874 106.715 325.764 106.305 325.683L97.1984 298.683V298.683ZM134.596 334.882C134.596 335.453 134.512 336.004 134.355 336.525C133.985 337.751 133.215 338.817 132.169 339.552C131.219 340.222 130.086 340.581 128.925 340.58C126.306 340.58 124.097 338.787 123.448 336.359C123.319 335.877 123.254 335.38 123.254 334.882C123.254 334.103 123.41 333.36 123.693 332.683C123.839 332.337 124.019 332.006 124.229 331.695C125.25 330.182 126.972 329.184 128.925 329.184C129.104 329.184 129.281 329.193 129.456 329.209C132.335 329.479 134.597 331.919 134.597 334.882H134.596ZM138.262 334.882C138.262 330.302 134.978 326.48 130.652 325.664L141 295H92.0857L102.45 325.726C98.2742 326.66 95.142 330.409 95.142 334.881C95.142 338.24 96.9084 341.189 99.5559 342.847C98.2825 344.753 96.7725 346.547 95.042 348.188C92.2974 350.789 89.24 352.761 85.9438 354.059C82.6237 351.964 81.2202 348.012 82.6776 344.57L82.7919 344.3L83.0061 343.794C86.6528 342.516 89.2772 339.029 89.2772 334.935C89.2772 329.763 85.0886 325.554 79.9402 325.554C74.7915 325.554 70.603 329.763 70.603 334.935C70.603 337.546 71.6713 339.911 73.3904 341.613C73.0698 342.296 72.7443 342.976 72.414 343.654C70.8421 346.897 69.0607 350.573 68.3869 354.656C67.0488 362.763 69.2073 369.244 74.4648 372.905C77.655 375.126 80.8949 376 84.1551 376C90.2938 376 96.504 372.901 102.578 369.87C106.952 367.687 111.475 365.43 115.943 364.323C117.606 363.911 119.316 363.663 121.127 363.401C124.719 362.88 128.433 362.342 131.722 360.428C135.535 358.209 138.145 354.487 138.884 350.216C139.517 346.55 138.755 342.878 136.895 339.763C137.791 338.294 138.265 336.604 138.263 334.881L138.262 334.882Z" fill="white"/>
<defs>
<filter id="filter0_d" x="0" y="0" width="661" height="504" filterUnits="userSpaceOnUse" color-interpolation-filters="sRGB">
<feFlood flood-opacity="0" result="BackgroundImageFix"/>
<feColorMatrix in="SourceAlpha" type="matrix" values="0 0 0 0 0 0 0 0 0 0 0 0 0 0 0 0 0 0 127 0"/>
<feOffset dy="4"/>
<feGaussianBlur stdDeviation="2"/>
<feColorMatrix type="matrix" values="0 0 0 0 0 0 0 0 0 0 0 0 0 0 0 0 0 0 0.25 0"/>
<feBlend mode="normal" in2="BackgroundImageFix" result="effect1_dropShadow"/>
<feBlend mode="normal" in="SourceGraphic" in2="effect1_dropShadow" result="shape"/>
</filter>
<filter id="filter1_d" x="493" y="289.291" width="85.6791" height="87.4638" filterUnits="userSpaceOnUse" color-interpolation-filters="sRGB">
<feFlood flood-opacity="0" result="BackgroundImageFix"/>
<feColorMatrix in="SourceAlpha" type="matrix" values="0 0 0 0 0 0 0 0 0 0 0 0 0 0 0 0 0 0 127 0"/>
<feOffset dy="2"/>
<feGaussianBlur stdDeviation="6"/>
<feColorMatrix type="matrix" values="0 0 0 0 0 0 0 0 0 0 0 0 0 0 0 0 0 0 0.2 0"/>
<feBlend mode="normal" in2="BackgroundImageFix" result="effect1_dropShadow"/>
<feBlend mode="normal" in="SourceGraphic" in2="effect1_dropShadow" result="shape"/>
</filter>
<linearGradient id="paint0_linear" x1="505" y1="316.377" x2="598.752" y2="316.377" gradientUnits="userSpaceOnUse">
<stop stop-color="white" stop-opacity="0.1"/>
<stop offset="1" stop-color="white" stop-opacity="0"/>
</linearGradient>
<linearGradient id="paint1_linear" x1="505" y1="316.377" x2="598.752" y2="316.377" gradientUnits="userSpaceOnUse">
<stop stop-color="white" stop-opacity="0.1"/>
<stop offset="1" stop-color="white" stop-opacity="0"/>
</linearGradient>
<linearGradient id="paint2_linear" x1="550.796" y1="315.309" x2="604.488" y2="328.825" gradientUnits="userSpaceOnUse">
<stop stop-color="#BF360C" stop-opacity="0.2"/>
<stop offset="1" stop-color="#BF360C" stop-opacity="0.02"/>
</linearGradient>
<linearGradient id="paint3_linear" x1="536.435" y1="301.143" x2="596.433" y2="361.786" gradientUnits="userSpaceOnUse">
<stop stop-color="white" stop-opacity="0.1"/>
<stop offset="1" stop-color="white" stop-opacity="0"/>
</linearGradient>
<clipPath id="clip0">
<rect x="220" y="126" width="73" height="108" fill="white"/>
</clipPath>
<clipPath id="clip1">
<rect x="505" y="270" width="94" height="93" fill="white"/>
</clipPath>
<clipPath id="clip2">
<rect x="505" y="120" width="97" height="106" fill="white"/>
</clipPath>
</defs>
</svg>
