<svg width="307" height="307" viewBox="0 0 307 307" fill="none" xmlns="http://www.w3.org/2000/svg">
<g filter="url(#filter0_d)">
<circle cx="150" cy="150" r="150" fill="#FFEAEA"/>
</g>
<g filter="url(#filter1_d)">
<path d="M43.9888 170V160.8H42.1888V168.4H30.6688V154.4H40.9887V152.8H30.6688V139.6H42.1888V147.2H43.9888V138H18.2688V139.6H21.4688V168.4H18.2688V170H43.9888ZM46.775 146H61.295V147.6H58.895L63.295 154.48L68.095 147.6H66.015V146H73.135V147.6H70.255L64.295 156.08L72.135 168.4H74.735V170H59.695V168.4H62.615L57.575 160.52L52.055 168.4H54.935V170H47.175V168.4H49.895L56.575 158.88L49.375 147.6H46.775V146ZM79.5156 147.6V179.48L83.2356 183.2H91.5156V181.6H88.7156V168.08L90.6356 170H99.9956L103.716 166.28V149.72L99.9956 146H90.6356L87.8356 148.8L84.9956 146H76.3156V147.6H79.5156ZM88.7156 150.4L91.5156 147.6H94.3156V168.4H91.5156L88.7156 165.6V150.4ZM111.431 170H126.991L130.711 166.28L129.471 165.04L126.111 168.4H116.911V160H126.791L130.511 156.28V149.72L126.791 146H111.431L107.711 149.72V166.28L111.431 170ZM116.911 147.6H121.311V158.4H116.911V147.6ZM155.317 148.92L154.077 150.16L151.517 147.6H148.117L145.317 150.4V168.4H148.517V170H139.837L136.117 166.28V147.6H132.917V146H141.597L144.437 148.8L147.237 146H152.397L155.317 148.92ZM163.4 142.8L157.32 136.68L163.44 130.6L169.52 136.72L163.4 142.8ZM171.72 168.4V170H163.04L159.32 166.28V147.6H156.12V146H164.8L168.52 149.72V168.4H171.72ZM178.228 170H193.788L197.508 166.28L196.268 165.04L192.908 168.4H183.708V160H193.588L197.308 156.28V149.72L193.588 146H178.228L174.508 149.72V166.28L178.228 170ZM183.708 147.6H188.108V158.4H183.708V147.6ZM230.114 168.4V170H221.034L217.714 166.68V147.6H214.914L212.114 150.4V168.4H214.114V170H199.714V168.4H202.914V147.6H199.714V146H208.394L211.234 148.8L214.034 146H223.194L226.914 149.72V168.4H230.114ZM245.906 154V147.6H241.706V168.4H249.306L252.466 165.24L253.706 166.48L250.186 170H236.226L232.506 166.28V149.72L236.226 146H250.986L253.906 148.92V154H245.906ZM260.845 170H276.405L280.125 166.28L278.885 165.04L275.525 168.4H266.325V160H276.205L279.925 156.28V149.72L276.205 146H260.845L257.125 149.72V166.28L260.845 170ZM266.325 147.6H270.725V158.4H266.325V147.6Z" fill="#343D24"/>
</g>
<defs>
<filter id="filter0_d" x="0" y="0" width="307" height="307" filterUnits="userSpaceOnUse" color-interpolation-filters="sRGB">
<feFlood flood-opacity="0" result="BackgroundImageFix"/>
<feColorMatrix in="SourceAlpha" type="matrix" values="0 0 0 0 0 0 0 0 0 0 0 0 0 0 0 0 0 0 127 0"/>
<feOffset dx="4" dy="4"/>
<feGaussianBlur stdDeviation="1.5"/>
<feColorMatrix type="matrix" values="0 0 0 0 0 0 0 0 0 0 0 0 0 0 0 0 0 0 0.5 0"/>
<feBlend mode="normal" in2="BackgroundImageFix" result="effect1_dropShadow"/>
<feBlend mode="normal" in="SourceGraphic" in2="effect1_dropShadow" result="shape"/>
</filter>
<filter id="filter1_d" x="14.2688" y="130.6" width="269.856" height="60.6" filterUnits="userSpaceOnUse" color-interpolation-filters="sRGB">
<feFlood flood-opacity="0" result="BackgroundImageFix"/>
<feColorMatrix in="SourceAlpha" type="matrix" values="0 0 0 0 0 0 0 0 0 0 0 0 0 0 0 0 0 0 127 0"/>
<feOffset dy="4"/>
<feGaussianBlur stdDeviation="2"/>
<feColorMatrix type="matrix" values="0 0 0 0 0 0 0 0 0 0 0 0 0 0 0 0 0 0 0.25 0"/>
<feBlend mode="normal" in2="BackgroundImageFix" result="effect1_dropShadow"/>
<feBlend mode="normal" in="SourceGraphic" in2="effect1_dropShadow" result="shape"/>
</filter>
</defs>
</svg>
