<svg width="307" height="307" viewBox="0 0 307 307" fill="none" xmlns="http://www.w3.org/2000/svg">
<g filter="url(#filter0_d)">
<circle cx="150" cy="150" r="150" fill="#FFEAEA"/>
</g>
<g filter="url(#filter1_d)">
<path d="M58.7633 135H43.1633V136.6H46.3633V165.4H43.1633V167H58.7633V165.4H55.5633V136.6H58.7633V135ZM90.7508 165.4V167H81.6708L78.3508 163.68V144.6H75.5508L72.7508 147.4V165.4H74.7508V167H60.3508V165.4H63.5508V144.6H60.3508V143H69.0308L71.8708 145.8L74.6708 143H83.8308L87.5508 146.72V165.4H90.7508ZM110.143 163.28L106.423 167H98.463L94.743 163.28V137.8H91.943V136.2H100.023L103.343 139.52V145.4H108.943V147H103.343V165.4H105.543L108.903 162.04L110.143 163.28ZM116.677 167H132.237L135.957 163.28L134.717 162.04L131.357 165.4H122.157V157H132.037L135.757 153.28V146.72L132.037 143H116.677L112.957 146.72V163.28L116.677 167ZM122.157 144.6H126.557V155.4H122.157V144.6ZM160.563 145.92L159.323 147.16L156.763 144.6H153.363L150.563 147.4V165.4H153.763V167H145.083L141.363 163.28V144.6H138.163V143H146.843L149.683 145.8L152.483 143H157.643L160.563 145.92ZM166.286 167H181.846L185.566 163.28L184.326 162.04L180.966 165.4H171.766V157H181.646L185.366 153.28V146.72L181.646 143H166.286L162.566 146.72V163.28L166.286 167ZM171.766 144.6H176.166V155.4H171.766V144.6ZM191.173 167.4V164.28L193.893 167H206.493L209.813 163.68V158.84L196.373 144.6H204.013L207.613 148.2V151.2H209.413V142.6H207.613V145.72L204.893 143H193.093L189.773 146.32V151.16L203.213 165.4H194.773L191.173 161.8V158.8H189.373V167.4H191.173ZM231.198 163.28L227.478 167H219.518L215.798 163.28V137.8H212.998V136.2H221.078L224.398 139.52V145.4H229.998V147H224.398V165.4H226.598L229.958 162.04L231.198 163.28ZM236.212 167.4V164.28L238.932 167H251.532L254.852 163.68V158.84L241.412 144.6H249.052L252.652 148.2V151.2H254.452V142.6H252.652V145.72L249.932 143H238.132L234.812 146.32V151.16L248.252 165.4H239.812L236.212 161.8V158.8H234.412V167.4H236.212Z" fill="#343D24"/>
</g>
<defs>
<filter id="filter0_d" x="0" y="0" width="307" height="307" filterUnits="userSpaceOnUse" color-interpolation-filters="sRGB">
<feFlood flood-opacity="0" result="BackgroundImageFix"/>
<feColorMatrix in="SourceAlpha" type="matrix" values="0 0 0 0 0 0 0 0 0 0 0 0 0 0 0 0 0 0 127 0"/>
<feOffset dx="4" dy="4"/>
<feGaussianBlur stdDeviation="1.5"/>
<feColorMatrix type="matrix" values="0 0 0 0 0 0 0 0 0 0 0 0 0 0 0 0 0 0 0.5 0"/>
<feBlend mode="normal" in2="BackgroundImageFix" result="effect1_dropShadow"/>
<feBlend mode="normal" in="SourceGraphic" in2="effect1_dropShadow" result="shape"/>
</filter>
<filter id="filter1_d" x="39.1633" y="135" width="219.688" height="40.4" filterUnits="userSpaceOnUse" color-interpolation-filters="sRGB">
<feFlood flood-opacity="0" result="BackgroundImageFix"/>
<feColorMatrix in="SourceAlpha" type="matrix" values="0 0 0 0 0 0 0 0 0 0 0 0 0 0 0 0 0 0 127 0"/>
<feOffset dy="4"/>
<feGaussianBlur stdDeviation="2"/>
<feColorMatrix type="matrix" values="0 0 0 0 0 0 0 0 0 0 0 0 0 0 0 0 0 0 0.25 0"/>
<feBlend mode="normal" in2="BackgroundImageFix" result="effect1_dropShadow"/>
<feBlend mode="normal" in="SourceGraphic" in2="effect1_dropShadow" result="shape"/>
</filter>
</defs>
</svg>
