<svg width="128" height="128" viewBox="0 0 128 128" fill="none" xmlns="http://www.w3.org/2000/svg">
<g filter="url(#filter0_d)">
<g filter="url(#filter1_d)">
<circle cx="60" cy="60" r="60" fill="#FFCBC9"/>
</g>
<g filter="url(#filter2_d)">
<path d="M20.1772 52.72L17.7452 50.272L20.1932 47.84L22.6252 50.288L20.1772 52.72ZM23.5052 62.96V63.6H20.0332L18.5452 62.112V54.64H17.2652V54H20.7372L22.2252 55.488V62.96H23.5052ZM36.3002 62.96V63.6H32.6682L31.3402 62.272V54.64H30.2202L29.1002 55.76V62.96H29.9002V63.6H24.1402V62.96H25.4202V54.64H24.1402V54H27.6122L28.7482 55.12L29.8682 54H33.5322L35.0202 55.488V62.96H36.3002ZM44.0571 62.112L42.5691 63.6H39.3851L37.8971 62.112V51.92H36.7771V51.28H40.0091L41.3371 52.608V54.96H43.5771V55.6H41.3371V62.96H42.2171L43.5611 61.616L44.0571 62.112ZM46.6707 63.6H52.8947L54.3827 62.112L53.8867 61.616L52.5427 62.96H48.8627V59.6H52.8147L54.3027 58.112V55.488L52.8147 54H46.6707L45.1827 55.488V62.112L46.6707 63.6ZM48.8627 54.64H50.6227V58.96H48.8627V54.64ZM64.2252 55.168L63.7292 55.664L62.7052 54.64H61.3452L60.2252 55.76V62.96H61.5052V63.6H58.0332L56.5452 62.112V54.64H55.2652V54H58.7372L59.8732 55.12L60.9932 54H63.0572L64.2252 55.168ZM66.5145 63.6H72.7385L74.2265 62.112L73.7305 61.616L72.3865 62.96H68.7065V59.6H72.6585L74.1465 58.112V55.488L72.6585 54H66.5145L65.0265 55.488V62.112L66.5145 63.6ZM68.7065 54.64H70.4665V58.96H68.7065V54.64ZM76.469 63.76V62.512L77.557 63.6H82.597L83.925 62.272V60.336L78.549 54.64H81.605L83.045 56.08V57.28H83.765V53.84H83.045V55.088L81.957 54H77.237L75.909 55.328V57.264L81.285 62.96H77.909L76.469 61.52V60.32H75.749V63.76H76.469ZM92.479 62.112L90.991 63.6H87.807L86.319 62.112V51.92H85.199V51.28H88.431L89.759 52.608V54.96H91.999V55.6H89.759V62.96H90.639L91.983 61.616L92.479 62.112ZM94.4846 63.76V62.512L95.5726 63.6H100.613L101.941 62.272V60.336L96.5646 54.64H99.6206L101.061 56.08V57.28H101.781V53.84H101.061V55.088L99.9726 54H95.2526L93.9246 55.328V57.264L99.3006 62.96H95.9246L94.4846 61.52V60.32H93.7646V63.76H94.4846Z" fill="#343D24"/>
</g>
</g>
<defs>
<filter id="filter0_d" x="0" y="0" width="128" height="128" filterUnits="userSpaceOnUse" color-interpolation-filters="sRGB">
<feFlood flood-opacity="0" result="BackgroundImageFix"/>
<feColorMatrix in="SourceAlpha" type="matrix" values="0 0 0 0 0 0 0 0 0 0 0 0 0 0 0 0 0 0 127 0"/>
<feOffset dx="4" dy="4"/>
<feGaussianBlur stdDeviation="2"/>
<feColorMatrix type="matrix" values="0 0 0 0 0 0 0 0 0 0 0 0 0 0 0 0 0 0 0.5 0"/>
<feBlend mode="normal" in2="BackgroundImageFix" result="effect1_dropShadow"/>
<feBlend mode="normal" in="SourceGraphic" in2="effect1_dropShadow" result="shape"/>
</filter>
<filter id="filter1_d" x="0" y="0" width="128" height="128" filterUnits="userSpaceOnUse" color-interpolation-filters="sRGB">
<feFlood flood-opacity="0" result="BackgroundImageFix"/>
<feColorMatrix in="SourceAlpha" type="matrix" values="0 0 0 0 0 0 0 0 0 0 0 0 0 0 0 0 0 0 127 0"/>
<feOffset dx="4" dy="4"/>
<feGaussianBlur stdDeviation="2"/>
<feColorMatrix type="matrix" values="0 0 0 0 0 0 0 0 0 0 0 0 0 0 0 0 0 0 0.8 0"/>
<feBlend mode="normal" in2="BackgroundImageFix" result="effect1_dropShadow"/>
<feBlend mode="normal" in="SourceGraphic" in2="effect1_dropShadow" result="shape"/>
</filter>
<filter id="filter2_d" x="13.2653" y="47.84" width="92.6754" height="23.92" filterUnits="userSpaceOnUse" color-interpolation-filters="sRGB">
<feFlood flood-opacity="0" result="BackgroundImageFix"/>
<feColorMatrix in="SourceAlpha" type="matrix" values="0 0 0 0 0 0 0 0 0 0 0 0 0 0 0 0 0 0 127 0"/>
<feOffset dy="4"/>
<feGaussianBlur stdDeviation="2"/>
<feColorMatrix type="matrix" values="0 0 0 0 0 0 0 0 0 0 0 0 0 0 0 0 0 0 0.25 0"/>
<feBlend mode="normal" in2="BackgroundImageFix" result="effect1_dropShadow"/>
<feBlend mode="normal" in="SourceGraphic" in2="effect1_dropShadow" result="shape"/>
</filter>
</defs>
</svg>
