<svg width="200" height="200" viewBox="0 0 307 307" fill="none" xmlns="http://www.w3.org/2000/svg">
<g filter="url(#filter0_d)">
<circle cx="150" cy="150" r="150" fill="#FFEAEA"/>
</g>
<g filter="url(#filter1_d)">
<path d="M85.3984 150.4H87.1984V154.72L90.8784 158.4H103.758L85.7984 137.24V131.72L89.5184 128H105.238L108.038 130.8V127.6H109.838V137.6H108.038V133.28L104.358 129.6H92.6784L110.638 150.76V156.28L106.918 160H89.9984L87.1984 157.2V160.4H85.3984V150.4ZM131.256 156.28L127.536 160H119.576L115.856 156.28V130.8H113.056V129.2H121.136L124.456 132.52V138.4H130.056V140H124.456V158.4H126.656L130.016 155.04L131.256 156.28ZM137.79 160H146.55L148.99 157.56L151.39 160H160.47V158.4H157.27V139.32L153.95 136H138.79L135.47 139.32V144H143.87V137.6H148.07V147.2H137.79L134.47 150.52V156.68L137.79 160ZM143.87 148.8H148.07V156L145.67 158.4H143.87V148.8ZM176.289 144V137.6H172.089V158.4H179.689L182.849 155.24L184.089 156.48L180.569 160H166.609L162.889 156.28V139.72L166.609 136H181.369L184.289 138.92V144H176.289ZM194.588 124.8L198.308 128.52V160H192.828L189.108 156.28V126.4H185.908V124.8H194.588ZM215.988 158.4V160H204.708L199.308 147.96V146.4L208.348 136H212.948V137.6H209.268L201.628 146.4H208.628L213.988 158.4H215.988Z" fill="#343D24"/>
</g>
<defs>
<filter id="filter0_d" x="0" y="0" width="307" height="307" filterUnits="userSpaceOnUse" color-interpolation-filters="sRGB">
<feFlood flood-opacity="0" result="BackgroundImageFix"/>
<feColorMatrix in="SourceAlpha" type="matrix" values="0 0 0 0 0 0 0 0 0 0 0 0 0 0 0 0 0 0 127 0"/>
<feOffset dx="4" dy="4"/>
<feGaussianBlur stdDeviation="1.5"/>
<feColorMatrix type="matrix" values="0 0 0 0 0 0 0 0 0 0 0 0 0 0 0 0 0 0 0.5 0"/>
<feBlend mode="normal" in2="BackgroundImageFix" result="effect1_dropShadow"/>
<feBlend mode="normal" in="SourceGraphic" in2="effect1_dropShadow" result="shape"/>
</filter>
<filter id="filter1_d" x="81.3984" y="124.8" width="138.589" height="43.6" filterUnits="userSpaceOnUse" color-interpolation-filters="sRGB">
<feFlood flood-opacity="0" result="BackgroundImageFix"/>
<feColorMatrix in="SourceAlpha" type="matrix" values="0 0 0 0 0 0 0 0 0 0 0 0 0 0 0 0 0 0 127 0"/>
<feOffset dy="4"/>
<feGaussianBlur stdDeviation="2"/>
<feColorMatrix type="matrix" values="0 0 0 0 0 0 0 0 0 0 0 0 0 0 0 0 0 0 0.25 0"/>
<feBlend mode="normal" in2="BackgroundImageFix" result="effect1_dropShadow"/>
<feBlend mode="normal" in="SourceGraphic" in2="effect1_dropShadow" result="shape"/>
</filter>
</defs>
</svg>
