<svg width="150" height="150" viewBox="0 0 150 15" fill="none" xmlns="http://www.w3.org/2000/svg">
<g filter="url(#filter0_d)">
<g filter="url(#filter1_d)">
<circle cx="60" cy="60" r="60" fill="#FFCBC9"/>
</g>
<g filter="url(#filter2_d)">
<path d="M19.2369 62.512L17.7489 64H14.5649L13.0769 62.512V52.32H11.9569V51.68H15.1889L16.5169 53.008V55.36H18.7569V56H16.5169V63.36H17.3969L18.7409 62.016L19.2369 62.512ZM21.8505 64H28.0745L29.5625 62.512L29.0665 62.016L27.7225 63.36H24.0425V60H27.9945L29.4825 58.512V55.888L27.9945 54.4H21.8505L20.3625 55.888V62.512L21.8505 64ZM24.0425 55.04H25.8025V59.36H24.0425V55.04ZM36.125 57.6V55.04H34.445V63.36H37.485L38.749 62.096L39.245 62.592L37.837 64H32.253L30.765 62.512V55.888L32.253 54.4H38.157L39.325 55.568V57.6H36.125ZM52.0525 63.36V64H48.5805L47.0925 62.512V55.04H45.8125L44.7725 56.08V63.36H45.7325V64H42.5805L41.0925 62.512V50.56H39.8125V49.92H43.2845L44.7725 51.408V55.088L45.4605 54.4H49.2845L50.7725 55.888V63.36H52.0525ZM58.055 64.16V62.912L59.143 64H64.183L65.511 62.672V60.736L60.135 55.04H63.191L64.631 56.48V57.68H65.351V54.24H64.631V55.488L63.543 54.4H58.823L57.495 55.728V57.664L62.871 63.36H59.495L58.055 61.92V60.72H57.335V64.16H58.055ZM74.065 62.512L72.577 64H69.393L67.905 62.512V52.32H66.785V51.68H70.017L71.345 53.008V55.36H73.585V56H71.345V63.36H72.225L73.569 62.016L74.065 62.512ZM76.6786 64H80.1826L81.1586 63.024L82.1186 64H85.7506V63.36H84.4706V55.728L83.1426 54.4H77.0786L75.7506 55.728V57.6H79.1106V55.04H80.7906V58.88H76.6786L75.3506 60.208V62.672L76.6786 64ZM79.1106 59.52H80.7906V62.4L79.8306 63.36H79.1106V59.52ZM92.0781 57.6V55.04H90.3981V63.36H93.4381L94.7021 62.096L95.1981 62.592L93.7901 64H88.2061L86.7181 62.512V55.888L88.2061 54.4H94.1101L95.2781 55.568V57.6H92.0781ZM99.3976 49.92L100.886 51.408V64H98.6936L97.2056 62.512V50.56H95.9256V49.92H99.3976ZM107.958 63.36V64H103.446L101.286 59.184V58.56L104.902 54.4H106.742V55.04H105.27L102.214 58.56H105.014L107.158 63.36H107.958Z" fill="#343D24"/>
</g>
</g>

<filter id="filter0_d" x="0" y="0" width="128" height="128" filterUnits="userSpaceOnUse" color-interpolation-filters="sRGB">
<feFlood flood-opacity="0" result="BackgroundImageFix"/>
<feColorMatrix in="SourceAlpha" type="matrix" values="0 0 0 0 0 0 0 0 0 0 0 0 0 0 0 0 0 0 127 0"/>
<feOffset dx="4" dy="4"/>
<feGaussianBlur stdDeviation="2"/>
<feColorMatrix type="matrix" values="0 0 0 0 0 0 0 0 0 0 0 0 0 0 0 0 0 0 0.5 0"/>
<feBlend mode="normal" in2="BackgroundImageFix" result="effect1_dropShadow"/>
<feBlend mode="normal" in="SourceGraphic" in2="effect1_dropShadow" result="shape"/>
</filter>
<!-- <defs>
<filter id="filter1_d" x="0" y="0" width="128" height="128" filterUnits="userSpaceOnUse" color-interpolation-filters="sRGB">
<feFlood flood-opacity="0" result="BackgroundImageFix"/>
<feColorMatrix in="SourceAlpha" type="matrix" values="0 0 0 0 0 0 0 0 0 0 0 0 0 0 0 0 0 0 127 0"/>
<feOffset dx="4" dy="4"/>
<feGaussianBlur stdDeviation="2"/>
<feColorMatrix type="matrix" values="0 0 0 0 0 0 0 0 0 0 0 0 0 0 0 0 0 0 0.8 0"/>
<feBlend mode="normal" in2="BackgroundImageFix" result="effect1_dropShadow"/>
<feBlend mode="normal" in="SourceGraphic" in2="effect1_dropShadow" result="shape"/>
</filter>
<filter id="filter2_d" x="7.95679" y="49.92" width="104.001" height="22.24" filterUnits="userSpaceOnUse" color-interpolation-filters="sRGB">
<feFlood flood-opacity="0" result="BackgroundImageFix"/>
<feColorMatrix in="SourceAlpha" type="matrix" values="0 0 0 0 0 0 0 0 0 0 0 0 0 0 0 0 0 0 127 0"/>
<feOffset dy="4"/>
<feGaussianBlur stdDeviation="2"/>
<feColorMatrix type="matrix" values="0 0 0 0 0 0 0 0 0 0 0 0 0 0 0 0 0 0 0.25 0"/>
<feBlend mode="normal" in2="BackgroundImageFix" result="effect1_dropShadow"/>
<feBlend mode="normal" in="SourceGraphic" in2="effect1_dropShadow" result="shape"/>
</filter>-->
</defs>
</svg>
