<svg width="250" height="790" viewBox="0 0 357 897" fill="none" xmlns="http://www.w3.org/2000/svg">
<g filter="url(#filter0_d)">
<rect x="29" width="300" height="824" rx="150" fill="#FFEAEA"/>
</g>
<path d="M129.271 124.2H126.871V143.91L123.781 147H111.721L108.631 143.91V124.2H106.231V123H117.931V124.2H115.531V145.8H123.121L125.521 143.4V124.2H123.121V123H129.271V124.2ZM156.845 145.8V147H143.555V145.8H146.435L141.305 137.28L135.185 145.8H138.005V147H130.985V145.8H133.565L140.555 136.05L133.445 124.2H131.375V123H144.605V124.2H141.785L146.105 131.37L151.265 124.2H148.385V123H155.405V124.2H152.885L146.855 132.6L154.775 145.8H156.845ZM184.879 145.8H175.729V124.2H178.129V123H166.429V124.2H168.829V145.8H166.429V147H186.229V140.1H184.879V145.8ZM191.418 147H203.088L205.878 144.21L204.948 143.28L202.428 145.8H195.528V139.5H202.938L205.728 136.71V131.79L202.938 129H191.418L188.628 131.79V144.21L191.418 147ZM195.528 130.2H198.828V138.3H195.528V130.2ZM211.223 147H217.793L219.623 145.17L221.423 147H228.233V145.8H225.833V131.49L223.343 129H211.973L209.483 131.49V135H215.783V130.2H218.933V137.4H211.223L208.733 139.89V144.51L211.223 147ZM215.783 138.6H218.933V144L217.133 145.8H215.783V138.6ZM251.377 145.8V147H244.867L242.767 144.87L240.637 147H233.137L230.347 144.21V131.79L233.137 129H240.457L242.077 130.62V121.8H239.677V120.6H246.187L248.977 123.39V145.8H251.377ZM242.077 143.7V132.48L239.797 130.2H237.397V145.8H239.977L242.077 143.7ZM54.1992 192.8H55.5492V196.04L58.3092 198.8H67.9692L54.4992 182.93V178.79L57.2892 176H69.0792L71.1792 178.1V175.7H72.5292V183.2H71.1792V179.96L68.4192 177.2H59.6592L73.1292 193.07V197.21L70.3392 200H57.6492L55.5492 197.9V200.3H54.1992V192.8ZM85.8926 188V183.2H82.7426V198.8H88.4426L90.8126 196.43L91.7426 197.36L89.1026 200H78.6326L75.8426 197.21V184.79L78.6326 182H89.7026L91.8926 184.19V188H85.8926ZM110.207 184.19L109.277 185.12L107.357 183.2H104.807L102.707 185.3V198.8H105.107V200H98.5966L95.8066 197.21V183.2H93.4066V182H99.9166L102.047 184.1L104.147 182H108.017L110.207 184.19ZM133.459 198.8V200H126.949L124.849 197.87L122.719 200H115.999L113.209 197.21V183.2H110.809V182H117.169L119.959 184.79V198.8H122.059L124.159 196.7V182H128.269L131.059 184.79V198.8H133.459ZM168.707 198.8V200H162.047L159.557 197.51V183.2H157.457L155.357 185.3V198.8H157.157V200H148.457V183.2H146.357L144.257 185.3V198.8H146.057V200H134.957V198.8H137.357V183.2H134.957V182H141.467L143.597 184.1L145.697 182H152.567L154.697 184.1L156.797 182H163.517L166.307 184.79V198.8H168.707ZM208.407 177.2V198.8H210.507V200H198.507V198.8H201.507V177.38L195.597 200H188.547L182.037 177.26V198.8H185.037V200H178.287V198.8H180.687V177.2H178.287V176H188.727L194.877 197.48L200.487 176H210.507V177.2H208.407ZM215.69 200H222.26L224.09 198.17L225.89 200H232.7V198.8H230.3V184.49L227.81 182H216.44L213.95 184.49V188H220.25V183.2H223.4V190.4H215.69L213.2 192.89V197.51L215.69 200ZM220.25 191.6H223.4V197L221.6 198.8H220.25V191.6ZM236.464 200.3V197.96L238.504 200H247.954L250.444 197.51V193.88L240.364 183.2H246.094L248.794 185.9V188.15H250.144V181.7H248.794V184.04L246.754 182H237.904L235.414 184.49V188.12L245.494 198.8H239.164L236.464 196.1V193.85H235.114V200.3H236.464ZM266.483 197.21L263.693 200H257.723L254.933 197.21V178.1H252.833V176.9H258.893L261.383 179.39V183.8H265.583V185H261.383V198.8H263.033L265.553 196.28L266.483 197.21ZM271.384 200H283.054L285.844 197.21L284.914 196.28L282.394 198.8H275.494V192.5H282.904L285.694 189.71V184.79L282.904 182H271.384L268.594 184.79V197.21L271.384 200ZM275.494 183.2H278.794V191.3H275.494V183.2ZM304.298 184.19L303.368 185.12L301.448 183.2H298.898L296.798 185.3V198.8H299.198V200H292.688L289.898 197.21V183.2H287.498V182H294.008L296.138 184.1L298.238 182H302.108L304.298 184.19ZM80.7118 254.68L83.2318 257.2H88.0318V230.2H85.6318V229H97.0318V230.2H94.9318V255.61L92.1418 258.4H82.5718L79.7818 255.61L80.7118 254.68ZM101.916 253H108.486L110.316 251.17L112.116 253H118.926V251.8H116.526V237.49L114.036 235H102.666L100.176 237.49V241H106.476V236.2H109.626V243.4H101.916L99.426 245.89V250.51L101.916 253ZM106.476 244.6H109.626V250L107.826 251.8H106.476V244.6ZM142.01 236.2H139.97L134.51 253H127.64L122.18 236.2H120.14V235H131.21V236.2H129.05L133.79 250.78L138.53 236.2H136.37V235H142.01V236.2ZM146.887 253H153.457L155.287 251.17L157.087 253H163.897V251.8H161.497V237.49L159.007 235H147.637L145.147 237.49V241H151.447V236.2H154.597V243.4H146.887L144.397 245.89V250.51L146.887 253ZM151.447 244.6H154.597V250L152.797 251.8H151.447V244.6ZM166.011 245.8H167.361V249.04L170.121 251.8H179.781L166.311 235.93V231.79L169.101 229H180.891L182.991 231.1V228.7H184.341V236.2H182.991V232.96L180.231 230.2H171.471L184.941 246.07V250.21L182.151 253H169.461L167.361 250.9V253.3H166.011V245.8ZM197.704 241V236.2H194.554V251.8H200.254L202.624 249.43L203.554 250.36L200.914 253H190.444L187.654 250.21V237.79L190.444 235H201.514L203.704 237.19V241H197.704ZM222.018 237.19L221.088 238.12L219.168 236.2H216.618L214.518 238.3V251.8H216.918V253H210.408L207.618 250.21V236.2H205.218V235H211.728L213.858 237.1L215.958 235H219.828L222.018 237.19ZM228.081 232.6L223.521 228.01L228.111 223.45L232.671 228.04L228.081 232.6ZM234.321 251.8V253H227.811L225.021 250.21V236.2H222.621V235H229.131L231.921 237.79V251.8H234.321ZM237.911 236.2V260.11L240.701 262.9H246.911V261.7H244.811V251.56L246.251 253H253.271L256.061 250.21V237.79L253.271 235H246.251L244.151 237.1L242.021 235H235.511V236.2H237.911ZM244.811 238.3L246.911 236.2H249.011V251.8H246.911L244.811 249.7V238.3ZM271.508 250.21L268.718 253H262.748L259.958 250.21V231.1H257.858V229.9H263.918L266.408 232.39V236.8H270.608V238H266.408V251.8H268.058L270.578 249.28L271.508 250.21ZM124.639 306V304.8H122.239V294.6H127.129V303.51L129.619 306H136.429V304.8H134.029V296.49L131.539 294L134.029 291.51V284.79L131.239 282H112.939V283.2H115.339V304.8H112.939V306H124.639ZM122.239 283.2H127.129V293.4H122.239V283.2ZM140.72 306H152.39L155.18 303.21L154.25 302.28L151.73 304.8H144.83V298.5H152.24L155.03 295.71V290.79L152.24 288H140.72L137.93 290.79V303.21L140.72 306ZM144.83 289.2H148.13V297.3H144.83V289.2ZM160.524 306H167.094L168.924 304.17L170.724 306H177.534V304.8H175.134V290.49L172.644 288H161.274L158.784 290.49V294H165.084V289.2H168.234V296.4H160.524L158.034 298.89V303.51L160.524 306ZM165.084 297.6H168.234V303L166.434 304.8H165.084V297.6ZM189.398 294V289.2H186.248V304.8H191.948L194.318 302.43L195.248 303.36L192.608 306H182.138L179.348 303.21V290.79L182.138 288H193.208L195.398 290.19V294H189.398ZM210.263 303.21L207.473 306H201.503L198.713 303.21V284.1H196.613V282.9H202.673L205.163 285.39V289.8H209.363V291H205.163V304.8H206.813L209.333 302.28L210.263 303.21ZM206.703 307.68L209.223 310.2H214.023V283.2H211.623V282H223.023V283.2H220.923V308.61L218.133 311.4H208.563L205.773 308.61L206.703 307.68ZM225.117 298.8H226.467V302.04L229.227 304.8H238.887L225.417 288.93V284.79L228.207 282H239.997L242.097 284.1V281.7H243.447V289.2H242.097V285.96L239.337 283.2H230.577L244.047 299.07V303.21L241.257 306H228.567L226.467 303.9V306.3H225.117V298.8ZM127.477 359V352.1H126.127V357.8H117.487V347.3H125.227V346.1H117.487V336.2H126.127V341.9H127.477V335H108.187V336.2H110.587V357.8H108.187V359H127.477ZM129.567 341H140.457V342.2H138.657L141.957 347.36L145.557 342.2H143.997V341H149.337V342.2H147.177L142.707 348.56L148.587 357.8H150.537V359H139.257V357.8H141.447L137.667 351.89L133.527 357.8H135.687V359H129.867V357.8H131.907L136.917 350.66L131.517 342.2H129.567V341ZM154.122 342.2V366.11L156.912 368.9H163.122V367.7H161.022V357.56L162.462 359H169.482L172.272 356.21V343.79L169.482 341H162.462L160.362 343.1L158.232 341H151.722V342.2H154.122ZM161.022 344.3L163.122 342.2H165.222V357.8H163.122L161.022 355.7V344.3ZM191.169 343.19L190.239 344.12L188.319 342.2H185.769L183.669 344.3V357.8H186.069V359H179.559L176.769 356.21V342.2H174.369V341H180.879L183.009 343.1L185.109 341H188.979L191.169 343.19ZM195.461 359H207.131L209.921 356.21L208.991 355.28L206.471 357.8H199.571V351.5H206.981L209.771 348.71V343.79L206.981 341H195.461L192.671 343.79V356.21L195.461 359ZM199.571 342.2H202.871V350.3H199.571V342.2ZM214.126 359.3V356.96L216.166 359H225.616L228.106 356.51V352.88L218.026 342.2H223.756L226.456 344.9V347.15H227.806V340.7H226.456V343.04L224.416 341H215.566L213.076 343.49V347.12L223.156 357.8H216.826L214.126 355.1V352.85H212.776V359.3H214.126ZM233.344 359.3V356.96L235.384 359H244.834L247.324 356.51V352.88L237.244 342.2H242.974L245.674 344.9V347.15H247.024V340.7H245.674V343.04L243.634 341H234.784L232.294 343.49V347.12L242.374 357.8H236.044L233.344 355.1V352.85H231.994V359.3H233.344ZM142.552 389.2H140.152V412H132.052L120.682 389.2V410.8H123.082V412H116.932V410.8H119.332V389.2H116.932V388H127.432L138.802 410.8V389.2H136.402V388H142.552V389.2ZM161.859 397.09V408.91L158.769 412H147.729L144.639 408.91V397.09L147.729 394H158.769L161.859 397.09ZM151.839 395.2V410.8H154.659V395.2H151.839ZM185.884 410.8V412H179.374L177.274 409.87L175.144 412H167.644L164.854 409.21V396.79L167.644 394H174.964L176.584 395.62V386.8H174.184V385.6H180.694L183.484 388.39V410.8H185.884ZM176.584 408.7V397.48L174.304 395.2H171.904V410.8H174.484L176.584 408.7ZM190.466 412H202.136L204.926 409.21L203.996 408.28L201.476 410.8H194.576V404.5H201.986L204.776 401.71V396.79L201.986 394H190.466L187.676 396.79V409.21L190.466 412ZM194.576 395.2H197.876V403.3H194.576V395.2ZM201.81 413.68L204.33 416.2H209.13V389.2H206.73V388H218.13V389.2H216.03V414.61L213.24 417.4H203.67L200.88 414.61L201.81 413.68ZM220.225 404.8H221.575V408.04L224.335 410.8H233.995L220.525 394.93V390.79L223.315 388H235.105L237.205 390.1V387.7H238.555V395.2H237.205V391.96L234.445 389.2H225.685L239.155 405.07V409.21L236.365 412H223.675L221.575 409.9V412.3H220.225V404.8ZM147.261 444.09L150.351 441H162.201L164.301 443.1V440.7H165.651V448.8H164.301V444.96L161.541 442.2H154.161V463.8H162.231L164.931 461.1L165.861 462.03L162.891 465H150.351L147.261 461.91V444.09ZM168.853 457.8H170.203V461.04L172.963 463.8H182.623L169.153 447.93V443.79L171.943 441H183.733L185.833 443.1V440.7H187.183V448.2H185.833V444.96L183.073 442.2H174.313L187.783 458.07V462.21L184.993 465H172.303L170.203 462.9V465.3H168.853V457.8ZM190.796 457.8H192.146V461.04L194.906 463.8H204.566L191.096 447.93V443.79L193.886 441H205.676L207.776 443.1V440.7H209.126V448.2H207.776V444.96L205.016 442.2H196.256L209.726 458.07V462.21L206.936 465H194.246L192.146 462.9V465.3H190.796V457.8ZM141.919 494H130.519V495.2H132.619V505.1H125.719V495.2H127.819V494H116.419V495.2H118.819V516.8H116.419V518H127.819V516.8H125.719V506.3H132.619V516.8H130.519V518H141.919V516.8H139.519V495.2H141.919V494ZM145.359 500.9V495.2H150.759V516.8H148.359V518H160.059V516.8H157.659V495.2H163.059V500.9H164.409V494H144.009V500.9H145.359ZM196.937 495.2V516.8H199.037V518H187.037V516.8H190.037V495.38L184.127 518H177.077L170.567 495.26V516.8H173.567V518H166.817V516.8H169.217V495.2H166.817V494H177.257L183.407 515.48L189.017 494H199.037V495.2H196.937ZM218.981 516.8H209.831V495.2H212.231V494H200.531V495.2H202.931V516.8H200.531V518H220.331V511.1H218.981V516.8ZM224.319 518H237.189L239.979 515.21V507.29L237.489 504.5H229.329V495.8H239.379V494.6H222.429V503.81L224.319 505.7H233.079V516.8H229.329V511.4H222.429V516.11L224.319 518ZM154.65 550.09L157.74 547H169.89L171.99 549.1V546.7H173.34V554.2H171.99V550.96L169.23 548.2H161.55V569.8H165.3L167.55 567.55V559.9H165.15V558.7H176.4V559.9H174.3V571H170.49L168.24 568.72L165.96 571H157.74L154.65 567.91V550.09ZM183.359 550.6L178.799 546.01L183.389 541.45L187.949 546.04L183.359 550.6ZM189.599 569.8V571H183.089L180.299 568.21V554.2H177.899V553H184.409L187.199 555.79V569.8H189.599ZM204.139 568.21L201.349 571H195.379L192.589 568.21V549.1H190.489V547.9H196.549L199.039 550.39V554.8H203.239V556H199.039V569.8H200.689L203.209 567.28L204.139 568.21ZM134.74 624V622.8H132.34V612.9H139.48V611.7H132.34V601.2H140.68V606.9H142.03V600H123.04V601.2H125.44V622.8H123.04V624H134.74ZM148.686 603.6L144.126 599.01L148.716 594.45L153.276 599.04L148.686 603.6ZM154.926 622.8V624H148.416L145.626 621.21V607.2H143.226V606H149.736L152.526 608.79V622.8H154.926ZM175.617 606V628.71L172.827 631.5H159.507L157.017 629.01V625.5H163.767V630.3H168.717V620.76L167.277 622.2H159.957L157.167 619.41V608.79L159.957 606H167.277L169.407 608.1L171.507 606H175.617ZM168.717 618.9V609.3L166.617 607.2H163.917V621H166.617L168.717 618.9ZM211.758 622.8V624H205.098L202.608 621.51V607.2H200.508L198.408 609.3V622.8H200.208V624H191.508V607.2H189.408L187.308 609.3V622.8H189.108V624H178.008V622.8H180.408V607.2H178.008V606H184.518L186.648 608.1L188.748 606H195.618L197.748 608.1L199.848 606H206.568L209.358 608.79V622.8H211.758ZM216.936 624H223.506L225.336 622.17L227.136 624H233.946V622.8H231.546V608.49L229.056 606H217.686L215.196 608.49V612H221.496V607.2H224.646V614.4H216.936L214.446 616.89V621.51L216.936 624ZM221.496 615.6H224.646V621L222.846 622.8H221.496V615.6ZM86.8685 655.79V663.71L83.7785 666.8H74.7785V675.8H77.1785V677H65.4785V675.8H67.8785V654.2H65.4785V653H84.0785L86.8685 655.79ZM74.7785 665.6H79.9685V654.2H74.7785V665.6ZM107.103 662.09V673.91L104.013 677H92.9728L89.8828 673.91V662.09L92.9728 659H104.013L107.103 662.09ZM97.0828 660.2V675.8H99.9028V660.2H97.0828ZM111.748 677.3V674.96L113.788 677H123.238L125.728 674.51V670.88L115.648 660.2H121.378L124.078 662.9V665.15H125.428V658.7H124.078V661.04L122.038 659H113.188L110.698 661.49V665.12L120.778 675.8H114.448L111.748 673.1V670.85H110.398V677.3H111.748ZM141.766 674.21L138.976 677H133.006L130.216 674.21V655.1H128.116V653.9H134.176L136.666 656.39V660.8H140.866V662H136.666V675.8H138.316L140.836 673.28L141.766 674.21ZM162.477 659V681.71L159.687 684.5H146.367L143.877 682.01V678.5H150.627V683.3H155.577V673.76L154.137 675.2H146.817L144.027 672.41V661.79L146.817 659H154.137L156.267 661.1L158.367 659H162.477ZM155.577 671.9V662.3L153.477 660.2H150.777V674H153.477L155.577 671.9ZM181.369 661.19L180.439 662.12L178.519 660.2H175.969L173.869 662.3V675.8H176.269V677H169.759L166.969 674.21V660.2H164.569V659H171.079L173.209 661.1L175.309 659H179.179L181.369 661.19ZM185.661 677H197.331L200.121 674.21L199.191 673.28L196.671 675.8H189.771V669.5H197.181L199.971 666.71V661.79L197.181 659H185.661L182.871 661.79V674.21L185.661 677ZM189.771 660.2H193.071V668.3H189.771V660.2ZM204.326 677.3V674.96L206.366 677H215.816L218.306 674.51V670.88L208.226 660.2H213.956L216.656 662.9V665.15H218.006V658.7H216.656V661.04L214.616 659H205.766L203.276 661.49V665.12L213.356 675.8H207.026L204.326 673.1V670.85H202.976V677.3H204.326ZM229.688 669.8H231.038V673.04L233.798 675.8H243.458L229.988 659.93V655.79L232.778 653H244.568L246.668 655.1V652.7H248.018V660.2H246.668V656.96L243.908 654.2H235.148L248.618 670.07V674.21L245.827 677H233.138L231.038 674.9V677.3H229.688V669.8ZM254.721 677H257.181V681.08L259.971 683.87L267.681 683.9V682.7H264.681V677.03H267.141L270.231 673.94V656.12L267.141 653.03L254.721 653L251.631 656.09V673.91L254.721 677ZM263.331 654.23V675.83L258.531 675.8V654.2L263.331 654.23ZM290.773 675.8H281.623V654.2H284.023V653H272.323V654.2H274.723V675.8H272.323V677H292.123V670.1H290.773V675.8Z" fill="#343D24"/>
<defs>
<filter id="filter0_d" x="29" y="0" width="307" height="831" filterUnits="userSpaceOnUse" color-interpolation-filters="sRGB">
<feFlood flood-opacity="0" result="BackgroundImageFix"/>
<feColorMatrix in="SourceAlpha" type="matrix" values="0 0 0 0 0 0 0 0 0 0 0 0 0 0 0 0 0 0 127 0"/>
<feOffset dx="4" dy="4"/>
<feGaussianBlur stdDeviation="1.5"/>
<feColorMatrix type="matrix" values="0 0 0 0 0 0 0 0 0 0 0 0 0 0 0 0 0 0 0.5 0"/>
<feBlend mode="normal" in2="BackgroundImageFix" result="effect1_dropShadow"/>
<feBlend mode="normal" in="SourceGraphic" in2="effect1_dropShadow" result="shape"/>
</filter>
</defs>
</svg>
